G04 ================== begin FILE IDENTIFICATION RECORD ==================*
G04 Layout Name:  FishTank-Manage.brd*
G04 Film Name:    01_TOP*
G04 File Format:  Gerber RS274X*
G04 File Origin:  Cadence Allegro 17.4-S032*
G04 Origin Date:  Mon Jul 31 00:13:20 2023*
G04 *
G04 Layer:  BOARD GEOMETRY/OUTLINE*
G04 Layer:  ETCH/TOP*
G04 Layer:  PIN/TOP*
G04 Layer:  VIA CLASS/TOP*
G04 *
G04 Offset:    (0.0000 0.0000)*
G04 Mirror:    No*
G04 Mode:      Positive*
G04 Rotation:  0*
G04 FullContactRelief:  No*
G04 UndefLineWidth:     0.0000*
G04 ================== end FILE IDENTIFICATION RECORD ====================*
%FSLAX25Y25*MOIN*%
%IR0*IPPOS*OFA0.00000B0.00000*MIA0B0*SFA1.00000B1.00000*%
%ADD20R,.037402X.03937*%
%ADD18R,.055118X.033465*%
%ADD11C,.024*%
%ADD13C,.043307*%
%ADD16C,.051181*%
%ADD10C,.15748*%
%ADD19C,.055118*%
%ADD15C,.05315*%
%ADD12R,.043307X.043307*%
%ADD17R,.037402X.035433*%
%ADD21R,.035433X.037402*%
%ADD14R,.05315X.05315*%
%ADD22C,.000039*%
%ADD23C,.01*%
%ADD24C,.034016*%
%ADD25C,.063165*%
%ADD28C,.053323*%
%ADD26C,.061197*%
%ADD27C,.065134*%
G75*
%LPD*%
G75*
G36*
G01X9542Y236000D02*
X147939D01*
G02X157480Y224409I-2269J-11591D01*
G01Y11811D01*
G02X145669Y0I-11811J0D01*
G01X11811D01*
G02X0Y11811I0J11811D01*
G01Y224409D01*
G02X9542Y236000I11811J0D01*
G37*
%LPC*%
G75*
G36*
G01X87289Y193955D02*
G02X86299Y195500I711J1545D01*
G02X89701I1701J0D01*
G02X89103Y194205I-1701J0D01*
G03X89362Y193501I260J-304D01*
G01X121000D01*
G02X121707Y193207I0J-1001D01*
G01X135733Y179182D01*
X135828Y179192D01*
G02X136000Y179201I171J-1692D01*
G02X134299Y177500I0J-1701D01*
G02X134308Y177672I1701J1D01*
G01X134318Y177767D01*
X120585Y191499D01*
X120382D01*
G03X120099Y190817I0J-400D01*
G01X131707Y179207D01*
G02X132001Y178500I-707J-708D01*
G01Y145875D01*
G02X132701Y144500I-1001J-1375D01*
G02X129299I-1701J0D01*
G02X129999Y145875I1701J0D01*
G01Y178085D01*
X127688Y180397D01*
G03X127011Y180043I-283J-283D01*
G02X127060Y179500I-3012J-542D01*
G02X124000Y182560I-3060J0D01*
G02X124543Y182511I1J-3060D01*
G03X124897Y183188I71J394D01*
G01X118085Y189999D01*
X104283D01*
G03X104020Y189299I0J-400D01*
G02X105060Y187000I-2020J-2299D01*
G02X103001Y184108I-3060J0D01*
G01Y181378D01*
G02X102707Y180670I-1001J0D01*
G01X101963Y179926D01*
G02X101256Y179633I-708J707D01*
G01X100757D01*
Y178961D01*
G02X100256Y178460I-501J0D01*
G01X95659D01*
X92491Y175293D01*
G02X91783Y174999I-708J707D01*
G01X87375D01*
G02X87274Y174873I-1375J1001D01*
G03X87423Y174540I150J-133D01*
G01X91256D01*
G02X91757Y174039I0J-501D01*
G01Y170693D01*
G02X91256Y170192I-501J0D01*
G01X89501D01*
Y167422D01*
X90370D01*
G02X90871Y166921I0J-501D01*
G01Y163378D01*
G02X90370Y162877I-501J0D01*
G01X86630D01*
G02X86129Y163378I0J501D01*
G01Y166921D01*
G02X86630Y167422I501J0D01*
G01X87499D01*
Y170192D01*
X85744D01*
G02X85243Y170693I0J501D01*
G01Y174477D01*
G02X84299Y176000I757J1523D01*
G02X84370Y176486I1701J0D01*
G03X83987Y177001I-383J115D01*
G01X77513D01*
G03X77130Y176486I0J-400D01*
G02X77201Y176000I-1630J-486D01*
G02X76969Y175142I-1700J0D01*
G03X77314Y174540I345J-202D01*
G01X82256D01*
G02X82757Y174039I0J-501D01*
G01Y170693D01*
G02X82256Y170192I-501J0D01*
G01X80501D01*
Y167422D01*
X81370D01*
G02X81871Y166921I0J-501D01*
G01Y163378D01*
G02X81370Y162877I-501J0D01*
G01X77630D01*
G02X77129Y163378I0J501D01*
G01Y166921D01*
G02X77630Y167422I501J0D01*
G01X78499D01*
Y170192D01*
X76744D01*
G02X76243Y170693I0J501D01*
G01Y173928D01*
G03X75778Y174322I-400J0D01*
G02X75500Y174299I-278J1678D01*
G02X73852Y175582I0J1701D01*
G03X73189Y175774I-388J-98D01*
G02X72500Y175499I-689J727D01*
G01X67415D01*
X67001Y175085D01*
Y174872D01*
G03X67553Y174502I400J0D01*
G02X67744Y174540I191J-463D01*
G01X73256D01*
G02X73757Y174039I0J-501D01*
G01Y170693D01*
G02X73256Y170192I-501J0D01*
G01X71501D01*
Y167422D01*
X72370D01*
G02X72871Y166921I0J-501D01*
G01Y163378D01*
G02X72370Y162877I-501J0D01*
G01X68630D01*
G02X68129Y163378I0J501D01*
G01Y166921D01*
G02X68630Y167422I501J0D01*
G01X69499D01*
Y170192D01*
X67744D01*
G02X67553Y170230I0J501D01*
G03X67001Y169860I-152J-370D01*
G01Y158000D01*
G02X66707Y157293I-1001J0D01*
G01X65234Y155819D01*
G03X65419Y155148I283J-283D01*
G02X66701Y153500I-418J-1648D01*
G02X65000Y151799I-1701J0D01*
G02X64110Y152051I0J1701D01*
G03X63501Y151710I-209J-341D01*
G01Y151290D01*
G03X64110Y150949I400J0D01*
G02X65000Y151201I890J-1449D01*
G02Y147799I0J-1701D01*
G02X64110Y148051I0J1701D01*
G03X63501Y147710I-209J-341D01*
G01Y147290D01*
G03X64110Y146949I400J0D01*
G02X65000Y147201I890J-1449D01*
G02Y143799I0J-1701D01*
G02X64110Y144051I0J1701D01*
G03X63501Y143710I-209J-341D01*
G01Y143290D01*
G03X64110Y142949I400J0D01*
G02X65000Y143201I890J-1449D01*
G02Y139799I0J-1701D01*
G02X64110Y140051I0J1701D01*
G03X63501Y139710I-209J-341D01*
G01Y139290D01*
G03X64110Y138949I400J0D01*
G02X65000Y139201I890J-1449D01*
G02Y135799I0J-1701D01*
G02X64110Y136051I0J1701D01*
G03X63501Y135710I-209J-341D01*
G01Y135290D01*
G03X64110Y134949I400J0D01*
G02X65000Y135201I890J-1449D01*
G02Y131799I0J-1701D01*
G02X64110Y132051I0J1701D01*
G03X63501Y131710I-209J-341D01*
G01Y130790D01*
G03X64110Y130449I400J0D01*
G02X65000Y130701I890J-1449D01*
G02Y127299I0J-1701D01*
G02X64110Y127551I0J1701D01*
G03X63501Y127210I-209J-341D01*
G01Y126290D01*
G03X64110Y125949I400J0D01*
G02X65000Y126201I890J-1449D01*
G02Y122799I0J-1701D01*
G02X64110Y123051I0J1701D01*
G03X63501Y122710I-209J-341D01*
G01Y119190D01*
X67690Y115001D01*
X67932D01*
G02X71031Y117257I3099J-1001D01*
G02X74288Y114000I0J-3257D01*
G02X73811Y112304I-3257J0D01*
G03X74124Y111696I341J-208D01*
G02X75701Y110000I-124J-1696D01*
G02X75191Y108785I-1701J0D01*
G03Y108215I280J-285D01*
G02X75701Y107000I-1191J-1214D01*
G02X72299I-1701J0D01*
G02X72809Y108215I1701J0D01*
G03Y108785I-280J285D01*
G02X72299Y110000I1191J1214D01*
G02X72341Y110373I1701J0D01*
G03X71850Y110848I-390J88D01*
G02X71031Y110743I-818J3152D01*
G02X70154Y110864I0J3257D01*
G03X69656Y110388I-108J-385D01*
G02X69701Y110000I-1656J-388D01*
G02X68941Y108583I-1701J0D01*
G03Y107917I221J-333D01*
G02Y105083I-941J-1417D01*
G03Y104417I221J-333D01*
G02X69701Y103000I-941J-1417D01*
G02X66299I-1701J0D01*
G02X67059Y104417I1701J0D01*
G03Y105083I-221J333D01*
G02Y107917I941J1417D01*
G03Y108583I-221J333D01*
G02X66299Y110000I941J1417D01*
G02X67926Y111699I1701J0D01*
G03X68250Y112307I-18J400D01*
G02X67932Y112999I2782J1694D01*
G01X67276D01*
G02X66568Y113293I0J1001D01*
G01X61793Y118068D01*
G02X61499Y118776I707J708D01*
G01Y125638D01*
G03X60795Y125897I-400J0D01*
G02X59500Y125299I-1295J1103D01*
G02Y128701I0J1701D01*
G02X60795Y128103I0J-1701D01*
G03X61499Y128362I304J260D01*
G01Y154500D01*
G02X61793Y155207I1001J0D01*
G01X64999Y158415D01*
Y169860D01*
G03X64447Y170230I-400J0D01*
G02X64256Y170192I-191J463D01*
G01X62501D01*
Y167422D01*
X63370D01*
G02X63871Y166921I0J-501D01*
G01Y163378D01*
G02X63370Y162877I-501J0D01*
G01X59630D01*
G02X59129Y163378I0J501D01*
G01Y166921D01*
G02X59630Y167422I501J0D01*
G01X60499D01*
Y170192D01*
X58744D01*
G02X58243Y170693I0J501D01*
G01Y174039D01*
G02X58744Y174540I501J0D01*
G01X64256D01*
G02X64447Y174502I0J-501D01*
G03X64999Y174872I152J370D01*
G01Y175500D01*
G02X65293Y176207I1001J0D01*
G01X66293Y177207D01*
G02X67000Y177501I708J-707D01*
G01X72085D01*
X72362Y177777D01*
G03X72079Y178460I-283J283D01*
G01X67744D01*
G02X67243Y178961I0J501D01*
G01Y181393D01*
X62137Y186499D01*
X28915D01*
X20701Y178285D01*
Y105715D01*
X23233Y103182D01*
X23328Y103192D01*
G02X23500Y103201I171J-1692D01*
G02X21799Y101500I0J-1701D01*
G02X21808Y101672I1701J1D01*
G01X21818Y101767D01*
X18993Y104593D01*
G02X18699Y105300I707J708D01*
G01Y178700D01*
G02X18993Y179407I1001J0D01*
G01X27793Y188207D01*
G02X28500Y188501I708J-707D01*
G01X62551D01*
G02X63259Y188207I0J-1001D01*
G01X68659Y182808D01*
X72341D01*
X77241Y187707D01*
G02X77949Y188001I708J-707D01*
G01X79608D01*
G02X82500Y190060I2892J-1001D01*
G02X83837Y189752I0J-3060D01*
G01X87293Y193207D01*
G02X87373Y193280I709J-706D01*
G03X87289Y193955I-251J312D01*
G37*
G36*
G01X43543Y179489D02*
G02X43000Y179440I-542J3012D01*
G02X46060Y182500I0J3060D01*
G02X45797Y181259I-3060J0D01*
G01X45741Y181133D01*
X45980Y180895D01*
X46426Y181341D01*
G02X47134Y181635I708J-707D01*
G01X58243D01*
Y182307D01*
G02X58744Y182808I501J0D01*
G01X64256D01*
G02X64757Y182307I0J-501D01*
G01Y178961D01*
G02X64256Y178460I-501J0D01*
G01X58744D01*
G02X58243Y178961I0J501D01*
G01Y179633D01*
X47548D01*
X41501Y173585D01*
Y129750D01*
G03X42143Y129432I400J0D01*
G02X44000Y130060I1857J-2433D01*
G02Y123940I0J-3060D01*
G02X42091Y124609I0J3060D01*
G03X41442Y124296I-250J-313D01*
G01Y119704D01*
G03X42091Y119391I400J0D01*
G02X44000Y120060I1909J-2391D01*
G02Y113940I0J-3060D01*
G02X42143Y114568I0J3060D01*
G03X41501Y114250I-243J-318D01*
G01Y110915D01*
X42661Y109755D01*
X42785Y109809D01*
G02X44000Y110060I1214J-2809D01*
G02X40940Y107000I0J-3060D01*
G02X41191Y108215I3060J0D01*
G01X41245Y108339D01*
X39793Y109793D01*
G02X39499Y110500I707J708D01*
G01Y115185D01*
X39489Y115215D01*
G02X39440Y115525I952J310D01*
G01Y128475D01*
G02X39489Y128785I1001J0D01*
G01X39499Y128815D01*
Y174000D01*
G02X39793Y174707I1001J0D01*
G01X43897Y178812D01*
G03X43543Y179489I-283J283D01*
G37*
G36*
G01X10718Y165224D02*
G02X9000Y164716I-1718J2651D01*
G02X12158Y167874I0J3158D01*
G02X11902Y166628I-3158J0D01*
G03X12409Y166094I367J-158D01*
G02X13000Y166201I592J-1594D01*
G02Y162799I0J-1701D01*
G02X12643Y162837I1J1701D01*
G03X12158Y162446I-84J-391D01*
G01Y157343D01*
G02X11657Y156842I-501J0D01*
G01X6343D01*
G02X5842Y157343I0J501D01*
G01Y162657D01*
G02X6343Y163158I501J0D01*
G01X11122D01*
G03X11480Y163737I0J400D01*
G02X11299Y164500I1521J762D01*
G02X11328Y164814I1701J1D01*
G03X10718Y165224I-393J74D01*
G37*
G36*
G01X63059Y96583D02*
G02X62299Y98000I941J1417D01*
G02X65701I1701J0D01*
G02X64941Y96583I-1701J0D01*
G03Y95917I221J-333D01*
G02Y93083I-941J-1417D01*
G03Y92417I221J-333D01*
G02X65701Y91000I-941J-1417D01*
G02X62299I-1701J0D01*
G02X63059Y92417I1701J0D01*
G03Y93083I-221J333D01*
G02Y95917I941J1417D01*
G03Y96583I-221J333D01*
G37*
G36*
G01X135272Y53204D02*
G02X132500Y51440I-2772J1296D01*
G02Y57560I0J3060D01*
G02X135474Y55221I0J-3060D01*
G03X136174Y55065I389J95D01*
G02X137500Y55701I1326J-1066D01*
G02Y52299I0J-1701D01*
G02X135989Y53219I0J1701D01*
G03X135272Y53204I-355J-184D01*
G37*
G36*
G01X100059Y36083D02*
G02X99299Y37500I941J1417D01*
G02X102701I1701J0D01*
G02X101941Y36083I-1701J0D01*
G03Y35417I221J-333D01*
G02X102701Y34000I-941J-1417D01*
G02X99299I-1701J0D01*
G02X100059Y35417I1701J0D01*
G03Y36083I-221J333D01*
G37*
G36*
G01X124559Y35083D02*
G02X123799Y36500I941J1417D01*
G02X127201I1701J0D01*
G02X126441Y35083I-1701J0D01*
G03Y34417I221J-333D01*
G02X127201Y33000I-941J-1417D01*
G02X123799I-1701J0D01*
G02X124559Y34417I1701J0D01*
G03Y35083I-221J333D01*
G37*
G36*
G01X120559D02*
G02X119799Y36500I941J1417D01*
G02X123201I1701J0D01*
G02X122441Y35083I-1701J0D01*
G03Y34417I221J-333D01*
G02X123201Y33000I-941J-1417D01*
G02X119799I-1701J0D01*
G02X120559Y34417I1701J0D01*
G03Y35083I-221J333D01*
G37*
G36*
G01X70559Y32083D02*
G02X69799Y33500I941J1417D01*
G02X73201I1701J0D01*
G02X72441Y32083I-1701J0D01*
G03Y31417I221J-333D01*
G02X73201Y30000I-941J-1417D01*
G02X69799I-1701J0D01*
G02X70559Y31417I1701J0D01*
G03Y32083I-221J333D01*
G37*
G36*
G01X100059Y28583D02*
G02X99299Y30000I941J1417D01*
G02X102701I1701J0D01*
G02X101941Y28583I-1701J0D01*
G03Y27917I221J-333D01*
G02X102701Y26500I-941J-1417D01*
G02X99299I-1701J0D01*
G02X100059Y27917I1701J0D01*
G03Y28583I-221J333D01*
G37*
G36*
G01X129059Y27583D02*
G02X128299Y29000I941J1417D01*
G02X131701I1701J0D01*
G02X130941Y27583I-1701J0D01*
G03Y26917I221J-333D01*
G02X131417Y26441I-941J-1417D01*
G03X132083I333J221D01*
G02X134917I1417J-941D01*
G03X135583I333J221D01*
G02X137000Y27201I1417J-941D01*
G02Y23799I0J-1701D01*
G02X135583Y24559I0J1701D01*
G03X134917I-333J-221D01*
G02X134441Y24083I-1417J941D01*
G03Y23417I221J-333D01*
G02X135201Y22000I-941J-1417D01*
G02X133500Y20299I-1701J0D01*
G02X132083Y21059I0J1701D01*
G03X131417I-333J-221D01*
G02X130000Y20299I-1417J941D01*
G02X128299Y22000I0J1701D01*
G02X129059Y23417I1701J0D01*
G03Y24083I-221J333D01*
G02Y26917I941J1417D01*
G03Y27583I-221J333D01*
G37*
G36*
G01X94243Y170693D02*
Y174039D01*
G02X94744Y174540I501J0D01*
G01X100256D01*
G02X100757Y174039I0J-501D01*
G01Y170693D01*
G02X100256Y170192I-501J0D01*
G01X98501D01*
Y167922D01*
X99370D01*
G02X99871Y167421I0J-501D01*
G01Y163878D01*
G02X99370Y163377I-501J0D01*
G01X95630D01*
G02X95129Y163878I0J501D01*
G01Y167421D01*
G02X95630Y167922I501J0D01*
G01X96499D01*
Y170192D01*
X94744D01*
G02X94243Y170693I0J501D01*
G37*
G36*
G01X117190Y121293D02*
X114237Y124245D01*
X114112Y124191D01*
G02X112898Y123940I-1214J2809D01*
G02X115957Y127000I0J3060D01*
G02X115650Y125663I-3060J0D01*
G01X118312Y123001D01*
X125000D01*
G02X125707Y122707I0J-1001D01*
G01X132207Y116207D01*
G02X132501Y115500I-707J-708D01*
G01Y103415D01*
X139041Y96875D01*
X141504D01*
G02X144500Y99032I2996J-1001D01*
G02Y92716I0J-3158D01*
G02X141504Y94873I0J3158D01*
G01X138626D01*
G02X137919Y95167I0J1001D01*
G01X130793Y102293D01*
G02X130499Y103000I707J708D01*
G01Y115085D01*
X124585Y120999D01*
X117898D01*
G02X117190Y121293I0J1001D01*
G37*
G36*
G01X81055Y118530D02*
X80767Y118818D01*
X80672Y118808D01*
G02X80500Y118799I-171J1692D01*
G02X82201Y120500I0J1701D01*
G02X82192Y120328I-1701J-1D01*
G01X82182Y120233D01*
X82763Y119652D01*
G02X83057Y118944I-707J-708D01*
G01Y114859D01*
X89058Y108857D01*
G02X89351Y108150I-707J-708D01*
G01Y95871D01*
X90122D01*
G02X90623Y95370I0J-501D01*
G01Y91630D01*
G02X90122Y91129I-501J0D01*
G01X86579D01*
G02X86078Y91630I0J501D01*
G01Y95370D01*
G02X86579Y95871I501J0D01*
G01X87350D01*
Y107735D01*
X81348Y113737D01*
G02X81055Y114444I707J708D01*
G01Y118530D01*
G37*
G36*
G01X81499Y80000D02*
Y86625D01*
G02X80799Y88000I1001J1375D01*
G02X84201I1701J0D01*
G02X83501Y86625I-1701J0D01*
G01Y80415D01*
X83915Y80001D01*
X86078D01*
Y80870D01*
G02X86579Y81371I501J0D01*
G01X90122D01*
G02X90623Y80870I0J-501D01*
G01Y77130D01*
G02X90122Y76629I-501J0D01*
G01X86579D01*
G02X86078Y77130I0J501D01*
G01Y77999D01*
X83500D01*
G02X82793Y78293I0J1001D01*
G01X81793Y79293D01*
G02X81499Y80000I707J708D01*
G37*
G36*
G01X82793Y228001D02*
X129707D01*
X151001Y206707D01*
Y188793D01*
X148207Y185999D01*
X140793D01*
X137999Y188793D01*
Y199793D01*
X122293Y215499D01*
X82793D01*
X79999Y218293D01*
Y225207D01*
X82793Y228001D01*
G37*
G36*
G01X6334Y28835D02*
Y33165D01*
G02X6835Y33666I501J0D01*
G01X11165D01*
G02X11666Y33165I0J-501D01*
G01Y28835D01*
G02X11165Y28334I-501J0D01*
G01X6835D01*
G02X6334Y28835I0J501D01*
G37*
G36*
G01X141334Y33335D02*
Y37665D01*
G02X141835Y38166I501J0D01*
G01X146165D01*
G02X146666Y37665I0J-501D01*
G01Y33335D01*
G02X146165Y32834I-501J0D01*
G01X141835D01*
G02X141334Y33335I0J501D01*
G37*
G36*
G01X5842Y85843D02*
Y91157D01*
G02X6343Y91658I501J0D01*
G01X11657D01*
G02X12158Y91157I0J-501D01*
G01Y85843D01*
G02X11657Y85342I-501J0D01*
G01X6343D01*
G02X5842Y85843I0J501D01*
G37*
G36*
G01X141342Y85343D02*
Y90657D01*
G02X141843Y91158I501J0D01*
G01X147157D01*
G02X147658Y90657I0J-501D01*
G01Y85343D01*
G02X147157Y84842I-501J0D01*
G01X141843D01*
G02X141342Y85343I0J501D01*
G37*
G36*
G01Y155843D02*
Y161157D01*
G02X141843Y161658I501J0D01*
G01X147157D01*
G02X147658Y161157I0J-501D01*
G01Y155843D01*
G02X147157Y155342I-501J0D01*
G01X141843D01*
G02X141342Y155843I0J501D01*
G37*
G36*
G01X110143Y115661D02*
X110089Y115785D01*
G02X109838Y117000I2809J1214D01*
G02X112898Y113940I3060J0D01*
G02X111683Y114191I0J3060D01*
G01X111558Y114245D01*
X95650Y98337D01*
Y95871D01*
X96421D01*
G02X96922Y95370I0J-501D01*
G01Y93406D01*
G03X97605Y93122I400J0D01*
G01X110143Y105661D01*
X110089Y105785D01*
G02X109838Y107000I2809J1214D01*
G02X112898Y103940I3060J0D01*
G02X111683Y104191I0J3060D01*
G01X111558Y104245D01*
X99001Y91688D01*
Y80000D01*
G02X98707Y79293I-1001J0D01*
G01X97707Y78293D01*
G02X97102Y78004I-708J707D01*
G01X96922Y77986D01*
Y76772D01*
X96950Y76724D01*
G02X97020Y76469I-430J-256D01*
G01Y72531D01*
G02X96950Y72276I-501J0D01*
G01X96922Y72228D01*
Y68130D01*
G02X96779Y67780I-501J0D01*
G03Y67220I286J-280D01*
G02X96922Y66870I-358J-350D01*
G01Y66399D01*
G03X97263Y66257I200J0D01*
G01X98999Y67993D01*
Y78000D01*
G02X99293Y78707I1001J0D01*
G01X107999Y87414D01*
Y93102D01*
G02X108293Y93810I1001J0D01*
G01X110145Y95663D01*
G02X109838Y97000I2752J1337D01*
G02X112898Y93940I3060J0D01*
G02X111561Y94248I0J3060D01*
G01X110001Y92688D01*
Y89395D01*
G03X110689Y89118I400J0D01*
G02X112898Y90060I2208J-2118D01*
G02Y83940I0J-3060D01*
G02X111561Y84248I0J3060D01*
G01X107001Y79688D01*
Y73484D01*
G03X107683Y73201I400J0D01*
G01X110143Y75661D01*
X110089Y75785D01*
G02X109838Y77000I2809J1214D01*
G02X112898Y73940I3060J0D01*
G02X111561Y74248I0J3060D01*
G01X108501Y71188D01*
Y64984D01*
G03X109183Y64701I400J0D01*
G01X110143Y65661D01*
X110089Y65785D01*
G02X109838Y67000I2809J1214D01*
G02X112898Y63940I3060J0D01*
G02X111561Y64248I0J3060D01*
G01X110001Y62688D01*
Y59395D01*
G03X110689Y59118I400J0D01*
G02X112898Y60060I2208J-2118D01*
G02Y53940I0J-3060D01*
G02X111561Y54248I0J3060D01*
G01X101151Y43838D01*
G03X101352Y43164I283J-283D01*
G02X102701Y41500I-352J-1664D01*
G02X101000Y39799I-1701J0D01*
G02X99336Y41148I0J1701D01*
G03X98662Y41349I-391J-83D01*
G01X94123Y36810D01*
Y14971D01*
G02X95788Y12500I-1001J-2471D01*
G02X90456I-2666J0D01*
G02X92121Y14971I2666J0D01*
G01Y36240D01*
G03X91439Y36523I-400J0D01*
G01X86249Y31333D01*
Y14971D01*
G02X87914Y12500I-1001J-2471D01*
G02X82582I-2666J0D01*
G02X84247Y14971I2666J0D01*
G01Y30866D01*
G03X83565Y31149I-400J0D01*
G01X78375Y25959D01*
Y14971D01*
G02X80040Y12500I-1001J-2471D01*
G02X74708I-2666J0D01*
G02X76373Y14971I2666J0D01*
G01Y25492D01*
G03X75691Y25775I-400J0D01*
G01X70501Y20585D01*
Y15166D01*
X71665D01*
G02X72166Y14665I0J-501D01*
G01Y10335D01*
G02X71665Y9834I-501J0D01*
G01X67335D01*
G02X66834Y10335I0J501D01*
G01Y14665D01*
G02X67335Y15166I501J0D01*
G01X68499D01*
Y21000D01*
G02X68793Y21707I1001J0D01*
G01X104999Y57915D01*
Y80102D01*
G02X105293Y80810I1001J0D01*
G01X110070Y85588D01*
G03X109406Y85990I-382J119D01*
G01X101001Y77585D01*
Y72790D01*
G03X101610Y72449I400J0D01*
G02X102500Y72701I890J-1449D01*
G02Y69299I0J-1701D01*
G02X101610Y69551I0J1701D01*
G03X101001Y69210I-209J-341D01*
G01Y67579D01*
G02X100707Y66871I-1001J0D01*
G01X98129Y64293D01*
G02X97421Y63999I-708J707D01*
G01X96922D01*
Y62772D01*
X96950Y62724D01*
G02X97020Y62469I-430J-256D01*
G01Y58531D01*
G02X96950Y58276I-501J0D01*
G01X96922Y58228D01*
Y54130D01*
G02X96421Y53629I-501J0D01*
G01X92878D01*
G02X92377Y54130I0J501D01*
G01Y58228D01*
X92349Y58276D01*
G02X92279Y58531I430J256D01*
G01Y62469D01*
G02X92349Y62724I501J0D01*
G01X92377Y62772D01*
Y66870D01*
G02X92520Y67220I501J0D01*
G03Y67780I-286J280D01*
G02X92377Y68130I358J350D01*
G01Y72228D01*
X92349Y72276D01*
G02X92279Y72531I430J256D01*
G01Y76469D01*
G02X92349Y76724I501J0D01*
G01X92377Y76772D01*
Y80870D01*
G02X92520Y81220I501J0D01*
G03Y81780I-286J280D01*
G02X92377Y82130I358J350D01*
G01Y86228D01*
X92349Y86276D01*
G02X92279Y86531I430J256D01*
G01Y90469D01*
G02X92426Y90824I501J0D01*
G03X92470Y91339I-282J284D01*
G02X92377Y91630I408J291D01*
G01Y95370D01*
G02X92878Y95871I501J0D01*
G01X93649D01*
Y98752D01*
G02X93942Y99459I1001J0D01*
G01X110143Y115661D01*
G37*
G36*
G01X86078Y57870D02*
G02X86579Y58371I501J0D01*
G01X90122D01*
G02X90623Y57870I0J-501D01*
G01Y54130D01*
G02X90122Y53629I-501J0D01*
G01X87493D01*
X86557Y52693D01*
Y51323D01*
G03X87156Y50976I400J0D01*
G02X88000Y51201I844J-1477D01*
G02X86299Y49500I0J-1701D01*
G02X86349Y49909I1701J-1D01*
G01X86376Y50019D01*
X86155Y50240D01*
X85682Y49767D01*
X85692Y49672D01*
G02X85701Y49500I-1692J-171D01*
G02X84000Y51201I-1701J0D01*
G02X84172Y51192I1J-1701D01*
G01X84267Y51182D01*
X84555Y51470D01*
Y53107D01*
G02X84848Y53815I1001J0D01*
G01X86078Y55044D01*
Y57870D01*
G37*
G54D24*
X88000Y211500D03*
X79000D03*
X83500D03*
X74500D03*
X70000D03*
X88000Y199500D03*
Y203500D03*
Y207500D03*
X79000Y199500D03*
Y203500D03*
Y207500D03*
X83500Y199500D03*
Y203500D03*
Y207500D03*
X70000Y199500D03*
X74500D03*
X70000Y203500D03*
X74500D03*
Y207500D03*
X70000D03*
X79000Y195500D03*
X83500D03*
X70000D03*
X74500D03*
X15000Y176500D03*
X13000Y172000D03*
X15000Y160000D03*
X87000Y153500D03*
X78000D03*
X82500D03*
X69500D03*
X74000D03*
X69500Y149500D03*
X74000D03*
X54500Y153000D03*
Y148500D03*
X74000Y145500D03*
X69500D03*
X74000Y141500D03*
X69500D03*
X74000Y137500D03*
X69500D03*
X54500Y144000D03*
Y140000D03*
X69500Y133500D03*
Y129000D03*
X54500Y135500D03*
Y131000D03*
Y127000D03*
X69500Y124500D03*
X135000Y106500D03*
X68000Y99000D03*
X74000Y98500D03*
X19051Y59500D03*
X88000Y45500D03*
X80000Y49500D03*
X84000Y45500D03*
X80000D03*
X76000D03*
X71500D03*
X97500Y36000D03*
X71500Y41500D03*
Y37500D03*
X129500Y33000D03*
X121500Y29000D03*
X125500D03*
X97500Y32000D03*
Y28000D03*
Y24000D03*
X130000Y18000D03*
G54D25*
X9000Y199370D03*
Y191496D03*
Y183622D03*
Y175748D03*
X144500Y166374D03*
X9000Y127870D03*
Y119996D03*
X144500Y111622D03*
X9000Y112122D03*
X144500Y103748D03*
X9000Y96374D03*
G54D28*
Y54622D03*
X144000Y51248D03*
X9000Y46748D03*
X144000Y43374D03*
X9000Y38874D03*
G54D26*
X133000Y131000D03*
X122898Y127000D03*
X34000D03*
X24500D03*
X122898Y117000D03*
X34000D03*
X24500D03*
X122898Y107000D03*
X34000D03*
X122898Y97000D03*
X44000D03*
X34000D03*
X122898Y87000D03*
X44000D03*
X34000D03*
X25000Y88500D03*
X144500Y75500D03*
X122898Y77000D03*
X44000D03*
X34000D03*
X122898Y67000D03*
Y57000D03*
X44000D03*
X34000D03*
X24500Y59000D03*
X132500Y42500D03*
G54D27*
X90717Y114000D03*
%LPD*%
G75*
G36*
G01X150500Y206500D02*
Y189000D01*
X148000Y186500D01*
X141000D01*
X138500Y189000D01*
Y200000D01*
X122500Y216000D01*
X83000D01*
X80500Y218500D01*
Y225000D01*
X83000Y227500D01*
X129500D01*
X150500Y206500D01*
G37*
G54D10*
X11811Y11811D03*
Y224409D03*
X145669Y11811D03*
Y224409D03*
G54D11*
X2500Y21500D03*
Y17500D03*
Y25500D03*
Y29500D03*
Y41500D03*
Y37500D03*
Y33500D03*
Y53500D03*
Y45500D03*
Y49500D03*
Y61500D03*
Y57500D03*
X9000Y61500D03*
X2500Y73500D03*
Y65500D03*
Y82000D03*
Y77500D03*
Y94000D03*
Y90000D03*
Y86000D03*
Y102000D03*
Y98000D03*
Y114500D03*
Y110000D03*
Y106000D03*
Y122500D03*
Y118500D03*
Y135000D03*
Y126500D03*
Y131000D03*
Y143500D03*
Y139500D03*
Y155500D03*
Y147500D03*
Y151500D03*
Y167500D03*
Y163500D03*
Y159500D03*
Y175500D03*
Y171500D03*
Y183500D03*
Y187500D03*
Y179500D03*
Y195500D03*
Y191500D03*
Y208000D03*
Y204000D03*
Y199500D03*
Y216000D03*
Y212000D03*
X21000Y3000D03*
X15500Y61500D03*
X19051Y59500D03*
X14000Y137000D03*
X17500D03*
X13000Y164500D03*
X15000Y160000D03*
Y176500D03*
X13000Y172000D03*
X17500Y192500D03*
X21000D03*
X19500Y233000D03*
X25000Y3000D03*
X29000D03*
X33000D03*
X28500Y42000D03*
Y36000D03*
Y47500D03*
X23500Y101500D03*
X29000Y113000D03*
Y109000D03*
X24500Y132500D03*
X28000D03*
X24500Y137000D03*
X28000D03*
X23000Y158500D03*
X26500D03*
X30000D03*
X23000Y176000D03*
X26500D03*
X30000D03*
X24500Y192500D03*
X28000D03*
X31500D03*
X23500Y233000D03*
X27500D03*
X31500D03*
X37000Y3000D03*
X41000D03*
X33500Y158500D03*
Y167000D03*
Y163000D03*
X43000Y165000D03*
X33500Y176000D03*
Y171500D03*
X43000Y168500D03*
X35000Y192500D03*
X39500Y233000D03*
X35500D03*
X45000Y3000D03*
X49000D03*
X53000D03*
Y102500D03*
Y109000D03*
X44000Y141000D03*
Y145500D03*
Y137000D03*
Y153500D03*
Y149500D03*
Y157500D03*
X43500Y161000D03*
X48500Y162000D03*
X51000Y176000D03*
X47000D03*
Y172500D03*
X51000D03*
X43500D03*
X49000Y196500D03*
Y208000D03*
Y204000D03*
Y200000D03*
X53000Y211500D03*
X49000D03*
X47500Y233000D03*
X43500D03*
X51500D03*
X57000Y3000D03*
X61000D03*
X64000Y94500D03*
Y91000D03*
Y98000D03*
X54500Y135500D03*
Y131000D03*
Y127000D03*
X59500D03*
X54500Y144000D03*
Y140000D03*
Y153000D03*
Y148500D03*
X63500Y176000D03*
X55000D03*
X59500D03*
X58000Y206000D03*
Y202000D03*
X63500Y233000D03*
X59500D03*
X55500D03*
X65000Y3000D03*
X69000D03*
X73000D03*
X71500Y30000D03*
Y41500D03*
Y37500D03*
Y33500D03*
Y45500D03*
X74500Y65000D03*
X72000Y80000D03*
X73500Y76500D03*
X72000Y86000D03*
X68000Y103000D03*
Y99000D03*
X74000Y98500D03*
X68000Y110000D03*
Y106500D03*
X74000Y110000D03*
Y107000D03*
X65000Y124500D03*
X69500D03*
X65000Y133500D03*
Y129000D03*
X69500Y133500D03*
Y129000D03*
X74000Y145500D03*
X69500D03*
X65000D03*
X74000Y141500D03*
X69500D03*
X65000D03*
X74000Y137500D03*
X69500D03*
X65000D03*
X74000Y149500D03*
X65000Y153500D03*
X69500D03*
X74000D03*
X65000Y149500D03*
X69500D03*
X66000Y188500D03*
X74500Y195500D03*
X70000D03*
Y207500D03*
X74500D03*
Y203500D03*
X70000D03*
X74500Y199500D03*
X70000D03*
Y211500D03*
X74500D03*
X71500Y233000D03*
X67500D03*
X77000Y3000D03*
X81000D03*
X84000Y49500D03*
X80000D03*
X84000Y45500D03*
X80000D03*
X76000D03*
X83500Y63000D03*
X84000Y59000D03*
Y56000D03*
X77500Y65000D03*
X80500D03*
X75500Y80000D03*
Y86000D03*
X79000D03*
X82500Y88000D03*
X80000Y107500D03*
X80500Y120500D03*
X78000Y153500D03*
X82500D03*
X75500Y176000D03*
X75000Y188500D03*
X79000Y195500D03*
X83500D03*
X79000Y207500D03*
Y203500D03*
Y199500D03*
X83500Y207500D03*
Y203500D03*
Y199500D03*
X79000Y211500D03*
X83500D03*
X84000Y233000D03*
X79500D03*
X75500D03*
X85500Y3000D03*
X89500D03*
X93500D03*
X88000Y49500D03*
Y45500D03*
X91500Y125500D03*
Y122500D03*
Y119500D03*
Y131500D03*
Y128500D03*
Y135000D03*
X87000Y153500D03*
X86000Y176000D03*
X88000Y195500D03*
Y207500D03*
Y203500D03*
Y199500D03*
Y211500D03*
Y218500D03*
Y226000D03*
X92000Y233000D03*
X88000D03*
X97500Y3000D03*
X101500D03*
X105500D03*
X101000Y30000D03*
Y26500D03*
X97500Y32000D03*
Y28000D03*
Y24000D03*
X101000Y41500D03*
Y37500D03*
Y34000D03*
X97500Y36000D03*
X99000Y62000D03*
X102500D03*
Y58000D03*
Y66000D03*
Y71000D03*
X96000Y218500D03*
Y226000D03*
Y233000D03*
X104000D03*
X100000D03*
X109500Y3000D03*
X113500D03*
X112500Y12000D03*
X108500Y22500D03*
Y19000D03*
Y15000D03*
X112500Y29000D03*
X108500Y26500D03*
X107500Y116500D03*
X108000Y120500D03*
Y124000D03*
X112000Y233000D03*
X108000D03*
X118000Y3000D03*
X122000D03*
X126000D03*
X121500Y33000D03*
X125500D03*
X121500Y29000D03*
X125500D03*
X121500Y36500D03*
X125500D03*
X124500Y233000D03*
X120500D03*
X116500D03*
X130000Y3000D03*
X134500D03*
X130000Y22000D03*
Y18000D03*
X133500Y22000D03*
X129500Y33000D03*
X130000Y29000D03*
Y25500D03*
X133500D03*
X129500Y60000D03*
Y64000D03*
X135000Y106500D03*
X128000Y138000D03*
X131000Y144500D03*
X136000Y153500D03*
X135000Y163000D03*
X128000Y159000D03*
X136000Y177500D03*
X127500Y190500D03*
X130500D03*
X133500D03*
X136500D03*
X128500Y233000D03*
X133000D03*
X138500Y3000D03*
X137000Y25500D03*
X137500Y54000D03*
X140000Y153500D03*
X138500Y163000D03*
X138000Y187000D03*
Y183500D03*
X140000Y194500D03*
Y200500D03*
X137000Y233000D03*
X154500Y22000D03*
Y30000D03*
Y26000D03*
Y42500D03*
Y38000D03*
Y34000D03*
Y50500D03*
Y46500D03*
Y54500D03*
Y62500D03*
Y58500D03*
Y70500D03*
Y66500D03*
Y83000D03*
Y79000D03*
Y75000D03*
Y87000D03*
Y91500D03*
Y103500D03*
Y99500D03*
Y95500D03*
Y115500D03*
Y107500D03*
Y111500D03*
Y123500D03*
Y119500D03*
Y135500D03*
Y127500D03*
Y131500D03*
Y143500D03*
Y139500D03*
Y155500D03*
Y151500D03*
Y147500D03*
Y164000D03*
Y159500D03*
Y176000D03*
Y172000D03*
Y168000D03*
Y188000D03*
Y184000D03*
Y180000D03*
Y196500D03*
Y192000D03*
Y208500D03*
Y204500D03*
Y200500D03*
Y217000D03*
Y213000D03*
G54D20*
X88350Y60500D03*
X94650D03*
X88350Y74500D03*
X94650D03*
X88350Y88500D03*
X94650D03*
G54D21*
X88350Y56000D03*
X94650D03*
Y70000D03*
X88350D03*
X94650Y65000D03*
X88350D03*
Y79000D03*
X94650D03*
Y84000D03*
X88350D03*
Y93500D03*
X94650D03*
G54D12*
X9000Y31000D03*
X69500Y12500D03*
X144000Y35500D03*
G54D22*
G01X11811Y0D02*
X145669D01*
G03X157480Y11811I0J11811D01*
G01Y224409D01*
G03X145669Y236220I-11811J0D01*
G01X11811D01*
G03X0Y224409I0J-11811D01*
G01Y11811D01*
G03X11811Y0I11811J0D01*
G54D13*
X9000Y38874D03*
Y46748D03*
Y54622D03*
X77374Y12500D03*
X93122D03*
X85248D03*
X144000Y43374D03*
Y51248D03*
Y59122D03*
G54D23*
G01X23500Y101500D02*
X19700Y105300D01*
Y178700D01*
X28500Y187500D01*
X62551D01*
X69417Y180634D01*
X70500D01*
G01X44000Y107000D02*
X40500Y110500D01*
Y115466D01*
X40441Y115525D01*
Y128475D01*
X40500Y128534D01*
Y174000D01*
X47134Y180634D01*
X61500D01*
G01X79500D02*
X78417D01*
X76037Y178253D01*
X74253D01*
X72500Y176500D01*
X67000D01*
X66000Y175500D01*
Y158000D01*
X62500Y154500D01*
Y118776D01*
X67276Y114000D01*
X71031D01*
G01X61500Y172366D02*
Y165150D01*
G01X69500Y12500D02*
Y21000D01*
X106000Y57500D01*
Y80102D01*
X112898Y87000D01*
G01X70500Y172366D02*
Y165150D01*
G01X82500Y187000D02*
X77949D01*
X71583Y180634D01*
X70500D01*
G01X77374Y12500D02*
Y26374D01*
X107500Y56500D01*
Y71602D01*
X112898Y77000D01*
G01X82500Y88000D02*
Y80000D01*
X83500Y79000D01*
X88350D01*
G01X80500Y120500D02*
X82056Y118944D01*
Y114444D01*
X88350Y108150D01*
Y93500D01*
G01X79500Y172366D02*
Y165150D01*
G01Y180634D02*
X80583D01*
X82963Y183015D01*
X85015D01*
X89000Y187000D01*
G01X136000Y177500D02*
X121000Y192500D01*
X88000D01*
X82500Y187000D01*
G01X85248Y12500D02*
Y31748D01*
X109000Y55500D01*
Y63102D01*
X112898Y67000D01*
G01X93122Y12500D02*
Y37224D01*
X112898Y57000D01*
G01X84000Y49500D02*
X85556Y51056D01*
Y53107D01*
X88350Y55902D01*
Y56000D01*
G01X88500Y172366D02*
Y165150D01*
G01X86000Y176000D02*
X91783D01*
X96417Y180634D01*
X97500D01*
G01X95500Y187000D02*
X92983Y184483D01*
Y181361D01*
X92256Y180634D01*
X88500D01*
G01X131000Y144500D02*
Y178500D01*
X118500Y191000D01*
X93000D01*
X89000Y187000D01*
G01X94650Y60500D02*
Y56000D01*
G01Y65000D02*
Y60500D01*
G01Y74500D02*
Y70000D01*
G01Y65000D02*
X97421D01*
X100000Y67579D01*
Y78000D01*
X109000Y87000D01*
Y93102D01*
X112898Y97000D01*
G01X94650Y79000D02*
Y74500D01*
G01Y79000D02*
X97000D01*
X98000Y80000D01*
Y92102D01*
X112898Y107000D01*
G01X94650Y88500D02*
Y84000D01*
G01Y93500D02*
Y88500D01*
G01X112898Y117000D02*
X94650Y98752D01*
Y93500D01*
G01X97500Y172366D02*
Y165650D01*
G01X102000Y187000D02*
Y181378D01*
X101256Y180634D01*
X97500D01*
G01X144500Y95874D02*
X138626D01*
X131500Y103000D01*
Y115500D01*
X125000Y122000D01*
X117898D01*
X112898Y127000D01*
G54D14*
X9000Y88500D03*
Y160000D03*
X100000Y222500D03*
X144500Y88000D03*
Y158500D03*
G54D15*
X9000Y104248D03*
Y96374D03*
Y112122D03*
Y119996D03*
Y127870D03*
Y167874D03*
Y175748D03*
Y183622D03*
Y191496D03*
Y199370D03*
X60630Y222500D03*
X68504D03*
X76378D03*
X84252D03*
X92126D03*
X144500Y103748D03*
Y95874D03*
Y111622D03*
Y119496D03*
Y127370D03*
Y166374D03*
Y174248D03*
Y182122D03*
Y197870D03*
Y189996D03*
G54D16*
X24500Y59000D03*
X25000Y88500D03*
X24500Y117000D03*
Y127000D03*
X34000Y57000D03*
Y67000D03*
Y77000D03*
Y87000D03*
Y97000D03*
Y107000D03*
Y117000D03*
Y127000D03*
X43000Y182500D03*
X44000Y57000D03*
Y67000D03*
Y77000D03*
Y87000D03*
Y97000D03*
Y107000D03*
Y117000D03*
Y127000D03*
X82500Y187000D03*
X95500D03*
X89000D03*
X102000D03*
X112898Y57000D03*
Y67000D03*
Y77000D03*
Y87000D03*
Y97000D03*
Y107000D03*
Y117000D03*
Y127000D03*
X122898Y57000D03*
Y67000D03*
Y77000D03*
Y87000D03*
Y97000D03*
Y107000D03*
Y117000D03*
Y127000D03*
X124000Y179500D03*
X132500Y42500D03*
Y54500D03*
X133000Y131000D03*
X144500Y75500D03*
G54D17*
X61500Y165150D03*
Y158850D03*
X70500Y165150D03*
Y158850D03*
X79500Y165150D03*
Y158850D03*
X88500Y165150D03*
Y158850D03*
X97500Y165650D03*
Y159350D03*
G54D18*
X61500Y172366D03*
Y180634D03*
X70500Y172366D03*
Y180634D03*
X79500Y172366D03*
Y180634D03*
X88500Y172366D03*
Y180634D03*
X97500Y172366D03*
Y180634D03*
G54D19*
X71031Y114000D03*
X90717D03*
M02*
