G04 ================== begin FILE IDENTIFICATION RECORD ==================*
G04 Layout Name:  FishTank-Manage.brd*
G04 Film Name:    03_GND*
G04 File Format:  Gerber RS274X*
G04 File Origin:  Cadence Allegro 17.4-S032*
G04 Origin Date:  Mon Jul 31 00:13:20 2023*
G04 *
G04 Layer:  BOARD GEOMETRY/OUTLINE*
G04 Layer:  VIA CLASS/GND*
G04 Layer:  PIN/GND*
G04 Layer:  ETCH/GND*
G04 *
G04 Offset:    (0.0000 0.0000)*
G04 Mirror:    No*
G04 Mode:      Positive*
G04 Rotation:  0*
G04 FullContactRelief:  No*
G04 UndefLineWidth:     0.0000*
G04 ================== end FILE IDENTIFICATION RECORD ====================*
%FSLAX25Y25*MOIN*%
%IR0*IPPOS*OFA0.00000B0.00000*MIA0B0*SFA1.00000B1.00000*%
%ADD11C,.024*%
%ADD12C,.043307*%
%ADD14C,.051181*%
%ADD10C,.15748*%
%ADD15C,.055118*%
%ADD13C,.05315*%
%ADD16C,.000039*%
%ADD18C,.034016*%
%ADD20C,.063165*%
%ADD17C,.053323*%
%ADD19C,.061197*%
%ADD21C,.065134*%
G75*
%LPD*%
G75*
G36*
G01X11811Y236220D02*
X145669D01*
G02X157480Y224409I0J-11811D01*
G01Y11811D01*
G02X145669Y0I-11811J0D01*
G01X11811D01*
G02X0Y11811I0J11811D01*
G01Y224409D01*
G02X2031Y231031I11811J0D01*
G01X5189Y234189D01*
G02X11811Y236220I6622J-9779D01*
G37*
%LPC*%
G75*
G36*
G01X129059Y27583D02*
G02X128299Y29000I941J1417D01*
G02X131701I1701J0D01*
G02X130941Y27583I-1701J0D01*
G03Y26917I221J-333D01*
G02X131417Y26441I-941J-1417D01*
G03X132083I333J221D01*
G02X134917I1417J-941D01*
G03X135583I333J221D01*
G02X137000Y27201I1417J-941D01*
G02Y23799I0J-1701D01*
G02X135583Y24559I0J1701D01*
G03X134917I-333J-221D01*
G02X134441Y24083I-1417J941D01*
G03Y23417I221J-333D01*
G02X135201Y22000I-941J-1417D01*
G02X133500Y20299I-1701J0D01*
G02X132083Y21059I0J1701D01*
G03X131417I-333J-221D01*
G02X130000Y20299I-1417J941D01*
G02X128299Y22000I0J1701D01*
G02X129059Y23417I1701J0D01*
G03Y24083I-221J333D01*
G02Y26917I941J1417D01*
G03Y27583I-221J333D01*
G37*
G36*
G01X100059Y28583D02*
G02X99299Y30000I941J1417D01*
G02X102701I1701J0D01*
G02X101941Y28583I-1701J0D01*
G03Y27917I221J-333D01*
G02X102701Y26500I-941J-1417D01*
G02X99299I-1701J0D01*
G02X100059Y27917I1701J0D01*
G03Y28583I-221J333D01*
G37*
G36*
G01X70559Y32083D02*
G02X69799Y33500I941J1417D01*
G02X73201I1701J0D01*
G02X72441Y32083I-1701J0D01*
G03Y31417I221J-333D01*
G02X73201Y30000I-941J-1417D01*
G02X69799I-1701J0D01*
G02X70559Y31417I1701J0D01*
G03Y32083I-221J333D01*
G37*
G36*
G01X120559Y35083D02*
G02X119799Y36500I941J1417D01*
G02X123201I1701J0D01*
G02X122441Y35083I-1701J0D01*
G03Y34417I221J-333D01*
G02X123201Y33000I-941J-1417D01*
G02X119799I-1701J0D01*
G02X120559Y34417I1701J0D01*
G03Y35083I-221J333D01*
G37*
G36*
G01X124559D02*
G02X123799Y36500I941J1417D01*
G02X127201I1701J0D01*
G02X126441Y35083I-1701J0D01*
G03Y34417I221J-333D01*
G02X127201Y33000I-941J-1417D01*
G02X123799I-1701J0D01*
G02X124559Y34417I1701J0D01*
G03Y35083I-221J333D01*
G37*
G36*
G01X100059Y36083D02*
G02X99299Y37500I941J1417D01*
G02X102701I1701J0D01*
G02X101941Y36083I-1701J0D01*
G03Y35417I221J-333D01*
G02X102701Y34000I-941J-1417D01*
G02X99299I-1701J0D01*
G02X100059Y35417I1701J0D01*
G03Y36083I-221J333D01*
G37*
G36*
G01X135272Y53204D02*
G02X132500Y51440I-2772J1296D01*
G02Y57560I0J3060D01*
G02X135474Y55221I0J-3060D01*
G03X136174Y55065I389J95D01*
G02X137500Y55701I1326J-1066D01*
G02Y52299I0J-1701D01*
G02X135989Y53219I0J1701D01*
G03X135272Y53204I-355J-184D01*
G37*
G36*
G01X63059Y96583D02*
G02X62299Y98000I941J1417D01*
G02X65701I1701J0D01*
G02X64941Y96583I-1701J0D01*
G03Y95917I221J-333D01*
G02Y93083I-941J-1417D01*
G03Y92417I221J-333D01*
G02X65701Y91000I-941J-1417D01*
G02X62299I-1701J0D01*
G02X63059Y92417I1701J0D01*
G03Y93083I-221J333D01*
G02Y95917I941J1417D01*
G03Y96583I-221J333D01*
G37*
G36*
G01X68250Y112307D02*
G02X67775Y114000I2782J1693D01*
G02X74288I3257J0D01*
G02X73811Y112304I-3257J0D01*
G03X74124Y111696I341J-208D01*
G02X75701Y110000I-124J-1696D01*
G02X75191Y108785I-1701J0D01*
G03Y108215I280J-285D01*
G02X75701Y107000I-1191J-1214D01*
G02X72299I-1701J0D01*
G02X72809Y108215I1701J0D01*
G03Y108785I-280J285D01*
G02X72299Y110000I1191J1214D01*
G02X72341Y110373I1701J0D01*
G03X71850Y110848I-390J88D01*
G02X71031Y110743I-818J3152D01*
G02X70154Y110864I0J3257D01*
G03X69656Y110388I-108J-385D01*
G02X69701Y110000I-1656J-388D01*
G02X68941Y108583I-1701J0D01*
G03Y107917I221J-333D01*
G02Y105083I-941J-1417D01*
G03Y104417I221J-333D01*
G02X69701Y103000I-941J-1417D01*
G02X66299I-1701J0D01*
G02X67059Y104417I1701J0D01*
G03Y105083I-221J333D01*
G02Y107917I941J1417D01*
G03Y108583I-221J333D01*
G02X66299Y110000I941J1417D01*
G02X67926Y111699I1701J0D01*
G03X68250Y112307I-18J400D01*
G37*
G36*
G01X10718Y165224D02*
G02X9000Y164716I-1718J2651D01*
G02X12158Y167874I0J3158D01*
G02X11902Y166628I-3158J0D01*
G03X12409Y166094I367J-158D01*
G02X13000Y166201I592J-1594D01*
G02X11299Y164500I0J-1701D01*
G02X11328Y164814I1701J1D01*
G03X10718Y165224I-393J74D01*
G37*
G36*
G01X92626Y188049D02*
G02X98374I2874J-1049D01*
G03X99126I376J137D01*
G02X102000Y190060I2874J-1049D01*
G02Y183940I0J-3060D01*
G02X99126Y185951I0J3060D01*
G03X98374I-376J-137D01*
G02X92626I-2874J1049D01*
G03X91874I-376J-137D01*
G02X86126I-2874J1049D01*
G03X85374I-376J-137D01*
G02X82500Y183940I-2874J1049D01*
G02Y190060I0J3060D01*
G02X85374Y188049I0J-3060D01*
G03X86126I376J137D01*
G02X91874I2874J-1049D01*
G03X92626I376J137D01*
G37*
G36*
G01X140836Y199019D02*
G02X140000Y198799I-836J1481D01*
G02Y202201I0J1701D01*
G02X141701Y200498I0J-1701D01*
G03X142370Y200202I400J0D01*
G02X144500Y201028I2130J-2332D01*
G02X141342Y197870I0J-3158D01*
G02X141423Y198581I3158J0D01*
G03X140836Y199019I-390J90D01*
G37*
G36*
G01X86325Y225706D02*
G02X86299Y226000I1675J294D01*
G02X88000Y224299I1701J0D01*
G02X87593Y224349I0J1701D01*
G03X87132Y223796I-96J-388D01*
G02X87410Y222500I-2880J-1296D01*
G02X84252Y225658I-3158J0D01*
G02X85742Y225285I0J-3158D01*
G03X86325Y225706I189J353D01*
G37*
G36*
G01X94337Y225642D02*
G02X94299Y226000I1663J358D01*
G02X96000Y224299I1701J0D01*
G02X95475Y224382I0J1701D01*
G03X94989Y223833I-123J-380D01*
G02X95284Y222500I-2863J-1333D01*
G02X92126Y225658I-3158J0D01*
G02X93742Y225214I0J-3158D01*
G03X94337Y225642I205J344D01*
G37*
G54D18*
X130000Y18000D03*
X97500Y24000D03*
Y28000D03*
Y32000D03*
X125500Y29000D03*
X121500D03*
X129500Y33000D03*
X71500Y37500D03*
Y41500D03*
X97500Y36000D03*
X101000Y41500D03*
X71500Y45500D03*
X76000D03*
X80000D03*
X84000D03*
X80000Y49500D03*
X84000D03*
X88000Y45500D03*
Y49500D03*
X19051Y59500D03*
X102500Y71000D03*
X82500Y88000D03*
X23500Y101500D03*
X74000Y98500D03*
X68000Y99000D03*
X135000Y106500D03*
X69500Y124500D03*
X65000D03*
X80500Y120500D03*
X59500Y127000D03*
X54500D03*
Y131000D03*
Y135500D03*
X69500Y129000D03*
Y133500D03*
X65000Y129000D03*
Y133500D03*
X54500Y140000D03*
Y144000D03*
X65000Y137500D03*
X69500D03*
X74000D03*
X65000Y141500D03*
X69500D03*
X74000D03*
X65000Y145500D03*
X69500D03*
X74000D03*
X131000Y144500D03*
X54500Y148500D03*
Y153000D03*
X74000Y149500D03*
X69500D03*
X65000D03*
X74000Y153500D03*
X69500D03*
X65000D03*
X82500D03*
X78000D03*
X87000D03*
X15000Y160000D03*
X13000Y172000D03*
X15000Y176500D03*
X75500Y176000D03*
X86000D03*
X136000Y177500D03*
X74500Y195500D03*
X70000D03*
X83500D03*
X79000D03*
X88000D03*
X140000Y194500D03*
X70000Y207500D03*
X74500D03*
Y203500D03*
X70000D03*
X74500Y199500D03*
X70000D03*
X83500Y207500D03*
Y203500D03*
Y199500D03*
X79000Y207500D03*
Y203500D03*
Y199500D03*
X88000Y207500D03*
Y203500D03*
Y199500D03*
X70000Y211500D03*
X74500D03*
X83500D03*
X79000D03*
X88000Y218500D03*
Y211500D03*
X96000Y218500D03*
G54D20*
X9000Y88500D03*
X144500Y88000D03*
X9000Y96374D03*
X144500Y103748D03*
Y95874D03*
X9000Y112122D03*
X144500Y111622D03*
X9000Y119996D03*
Y127870D03*
Y160000D03*
X144500Y166374D03*
Y158500D03*
X9000Y175748D03*
Y183622D03*
Y191496D03*
X144500Y189996D03*
X9000Y199370D03*
X100000Y222500D03*
G54D17*
X69500Y12500D03*
X77374D03*
X93122D03*
X85248D03*
X9000Y31000D03*
Y38874D03*
X144000Y43374D03*
Y35500D03*
X9000Y46748D03*
X144000Y51248D03*
X9000Y54622D03*
G54D19*
X132500Y42500D03*
X24500Y59000D03*
X34000Y57000D03*
X44000D03*
X112898D03*
X122898D03*
X112898Y67000D03*
X122898D03*
X34000Y77000D03*
X44000D03*
X112898D03*
X122898D03*
X144500Y75500D03*
X25000Y88500D03*
X34000Y87000D03*
X44000D03*
X112898D03*
X122898D03*
X34000Y97000D03*
X44000D03*
X112898D03*
X122898D03*
X34000Y107000D03*
X44000D03*
X112898D03*
X122898D03*
X24500Y117000D03*
X34000D03*
X44000D03*
X112898D03*
X122898D03*
X24500Y127000D03*
X34000D03*
X44000D03*
X112898D03*
X122898D03*
X133000Y131000D03*
X43000Y182500D03*
X124000Y179500D03*
G54D21*
X90717Y114000D03*
%LPD*%
G75*
G54D10*
X11811Y11811D03*
Y224409D03*
X145669Y11811D03*
Y224409D03*
G54D11*
X2500Y21500D03*
Y17500D03*
Y25500D03*
Y29500D03*
Y41500D03*
Y37500D03*
Y33500D03*
Y53500D03*
Y45500D03*
Y49500D03*
Y61500D03*
Y57500D03*
X9000Y61500D03*
X2500Y73500D03*
Y65500D03*
Y82000D03*
Y77500D03*
Y94000D03*
Y90000D03*
Y86000D03*
Y102000D03*
Y98000D03*
Y114500D03*
Y110000D03*
Y106000D03*
Y122500D03*
Y118500D03*
Y135000D03*
Y126500D03*
Y131000D03*
Y143500D03*
Y139500D03*
Y155500D03*
Y147500D03*
Y151500D03*
Y167500D03*
Y163500D03*
Y159500D03*
Y175500D03*
Y171500D03*
Y183500D03*
Y187500D03*
Y179500D03*
Y195500D03*
Y191500D03*
Y208000D03*
Y204000D03*
Y199500D03*
Y216000D03*
Y212000D03*
X21000Y3000D03*
X15500Y61500D03*
X19051Y59500D03*
X14000Y137000D03*
X17500D03*
X13000Y164500D03*
X15000Y160000D03*
Y176500D03*
X13000Y172000D03*
X17500Y192500D03*
X21000D03*
X19500Y233000D03*
X25000Y3000D03*
X29000D03*
X33000D03*
X28500Y42000D03*
Y36000D03*
Y47500D03*
X23500Y101500D03*
X29000Y113000D03*
Y109000D03*
X24500Y132500D03*
X28000D03*
X24500Y137000D03*
X28000D03*
X23000Y158500D03*
X26500D03*
X30000D03*
X23000Y176000D03*
X26500D03*
X30000D03*
X24500Y192500D03*
X28000D03*
X31500D03*
X23500Y233000D03*
X27500D03*
X31500D03*
X37000Y3000D03*
X41000D03*
X33500Y158500D03*
Y167000D03*
Y163000D03*
X43000Y165000D03*
X33500Y176000D03*
Y171500D03*
X43000Y168500D03*
X35000Y192500D03*
X39500Y233000D03*
X35500D03*
X45000Y3000D03*
X49000D03*
X53000D03*
Y102500D03*
Y109000D03*
X44000Y141000D03*
Y145500D03*
Y137000D03*
Y153500D03*
Y149500D03*
Y157500D03*
X43500Y161000D03*
X48500Y162000D03*
X51000Y176000D03*
X47000D03*
Y172500D03*
X51000D03*
X43500D03*
X49000Y196500D03*
Y208000D03*
Y204000D03*
Y200000D03*
X53000Y211500D03*
X49000D03*
X47500Y233000D03*
X43500D03*
X51500D03*
X57000Y3000D03*
X61000D03*
X64000Y94500D03*
Y91000D03*
Y98000D03*
X54500Y135500D03*
Y131000D03*
Y127000D03*
X59500D03*
X54500Y144000D03*
Y140000D03*
Y153000D03*
Y148500D03*
X63500Y176000D03*
X55000D03*
X59500D03*
X58000Y206000D03*
Y202000D03*
X63500Y233000D03*
X59500D03*
X55500D03*
X65000Y3000D03*
X69000D03*
X73000D03*
X71500Y30000D03*
Y41500D03*
Y37500D03*
Y33500D03*
Y45500D03*
X74500Y65000D03*
X72000Y80000D03*
X73500Y76500D03*
X72000Y86000D03*
X68000Y103000D03*
Y99000D03*
X74000Y98500D03*
X68000Y110000D03*
Y106500D03*
X74000Y110000D03*
Y107000D03*
X65000Y124500D03*
X69500D03*
X65000Y133500D03*
Y129000D03*
X69500Y133500D03*
Y129000D03*
X74000Y145500D03*
X69500D03*
X65000D03*
X74000Y141500D03*
X69500D03*
X65000D03*
X74000Y137500D03*
X69500D03*
X65000D03*
X74000Y149500D03*
X65000Y153500D03*
X69500D03*
X74000D03*
X65000Y149500D03*
X69500D03*
X66000Y188500D03*
X74500Y195500D03*
X70000D03*
Y207500D03*
X74500D03*
Y203500D03*
X70000D03*
X74500Y199500D03*
X70000D03*
Y211500D03*
X74500D03*
X71500Y233000D03*
X67500D03*
X77000Y3000D03*
X81000D03*
X84000Y49500D03*
X80000D03*
X84000Y45500D03*
X80000D03*
X76000D03*
X83500Y63000D03*
X84000Y59000D03*
Y56000D03*
X77500Y65000D03*
X80500D03*
X75500Y80000D03*
Y86000D03*
X79000D03*
X82500Y88000D03*
X80000Y107500D03*
X80500Y120500D03*
X78000Y153500D03*
X82500D03*
X75500Y176000D03*
X75000Y188500D03*
X79000Y195500D03*
X83500D03*
X79000Y207500D03*
Y203500D03*
Y199500D03*
X83500Y207500D03*
Y203500D03*
Y199500D03*
X79000Y211500D03*
X83500D03*
X84000Y233000D03*
X79500D03*
X75500D03*
X85500Y3000D03*
X89500D03*
X93500D03*
X88000Y49500D03*
Y45500D03*
X91500Y125500D03*
Y122500D03*
Y119500D03*
Y131500D03*
Y128500D03*
Y135000D03*
X87000Y153500D03*
X86000Y176000D03*
X88000Y195500D03*
Y207500D03*
Y203500D03*
Y199500D03*
Y211500D03*
Y218500D03*
Y226000D03*
X92000Y233000D03*
X88000D03*
X97500Y3000D03*
X101500D03*
X105500D03*
X101000Y30000D03*
Y26500D03*
X97500Y32000D03*
Y28000D03*
Y24000D03*
X101000Y41500D03*
Y37500D03*
Y34000D03*
X97500Y36000D03*
X99000Y62000D03*
X102500D03*
Y58000D03*
Y66000D03*
Y71000D03*
X96000Y218500D03*
Y226000D03*
Y233000D03*
X104000D03*
X100000D03*
X109500Y3000D03*
X113500D03*
X112500Y12000D03*
X108500Y22500D03*
Y19000D03*
Y15000D03*
X112500Y29000D03*
X108500Y26500D03*
X107500Y116500D03*
X108000Y120500D03*
Y124000D03*
X112000Y233000D03*
X108000D03*
X118000Y3000D03*
X122000D03*
X126000D03*
X121500Y33000D03*
X125500D03*
X121500Y29000D03*
X125500D03*
X121500Y36500D03*
X125500D03*
X124500Y233000D03*
X120500D03*
X116500D03*
X130000Y3000D03*
X134500D03*
X130000Y22000D03*
Y18000D03*
X133500Y22000D03*
X129500Y33000D03*
X130000Y29000D03*
Y25500D03*
X133500D03*
X129500Y60000D03*
Y64000D03*
X135000Y106500D03*
X128000Y138000D03*
X131000Y144500D03*
X136000Y153500D03*
X135000Y163000D03*
X128000Y159000D03*
X136000Y177500D03*
X127500Y190500D03*
X130500D03*
X133500D03*
X136500D03*
X128500Y233000D03*
X133000D03*
X138500Y3000D03*
X137000Y25500D03*
X137500Y54000D03*
X140000Y153500D03*
X138500Y163000D03*
X138000Y187000D03*
Y183500D03*
X140000Y194500D03*
Y200500D03*
X137000Y233000D03*
X154500Y22000D03*
Y30000D03*
Y26000D03*
Y42500D03*
Y38000D03*
Y34000D03*
Y50500D03*
Y46500D03*
Y54500D03*
Y62500D03*
Y58500D03*
Y70500D03*
Y66500D03*
Y83000D03*
Y79000D03*
Y75000D03*
Y87000D03*
Y91500D03*
Y103500D03*
Y99500D03*
Y95500D03*
Y115500D03*
Y107500D03*
Y111500D03*
Y123500D03*
Y119500D03*
Y135500D03*
Y127500D03*
Y131500D03*
Y143500D03*
Y139500D03*
Y155500D03*
Y151500D03*
Y147500D03*
Y164000D03*
Y159500D03*
Y176000D03*
Y172000D03*
Y168000D03*
Y188000D03*
Y184000D03*
Y180000D03*
Y196500D03*
Y192000D03*
Y208500D03*
Y204500D03*
Y200500D03*
Y217000D03*
Y213000D03*
G54D12*
X9000Y31000D03*
Y38874D03*
Y46748D03*
Y54622D03*
X69500Y12500D03*
X77374D03*
X93122D03*
X85248D03*
X144000Y43374D03*
Y35500D03*
Y51248D03*
Y59122D03*
G54D13*
X9000Y88500D03*
Y104248D03*
Y96374D03*
Y112122D03*
Y119996D03*
Y127870D03*
Y167874D03*
Y160000D03*
Y175748D03*
Y183622D03*
Y191496D03*
Y199370D03*
X60630Y222500D03*
X68504D03*
X76378D03*
X84252D03*
X92126D03*
X100000D03*
X144500Y88000D03*
Y103748D03*
Y95874D03*
Y111622D03*
Y119496D03*
Y127370D03*
Y166374D03*
Y158500D03*
Y174248D03*
Y182122D03*
Y197870D03*
Y189996D03*
G54D14*
X24500Y59000D03*
X25000Y88500D03*
X24500Y117000D03*
Y127000D03*
X34000Y57000D03*
Y67000D03*
Y77000D03*
Y87000D03*
Y97000D03*
Y107000D03*
Y117000D03*
Y127000D03*
X43000Y182500D03*
X44000Y57000D03*
Y67000D03*
Y77000D03*
Y87000D03*
Y97000D03*
Y107000D03*
Y117000D03*
Y127000D03*
X82500Y187000D03*
X95500D03*
X89000D03*
X102000D03*
X112898Y57000D03*
Y67000D03*
Y77000D03*
Y87000D03*
Y97000D03*
Y107000D03*
Y117000D03*
Y127000D03*
X122898Y57000D03*
Y67000D03*
Y77000D03*
Y87000D03*
Y97000D03*
Y107000D03*
Y117000D03*
Y127000D03*
X124000Y179500D03*
X132500Y42500D03*
Y54500D03*
X133000Y131000D03*
X144500Y75500D03*
G54D15*
X71031Y114000D03*
X90717D03*
G54D16*
G01X11811Y0D02*
X145669D01*
G03X157480Y11811I0J11811D01*
G01Y224409D01*
G03X145669Y236220I-11811J0D01*
G01X11811D01*
G03X0Y224409I0J-11811D01*
G01Y11811D01*
G03X11811Y0I11811J0D01*
M02*
