G04 ================== begin FILE IDENTIFICATION RECORD ==================*
G04 Layout Name:  D:/PCBDesign/FishTank-Manage/PCB/FishTank-Manage.brd*
G04 Film Name:    04_BOTTOM*
G04 File Format:  Gerber RS274X*
G04 File Origin:  Cadence Allegro 17.4-S032*
G04 Origin Date:  Sun Jun  4 03:04:41 2023*
G04 *
G04 Layer:  BOARD GEOMETRY/OUTLINE*
G04 Layer:  VIA CLASS/BOTTOM*
G04 Layer:  PIN/BOTTOM*
G04 Layer:  ETCH/BOTTOM*
G04 *
G04 Offset:    (0.0000 0.0000)*
G04 Mirror:    No*
G04 Mode:      Positive*
G04 Rotation:  0*
G04 FullContactRelief:  No*
G04 UndefLineWidth:     0.0000*
G04 ================== end FILE IDENTIFICATION RECORD ====================*
%FSLAX25Y25*MOMM*%
%IR0*IPPOS*OFA0.00000B0.00000*MIA0B0*SFA1.00000B1.00000*%
%ADD19R,.6X1.2*%
%ADD28R,1.15X.8*%
%ADD21R,1.X.95*%
%ADD14R,.95X1.*%
%ADD24R,.65X1.525*%
%ADD11C,.6096*%
%ADD22R,2.72X1.02*%
%ADD25R,2.2X1.55*%
%ADD23R,1.02X2.72*%
%ADD26R,3.X2.65*%
%ADD13C,1.1*%
%ADD12C,1.3*%
%ADD10C,4.*%
%ADD27C,1.4*%
%ADD16C,1.35*%
%ADD15R,1.1X1.1*%
%ADD20R,.95X.9*%
%ADD18R,.9X.95*%
%ADD17R,1.35X1.35*%
%ADD29C,.001*%
%ADD30C,.254*%
%ADD31C,.508*%
%ADD34C,.864*%
%ADD33C,1.6044*%
%ADD36C,1.3544*%
%ADD35C,4.2544*%
%ADD32C,1.5544*%
G75*
%LPD*%
G75*
G36*
G01X242360Y5994400D02*
X3757640D01*
G02X3838070Y5966330I-57633J-294402D01*
G01X3966330Y5838070D01*
G02X3999990Y5700010I-266331J-138067D01*
G01Y2628920D01*
X3716760D01*
G02X3709260Y2645930I3J10160D01*
G03X3730220Y2700000I-59262J54070D01*
G03X3569780I-80220J0D01*
G03X3597050Y2639740I80215J0D01*
G02X3597530Y2624920I-6703J-7635D01*
G01X3517880Y2545270D01*
Y2477020D01*
X3242720D01*
Y2498900D01*
G03X3230000Y2511620I-12720J0D01*
G01X3170000D01*
G03X3157280Y2498900I0J-12720D01*
G01Y2378900D01*
G03X3170000Y2366180I12720J0D01*
G01X3230000D01*
G03X3242720Y2378900I0J12720D01*
G01Y2400780D01*
X3495310D01*
X3569780Y2326310D01*
Y2232500D01*
G03X3582500Y2219780I12720J0D01*
G01X3611880D01*
Y2195190D01*
X3554810Y2138120D01*
X3545770D01*
X3545010Y2142290D01*
G03X3532500Y2152720I-12510J-2287D01*
G01X3417500D01*
G03X3404780Y2140000I0J-12720D01*
G01Y2060000D01*
G03X3417500Y2047280I12720J0D01*
G01X3532500D01*
G03X3545010Y2057710I0J12717D01*
G01X3545770Y2061880D01*
X3570600D01*
G03X3597550Y2073050I-8J38117D01*
G01X3652940Y2128430D01*
G02X3670280Y2121240I7180J-7188D01*
G01Y1435120D01*
X3536290D01*
X3248970Y1722440D01*
G02X3256160Y1739780I7188J7180D01*
G01X3325000D01*
G03X3337720Y1752500I0J12720D01*
G01Y1847500D01*
G03X3325000Y1860220I-12720J0D01*
G01X3305420D01*
Y1889780D01*
X3325000D01*
G03X3337720Y1902500I0J12720D01*
G01Y1997500D01*
G03X3325000Y2010220I-12720J0D01*
G01X3305420D01*
Y2037280D01*
X3327500D01*
G03X3340220Y2050000I0J12720D01*
G01Y2150000D01*
G03X3327500Y2162720I-12720J0D01*
G01X3319400D01*
Y2183310D01*
G02X3324340Y2188390I5081J0D01*
G03X3336700Y2201100I-355J12710D01*
G01Y2321100D01*
G03X3323980Y2333820I-12720J0D01*
G01X3263980D01*
G03X3251260Y2321100I0J-12720D01*
G01Y2201100D01*
G03X3263620Y2188390I12715J0D01*
G02X3268560Y2183310I-141J-5080D01*
G01Y2162720D01*
X3232500D01*
G03X3219780Y2150000I0J-12720D01*
G01Y2050000D01*
G03X3232500Y2037280I12720J0D01*
G01X3254580D01*
Y2010220D01*
X3235000D01*
G03X3222280Y1997500I0J-12720D01*
G01Y1902500D01*
G03X3235000Y1889780I12720J0D01*
G01X3254580D01*
Y1860220D01*
X3235000D01*
G03X3222280Y1847500I0J-12720D01*
G01Y1773660D01*
G02X3204940Y1766470I-10160J-2D01*
G01X3177720Y1793690D01*
Y1847500D01*
G03X3165000Y1860220I-12720J0D01*
G01X3075000D01*
G03X3062280Y1847500I0J-12720D01*
G01Y1839930D01*
G02X3053610Y1836340I-5080J3D01*
G01X2958910Y1931040D01*
G03X2966720Y1965000I-69911J33956D01*
G03X2966420Y1971850I-77721J28D01*
G02X2983720Y1979930I10119J894D01*
G01X3031630Y1932030D01*
G03X3049600Y1924580I17978J17967D01*
G01X3062280D01*
Y1902500D01*
G03X3075000Y1889780I12720J0D01*
G01X3165000D01*
G03X3177720Y1902500I0J12720D01*
G01Y1997500D01*
G03X3165000Y2010220I-12720J0D01*
G01X3075000D01*
G03X3062280Y1997500I0J-12720D01*
G01Y1985530D01*
G02X3053610Y1981940I-5080J3D01*
G01X2922070Y2113470D01*
G03X2904100Y2120920I-17978J-17967D01*
G01X2778110D01*
G03X2743180Y2138700I-34930J-25421D01*
G03X2714390Y2127710I0J-43205D01*
G02X2707860Y2127500I-3390J3783D01*
G03X2700000Y2130220I-7860J-9997D01*
G01X2600000D01*
G03X2587280Y2117500I0J-12720D01*
G01Y2108120D01*
X2289140D01*
X2174620Y2222640D01*
Y2233260D01*
X2176650Y2234780D01*
G03X2181720Y2244950I-7653J10164D01*
G01Y2397450D01*
G03X2169000Y2410170I-12720J0D01*
G01X2104000D01*
G03X2091280Y2397450I0J-12720D01*
G01Y2244950D01*
G03X2096350Y2234780I12723J-6D01*
G01X2098380Y2233260D01*
Y2206850D01*
G03X2109550Y2179900I38117J8D01*
G01X2246400Y2043050D01*
G03X2273350Y2031880I26958J26947D01*
G01X2587280D01*
Y2022500D01*
G03X2600000Y2009780I12720J0D01*
G01X2611880D01*
Y1940220D01*
X2600000D01*
G03X2587280Y1927500I0J-12720D01*
G01Y1832500D01*
G03X2600000Y1819780I12720J0D01*
G01X2700000D01*
G03X2704230Y1820500I11J12722D01*
G02X2717760Y1810920I3372J-9583D01*
G01Y1789080D01*
G02X2704230Y1779500I-10158J3D01*
G03X2700000Y1780220I-4219J-12002D01*
G01X2600000D01*
G03X2587280Y1767500I0J-12720D01*
G01Y1672500D01*
G03X2600000Y1659780I12720J0D01*
G01X2611880D01*
Y1587720D01*
X2602500D01*
G03X2589780Y1575000I0J-12720D01*
G01Y1485000D01*
G03X2602500Y1472280I12720J0D01*
G01X2697500D01*
G03X2703120Y1473590I0J12710D01*
G02X2717760Y1464470I4480J-9119D01*
G01Y983150D01*
X2610930Y876320D01*
X1172760D01*
G02X1165620Y893710I-2J10160D01*
G03X1188720Y949000I-54618J55290D01*
G03X1033280I-77720J0D01*
G03X1056380Y893710I77718J0D01*
G02X1049240Y876320I-7138J-7230D01*
G01X1010730D01*
X901680Y767270D01*
Y734450D01*
X868860D01*
X488120Y1115190D01*
Y1422270D01*
G03X527720Y1490000I-38121J67730D01*
G03X450000Y1567720I-77720J0D01*
G03X431790Y1565560I-14J-77722D01*
G01X429020Y1564890D01*
X266720Y1727190D01*
Y2421060D01*
G02X284330Y2427970I10160J2D01*
G03X334000Y2406280I49670J46027D01*
G03X401720Y2474000I0J67720D01*
G03X400960Y2484130I-67721J13D01*
G01X400570Y2486660D01*
X471450Y2557550D01*
G03X482620Y2584500I-26947J26958D01*
G01Y3171910D01*
X511090Y3200380D01*
X583410D01*
X611880Y3171910D01*
Y3158880D01*
X610570Y3157430D01*
G03X607280Y3148900I9428J-8536D01*
G01Y3028900D01*
G03X620000Y3016180I12720J0D01*
G01X680000D01*
G03X692720Y3028900I0J12720D01*
G01Y3148900D01*
G03X689430Y3157430I-12718J-6D01*
G01X688120Y3158880D01*
Y3187700D01*
G03X676950Y3214650I-38117J-8D01*
G01X626150Y3265450D01*
G03X599200Y3276620I-26958J-26947D01*
G01X495300D01*
G03X468350Y3265450I8J-38117D01*
G01X417550Y3214650D01*
G03X406380Y3187700I26947J-26958D01*
G01Y2920840D01*
G02X388100Y2914730I-10160J-2D01*
G03X334000Y2941720I-54100J-40725D01*
G03X310580Y2937540I4J-67719D01*
G01X307530Y2936420D01*
X216920Y3027030D01*
Y3291470D01*
X302480Y3377030D01*
X305650Y3375660D01*
G03X336500Y3369280I30839J71342D01*
G03X409950Y3421580I0J77727D01*
G01X504100D01*
G03X522070Y3429030I-8J25417D01*
G01X531110Y3438060D01*
G02X539780Y3434470I3590J-3593D01*
G01Y3425000D01*
G03X552500Y3412280I12720J0D01*
G01X647500D01*
G03X660220Y3425000I0J12720D01*
G01Y3444580D01*
X737280D01*
Y3422500D01*
G03X750000Y3409780I12720J0D01*
G01X850000D01*
G03X862720Y3422500I0J12720D01*
G01Y3517500D01*
G03X850000Y3530220I-12720J0D01*
G01X750000D01*
G03X737280Y3517500I0J-12720D01*
G01Y3495420D01*
X660220D01*
Y3515000D01*
G03X647500Y3527720I-12720J0D01*
G01X552500D01*
G03X539780Y3515000I0J-12720D01*
G01Y3495420D01*
X527100D01*
G03X509130Y3487970I8J-25417D01*
G01X493570Y3472420D01*
X409950D01*
G03X336500Y3524720I-73450J-25427D01*
G03X258780Y3447000I0J-77720D01*
G03X265160Y3416150I77722J-11D01*
G01X266530Y3412980D01*
X173530Y3319970D01*
G03X166080Y3302000I17967J-17978D01*
G01Y3016500D01*
G03X173530Y2998530I25417J8D01*
G01X271580Y2900470D01*
X270460Y2897420D01*
G03X266280Y2874000I63539J-23424D01*
G03X334000Y2806280I67720J0D01*
G03X388100Y2833270I0J67715D01*
G02X406380Y2827160I8120J-6108D01*
G01Y2720840D01*
G02X388100Y2714730I-10160J-2D01*
G03X334000Y2741720I-54100J-40725D01*
G03X266280Y2674000I0J-67720D01*
G03X267040Y2663870I67721J-13D01*
G01X267430Y2661340D01*
X201650Y2595550D01*
G03X190480Y2568600I26947J-26958D01*
G01Y1711400D01*
G03X201650Y1684450I38117J8D01*
G01X375110Y1510980D01*
X374440Y1508210D01*
G03X372280Y1490000I75562J-18196D01*
G03X411880Y1422270I77721J0D01*
G01Y1099400D01*
G03X423050Y1072450I38117J8D01*
G01X826120Y669380D01*
G03X853070Y658210I26958J26947D01*
G01X901680D01*
Y10D01*
X300000D01*
G02X10Y300000I0J299990D01*
G01Y5700000D01*
G02X51600Y5868200I299988J0D01*
G01X131800Y5948400D01*
G02X242360Y5994400I168200J-248400D01*
G37*
G36*
G01X3606800Y2616200D02*
X3987800D01*
Y215350D01*
G02X3959520Y149520I-287801J84647D01*
G01X3850480Y40480D01*
G02X3700000Y10I-150480J259531D01*
G01X914400D01*
Y35380D01*
G02X931730Y42580I10161J0D01*
G03X962200Y30000I30470J30611D01*
G03Y116400I0J43200D01*
G03X931730Y103820I0J-43191D01*
G02X914400Y111020I-7169J7200D01*
G01Y762000D01*
X1016000Y863600D01*
X2616200D01*
X2700420Y947820D01*
G02X2717760Y940630I7180J-7188D01*
G01Y939820D01*
G03X2725210Y921850I25417J8D01*
G01X2863350Y783700D01*
G02X2859960Y767090I-7183J-7185D01*
G03X2811280Y695000I29039J-72090D01*
G03X2889000Y617280I77720J0D01*
G03X2966240Y686340I0J77724D01*
G02X2983520Y692390I10095J-1131D01*
G01X2993890Y682030D01*
G03X3011860Y674580I17978J17967D01*
G01X3076550D01*
G03X3150000Y622280I73450J25427D01*
G03Y777720I0J77720D01*
G03X3076550Y725420I0J-77727D01*
G01X3022390D01*
X2944430Y803370D01*
G03X2932420Y810110I-17979J-17967D01*
G03X2921000Y812820I-11420J-22707D01*
G01X2906130D01*
X2768600Y950350D01*
Y1016000D01*
X2819400Y1066800D01*
X2958720D01*
X2959280Y1062350D01*
G03X2966530Y1047530I25220J3154D01*
G01X3080090Y933960D01*
G03X3072280Y900000I69911J-33956D01*
G03X3150000Y977720I77720J0D01*
G03X3119150Y971340I-11J-77722D01*
G01X3115980Y969970D01*
X3036490Y1049460D01*
G02X3043680Y1066800I7187J7180D01*
G01X3079730D01*
G03X3220270I70270J33197D01*
G01X3279600D01*
X3280930Y1063740D01*
G03X3292600Y1056080I11670J5060D01*
G01X3387600D01*
G03X3399270Y1063740I0J12720D01*
G01X3400600Y1066800D01*
X3429000D01*
X3429390Y1067190D01*
G02X3445960Y1063910I7188J-7181D01*
G03X3457700Y1056080I11740J4886D01*
G01X3529470D01*
X3545250Y1040300D01*
Y995330D01*
G03X3552700Y977360I25417J8D01*
G01X3596280Y933770D01*
Y847000D01*
G03X3609000Y834280I12720J0D01*
G01X3719000D01*
G03X3731720Y847000I0J12720D01*
G01Y957000D01*
G03X3719000Y969720I-12720J0D01*
G01X3632230D01*
X3596090Y1005860D01*
Y1050830D01*
G03X3588640Y1068800I-25417J-8D01*
G01X3565420Y1092030D01*
Y1158800D01*
G03X3555480Y1171210I-12717J0D01*
G02X3550510Y1188310I2215J9916D01*
G01X3616100Y1253900D01*
X3619670Y1250800D01*
G03X3664000Y1234280I44324J51202D01*
G03X3719970Y1263880I0J67716D01*
G01X3882060D01*
G03X3911600Y1252200I29540J31515D01*
G03X3954800Y1295400I0J43200D01*
G03X3916610Y1338310I-43202J0D01*
G03X3905000Y1340120I-11607J-36310D01*
G01X3719970D01*
G03X3686400Y1365910I-55974J-38117D01*
G01X3683000Y1367100D01*
Y1436900D01*
X3686400Y1438090D01*
G03Y1565910I-22403J63910D01*
G01X3683000Y1567100D01*
Y2160320D01*
G03X3688120Y2179400I-32991J19080D01*
G01Y2219780D01*
X3717500D01*
G03X3730220Y2232500I0J12720D01*
G01Y2367500D01*
G03X3717500Y2380220I-12720J0D01*
G01X3639580D01*
X3530600Y2489200D01*
Y2540000D01*
X3606800Y2616200D01*
G37*
%LPC*%
G75*
G36*
G01X2519780Y5582500D02*
Y5717500D01*
G02X2532500Y5730220I12720J0D01*
G01X2667500D01*
G02X2680220Y5717500I0J-12720D01*
G01Y5582500D01*
G02X2667500Y5569780I-12720J0D01*
G01X2532500D01*
G02X2519780Y5582500I0J12720D01*
G37*
G36*
G01X2091280Y1702550D02*
Y1855050D01*
G02X2104000Y1867770I12720J0D01*
G01X2169000D01*
G02X2181720Y1855050I0J-12720D01*
G01Y1702550D01*
G02X2169000Y1689830I-12720J0D01*
G01X2104000D01*
G02X2091280Y1702550I0J12720D01*
G37*
G36*
G01X1955780Y3243770D02*
X2026730Y3314720D01*
X2481770D01*
X2552720Y3243770D01*
Y2458530D01*
X2476520Y2382330D01*
Y2255330D01*
X2443670Y2222480D01*
X2356930D01*
X2324080Y2255330D01*
Y2382330D01*
X2197080Y2509330D01*
Y2737930D01*
X2153730Y2781280D01*
X2026730D01*
X1955780Y2852230D01*
Y3243770D01*
G37*
G36*
G01X1169450Y1344650D02*
X1131980Y1382110D01*
X1129210Y1381440D01*
G02X1111000Y1379280I-18196J75562D01*
G02X1188720Y1457000I0J77720D01*
G02X1186560Y1438790I-77722J-14D01*
G01X1185890Y1436020D01*
X1212190Y1409720D01*
X1241710D01*
X1248950Y1416950D01*
G02X1275900Y1428120I26958J-26947D01*
G01X1301280D01*
Y1441000D01*
G02X1314000Y1453720I12720J0D01*
G01X1586000D01*
G02X1598720Y1441000I0J-12720D01*
G01Y1339000D01*
G02X1586000Y1326280I-12720J0D01*
G01X1314000D01*
G02X1301280Y1339000I0J12720D01*
G01Y1351880D01*
X1291690D01*
X1284450Y1344650D01*
G02X1257500Y1333480I-26958J26947D01*
G01X1196400D01*
G02X1169450Y1344650I8J38117D01*
G37*
G36*
G01X2197080Y1859470D02*
X2229930Y1892320D01*
X2316670D01*
X2346650Y1862340D01*
X2350190Y1865090D01*
G02X2358000Y1867770I7810J-10040D01*
G01X2423000D01*
G02X2435720Y1855050I0J-12720D01*
G01Y1702550D01*
G02X2430650Y1692380I-12723J-6D01*
G01X2428620Y1690860D01*
Y1680240D01*
X2456950Y1651900D01*
G02X2468120Y1624950I-26947J-26958D01*
G01Y1512720D01*
X2477500D01*
G02X2490220Y1500000I0J-12720D01*
G01Y1400000D01*
G02X2477500Y1387280I-12720J0D01*
G01X2382500D01*
G02X2369780Y1400000I0J12720D01*
G01Y1500000D01*
G02X2382500Y1512720I12720J0D01*
G01X2391880D01*
Y1609160D01*
X2366860Y1634180D01*
G03X2349520Y1626990I-7180J-7188D01*
G01Y1569530D01*
X2310050Y1530060D01*
G03X2317240Y1512720I7187J-7181D01*
G01X2317500D01*
G02X2330220Y1500000I0J-12720D01*
G01Y1400000D01*
G02X2317500Y1387280I-12720J0D01*
G01X2308120D01*
Y1370610D01*
G02X2329200Y1333500I-22125J-37110D01*
G02X2286000Y1290300I-43200J0D01*
G02X2245030Y1319810I0J43195D01*
G01X2244650Y1320940D01*
X2243050Y1322550D01*
G02X2231880Y1349500I26947J26958D01*
G01Y1387280D01*
X2222500D01*
G02X2209780Y1400000I0J12720D01*
G01Y1493730D01*
G03X2201110Y1497320I-5080J-3D01*
G01X2197120Y1493330D01*
Y985330D01*
X2138870Y927080D01*
X1874330D01*
X1816080Y985330D01*
Y1503870D01*
X1907750Y1595540D01*
G03X1900560Y1612880I-7187J7181D01*
G01X1740420D01*
Y1601000D01*
G02X1727700Y1588280I-12720J0D01*
G01X1632700D01*
G02X1619980Y1601000I0J12720D01*
G01Y1701000D01*
G02X1632700Y1713720I12720J0D01*
G01X1727700D01*
G02X1740420Y1701000I0J-12720D01*
G01Y1689120D01*
X1909660D01*
X1964280Y1743740D01*
Y1855050D01*
G02X1977000Y1867770I12720J0D01*
G01X2042000D01*
G02X2054720Y1855050I0J-12720D01*
G01Y1702550D01*
G02X2042000Y1689830I-12720J0D01*
G01X2018190D01*
X1984020Y1655660D01*
G03X1991210Y1638320I7188J-7180D01*
G01X2153730D01*
X2197080Y1681670D01*
Y1859470D01*
G37*
G36*
G01X701260Y2851100D02*
Y2971100D01*
G02X713980Y2983820I12720J0D01*
G01X773980D01*
G02X786700Y2971100I0J-12720D01*
G01Y2851100D01*
G02X774340Y2838390I-12715J0D01*
G03X769400Y2833310I141J-5080D01*
G01Y2810220D01*
X775000D01*
G02X787720Y2797500I0J-12720D01*
G01Y2775420D01*
X816970D01*
X839780Y2798230D01*
Y2865000D01*
G02X852500Y2877720I12720J0D01*
G01X947500D01*
G02X960220Y2865000I0J-12720D01*
G01Y2775000D01*
G02X947500Y2762280I-12720J0D01*
G01X875730D01*
X845470Y2732030D01*
G02X827500Y2724580I-17978J17967D01*
G01X787720D01*
Y2702500D01*
G02X775000Y2689780I-12720J0D01*
G01X755420D01*
Y2612720D01*
X777500D01*
G02X790220Y2600000I0J-12720D01*
G01Y2500000D01*
G02X777500Y2487280I-12720J0D01*
G01X682500D01*
G02X669780Y2500000I0J12720D01*
G01Y2600000D01*
G02X682500Y2612720I12720J0D01*
G01X704580D01*
Y2689780D01*
X685000D01*
G02X672280Y2702500I0J12720D01*
G01Y2797500D01*
G02X685000Y2810220I12720J0D01*
G01X718560D01*
Y2833310D01*
G03X713620Y2838390I-5081J0D01*
G02X701260Y2851100I355J12710D01*
G37*
G36*
G01X2959080Y2874970D02*
X2922960Y2911090D01*
G02X2889000Y2903280I-33956J69911D01*
G02X2966720Y2981000I0J77720D01*
G02X2960340Y2950150I-77722J-11D01*
G01X2958970Y2946980D01*
X3002470Y2903470D01*
G02X3009920Y2885500I-17967J-17978D01*
G01Y2748530D01*
X3098230Y2660220D01*
X3165000D01*
G02X3177720Y2647500I0J-12720D01*
G01Y2552500D01*
G02X3165000Y2539780I-12720J0D01*
G01X3075000D01*
G02X3062280Y2552500I0J12720D01*
G01Y2624270D01*
X2979700Y2706850D01*
G03X2962860Y2702820I-7182J-7187D01*
G02X2889000Y2649280I-73860J24176D01*
G02Y2804720I0J77720D01*
G02X2941990Y2783850I0J-77707D01*
G03X2959080Y2791280I6929J7432D01*
G01Y2874970D01*
G37*
G36*
G01X3304510Y3192970D02*
G02X3322480Y3200420I17978J-17967D01*
G01X3330490D01*
X3332010Y3202290D01*
G02X3365500Y3218200I33490J-27293D01*
G02Y3131800I0J-43200D01*
G02X3335000Y3144400I-5J43202D01*
G01X3331410Y3147980D01*
X3321650Y3138220D01*
X3326180Y3133700D01*
X3327450Y3133340D01*
G02X3336700Y3121100I-3473J-12240D01*
G01Y3001100D01*
G02X3324340Y2988390I-12715J0D01*
G03X3319400Y2983310I141J-5080D01*
G01Y2975700D01*
G02X3319070Y2971630I-25419J13D01*
G03X3327280Y2960010I10031J-1623D01*
G02X3337720Y2947500I-2275J-12510D01*
G01Y2852500D01*
G02X3325000Y2839780I-12720J0D01*
G01X3305420D01*
Y2812720D01*
X3327500D01*
G02X3340220Y2800000I0J-12720D01*
G01Y2700000D01*
G02X3327500Y2687280I-12720J0D01*
G01X3305420D01*
Y2660220D01*
X3325000D01*
G02X3337720Y2647500I0J-12720D01*
G01Y2552500D01*
G02X3325000Y2539780I-12720J0D01*
G01X3235000D01*
G02X3222280Y2552500I0J12720D01*
G01Y2647500D01*
G02X3235000Y2660220I12720J0D01*
G01X3254580D01*
Y2687280D01*
X3232500D01*
G02X3219780Y2700000I0J12720D01*
G01Y2800000D01*
G02X3232500Y2812720I12720J0D01*
G01X3254580D01*
Y2839780D01*
X3235000D01*
G02X3222280Y2852500I0J12720D01*
G01Y2947500D01*
G02X3235000Y2960220I12720J0D01*
G01X3254230D01*
X3254760Y2964700D01*
G02X3259260Y2976410I25242J-2980D01*
G03X3256740Y2990640I-8294J5869D01*
G02X3251260Y3001100I7243J10460D01*
G01Y3121100D01*
G02X3263620Y3133810I12715J0D01*
G03X3268560Y3138890I-141J5080D01*
G01Y3146500D01*
G02X3276010Y3164470I25417J-8D01*
G01X3304510Y3192970D01*
G37*
G36*
G01X882030Y3295970D02*
X1041030Y3454980D01*
X1039660Y3458150D01*
G02X1033280Y3489000I71342J30839D01*
G02X1111000Y3411280I77720J0D01*
G02X1080150Y3417660I-11J77722D01*
G01X1076980Y3419030D01*
X925420Y3267470D01*
Y3037720D01*
X947500D01*
G02X960220Y3025000I0J-12720D01*
G01Y2935000D01*
G02X947500Y2922280I-12720J0D01*
G01X852500D01*
G02X839780Y2935000I0J12720D01*
G01Y3025000D01*
G02X852500Y3037720I12720J0D01*
G01X874580D01*
Y3278000D01*
G02X882030Y3295970I25417J-8D01*
G37*
G36*
G01X3239780Y3745420D02*
Y3765000D01*
G02X3252500Y3777720I12720J0D01*
G01X3347500D01*
G02X3360220Y3765000I0J-12720D01*
G01Y3745420D01*
X3372900D01*
G02X3390870Y3737970I-8J-25417D01*
G01X3421570Y3707270D01*
G02X3429020Y3689300I-17967J-17978D01*
G01Y3578650D01*
G02X3481320Y3505200I-25427J-73450D01*
G02X3403600Y3427480I-77720J0D01*
G02X3369640Y3435290I-4J77721D01*
G01X3291810Y3357460D01*
G03X3299000Y3340120I7187J-7180D01*
G01X3448000D01*
G02X3474950Y3328950I-8J-38117D01*
G01X3627000Y3176910D01*
X3629820Y3177640D01*
G02X3650000Y3180220I20180J-77631D01*
G02X3569780Y3100000I0J-80220D01*
G02X3572360Y3120180I80211J0D01*
G01X3573090Y3123000D01*
X3432210Y3263880D01*
X3254290D01*
X3242720Y3252310D01*
Y3178900D01*
G02X3230000Y3166180I-12720J0D01*
G01X3170000D01*
G02X3157280Y3178900I0J12720D01*
G01Y3298900D01*
G02X3170000Y3311620I12720J0D01*
G01X3194210D01*
X3205330Y3322740D01*
G03X3198140Y3340080I-7188J7180D01*
G01X3030030D01*
X2958910Y3268960D01*
G02X2966720Y3235000I-69911J-33956D01*
G02X2889000Y3312720I-77720J0D01*
G02X2919850Y3306340I11J-77722D01*
G01X2923020Y3304970D01*
X3001530Y3383470D01*
G02X3019500Y3390920I17978J-17967D01*
G01X3253370D01*
X3333690Y3471240D01*
G02X3325880Y3505200I69911J33956D01*
G02X3378180Y3578650I77727J0D01*
G01Y3678770D01*
X3368890Y3688060D01*
G03X3360220Y3684470I-3590J-3593D01*
G01Y3675000D01*
G02X3347500Y3662280I-12720J0D01*
G01X3252500D01*
G02X3239780Y3675000I0J12720D01*
G01Y3694580D01*
X3160220D01*
Y3675000D01*
G02X3147500Y3662280I-12720J0D01*
G01X3052500D01*
G02X3039780Y3675000I0J12720D01*
G01Y3765000D01*
G02X3052500Y3777720I12720J0D01*
G01X3147500D01*
G02X3160220Y3765000I0J-12720D01*
G01Y3745420D01*
X3239780D01*
G37*
G36*
G01X3052500Y3937720D02*
X3106310D01*
X3133100Y3964510D01*
X3133480Y3965640D01*
G02X3174450Y3995150I40970J-13685D01*
G02X3217650Y3951950I0J-43200D01*
G02X3188140Y3910980I-43195J0D01*
G01X3187010Y3910600D01*
X3160220Y3883810D01*
Y3835000D01*
G02X3147500Y3822280I-12720J0D01*
G01X3052500D01*
G02X3039780Y3835000I0J12720D01*
G01Y3925000D01*
G02X3052500Y3937720I12720J0D01*
G37*
G36*
G01X3569780Y3975420D02*
Y4017500D01*
G02X3582500Y4030220I12720J0D01*
G01X3717500D01*
G02X3730220Y4017500I0J-12720D01*
G01Y3882500D01*
G02X3717500Y3869780I-12720J0D01*
G01X3582500D01*
G02X3569780Y3882500I0J12720D01*
G01Y3924580D01*
X3453430D01*
X3390870Y3862030D01*
G02X3372900Y3854580I-17978J17967D01*
G01X3360220D01*
Y3835000D01*
G02X3347500Y3822280I-12720J0D01*
G01X3252500D01*
G02X3239780Y3835000I0J12720D01*
G01Y3925000D01*
G02X3252500Y3937720I12720J0D01*
G01X3347500D01*
G02X3360220Y3925000I0J-12720D01*
G01Y3915530D01*
G03X3368890Y3911940I5080J3D01*
G01X3424930Y3967970D01*
G02X3442900Y3975420I17978J-17967D01*
G01X3569780D01*
G37*
G36*
G01X1008560Y3974580D02*
X823450D01*
G02X750000Y3922280I-73450J25427D01*
G02Y4077720I0J77720D01*
G02X823450Y4025420I0J-77727D01*
G01X1017600D01*
G02X1028590Y4022920I0J-25406D01*
G01X1029640Y4022420D01*
X1037550D01*
G02X1111000Y4074720I73450J-25427D01*
G02Y3919280I0J-77720D01*
G02X1037550Y3971580I0J77727D01*
G01X1020600D01*
G02X1009610Y3974080I0J25406D01*
G01X1008560Y3974580D01*
G37*
G36*
G01X2976310Y4212880D02*
X2956730D01*
G02X2889000Y4173280I-67730J38121D01*
G02Y4328720I0J77720D01*
G02X2956730Y4289120I0J-77721D01*
G01X2992100D01*
G02X3019050Y4277950I-8J-38117D01*
G01X3028890Y4268120D01*
X3039780D01*
Y4275000D01*
G02X3052500Y4287720I12720J0D01*
G01X3147500D01*
G02X3160220Y4275000I0J-12720D01*
G01Y4185000D01*
G02X3147500Y4172280I-12720J0D01*
G01X3052500D01*
G02X3039780Y4185000I0J12720D01*
G01Y4191880D01*
X3013100D01*
G02X2986150Y4203050I8J38117D01*
G01X2976310Y4212880D01*
G37*
G36*
G01X2481880Y4374200D02*
G02X2493050Y4401150I38117J-8D01*
G01X2498650Y4406760D01*
X2499030Y4407890D01*
G02X2540000Y4437400I40970J-13685D01*
G02X2583200Y4394200I0J-43200D01*
G02X2574510Y4368210I-43210J0D01*
G03X2574800Y4355610I8111J-6117D01*
G02X2577720Y4347500I-9802J-8110D01*
G01Y4252500D01*
G02X2565000Y4239780I-12720J0D01*
G01X2475000D01*
G02X2462280Y4252500I0J12720D01*
G01Y4347500D01*
G02X2475000Y4360220I12720J0D01*
G01X2481880D01*
Y4374200D01*
G37*
G36*
G01X561880Y4184210D02*
X373000Y4373090D01*
X370180Y4372360D01*
G02X350000Y4369780I-20180J77631D01*
G02X430220Y4450000I0J80220D01*
G02X427640Y4429820I-80211J0D01*
G01X426910Y4427000D01*
X626950Y4226950D01*
G02X638120Y4200000I-26947J-26958D01*
G01Y3687720D01*
X647500D01*
G02X660220Y3675000I0J-12720D01*
G01Y3585000D01*
G02X647500Y3572280I-12720J0D01*
G01X552500D01*
G02X539780Y3585000I0J12720D01*
G01Y3675000D01*
G02X552500Y3687720I12720J0D01*
G01X561880D01*
Y4184210D01*
G37*
G36*
G01X455600Y4611880D02*
X420580D01*
G02X350000Y4569780I-70580J38113D01*
G02Y4730220I0J80220D01*
G02X420580Y4688120I0J-80213D01*
G01X439810D01*
X448650Y4696950D01*
G02X475600Y4708120I26958J-26947D01*
G01X639780D01*
Y4715000D01*
G02X652500Y4727720I12720J0D01*
G01X747500D01*
G02X760220Y4715000I0J-12720D01*
G01Y4625000D01*
G02X747500Y4612280I-12720J0D01*
G01X652500D01*
G02X639780Y4625000I0J12720D01*
G01Y4631880D01*
X491390D01*
X482550Y4623050D01*
G02X455600Y4611880I-26958J26947D01*
G37*
G36*
G01X432370Y4824580D02*
X426090D01*
G02X350000Y4769780I-76090J25426D01*
G02Y4930220I0J80220D01*
G02X426090Y4875420I0J-80226D01*
G01X442900D01*
G02X460870Y4867970I-8J-25417D01*
G01X473430Y4855420D01*
X639780D01*
Y4875000D01*
G02X652500Y4887720I12720J0D01*
G01X747500D01*
G02X760220Y4875000I0J-12720D01*
G01Y4785000D01*
G02X747500Y4772280I-12720J0D01*
G01X652500D01*
G02X639780Y4785000I0J12720D01*
G01Y4804580D01*
X462900D01*
G02X444930Y4812030I8J25417D01*
G01X432370Y4824580D01*
G37*
G36*
G01X1907280Y4951100D02*
Y5071100D01*
G02X1920000Y5083820I12720J0D01*
G01X1980000D01*
G02X1992720Y5071100I0J-12720D01*
G01Y4951100D01*
G02X1989430Y4942570I-12718J6D01*
G01X1988120Y4941120D01*
Y4723410D01*
G02X2032720Y4650000I-38115J-73410D01*
G02X1867280I-82720J0D01*
G02X1911880Y4723410I82715J0D01*
G01Y4941120D01*
X1910570Y4942570D01*
G02X1907280Y4951100I9428J8536D01*
G37*
G36*
G01X3238480Y4388930D02*
Y5034470D01*
X3296730Y5092720D01*
X3434270D01*
X3492520Y5034470D01*
Y4729670D01*
X3561270Y4660920D01*
X3688270D01*
X3771920Y4577270D01*
Y4261930D01*
X3739070Y4229080D01*
X3708470D01*
G03X3701900Y4211170I-2J-10159D01*
G02X3730220Y4150000I-51902J-61170D01*
G02X3569780I-80220J0D01*
G02X3576740Y4182690I80221J6D01*
G01X3578170Y4185880D01*
X3559470Y4204580D01*
X3360220D01*
Y4185000D01*
G02X3347500Y4172280I-12720J0D01*
G01X3252500D01*
G02X3239780Y4185000I0J12720D01*
G01Y4275000D01*
G02X3252500Y4287720I12720J0D01*
G01X3347500D01*
G02X3360220Y4275000I0J-12720D01*
G01Y4255420D01*
X3570000D01*
G02X3587970Y4247970I-8J-25417D01*
G01X3614170Y4221780D01*
G02X3621090Y4224830I35779J-71801D01*
G03X3622850Y4233160I-1831J4738D01*
G01X3550730Y4305280D01*
X3322130D01*
X3238480Y4388930D01*
G37*
G36*
G01X837280Y5205420D02*
Y5227500D01*
G02X850000Y5240220I12720J0D01*
G01X950000D01*
G02X962720Y5227500I0J-12720D01*
G01Y5205420D01*
X1106500D01*
G02X1124470Y5197970I-8J-25417D01*
G01X1287970Y5034470D01*
G02X1295420Y5016500I-17967J-17978D01*
G01Y4410000D01*
G02X1287970Y4392030I-25417J8D01*
G01X1180970Y4285020D01*
X1182340Y4281850D01*
G02X1188720Y4251000I-71342J-30839D01*
G02X1111000Y4173280I-77720J0D01*
G02X1037550Y4225580I0J77727D01*
G01X1026690D01*
X1026060Y4225410D01*
G02X1019600Y4224580I-6443J24592D01*
G01X823450D01*
G02X750000Y4172280I-73450J25427D01*
G02Y4327720I0J77720D01*
G02X823450Y4275420I0J-77727D01*
G01X1013510D01*
X1014140Y4275590D01*
G02X1020600Y4276420I6443J-24592D01*
G01X1037550D01*
G02X1111000Y4328720I73450J-25427D01*
G02X1141850Y4322340I11J-77722D01*
G01X1145020Y4320970D01*
X1244580Y4420530D01*
Y5005970D01*
X1095970Y5154580D01*
X962720D01*
Y5132500D01*
G02X950000Y5119780I-12720J0D01*
G01X850000D01*
G02X837280Y5132500I0J12720D01*
G01Y5154580D01*
X760220D01*
Y5135000D01*
G02X747500Y5122280I-12720J0D01*
G01X652500D01*
G02X639780Y5135000I0J12720D01*
G01Y5154580D01*
X490530D01*
X430220Y5094270D01*
Y4982500D01*
G02X417500Y4969780I-12720J0D01*
G01X282500D01*
G02X269780Y4982500I0J12720D01*
G01Y5117500D01*
G02X282500Y5130220I12720J0D01*
G01X394270D01*
X462030Y5197970D01*
G02X480000Y5205420I17978J-17967D01*
G01X639780D01*
Y5225000D01*
G02X652500Y5237720I12720J0D01*
G01X747500D01*
G02X760220Y5225000I0J-12720D01*
G01Y5205420D01*
X837280D01*
G37*
G36*
G01X1812280Y5302500D02*
Y5397500D01*
G02X1825000Y5410220I12720J0D01*
G01X1915000D01*
G02X1927720Y5397500I0J-12720D01*
G01Y5302500D01*
G02X1915000Y5289780I-12720J0D01*
G01X1881440D01*
Y5266690D01*
G03X1886380Y5261610I5081J0D01*
G02X1898740Y5248900I-355J-12710D01*
G01Y5128900D01*
G02X1886020Y5116180I-12720J0D01*
G01X1849250D01*
X1803420Y5070350D01*
Y4410000D01*
G02X1795970Y4392030I-25417J8D01*
G01X1180970Y3777020D01*
X1182340Y3773850D01*
G02X1188720Y3743000I-71342J-30839D01*
G02X1111000Y3820720I-77720J0D01*
G02X1141850Y3814340I11J-77722D01*
G01X1145020Y3812970D01*
X1752580Y4420530D01*
Y5080880D01*
G02X1760030Y5098850I25417J-8D01*
G01X1813300Y5152130D01*
Y5248900D01*
G02X1825660Y5261610I12715J0D01*
G03X1830600Y5266690I-141J5080D01*
G01Y5289780D01*
X1825000D01*
G02X1812280Y5302500I0J12720D01*
G37*
G36*
G01X3513300Y3748900D02*
G02X3526020Y3761620I12720J0D01*
G01X3586020D01*
G02X3598740Y3748900I0J-12720D01*
G01Y3628900D01*
G02X3586360Y3616180I-12725J0D01*
G03X3581420Y3611110I138J-5076D01*
G01Y3590930D01*
G02X3592650Y3578870I-25420J-34929D01*
G03X3609590Y3578410I8622J5374D01*
G02X3620000Y3583820I10410J-7311D01*
G01X3680000D01*
G02X3692720Y3571100I0J-12720D01*
G01Y3451100D01*
G02X3689430Y3442570I-12718J6D01*
G01X3688120Y3441120D01*
Y3370580D01*
G02X3730220Y3300000I-38113J-70580D01*
G02X3569780I-80220J0D01*
G02X3611880Y3370580I80213J0D01*
G01Y3441120D01*
X3610570Y3442570D01*
G02X3607280Y3451100I9428J8536D01*
G01Y3521990D01*
G03X3589290Y3528470I-10160J5D01*
G02X3556000Y3512800I-33290J27526D01*
G02X3512800Y3556000I0J43200D01*
G02X3530580Y3590930I43201J0D01*
G01Y3611110D01*
G03X3525650Y3616190I-5081J1D01*
G02X3513300Y3628900I365J12710D01*
G01Y3748900D01*
G37*
G36*
G01X1587480Y4094670D02*
X1798130Y4305320D01*
X2265870D01*
X2425720Y4145470D01*
Y3474530D01*
X2316670Y3365480D01*
X1961070D01*
X1790720Y3195130D01*
Y2052130D01*
X1757870Y2019280D01*
X1744710D01*
G03X1735960Y2003960I0J-10159D01*
G02X1737720Y1997500I-10961J-6456D01*
G01Y1985530D01*
G03X1746390Y1981940I5080J3D01*
G01X1984080Y2219630D01*
Y2232230D01*
X1977000D01*
G02X1964280Y2244950I0J12720D01*
G01Y2397450D01*
G02X1977000Y2410170I12720J0D01*
G01X2042000D01*
G02X2054720Y2397450I0J-12720D01*
G01Y2244950D01*
G02X2042000Y2232230I-12720J0D01*
G01X2034920D01*
Y2209100D01*
G02X2027470Y2191130I-25417J8D01*
G01X1768370Y1932030D01*
G02X1750400Y1924580I-17978J17967D01*
G01X1737720D01*
Y1902500D01*
G02X1725000Y1889780I-12720J0D01*
G01X1705420D01*
Y1880100D01*
X1705450Y1879810D01*
G02X1705620Y1876900I-25249J-2935D01*
G01Y1863620D01*
X1725200D01*
G02X1737920Y1850900I0J-12720D01*
G01Y1755900D01*
G02X1725200Y1743180I-12720J0D01*
G01X1635200D01*
G02X1622480Y1755900I0J12720D01*
G01Y1850900D01*
G02X1635200Y1863620I12720J0D01*
G01X1654780D01*
Y1873900D01*
X1654750Y1874190D01*
G02X1654580Y1877100I25249J2935D01*
G01Y1889780D01*
X1635000D01*
G02X1622280Y1902500I0J12720D01*
G01Y1997500D01*
G02X1625980Y2006470I12723J0D01*
G03X1625970Y2013640I-3603J3580D01*
G01X1600500Y2039110D01*
X1516260D01*
X1473220Y1996070D01*
Y1888830D01*
X1498430Y1863620D01*
X1565200D01*
G02X1577920Y1850900I0J-12720D01*
G01Y1755900D01*
G02X1565200Y1743180I-12720J0D01*
G01X1475200D01*
G02X1462480Y1755900I0J12720D01*
G01Y1827670D01*
X1429830Y1860330D01*
G02X1422380Y1878300I17967J17978D01*
G01Y2006600D01*
G02X1429830Y2024570I25417J-8D01*
G01X1487760Y2082500D01*
G02X1505730Y2089950I17978J-17967D01*
G01X1587480D01*
Y4094670D01*
G37*
G36*
G01X2895600Y5461020D02*
X3139650D01*
G02X3213100Y5513320I73450J-25427D01*
G02Y5357880I0J-77720D01*
G02X3139650Y5410180I0J77727D01*
G01X2906130D01*
X2705420Y5209470D01*
Y4360220D01*
X2725000D01*
G02X2737720Y4347500I0J-12720D01*
G01Y4252500D01*
G02X2725000Y4239780I-12720J0D01*
G01X2705420D01*
Y4160220D01*
X2725000D01*
G02X2737720Y4147500I0J-12720D01*
G01Y4052500D01*
G02X2725000Y4039780I-12720J0D01*
G01X2705420D01*
Y3962720D01*
X2727500D01*
G02X2740220Y3950000I0J-12720D01*
G01Y3873230D01*
X2781100Y3832350D01*
X2825070D01*
G02X2843040Y3824900I-8J-25417D01*
G01X2855040Y3812910D01*
G02X2889000Y3820720I33956J-69911D01*
G02X2941990Y3799850I0J-77707D01*
G03X2959080Y3807280I6929J7432D01*
G01Y3932720D01*
G03X2941990Y3940150I-10161J-2D01*
G02X2889000Y3919280I-52990J56837D01*
G02Y4074720I0J77720D01*
G02X2966680Y3999350I0J-77715D01*
G03X2984020Y3992470I10156J306D01*
G01X3039780Y4048230D01*
Y4115000D01*
G02X3052500Y4127720I12720J0D01*
G01X3147500D01*
G02X3160220Y4115000I0J-12720D01*
G01Y4095420D01*
X3239780D01*
Y4115000D01*
G02X3252500Y4127720I12720J0D01*
G01X3347500D01*
G02X3360220Y4115000I0J-12720D01*
G01Y4025000D01*
G02X3347500Y4012280I-12720J0D01*
G01X3252500D01*
G02X3239780Y4025000I0J12720D01*
G01Y4044580D01*
X3160220D01*
Y4025000D01*
G02X3147500Y4012280I-12720J0D01*
G01X3075730D01*
X3009920Y3946470D01*
Y3584500D01*
G02X3002470Y3566530I-25417J8D01*
G01X2958910Y3522960D01*
G02X2962450Y3514420I-69901J-33979D01*
G01X2968870D01*
X2977630Y3523170D01*
G02X2995600Y3530620I17978J-17967D01*
G01X3152350D01*
G02X3225800Y3582920I73450J-25427D01*
G02Y3427480I0J-77720D01*
G02X3152350Y3479780I0J77727D01*
G01X3006130D01*
X2997370Y3471030D01*
G02X2979400Y3463580I-17978J17967D01*
G01X2962450D01*
G02X2889000Y3411280I-73450J25427D01*
G02Y3566720I0J77720D01*
G02X2919850Y3560340I11J-77722D01*
G01X2923020Y3558970D01*
X2959080Y3595030D01*
Y3678720D01*
G03X2941990Y3686150I-10161J-2D01*
G02X2889000Y3665280I-52990J56837D01*
G02X2811280Y3743000I0J77720D01*
G02X2817660Y3773850I77722J11D01*
G01X2819030Y3777020D01*
X2814540Y3781510D01*
X2770570D01*
G02X2752600Y3788960I8J25417D01*
G01X2704270Y3837280D01*
X2632500D01*
G02X2619780Y3850000I0J12720D01*
G01Y3950000D01*
G02X2632500Y3962720I12720J0D01*
G01X2654580D01*
Y4039780D01*
X2635000D01*
G02X2622280Y4052500I0J12720D01*
G01Y4147500D01*
G02X2635000Y4160220I12720J0D01*
G01X2654580D01*
Y4239780D01*
X2635000D01*
G02X2622280Y4252500I0J12720D01*
G01Y4347500D01*
G02X2635000Y4360220I12720J0D01*
G01X2654580D01*
Y5220000D01*
G02X2662030Y5237970I25417J-8D01*
G01X2877630Y5453570D01*
G02X2895600Y5461020I17978J-17967D01*
G37*
G54D34*
X1168400Y76200D03*
X2540000Y101600D03*
X2743200D03*
X2968800Y98600D03*
X3175000Y101600D03*
X3378200D03*
G54D33*
X3650000Y2900000D03*
X2200000Y5650000D03*
X2400000D03*
G54D36*
X3664000Y1102000D03*
G54D35*
X3700000Y300000D03*
G54D32*
X196000Y1490000D03*
X696000Y1486000D03*
X1111000Y1711000D03*
Y1965000D03*
Y2219000D03*
X2889000D03*
X1111000Y2473000D03*
Y2727000D03*
Y3235000D03*
X346000Y3637500D03*
X3150000Y500000D03*
%LPD*%
G75*
G36*
G01X1955800Y1625600D02*
X2159000D01*
X2209800Y1676400D01*
Y1854200D01*
X2235200Y1879600D01*
X2311400D01*
X2336800Y1854200D01*
Y1574800D01*
X2286000Y1524000D01*
X2209800D01*
X2184400Y1498600D01*
Y990600D01*
X2133600Y939800D01*
X1879600D01*
X1828800Y990600D01*
Y1498600D01*
X1955800Y1625600D01*
G37*
G36*
G01X2311400Y3378200D02*
X1955800D01*
X1778000Y3200400D01*
Y2057400D01*
X1752600Y2032000D01*
X1625600D01*
X1600200Y2057400D01*
Y4089400D01*
X1803400Y4292600D01*
X2260600D01*
X2413000Y4140200D01*
Y3479800D01*
X2311400Y3378200D01*
G37*
G36*
G01X2476500Y3302000D02*
X2540000Y3238500D01*
Y2463800D01*
X2463800Y2387600D01*
Y2260600D01*
X2438400Y2235200D01*
X2362200D01*
X2336800Y2260600D01*
Y2387600D01*
X2209800Y2514600D01*
Y2743200D01*
X2159000Y2794000D01*
X2032000D01*
X1968500Y2857500D01*
Y3238500D01*
X2032000Y3302000D01*
X2476500D01*
G37*
G36*
G01X3479800Y5029200D02*
Y4724400D01*
X3556000Y4648200D01*
X3683000D01*
X3759200Y4572000D01*
Y4267200D01*
X3733800Y4241800D01*
X3632200D01*
X3556000Y4318000D01*
X3327400D01*
X3251200Y4394200D01*
Y5029200D01*
X3302000Y5080000D01*
X3429000D01*
X3479800Y5029200D01*
G37*
G54D10*
X300000Y300000D03*
Y5700000D03*
X3700000Y300000D03*
Y5700000D03*
G54D20*
X600000Y3630000D03*
Y3470000D03*
X700000Y4670000D03*
Y5020000D03*
Y4830000D03*
Y5180000D03*
X900000Y2820000D03*
Y2980000D03*
X2650000Y1370000D03*
Y1530000D03*
X3100000Y3720000D03*
Y3880000D03*
Y4230000D03*
Y4070000D03*
X3340100Y1113800D03*
Y1273800D03*
X3300000Y3720000D03*
Y3880000D03*
Y4070000D03*
Y4230000D03*
X3505200Y1113800D03*
Y1273800D03*
G54D11*
X101600Y508000D03*
Y711200D03*
X98600Y917400D03*
X101600Y1752600D03*
Y1955800D03*
Y2387600D03*
X98600Y2162000D03*
X101600Y2590800D03*
X98600Y2797000D03*
X101600Y3022600D03*
X98600Y3432000D03*
X101600Y3225800D03*
Y3657600D03*
Y3860800D03*
X98600Y4067000D03*
X101600Y4495800D03*
Y4292600D03*
X98600Y4702000D03*
X101600Y4927600D03*
Y5130800D03*
X98600Y5337000D03*
X533400Y76200D03*
X505000Y5915200D03*
X736600Y76200D03*
X711200Y5918200D03*
X962200Y73200D03*
X889000Y1422400D03*
Y1879600D03*
Y1676400D03*
Y2108200D03*
Y2336800D03*
X914400Y5918200D03*
X1168400Y76200D03*
X1270000Y228600D03*
Y127000D03*
Y533400D03*
Y330200D03*
Y431800D03*
X1267000Y638000D03*
X1140000Y5915200D03*
X1346200Y5918200D03*
X1371600Y228600D03*
Y127000D03*
Y533400D03*
Y330200D03*
Y431800D03*
X1368600Y638000D03*
X1498600Y4419600D03*
Y4673600D03*
Y4876800D03*
Y5105400D03*
Y5334000D03*
X1549400Y5918200D03*
X1651000Y228600D03*
X1752600D03*
X1651000Y127000D03*
X1752600D03*
Y533400D03*
X1651000D03*
X1752600Y330200D03*
X1651000D03*
X1752600Y431800D03*
X1651000D03*
X1749600Y638000D03*
X1648000D03*
X1854200Y2387600D03*
Y2235200D03*
Y2514600D03*
Y2870200D03*
Y3149600D03*
Y3022600D03*
X1828800Y3733800D03*
Y3505200D03*
Y3606800D03*
X1803400Y3987800D03*
X1701800D03*
X1828800Y3835400D03*
X1803400Y4089400D03*
X1701800D03*
X1775000Y5915200D03*
X2006600Y228600D03*
X2108200D03*
X2006600Y127000D03*
X2108200D03*
Y533400D03*
X2006600D03*
X2108200Y330200D03*
X2006600D03*
X2108200Y431800D03*
X2006600D03*
X2105200Y638000D03*
X2003600D03*
X2108200Y1041400D03*
X2006600D03*
Y1346200D03*
Y1244600D03*
X2108200D03*
Y1346200D03*
Y1143000D03*
X2006600D03*
X2003600Y1552400D03*
X2006600Y1447800D03*
X2108200D03*
X2105200Y1552400D03*
X1930400Y3733800D03*
Y3505200D03*
Y3606800D03*
X2082800Y3987800D03*
X1981200D03*
X1930400Y3835400D03*
X2082800Y4089400D03*
X1981200Y5918200D03*
X2311400Y1092200D03*
X2286000Y1333500D03*
Y2857500D03*
X2336800Y3987800D03*
X2235200D03*
X2336800Y4089400D03*
X2235200D03*
X2413000Y4445000D03*
Y4699000D03*
Y4902200D03*
Y5130800D03*
Y5359400D03*
X2184400Y5918200D03*
X2410000Y5915200D03*
X2540000Y101600D03*
X2438400Y1092200D03*
X2590800D03*
X2463800Y3352800D03*
Y3606800D03*
Y3479800D03*
X2540000Y4394200D03*
X2664000Y5915200D03*
X2743200Y101600D03*
X2743180Y2095500D03*
X2768600Y2514600D03*
Y2768600D03*
Y3200400D03*
Y2971800D03*
Y3429000D03*
X2870200Y5918200D03*
X2968800Y98600D03*
X3175000Y101600D03*
X3174450Y3951950D03*
X3073400Y5918200D03*
X3378200Y101600D03*
X3365500Y3175000D03*
X3299000Y5915200D03*
X3556000Y3556000D03*
X3505200Y4445000D03*
Y4546600D03*
Y5918200D03*
X3911600Y1295400D03*
X3937000Y2743200D03*
Y3175000D03*
X3934000Y2949400D03*
X3937000Y3378200D03*
X3934000Y3584400D03*
X3937000Y3810000D03*
X3934000Y4219400D03*
X3937000Y4013200D03*
Y4445000D03*
Y4648200D03*
X3934000Y4854400D03*
X3937000Y5283200D03*
Y5080000D03*
X3934000Y5489400D03*
G54D30*
G01X334000Y2874000D02*
X191500Y3016500D01*
Y3302000D01*
X336500Y3447000D01*
G01D02*
X504100D01*
X527100Y3470000D01*
X600000D01*
G01X350000Y4850000D02*
X442900D01*
X462900Y4830000D01*
X700000D01*
G01Y5180000D02*
X480000D01*
X350000Y5050000D01*
G01X730000Y2550000D02*
Y2750000D01*
G01X743980Y2911100D02*
Y2763980D01*
X730000Y2750000D01*
G01D02*
X827500D01*
X897500Y2820000D01*
X900000D01*
G01X800000Y3470000D02*
X600000D01*
G01X750000Y4000000D02*
X1017600D01*
X1020600Y3997000D01*
X1111000D01*
G01X750000Y4250000D02*
X1019600D01*
X1020600Y4251000D01*
X1111000D01*
G01X900000Y5180000D02*
X700000D01*
G01X900000Y2980000D02*
Y3278000D01*
X1111000Y3489000D01*
G01X900000Y5180000D02*
X1106500D01*
X1270000Y5016500D01*
Y4410000D01*
X1111000Y4251000D01*
G01Y3743000D02*
X1778000Y4410000D01*
Y5080880D01*
X1856020Y5158900D01*
Y5188900D01*
G01X1520200Y1803400D02*
Y1805900D01*
X1447800Y1878300D01*
Y2006600D01*
X1505730Y2064530D01*
X1614530D01*
G01X1680200Y1803400D02*
Y1876900D01*
X1680000Y1877100D01*
Y1950000D01*
G01X2009500Y2321200D02*
Y2209100D01*
X1750400Y1950000D01*
X1680000D01*
G01X1614530Y2064530D02*
X1683500Y2133500D01*
Y2218500D01*
G01X1856020Y5188900D02*
Y5336020D01*
X1870000Y5350000D01*
G01X3150000Y700000D02*
X3011860D01*
X2926460Y785400D01*
X2923000D01*
X2921000Y787400D01*
X2895600D01*
X2743180Y939820D01*
Y2095500D01*
G01X2889000Y1711000D02*
X2984500Y1615500D01*
Y1065500D01*
X3150000Y900000D01*
G01X2743180Y2095500D02*
X2904100D01*
X3049600Y1950000D01*
X3120000D01*
G01X3150000Y1100000D02*
X3048000Y1202000D01*
Y1806000D01*
X2889000Y1965000D01*
G01Y2981000D02*
X2984500Y2885500D01*
Y2738000D01*
X3120000Y2602500D01*
Y2600000D01*
G01X3403600Y3505200D02*
X3263900Y3365500D01*
X3019500D01*
X2889000Y3235000D01*
G01Y3489000D02*
X2979400D01*
X2995600Y3505200D01*
X3225800D01*
G01X2889000Y3489000D02*
X2984500Y3584500D01*
Y3957000D01*
X3097500Y4070000D01*
X3100000D01*
G01X2680000Y4100000D02*
Y3900000D01*
G01X2889000Y3743000D02*
X2825070Y3806930D01*
X2770570D01*
X2680000Y3897500D01*
Y3900000D01*
G01Y4300000D02*
Y4100000D01*
G01X3213100Y5435600D02*
X2895600D01*
X2680000Y5220000D01*
Y4300000D01*
G01X3340100Y1113800D02*
X3254200D01*
X3240400Y1100000D01*
X3150000D01*
G01X3300000Y3720000D02*
X3100000D01*
G01X3300000Y4070000D02*
X3100000D01*
G01X3280000Y1950000D02*
Y1800000D01*
G01X3293980Y2261100D02*
Y2113980D01*
X3280000Y2100000D01*
G01Y1950000D02*
Y2100000D01*
G01Y2600000D02*
Y2750000D01*
G01D02*
Y2900000D01*
G01X3293980Y3061100D02*
Y2975700D01*
X3280000Y2961720D01*
Y2900000D01*
G01X3365500Y3175000D02*
X3322480D01*
X3293980Y3146500D01*
Y3061100D01*
G01X3300000Y3720000D02*
X3372900D01*
X3403600Y3689300D01*
Y3505200D01*
G01X3650000Y3950000D02*
X3442900D01*
X3372900Y3880000D01*
X3300000D01*
G01Y4230000D02*
X3570000D01*
X3650000Y4150000D01*
G01X3505200Y1113800D02*
X3507700D01*
X3570670Y1050830D01*
Y995330D01*
X3664000Y902000D01*
G01X3556020Y3688900D02*
X3556000Y3688880D01*
Y3556000D01*
G54D12*
X196000Y1490000D03*
X450000D03*
X336500Y3447000D03*
X346000Y3637500D03*
X696000Y1486000D03*
X750000Y4000000D03*
Y4250000D03*
X1111000Y695000D03*
Y949000D03*
Y1203000D03*
Y1457000D03*
Y1711000D03*
Y1965000D03*
Y2219000D03*
Y2473000D03*
Y2727000D03*
Y2981000D03*
Y3235000D03*
Y3489000D03*
Y3743000D03*
Y3997000D03*
Y4251000D03*
Y4505000D03*
X2889000Y695000D03*
Y949000D03*
Y1203000D03*
Y1457000D03*
Y1711000D03*
Y1965000D03*
Y2219000D03*
Y2473000D03*
Y2727000D03*
Y2981000D03*
Y3235000D03*
Y3489000D03*
Y3743000D03*
Y3997000D03*
Y4251000D03*
Y4505000D03*
X3150000Y500000D03*
Y700000D03*
Y1100000D03*
Y900000D03*
X3213100Y5435600D03*
X3403600Y3505200D03*
X3225800D03*
G54D21*
X800000Y3630000D03*
Y3470000D03*
X900000Y5020000D03*
Y5180000D03*
X2650000Y1720000D03*
Y1880000D03*
Y2070000D03*
Y2230000D03*
G54D31*
G01X334000Y2674000D02*
X228600Y2568600D01*
Y1711400D01*
X450000Y1490000D01*
G01X924930Y696330D02*
X853070D01*
X450000Y1099400D01*
Y1490000D01*
G01X650000Y3088900D02*
Y3187700D01*
X599200Y3238500D01*
X495300D01*
X444500Y3187700D01*
Y2584500D01*
X334000Y2474000D01*
G01X350000Y4450000D02*
X600000Y4200000D01*
Y3630000D01*
G01X700000Y4670000D02*
X475600D01*
X455600Y4650000D01*
X350000D01*
G01X1111000Y695000D02*
X926260D01*
X924930Y696330D01*
G01X1450000Y1390000D02*
X1275900D01*
X1257500Y1371600D01*
X1196400D01*
X1111000Y1457000D01*
G01X2009500Y1778800D02*
Y1735050D01*
X1925450Y1651000D01*
X1680200D01*
G01X1680000Y1803600D02*
X1680200Y1803400D01*
G01X2650000Y2070000D02*
X2273350D01*
X2136500Y2206850D01*
Y2321200D01*
G01X1950000Y5011100D02*
Y4650000D01*
G01X2270000Y1450000D02*
Y1349500D01*
X2286000Y1333500D01*
G01X2430000Y1450000D02*
Y1624950D01*
X2390500Y1664450D01*
Y1778800D01*
G01X2650000Y1530000D02*
Y1720000D01*
G01Y2070000D02*
Y1880000D01*
G01X2520000Y4300000D02*
Y4374200D01*
X2540000Y4394200D01*
G01X3100000Y4230000D02*
X3013100D01*
X2992100Y4251000D01*
X2889000D01*
G01X3708400Y1397000D02*
X3520500D01*
X3120000Y1797500D01*
Y1800000D01*
G01X3100000Y3880000D02*
X3102500D01*
X3174450Y3951950D01*
G01X3340100Y1273800D02*
X3505200D01*
G01X3200000Y2438900D02*
X3511100D01*
X3650000Y2300000D01*
G01X3200000Y3238900D02*
Y3263500D01*
X3238500Y3302000D01*
X3448000D01*
X3650000Y3100000D01*
G01X3664000Y1302000D02*
X3533400D01*
X3505200Y1273800D01*
G01X3664000Y1302000D02*
X3905000D01*
X3911600Y1295400D01*
G01X3475000Y2100000D02*
X3570600D01*
X3650000Y2179400D01*
Y2300000D01*
G01Y3511100D02*
Y3300000D01*
G54D13*
X334000Y2474000D03*
Y2674000D03*
Y2874000D03*
X3664000Y1102000D03*
Y1302000D03*
Y1502000D03*
G54D22*
X1450000Y1110000D03*
Y1390000D03*
G54D23*
X1403500Y2218500D03*
Y2568500D03*
Y2918500D03*
Y3268500D03*
Y3618500D03*
X1683500Y2218500D03*
Y2568500D03*
Y2918500D03*
Y3268500D03*
Y3618500D03*
X3085800Y4546600D03*
Y4876800D03*
X3365800Y4546600D03*
Y4876800D03*
X3560000Y1750000D03*
X3840000D03*
G54D14*
X570000Y2550000D03*
X730000D03*
X1520200Y1651000D03*
X1720000Y1100000D03*
X1880000D03*
X1720000Y1250000D03*
X1880000D03*
X1720000Y1400000D03*
X1880000D03*
X1680200Y1651000D03*
X2270000Y1450000D03*
X2430000D03*
X2520000Y3900000D03*
X2680000D03*
X3120000Y2100000D03*
Y2750000D03*
X3280000Y2100000D03*
Y2750000D03*
G54D15*
X334000Y3074000D03*
X3664000Y902000D03*
G54D24*
X2009500Y1778800D03*
Y2321200D03*
X2136500Y1778800D03*
X2263500D03*
X2390500D03*
Y2321200D03*
X2263500D03*
X2136500D03*
G54D16*
X350000Y4050000D03*
Y4250000D03*
Y4450000D03*
Y4650000D03*
Y4850000D03*
X1600000Y5650000D03*
X1800000D03*
X2000000D03*
X2200000D03*
X2400000D03*
X3650000Y2500000D03*
Y2900000D03*
Y2700000D03*
Y3100000D03*
Y3300000D03*
Y4150000D03*
Y4350000D03*
Y4750000D03*
Y4550000D03*
Y4950000D03*
G54D25*
X1995000Y2650000D03*
X2405000D03*
G54D17*
X350000Y5050000D03*
X2600000Y5650000D03*
X3650000Y2300000D03*
Y3950000D03*
G54D26*
X2200000Y3070000D03*
Y3630000D03*
G54D18*
X730000Y2750000D03*
X570000D03*
X1520200Y1803400D03*
X1520000Y1950000D03*
X1680200Y1803400D03*
X1680000Y1950000D03*
X1870000Y5350000D03*
X2030000D03*
X2520000Y4100000D03*
Y4300000D03*
X2680000Y4100000D03*
Y4300000D03*
X3120000Y1800000D03*
Y1950000D03*
Y2600000D03*
Y2900000D03*
X3280000Y1800000D03*
Y1950000D03*
Y2600000D03*
Y2900000D03*
G54D27*
X1950000Y4150000D03*
Y4650000D03*
G54D28*
X3475000Y2100000D03*
X3825000D03*
G54D19*
X553480Y2911100D03*
X743980D03*
X650000Y3088900D03*
X1856020Y5188900D03*
X1950000Y5011100D03*
X2046520Y5188900D03*
X3103480Y2261100D03*
Y3061100D03*
X3293980Y2261100D03*
X3200000Y2438900D03*
X3293980Y3061100D03*
X3200000Y3238900D03*
X3556020Y3688900D03*
X3650000Y3511100D03*
X3746520Y3688900D03*
G54D29*
G01X300000Y0D02*
X3700000D01*
G03X4000000Y300000I0J300000D01*
G01Y5700000D01*
G03X3700000Y6000000I-300000J0D01*
G01X300000D01*
G03X0Y5700000I0J-300000D01*
G01Y300000D01*
G03X300000Y0I300000J0D01*
M02*
