G04 ================== begin FILE IDENTIFICATION RECORD ==================*
G04 Layout Name:  FishTank-Manage.brd*
G04 Film Name:    04_BOTTOM*
G04 File Format:  Gerber RS274X*
G04 File Origin:  Cadence Allegro 17.4-S032*
G04 Origin Date:  Mon Jul 31 00:13:20 2023*
G04 *
G04 Layer:  BOARD GEOMETRY/OUTLINE*
G04 Layer:  VIA CLASS/BOTTOM*
G04 Layer:  PIN/BOTTOM*
G04 Layer:  ETCH/BOTTOM*
G04 *
G04 Offset:    (0.0000 0.0000)*
G04 Mirror:    No*
G04 Mode:      Positive*
G04 Rotation:  0*
G04 FullContactRelief:  No*
G04 UndefLineWidth:     0.0000*
G04 ================== end FILE IDENTIFICATION RECORD ====================*
%FSLAX25Y25*MOIN*%
%IR0*IPPOS*OFA0.00000B0.00000*MIA0B0*SFA1.00000B1.00000*%
%ADD17R,.023622X.047244*%
%ADD14R,.047244X.023622*%
%ADD20R,.03937X.037402*%
%ADD21R,.031496X.045276*%
%ADD18R,.037402X.03937*%
%ADD25R,.025591X.060039*%
%ADD11C,.024*%
%ADD30R,.107087X.040157*%
%ADD27R,.086614X.061024*%
%ADD22R,.040157X.107087*%
%ADD31R,.125984X.127953*%
%ADD13C,.043307*%
%ADD26R,.104331X.11811*%
%ADD23C,.051181*%
%ADD10C,.15748*%
%ADD29R,.088583X.124016*%
%ADD28C,.055118*%
%ADD16C,.05315*%
%ADD12R,.043307X.043307*%
%ADD24R,.037402X.035433*%
%ADD19R,.035433X.037402*%
%ADD15R,.05315X.05315*%
%ADD32C,.000039*%
%ADD33C,.005*%
%ADD34C,.01*%
%ADD35C,.02*%
%ADD37C,.063165*%
%ADD38C,.053323*%
%ADD36C,.061197*%
G75*
%LPD*%
G75*
G36*
G01X11811Y236220D02*
X145669D01*
G02X157480Y224409I0J-11811D01*
G01Y11811D01*
G02X145669Y0I-11811J0D01*
G01X11811D01*
G02X4320Y2680I0J11811D01*
G01X2680Y4320D01*
G02X0Y11811I9131J7491D01*
G01Y224409D01*
G02X11811Y236220I11811J0D01*
G37*
%LPC*%
G75*
G36*
G01X122999Y176608D02*
G02X120940Y179500I1001J2892D01*
G02X127060I3060J0D01*
G02X125001Y176608I-3060J0D01*
G01Y176020D01*
X125969D01*
G02X126469Y175520I0J-501D01*
G01Y174650D01*
X127578D01*
Y175370D01*
G02X128079Y175871I501J0D01*
G01X131622D01*
G02X132123Y175370I0J-501D01*
G01Y171630D01*
G02X131622Y171129I-501J0D01*
G01X130851D01*
Y170371D01*
X132122D01*
G02X132623Y169870I0J-501D01*
G01Y166130D01*
G02X132122Y165629I-501J0D01*
G01X128579D01*
G02X128078Y166130I0J501D01*
G01Y169870D01*
G02X128579Y170371I501J0D01*
G01X128850D01*
Y171129D01*
X128079D01*
G02X127578Y171630I0J501D01*
G01Y172649D01*
X126469D01*
Y171780D01*
G02X125969Y171279I-501J0D01*
G01X122946D01*
X121001Y169333D01*
Y141915D01*
X121288Y141628D01*
G03X121629Y141769I141J141D01*
G01Y145122D01*
G02X122130Y145623I501J0D01*
G01X125870D01*
G02X126371Y145122I0J-501D01*
G01Y144351D01*
X127150D01*
G02X127857Y144058I0J-1001D01*
G01X133707Y138207D01*
G02X134001Y137500I-707J-708D01*
G01Y133892D01*
G02Y128108I-1001J-2892D01*
G01Y117000D01*
G02X133707Y116293I-1001J0D01*
G01X126224Y108809D01*
G02X125940Y108610I-708J707D01*
G01X125908Y108595D01*
X125652Y108339D01*
X125706Y108215D01*
G02X125957Y107000I-2809J-1214D01*
G02X122898Y110060I-3060J0D01*
G02X124235Y109752I0J-3060D01*
G01X124707Y110224D01*
G02X124992Y110424I708J-707D01*
G01X125024Y110439D01*
X131999Y117415D01*
Y128108D01*
G02X130701Y128980I1001J2892D01*
G03X130001Y128717I-300J-264D01*
G01Y123102D01*
G02X129707Y122395I-1001J0D01*
G01X125650Y118337D01*
G02X125957Y117000I-2752J-1337D01*
G02X122898Y120060I-3060J0D01*
G02X124112Y119809I0J-3060D01*
G01X124237Y119755D01*
X127999Y123517D01*
Y132085D01*
X119293Y140793D01*
G02X118999Y141500I707J708D01*
G01Y169748D01*
G02X119293Y170456I1001J0D01*
G01X121531Y172694D01*
Y175520D01*
G02X122031Y176020I501J0D01*
G01X122999D01*
Y176608D01*
G37*
G36*
G01X124235Y74248D02*
G02X122898Y73940I-1337J2752D01*
G02X125957Y77000I0J3060D01*
G02X125650Y75663I-3060J0D01*
G01X133207Y68105D01*
G02X133501Y67398I-707J-708D01*
G01Y57392D01*
G02X135474Y55221I-1001J-2892D01*
G03X136174Y55065I389J95D01*
G02X137500Y55701I1326J-1066D01*
G02X139201Y54000I0J-1701D01*
G02X138908Y53046I-1700J0D01*
G03X139239Y52422I331J-224D01*
G01X139370D01*
G02X139871Y51921I0J-501D01*
G01Y48378D01*
G02X139370Y47877I-501J0D01*
G01X135630D01*
G02X135129Y48378I0J501D01*
G01Y51921D01*
G02X135630Y52422I501J0D01*
G01X135761D01*
G03X136092Y53046I0J400D01*
G02X135989Y53219I1408J954D01*
G03X135272Y53204I-355J-184D01*
G02X133501Y51608I-2772J1296D01*
G01Y49167D01*
X136544Y46123D01*
X139370D01*
G02X139871Y45622I0J-501D01*
G01Y44375D01*
X141529D01*
G02X144000Y46040I2471J-1001D01*
G02Y40708I0J-2666D01*
G02X141529Y42373I0J2666D01*
G01X139871D01*
Y42079D01*
G02X139370Y41578I-501J0D01*
G01X135630D01*
G02X135581Y41580I0J501D01*
G03X135374Y41450I-19J-199D01*
G02X135309Y41285I-2875J1047D01*
G01X135255Y41161D01*
X136493Y39922D01*
X139370D01*
G02X139871Y39421I0J-501D01*
G01Y36694D01*
X140064Y36501D01*
X141334D01*
Y37665D01*
G02X141835Y38166I501J0D01*
G01X146165D01*
G02X146666Y37665I0J-501D01*
G01Y33335D01*
G02X146165Y32834I-501J0D01*
G01X142840D01*
G03X142501Y32222I0J-400D01*
G01Y23793D01*
X129707Y10999D01*
X120793D01*
X117999Y13793D01*
Y37707D01*
X120293Y40001D01*
X127207D01*
X132207Y35001D01*
X134866D01*
G03X135205Y35613I0J400D01*
G02X135129Y35878I425J265D01*
G01Y38456D01*
X133839Y39745D01*
X133715Y39691D01*
G02X132500Y39440I-1214J2809D01*
G02X129440Y42500I0J3060D01*
G02X129748Y43837I3060J0D01*
G01X125793Y47793D01*
G02X125499Y48500I707J708D01*
G01Y54331D01*
G03X124845Y54640I-400J0D01*
G02X122898Y53940I-1947J2360D01*
G02Y60060I0J3060D01*
G02X124845Y59360I0J-3060D01*
G03X125499Y59669I254J309D01*
G01Y62983D01*
X124235Y64248D01*
G02X122898Y63940I-1337J2752D01*
G02X125957Y67000I0J3060D01*
G02X125650Y65663I-3060J0D01*
G01X127207Y64105D01*
G02X127501Y63398I-707J-708D01*
G01Y48915D01*
X131161Y45255D01*
X131285Y45309D01*
G02X132500Y45560I1214J-2809D01*
G02X133333Y45444I1J-3060D01*
G03X133725Y46112I109J385D01*
G01X131793Y48044D01*
G02X131499Y48752I707J708D01*
G01Y51608D01*
G02Y57392I1001J2892D01*
G01Y66983D01*
X124235Y74248D01*
G37*
G36*
G01X41245Y85661D02*
X41191Y85785D01*
G02X40940Y87000I2809J1214D01*
G02X44000Y83940I3060J0D01*
G02X42663Y84248I0J3060D01*
G01X40207Y81793D01*
G02X39500Y81499I-708J707D01*
G01X32415D01*
X31001Y80085D01*
Y79283D01*
G03X31701Y79020I400J0D01*
G02X34000Y80060I2299J-2020D01*
G02Y73940I0J-3060D01*
G02X31701Y74980I0J3060D01*
G03X31001Y74717I-300J-264D01*
G01Y61720D01*
G02X30707Y61013I-1001J0D01*
G01X27987Y58293D01*
G02X27394Y58006I-708J707D01*
G02X25501Y56108I-2894J994D01*
G01Y55371D01*
X25921D01*
G02X26422Y54870I0J-501D01*
G01Y51130D01*
G02X25921Y50629I-501J0D01*
G01X22378D01*
G02X21877Y51130I0J501D01*
G01Y54870D01*
G02X22378Y55371I501J0D01*
G01X23499D01*
Y56108D01*
G02X21440Y59000I1001J2892D01*
G02X21480Y59489I3060J-1D01*
G03X20802Y59835I-395J64D01*
G01X20733Y59767D01*
X20743Y59672D01*
G02X20752Y59500I-1692J-171D01*
G02X19051Y61201I-1701J0D01*
G02X19224Y61192I1J-1701D01*
G01X19318Y61182D01*
X22629Y64493D01*
Y67122D01*
G02X23130Y67623I501J0D01*
G01X26870D01*
G02X27371Y67122I0J-501D01*
G01Y63579D01*
G02X26870Y63078I-501J0D01*
G01X24044D01*
X23665Y62698D01*
G03X24011Y62020I283J-283D01*
G02X24500Y62060I489J-3020D01*
G02X26988Y60781I0J-3060D01*
G03X27596Y60731I325J233D01*
G01X28999Y62135D01*
Y80500D01*
G02X29293Y81207I1001J0D01*
G01X31293Y83207D01*
G02X32000Y83501I708J-707D01*
G01X39085D01*
X41245Y85661D01*
G37*
G36*
G01X101129Y111421D02*
G02X101630Y111922I501J0D01*
G01X105370D01*
G02X105871Y111421I0J-501D01*
G01Y108793D01*
X111663Y103001D01*
X115500D01*
G02X116207Y102707I0J-1001D01*
G01X119207Y99707D01*
G02X119501Y99000I-707J-708D01*
G01Y98729D01*
G03X120247Y98529I400J0D01*
G02X122898Y100060I2650J-1529D01*
G02X125789Y98001I0J-3060D01*
G01X131980D01*
G02X132158Y97985I1J-1001D01*
G03X132629Y98378I71J394D01*
G01Y98622D01*
G02X133130Y99123I501J0D01*
G01X136870D01*
G02X137371Y98622I0J-501D01*
G01Y95993D01*
X137992Y95372D01*
X138129D01*
G02X138836Y95079I0J-1001D01*
G01X142757Y91158D01*
X147157D01*
G02X147658Y90657I0J-501D01*
G01Y85343D01*
G02X147157Y84842I-501J0D01*
G01X145501D01*
Y78392D01*
G02X147560Y75500I-1001J-2892D01*
G02X141440I-3060J0D01*
G02X143499Y78392I3060J0D01*
G01Y84842D01*
X141843D01*
G02X141342Y85343I0J501D01*
G01Y89743D01*
X137714Y93370D01*
X137578D01*
G02X136870Y93664I0J1001D01*
G01X135956Y94578D01*
X133130D01*
G02X132629Y95079I0J501D01*
G01Y95850D01*
X132130D01*
G02X131646Y95974I0J1000D01*
G01X131601Y95999D01*
X125789D01*
G02X122898Y93940I-2892J1001D01*
G02X120247Y95471I0J3060D01*
G03X119501Y95271I-346J-200D01*
G01Y91812D01*
X121561Y89752D01*
G02X122898Y90060I1337J-2752D01*
G02X119838Y87000I0J-3060D01*
G02X120145Y88337I3060J0D01*
G01X117793Y90690D01*
G02X117499Y91398I707J708D01*
G01Y98585D01*
X115085Y100999D01*
X111248D01*
G02X110541Y101293I0J1001D01*
G01X104456Y107377D01*
X101630D01*
G02X101129Y107878I0J501D01*
G01Y108649D01*
X99706D01*
X99654Y108611D01*
G02X99362Y108518I-291J408D01*
G01X94638D01*
G02X94137Y109019I0J501D01*
G01Y111381D01*
G02X94638Y111882I501J0D01*
G01X99362D01*
G02X99863Y111381I0J-501D01*
G01Y110650D01*
X101129D01*
Y111421D01*
G37*
G36*
G01X79499Y224707D02*
X82793Y228001D01*
X104207D01*
X107001Y225207D01*
Y194293D01*
X103707Y190999D01*
X97001D01*
Y189667D01*
G02X98374Y188049I-1501J-2667D01*
G03X99126I376J137D01*
G02X102000Y190060I2874J-1049D01*
G02Y183940I0J-3060D01*
G02X99126Y185951I0J3060D01*
G03X98374I-376J-137D01*
G02X92626I-2874J1049D01*
G03X91874I-376J-137D01*
G02X86126I-2874J1049D01*
G03X85374I-376J-137D01*
G02X82500Y183940I-2874J1049D01*
G02Y190060I0J3060D01*
G02X85374Y188049I0J-3060D01*
G03X86126I376J137D01*
G02X91874I2874J-1049D01*
G03X92626I376J137D01*
G02X93999Y189667I2874J-1049D01*
G01Y190999D01*
X62780D01*
Y185175D01*
G02X62280Y184674I-501J0D01*
G01X60869D01*
G03X60585Y183992I0J-400D01*
G01X60726Y183851D01*
X68129D01*
Y184122D01*
G02X68630Y184623I501J0D01*
G01X72370D01*
G02X72871Y184122I0J-501D01*
G01Y180579D01*
G02X72748Y180250I-501J0D01*
G02X72871Y179921I-378J-329D01*
G01Y176378D01*
G02X72370Y175877I-501J0D01*
G01X68630D01*
G02X68129Y176378I0J501D01*
G01Y179921D01*
G02X68252Y180250I501J0D01*
G02X68129Y180579I378J329D01*
G01Y180850D01*
X60104D01*
G02X59043Y181289I0J1501D01*
G01X55658Y184674D01*
X54720D01*
G02X54543Y184707I0J501D01*
G03X54001Y184333I-142J-374D01*
G01Y183793D01*
X52707Y182499D01*
X49293D01*
X47999Y183793D01*
Y184333D01*
G03X47457Y184707I-400J0D01*
G02X47280Y184674I-178J468D01*
G01X45970D01*
G03X45627Y184069I0J-400D01*
G02X46060Y182500I-2627J-1569D01*
G02X43000Y179440I-3060J0D01*
G02X40586Y180619I0J3060D01*
G03X39871Y180374I-315J-246D01*
G01Y178579D01*
G02X39370Y178078I-501J0D01*
G01X38501D01*
Y133915D01*
X42661Y129755D01*
X42785Y129809D01*
G02X44000Y130060I1214J-2809D01*
G02X40940Y127000I0J-3060D01*
G02X41191Y128215I3060J0D01*
G01X41245Y128339D01*
X36793Y132793D01*
G02X36499Y133500I707J708D01*
G01Y178078D01*
X35630D01*
G02X35129Y178579I0J501D01*
G01Y182122D01*
G02X35630Y182623I501J0D01*
G01X38357D01*
X38942Y183207D01*
G02X39650Y183501I708J-707D01*
G01X40108D01*
G02X43000Y185560I2892J-1001D01*
G02X43725Y185473I0J-3060D01*
G03X44220Y185861I95J389D01*
G01Y191179D01*
G02X44720Y191680I501J0D01*
G01X47280D01*
G02X47600Y191565I0J-501D01*
G01X47740Y191448D01*
X51793Y195501D01*
X54793D01*
X60499Y201207D01*
Y212207D01*
X63293Y215001D01*
X76293D01*
X79499Y218207D01*
Y224707D01*
G37*
G36*
G01X29129Y204201D02*
Y204421D01*
G02X29630Y204922I501J0D01*
G01X33370D01*
G02X33871Y204421I0J-501D01*
G01Y203650D01*
X34850D01*
G02X35558Y203357I0J-1001D01*
G01X38207Y200707D01*
G02X38501Y200000I-707J-708D01*
G01Y188922D01*
X39370D01*
G02X39871Y188421I0J-501D01*
G01Y184878D01*
G02X39370Y184377I-501J0D01*
G01X35630D01*
G02X35129Y184878I0J501D01*
G01Y185649D01*
X34469D01*
Y184780D01*
G02X33969Y184279I-501J0D01*
G01X30031D01*
G02X29531Y184780I0J501D01*
G01Y185649D01*
X29031D01*
G02X28396Y185877I0J1001D01*
G03X27796Y185768I-254J-309D01*
G02X27362Y185518I-433J251D01*
G01X22638D01*
G02X22137Y186019I0J501D01*
G01Y188381D01*
G02X22638Y188882I501J0D01*
G01X27362D01*
G02X27863Y188395I0J-501D01*
G01X27868Y188201D01*
X28481D01*
G02X28945Y188087I0J-1001D01*
G03X29531Y188441I185J354D01*
G01Y188520D01*
G02X30031Y189020I501J0D01*
G01X33969D01*
G02X34469Y188520I0J-501D01*
G01Y187650D01*
X35129D01*
Y188421D01*
G02X35630Y188922I501J0D01*
G01X36499D01*
Y199585D01*
X34436Y201649D01*
X33871D01*
Y200878D01*
G02X33370Y200377I-501J0D01*
G01X29630D01*
G02X29129Y200878I0J501D01*
G01Y202199D01*
X27868D01*
X27863Y202005D01*
G02X27362Y201518I-500J14D01*
G01X22638D01*
G02X22137Y202019I0J501D01*
G01Y204381D01*
G02X22638Y204882I501J0D01*
G01X27362D01*
G02X27863Y204395I0J-501D01*
G01X27868Y204201D01*
X29129D01*
G37*
G36*
G01X13157Y197869D02*
X11779D01*
G02X9000Y196212I-2779J1501D01*
G02Y202528I0J3158D01*
G02X11779Y200871I0J-3158D01*
G01X12675D01*
X12712Y200886D01*
G02X13287Y201001I575J-1387D01*
G01X15245D01*
X15302Y201052D01*
G02X15638Y201182I336J-371D01*
G01X20362D01*
G02X20863Y200681I0J-501D01*
G01Y198319D01*
G02X20362Y197818I-501J0D01*
G01X15638D01*
G02X15302Y197948I0J501D01*
G01X15245Y197999D01*
X13770D01*
X13733Y197984D01*
G02X13157Y197869I-575J1387D01*
G37*
G36*
G01X7499Y186401D02*
Y188717D01*
G02X5842Y191496I1501J2779D01*
G02X12158I3158J0D01*
G02X10501Y188717I-3158J0D01*
G01Y186401D01*
G02X11779Y185123I-1501J-2779D01*
G01X13157D01*
G02X13716Y185015I0J-1501D01*
G01X13752Y185001D01*
X15245D01*
X15302Y185052D01*
G02X15638Y185182I336J-371D01*
G01X20362D01*
G02X20863Y184681I0J-501D01*
G01Y182319D01*
G02X20362Y181818I-501J0D01*
G01X15638D01*
G02X15302Y181948I0J501D01*
G01X15245Y181999D01*
X13280D01*
G02X12721Y182107I0J1501D01*
G01X12685Y182121D01*
X11779D01*
G02X9000Y180464I-2779J1501D01*
G02X5842Y183622I0J3158D01*
G02X7499Y186401I3158J0D01*
G37*
G36*
G01X134378Y175871D02*
X134947D01*
Y176161D01*
X134879Y176221D01*
G02X134299Y177500I1121J1279D01*
G02X137701I1701J0D01*
G02X137208Y176303I-1700J0D01*
G01X137150Y176244D01*
Y175871D01*
X137921D01*
G02X138422Y175370I0J-501D01*
G01Y171630D01*
G02X137921Y171129I-501J0D01*
G01X134378D01*
G02X133877Y171630I0J501D01*
G01Y175370D01*
G02X134378Y175871I501J0D01*
G37*
G36*
G01X134377Y166130D02*
Y169870D01*
G02X134878Y170371I501J0D01*
G01X138421D01*
G02X138922Y169870I0J-501D01*
G01Y167375D01*
X141504D01*
G02X144500Y169532I2996J-1001D01*
G02Y163216I0J-3158D01*
G02X141504Y165373I0J3158D01*
G01X138276D01*
G02X137607Y165629I0J1001D01*
G01X134878D01*
G02X134377Y166130I0J501D01*
G37*
G36*
G01X141342Y160001D02*
Y161157D01*
G02X141843Y161658I501J0D01*
G01X147157D01*
G02X147658Y161157I0J-501D01*
G01Y155843D01*
G02X147157Y155342I-501J0D01*
G01X146001D01*
Y151500D01*
G02X145561Y150439I-1501J0D01*
G01X142561Y147439D01*
G02X141500Y146999I-1061J1061D01*
G01X139422D01*
Y146630D01*
G02X138921Y146129I-501J0D01*
G01X135378D01*
G02X134877Y146630I0J501D01*
G01Y150370D01*
G02X135378Y150871I501J0D01*
G01X138921D01*
G02X139422Y150370I0J-501D01*
G01Y150001D01*
X140878D01*
X142999Y152122D01*
Y155342D01*
X141843D01*
G02X141342Y155843I0J501D01*
G01Y156999D01*
X139755D01*
X139698Y156948D01*
G02X139362Y156818I-336J371D01*
G01X134638D01*
G02X134137Y157319I0J501D01*
G01Y159681D01*
G02X134638Y160182I501J0D01*
G01X139362D01*
G02X139698Y160052I0J-501D01*
G01X139755Y160001D01*
X141342D01*
G37*
G36*
G01X121629Y153579D02*
Y157122D01*
G02X122130Y157623I501J0D01*
G01X125870D01*
G02X126371Y157122I0J-501D01*
G01Y155801D01*
X127132D01*
X127137Y155995D01*
G02X127638Y156482I500J-14D01*
G01X132362D01*
G02X132863Y155981I0J-501D01*
G01Y153619D01*
G02X132362Y153118I-501J0D01*
G01X127638D01*
G02X127137Y153605I0J501D01*
G01X127132Y153799D01*
X126371D01*
Y153579D01*
G02X125870Y153078I-501J0D01*
G01X125001D01*
Y151922D01*
X125870D01*
G02X126371Y151421I0J-501D01*
G01Y147878D01*
G02X125870Y147377I-501J0D01*
G01X122130D01*
G02X121629Y147878I0J501D01*
G01Y151421D01*
G02X122130Y151922I501J0D01*
G01X122999D01*
Y153078D01*
X122130D01*
G02X121629Y153579I0J501D01*
G37*
G36*
G01X128578Y146630D02*
Y150370D01*
G02X129079Y150871I501J0D01*
G01X132622D01*
G02X133123Y150370I0J-501D01*
G01Y146630D01*
G02X132622Y146129I-501J0D01*
G01X132053D01*
Y145839D01*
X132121Y145779D01*
G02X132701Y144500I-1121J-1279D01*
G02X129299I-1701J0D01*
G02X129792Y145697I1700J0D01*
G01X129850Y145756D01*
Y146129D01*
X129079D01*
G02X128578Y146630I0J501D01*
G37*
G36*
G01X11137Y147019D02*
Y149381D01*
G02X11638Y149882I501J0D01*
G01X16362D01*
G02X16863Y149395I0J-501D01*
G01X16868Y149201D01*
X18052D01*
X18111Y149292D01*
G02X18531Y149520I420J-272D01*
G01X22469D01*
G02X22969Y149020I0J-501D01*
G01Y148150D01*
X24129D01*
Y148921D01*
G02X24630Y149422I501J0D01*
G01X28370D01*
G02X28871Y148921I0J-501D01*
G01Y148150D01*
X29629D01*
Y148921D01*
G02X30130Y149422I501J0D01*
G01X33870D01*
G02X34371Y148921I0J-501D01*
G01Y145378D01*
G02X33870Y144877I-501J0D01*
G01X30130D01*
G02X29629Y145378I0J501D01*
G01Y146149D01*
X28871D01*
Y145378D01*
G02X28370Y144877I-501J0D01*
G01X24630D01*
G02X24129Y145378I0J501D01*
G01Y146149D01*
X22969D01*
Y145280D01*
G02X22469Y144779I-501J0D01*
G01X18531D01*
G02X18031Y145280I0J501D01*
G01Y147199D01*
X16868D01*
X16863Y147005D01*
G02X16362Y146518I-500J14D01*
G01X11638D01*
G02X11137Y147019I0J501D01*
G37*
G36*
G01X4137Y143319D02*
Y145681D01*
G02X4638Y146182I501J0D01*
G01X9362D01*
G02X9863Y145681I0J-501D01*
G01Y143319D01*
G02X9362Y142818I-501J0D01*
G01X8501D01*
Y134649D01*
X10061Y133089D01*
G02X10501Y132028I-1061J-1061D01*
G01Y130649D01*
G02X12060Y128651I-1501J-2779D01*
G01X12098Y128501D01*
X14678D01*
X16924Y130748D01*
Y133654D01*
G02X17425Y134154I501J0D01*
G01X20575D01*
G02X21076Y133654I0J-501D01*
G01Y129126D01*
G02X20575Y128625I-501J0D01*
G01X19047D01*
X16360Y125939D01*
G02X15299Y125499I-1061J1061D01*
G01X11087D01*
G02X9000Y124712I-2087J2371D01*
G02X5842Y127870I0J3158D01*
G02X7499Y130649I3158J0D01*
G01Y131406D01*
X5939Y132967D01*
G02X5499Y134028I1061J1061D01*
G01Y142818D01*
X4638D01*
G02X4137Y143319I0J501D01*
G37*
G36*
G01X29629Y139079D02*
Y142622D01*
G02X30130Y143123I501J0D01*
G01X33870D01*
G02X34371Y142622I0J-501D01*
G01Y139079D01*
G02X33870Y138578I-501J0D01*
G01X33001D01*
Y130407D01*
G03X33470Y130014I400J0D01*
G02X34000Y130060I529J-3014D01*
G02Y123940I0J-3060D01*
G02X31108Y125999I0J3060D01*
G01X27392D01*
G02X24500Y123940I-2892J1001D01*
G02Y130060I0J3060D01*
G02X27392Y128001I0J-3060D01*
G01X31108D01*
G02X31249Y128339I2891J-1003D01*
G02X30999Y129000I751J661D01*
G01Y138578D01*
X30130D01*
G02X29629Y139079I0J501D01*
G37*
G36*
G01X101031Y129650D02*
Y130520D01*
G02X101531Y131020I501J0D01*
G01X105469D01*
G02X105969Y130520I0J-501D01*
G01Y129650D01*
X106469D01*
G02X107176Y129357I0J-1001D01*
G01X108533Y128001D01*
X110006D01*
G02X112898Y130060I2892J-1001D01*
G02Y123940I0J-3060D01*
G02X110006Y125999I0J3060D01*
G01X108118D01*
G02X107411Y126293I0J1001D01*
G01X106311Y127392D01*
G03X105969Y127251I-141J-141D01*
G01Y126780D01*
G02X105469Y126279I-501J0D01*
G01X101531D01*
G02X101031Y126780I0J501D01*
G01Y127649D01*
X99871D01*
Y126878D01*
G02X99370Y126377I-501J0D01*
G01X95630D01*
G02X95129Y126878I0J501D01*
G01Y130421D01*
G02X95630Y130922I501J0D01*
G01X99370D01*
G02X99871Y130421I0J-501D01*
G01Y129650D01*
X101031D01*
G37*
G36*
G01X12918Y118495D02*
X11779D01*
G02X9000Y116838I-2779J1501D01*
G02Y123154I0J3158D01*
G02X11779Y121497I0J-3158D01*
G01X13539D01*
G02X14600Y121057I0J-1501D01*
G01X16547Y119111D01*
X16924D01*
Y119874D01*
G02X17425Y120375I501J0D01*
G01X20575D01*
G02X21076Y119874I0J-501D01*
G01Y118680D01*
G03X21825Y118486I400J0D01*
G02X24500Y120060I2675J-1486D01*
G02X27427Y117893I0J-3060D01*
G01X27470Y117751D01*
X31030D01*
X31073Y117893D01*
G02X34000Y120060I2927J-893D01*
G02Y113940I0J-3060D01*
G02X31073Y116107I0J3060D01*
G01X31030Y116249D01*
X27470D01*
X27427Y116107D01*
G02X24500Y113940I-2927J893D01*
G02X22504Y114681I0J3060D01*
G01X22363Y114802D01*
X21530Y113969D01*
G02X20999Y113748I-531J531D01*
G01X20037D01*
G03X19674Y113180I0J-400D01*
G02X19721Y112969I-454J-211D01*
G01Y109031D01*
G02X19220Y108531I-501J0D01*
G01X18101D01*
Y107871D01*
X19122D01*
G02X19623Y107370I0J-501D01*
G01Y103630D01*
G02X19122Y103129I-501J0D01*
G01X15579D01*
G02X15078Y103630I0J501D01*
G01Y107370D01*
G02X15579Y107871I501J0D01*
G01X16600D01*
Y108531D01*
X15480D01*
G02X14980Y109031I0J501D01*
G01Y110249D01*
X14730D01*
G02X14199Y110469I0J751D01*
G01X13297Y111371D01*
X12071D01*
X12029Y111228D01*
G02X9000Y108964I-3029J894D01*
G02Y115280I0J3158D01*
G02X12029Y113016I0J-3158D01*
G01X12071Y112873D01*
X13608D01*
G02X14139Y112653I0J-751D01*
G01X14297Y112495D01*
G03X14980Y112778I283J283D01*
G01Y112969D01*
G02X15480Y113469I501J0D01*
G01X16600D01*
Y113719D01*
G02X16820Y114250I751J0D01*
G01X17035Y114465D01*
G03X17051Y115014I-283J283D01*
G02X16924Y115346I375J333D01*
G01Y116109D01*
X15925D01*
G02X14864Y116549I0J1501D01*
G01X12918Y118495D01*
G37*
G36*
G01X24293Y98707D02*
X31245Y105661D01*
X31191Y105785D01*
G02X30940Y107000I2809J1214D01*
G02X34000Y103940I3060J0D01*
G02X32663Y104248I0J3060D01*
G01X26001Y97585D01*
Y91392D01*
G02Y85608I-1001J-2892D01*
G01Y85320D01*
X26026Y85275D01*
G02X26150Y84791I-876J-484D01*
G01Y80871D01*
X26921D01*
G02X27422Y80370I0J-501D01*
G01Y76630D01*
G02X26921Y76129I-501J0D01*
G01X23378D01*
G02X22877Y76630I0J501D01*
G01Y80370D01*
G02X23378Y80871I501J0D01*
G01X24149D01*
Y84412D01*
X24124Y84457D01*
G02X23999Y84941I876J484D01*
G01Y85608D01*
G02Y91392I1001J2892D01*
G01Y98000D01*
G02X24293Y98707I1001J0D01*
G37*
G36*
G01X133066Y105418D02*
G03X133392Y105945I-52J397D01*
G02X133299Y106500I1608J554D01*
G02X136701I1701J0D01*
G02X136608Y105945I-1701J-1D01*
G03X136934Y105418I378J-131D01*
G02X137371Y104921I-64J-496D01*
G01Y101378D01*
G02X136870Y100877I-501J0D01*
G01X133130D01*
G02X132629Y101378I0J501D01*
G01Y104921D01*
G02X133066Y105418I501J0D01*
G37*
G36*
G01X21377Y103630D02*
Y107370D01*
G02X21878Y107871I501J0D01*
G01X25421D01*
G02X25922Y107370I0J-501D01*
G01Y103630D01*
G02X25421Y103129I-501J0D01*
G01X24650D01*
Y102756D01*
X24708Y102697D01*
G02X25201Y101500I-1208J-1197D01*
G02X21799I-1701J0D01*
G02X22379Y102779I1701J0D01*
G01X22447Y102839D01*
Y103129D01*
X21878D01*
G02X21377Y103630I0J501D01*
G37*
G36*
G01X16924Y99391D02*
Y100154D01*
G02X17425Y100654I501J0D01*
G01X20575D01*
G02X21076Y100154I0J-501D01*
G01Y95626D01*
G02X20575Y95125I-501J0D01*
G01X17425D01*
G02X16924Y95626I0J501D01*
G01Y96389D01*
X15295D01*
X14219Y95313D01*
G02X13157Y94873I-1061J1061D01*
G01X11779D01*
G02X9000Y93216I-2779J1501D01*
G02Y99532I0J3158D01*
G02X11779Y97875I0J-3158D01*
G01X12536D01*
X13612Y98951D01*
G02X14673Y99391I1061J-1061D01*
G01X16924D01*
G37*
G36*
G01X83293Y99207D02*
X84293Y100207D01*
G02X85000Y100501I708J-707D01*
G01X91850D01*
G02X92558Y100207I0J-1001D01*
G01X93558Y99207D01*
G02X93851Y98500I-707J-708D01*
G01Y96969D01*
X94720D01*
G02X95221Y96469I0J-501D01*
G01Y92531D01*
G02X94720Y92031I-501J0D01*
G01X90980D01*
G02X90480Y92531I0J501D01*
G01Y96469D01*
G02X90980Y96969I501J0D01*
G01X91850D01*
Y98085D01*
X91436Y98499D01*
X85415D01*
X85001Y98085D01*
Y96680D01*
X85280D01*
G02X85780Y96179I0J-501D01*
G01Y90175D01*
G02X85280Y89674I-501J0D01*
G01X84170D01*
G03X83852Y89032I0J-400D01*
G02X84201Y88000I-1352J-1032D01*
G02X80799I-1701J0D01*
G02X82070Y89646I1701J0D01*
G01X82220Y89685D01*
Y96179D01*
G02X82720Y96680I501J0D01*
G01X82999D01*
Y98500D01*
G02X83293Y99207I1001J0D01*
G37*
G36*
G01X5842Y85843D02*
Y91157D01*
G02X6343Y91658I501J0D01*
G01X11657D01*
G02X12158Y91157I0J-501D01*
G01Y90001D01*
X17500D01*
G02X18561Y89561I0J-1501D01*
G01X20061Y88061D01*
G02X20500Y87056I-1061J-1061D01*
G03X20664Y86867I200J7D01*
G02X21076Y86374I-90J-493D01*
G01Y81846D01*
G02X20575Y81346I-501J0D01*
G01X17425D01*
G02X16924Y81846I0J501D01*
G01Y86374D01*
G02X17006Y86648I501J0D01*
G01X17094Y86783D01*
X16878Y86999D01*
X12158D01*
Y85843D01*
G02X11657Y85342I-501J0D01*
G01X10501D01*
Y84343D01*
G02X10061Y83281I-1501J0D01*
G01X7001Y80221D01*
Y70182D01*
X7862D01*
G02X8363Y69681I0J-501D01*
G01Y67319D01*
G02X7862Y66818I-501J0D01*
G01X3138D01*
G02X2637Y67319I0J501D01*
G01Y69681D01*
G02X3138Y70182I501J0D01*
G01X3999D01*
Y80843D01*
G02X4439Y81904I1501J0D01*
G01X7499Y84964D01*
Y85342D01*
X6343D01*
G02X5842Y85843I0J501D01*
G37*
G36*
G01X90480Y87031D02*
Y90969D01*
G02X90980Y91469I501J0D01*
G01X94720D01*
G02X95221Y90969I0J-501D01*
G01Y87031D01*
G02X94720Y86531I-501J0D01*
G01X93851D01*
Y85969D01*
X94720D01*
G02X95221Y85469I0J-501D01*
G01Y81531D01*
G02X94720Y81031I-501J0D01*
G01X90980D01*
G02X90480Y81531I0J501D01*
G01Y82499D01*
X83415D01*
X80001Y79085D01*
Y75326D01*
X80280D01*
G02X80780Y74825I0J-501D01*
G01Y68821D01*
G02X80280Y68320I-501J0D01*
G01X77720D01*
G02X77220Y68821I0J501D01*
G01Y74825D01*
G02X77720Y75326I501J0D01*
G01X77999D01*
Y79500D01*
G02X78293Y80207I1001J0D01*
G01X82293Y84207D01*
G02X83000Y84501I708J-707D01*
G01X90480D01*
Y85469D01*
G02X90980Y85969I501J0D01*
G01X91850D01*
Y86531D01*
X90980D01*
G02X90480Y87031I0J501D01*
G37*
G36*
G01X96779Y81531D02*
Y85469D01*
G02X97280Y85969I501J0D01*
G01X101020D01*
G02X101520Y85469I0J-501D01*
G01Y81531D01*
G02X101020Y81031I-501J0D01*
G01X100150D01*
Y79871D01*
X100921D01*
G02X101422Y79370I0J-501D01*
G01Y75630D01*
G02X100921Y75129I-501J0D01*
G01X97378D01*
G02X96877Y75630I0J501D01*
G01Y79370D01*
G02X97378Y79871I501J0D01*
G01X98149D01*
Y81031D01*
X97280D01*
G02X96779Y81531I0J501D01*
G37*
G36*
G01X16578Y79501D02*
Y80370D01*
G02X17079Y80871I501J0D01*
G01X20622D01*
G02X21123Y80370I0J-501D01*
G01Y76630D01*
G02X20622Y76129I-501J0D01*
G01X17079D01*
G02X16578Y76630I0J501D01*
G01Y77101D01*
G03X16237Y77243I-200J0D01*
G01X13501Y74507D01*
Y73882D01*
X14862D01*
G02X15363Y73395I0J-501D01*
G01X15368Y73201D01*
X16531D01*
Y73520D01*
G02X17031Y74020I501J0D01*
G01X20969D01*
G02X21469Y73520I0J-501D01*
G01Y72650D01*
X22629D01*
Y73421D01*
G02X23130Y73922I501J0D01*
G01X26870D01*
G02X27371Y73421I0J-501D01*
G01Y69878D01*
G02X26870Y69377I-501J0D01*
G01X23130D01*
G02X22629Y69878I0J501D01*
G01Y70649D01*
X21469D01*
Y69780D01*
G02X20969Y69279I-501J0D01*
G01X17031D01*
G02X16531Y69780I0J501D01*
G01Y71199D01*
X15368D01*
X15363Y71005D01*
G02X14862Y70518I-500J14D01*
G01X10138D01*
G02X9637Y71019I0J501D01*
G01Y73381D01*
G02X10138Y73882I501J0D01*
G01X11499D01*
Y74921D01*
G02X11793Y75629I1001J0D01*
G01X15371Y79207D01*
G02X16079Y79501I708J-707D01*
G01X16578D01*
G37*
G36*
G01X82220Y74825D02*
G02X82720Y75326I501J0D01*
G01X85280D01*
G02X85780Y74825I0J-501D01*
G01Y68821D01*
G02X85280Y68320I-501J0D01*
G01X85001D01*
Y67915D01*
X85915Y67001D01*
X90078D01*
Y67870D01*
G02X90221Y68220I501J0D01*
G03Y68780I-286J280D01*
G02X90078Y69130I358J350D01*
G01Y72870D01*
G02X90579Y73371I501J0D01*
G01X94122D01*
G02X94623Y72870I0J-501D01*
G01Y69130D01*
G02X94480Y68780I-501J0D01*
G03Y68220I286J-280D01*
G02X94623Y67870I-358J-350D01*
G01Y64130D01*
G02X94122Y63629I-501J0D01*
G01X90579D01*
G02X90078Y64130I0J501D01*
G01Y64999D01*
X85500D01*
G02X84793Y65293I0J1001D01*
G01X83293Y66793D01*
G02X82999Y67500I707J708D01*
G01Y68320D01*
X82720D01*
G02X82220Y68821I0J501D01*
G01Y74825D01*
G37*
G36*
G01X96377Y69130D02*
Y72870D01*
G02X96878Y73371I501J0D01*
G01X100421D01*
G02X100922Y72870I0J-501D01*
G01Y72739D01*
G03X101546Y72408I400J0D01*
G02X102500Y72701I954J-1408D01*
G02Y69299I0J-1701D01*
G02X101546Y69592I0J1700D01*
G03X100922Y69261I-224J-331D01*
G01Y69130D01*
G02X100421Y68629I-501J0D01*
G01X96878D01*
G02X96377Y69130I0J501D01*
G37*
G36*
G01X15578Y51130D02*
Y54870D01*
G02X16079Y55371I501J0D01*
G01X19622D01*
G02X20123Y54870I0J-501D01*
G01Y51130D01*
G02X19622Y50629I-501J0D01*
G01X18851D01*
Y49871D01*
X19622D01*
G02X20123Y49370I0J-501D01*
G01Y45630D01*
G02X19622Y45129I-501J0D01*
G01X18851D01*
Y44469D01*
X19720D01*
G02X20221Y43969I0J-501D01*
G01Y40031D01*
G02X19720Y39531I-501J0D01*
G01X17801D01*
Y39063D01*
G03X17995Y38863I200J0D01*
G02X18482Y38362I-14J-500D01*
G01Y33638D01*
G02X17981Y33137I-501J0D01*
G01X15619D01*
G02X15118Y33638I0J501D01*
G01Y38362D01*
G02X15605Y38863I501J0D01*
G03X15799Y39063I-6J200D01*
G01Y39552D01*
X15708Y39611D01*
G02X15480Y40031I272J420D01*
G01Y43969D01*
G02X15980Y44469I501J0D01*
G01X16850D01*
Y45129D01*
X16079D01*
G02X15578Y45630I0J501D01*
G01Y49370D01*
G02X16079Y49871I501J0D01*
G01X16850D01*
Y50629D01*
X16079D01*
G02X15578Y51130I0J501D01*
G37*
G36*
G01X6334Y28835D02*
Y33165D01*
G02X6835Y33666I501J0D01*
G01X11165D01*
G02X11666Y33165I0J-501D01*
G01Y32501D01*
X13500D01*
G02X14561Y32061I0J-1501D01*
G01X16122Y30501D01*
X18818D01*
Y31362D01*
G02X19319Y31863I501J0D01*
G01X21681D01*
G02X22182Y31362I0J-501D01*
G01Y26638D01*
G02X21681Y26137I-501J0D01*
G01X19319D01*
G02X18818Y26638I0J501D01*
G01Y27499D01*
X15500D01*
G02X14439Y27939I0J1501D01*
G01X12878Y29499D01*
X11666D01*
Y28835D01*
G02X11165Y28334I-501J0D01*
G01X6835D01*
G02X6334Y28835I0J501D01*
G37*
G36*
G01X71001Y76207D02*
Y55793D01*
X64501Y49293D01*
Y28793D01*
X62707Y26999D01*
X51293D01*
X49499Y28793D01*
Y78207D01*
X52793Y81501D01*
X65707D01*
X71001Y76207D01*
G37*
G36*
G01X71293Y52501D02*
X99207D01*
X103501Y48207D01*
Y25793D01*
X99207Y21499D01*
X70293D01*
X66499Y25293D01*
Y47707D01*
X71293Y52501D01*
G37*
G36*
G01X22501Y173207D02*
Y162793D01*
X15207Y155499D01*
X5793D01*
X4499Y156793D01*
Y177707D01*
X6793Y180001D01*
X15707D01*
X22501Y173207D01*
G37*
G36*
G01X125293Y203001D02*
X146207D01*
X148501Y200707D01*
Y187293D01*
X146707Y185499D01*
X140793D01*
X138999Y187293D01*
Y191293D01*
X137793Y192499D01*
X125293D01*
X122999Y194793D01*
Y200707D01*
X125293Y203001D01*
G37*
G36*
G01X66834Y10335D02*
Y14665D01*
G02X67335Y15166I501J0D01*
G01X71665D01*
G02X72166Y14665I0J-501D01*
G01Y10335D01*
G02X71665Y9834I-501J0D01*
G01X67335D01*
G02X66834Y10335I0J501D01*
G37*
G36*
G01X89216Y108182D02*
Y111110D01*
G02X87460Y114000I1501J2890D01*
G02X93973I3257J0D01*
G02X92217Y111110I-3257J0D01*
G01Y108380D01*
G03X92402Y108180I200J0D01*
G02X92863Y107681I-39J-499D01*
G01Y105319D01*
G02X92362Y104818I-501J0D01*
G01X87638D01*
G02X87137Y105319I0J501D01*
G01Y107681D01*
G02X87638Y108182I501J0D01*
G01X89216D01*
G37*
G36*
G01X88380Y175588D02*
X91293Y178501D01*
X103707D01*
X106501Y175707D01*
Y164207D01*
X118501Y152207D01*
Y136293D01*
X115707Y133499D01*
X105793D01*
X103499Y135793D01*
Y142793D01*
X88793Y157499D01*
X88175D01*
G03X87892Y156817I0J-400D01*
G01X91001Y153707D01*
Y137793D01*
X83501Y130293D01*
Y119793D01*
X80707Y116999D01*
X73604D01*
G03X73322Y116315I0J-400D01*
G02X74288Y114000I-2290J-2315D01*
G02X74137Y113021I-3257J0D01*
G03X74519Y112501I382J-120D01*
G01X75207D01*
X77001Y110707D01*
Y97021D01*
G03X77543Y96647I400J0D01*
G02X77720Y96680I178J-468D01*
G01X80280D01*
G02X80780Y96179I0J-501D01*
G01Y90175D01*
G02X80280Y89674I-501J0D01*
G01X77720D01*
G02X77299Y89905I0J500D01*
G03X76680Y89971I-337J-216D01*
G01X75707Y88999D01*
X73207D01*
X72707Y88499D01*
X70501D01*
Y87500D01*
G02X70061Y86439I-1501J0D01*
G01X67711Y84089D01*
G02X66650Y83649I-1061J1061D01*
G01X61469D01*
Y83280D01*
G02X60969Y82779I-501J0D01*
G01X57031D01*
G02X56531Y83280I0J501D01*
G01Y87020D01*
G02X57031Y87520I501J0D01*
G01X60969D01*
G02X61469Y87020I0J-501D01*
G01Y86650D01*
X66028D01*
X67499Y88122D01*
Y88499D01*
X63293D01*
X60499Y91293D01*
Y110707D01*
X62293Y112501D01*
X67544D01*
G03X67926Y113021I0J400D01*
G02X67775Y114000I3106J979D01*
G02X68741Y116315I3256J0D01*
G03X68459Y116999I-281J284D01*
G01X53793D01*
X50999Y119793D01*
Y160207D01*
X53542Y162750D01*
X52499Y163793D01*
Y169707D01*
X54793Y172001D01*
X66207D01*
X67446Y170762D01*
G03X68129Y171045I283J283D01*
G01Y173622D01*
G02X68630Y174123I501J0D01*
G01X72370D01*
G02X72871Y173622I0J-501D01*
G01Y173351D01*
X73429D01*
X73999Y173922D01*
Y175200D01*
G02X73799Y176000I1501J800D01*
G02X77201I1701J0D01*
G02X77001Y175200I-1701J0D01*
G01Y173300D01*
G02X76822Y172590I-1501J0D01*
G03X77175Y172001I352J-189D01*
G01X84793D01*
X86412Y173620D01*
G03X86105Y174302I-283J283D01*
G02X86000Y174299I-103J1698D01*
G02X87701Y176000I0J1701D01*
G02X87698Y175895I-1701J-1D01*
G03X88380Y175588I399J-25D01*
G37*
G54D37*
X144500Y111622D03*
Y95874D03*
Y103748D03*
G54D38*
X9000Y54622D03*
X144000Y51248D03*
X9000Y46748D03*
Y38874D03*
X85248Y12500D03*
X93122D03*
X77374D03*
G54D36*
X122898Y127000D03*
X112898Y117000D03*
X44000D03*
X112898Y107000D03*
X44000D03*
X112898Y97000D03*
X44000D03*
X34000D03*
X112898Y87000D03*
X34000D03*
X112898Y77000D03*
X44000D03*
X112898Y67000D03*
Y57000D03*
X44000D03*
X34000D03*
%LPD*%
G75*
G36*
G01X15000Y156000D02*
X6000D01*
X5000Y157000D01*
Y177500D01*
X7000Y179500D01*
X15500D01*
X22000Y173000D01*
Y163000D01*
X15000Y156000D01*
G37*
G36*
G01X64000Y49500D02*
Y29000D01*
X62500Y27500D01*
X51500D01*
X50000Y29000D01*
Y78000D01*
X53000Y81000D01*
X65500D01*
X70500Y76000D01*
Y56000D01*
X64000Y49500D01*
G37*
G36*
G01X53500Y162000D02*
X54292D01*
X54293Y161999D01*
X61001D01*
X66000Y157000D01*
X87000D01*
X90500Y153500D01*
Y138000D01*
X83000Y130500D01*
Y120000D01*
X80500Y117500D01*
X54000D01*
X51500Y120000D01*
Y160000D01*
X53500Y162000D01*
G37*
G36*
G01X83000Y227500D02*
X104000D01*
X106500Y225000D01*
Y194500D01*
X103500Y191500D01*
X62672D01*
X62615Y191551D01*
G03X62280Y191680I-335J-372D01*
G01X59720D01*
G03X59385Y191551I0J-500D01*
G01X59328Y191500D01*
X57672D01*
X57615Y191551D01*
G03X57280Y191680I-335J-372D01*
G01X54720D01*
G03X54230Y191277I0J-501D01*
G01X54217Y191217D01*
X53500Y190500D01*
Y184000D01*
X52500Y183000D01*
X49500D01*
X48500Y184000D01*
Y191500D01*
X52000Y195000D01*
X55000D01*
X61000Y201000D01*
Y212000D01*
X63500Y214500D01*
X76500D01*
X80000Y218000D01*
Y224500D01*
X83000Y227500D01*
G37*
G36*
G01X73602Y112000D02*
X75000D01*
X76500Y110500D01*
Y90500D01*
X75500Y89500D01*
X73000D01*
X72500Y89000D01*
X70501D01*
Y89715D01*
X70581Y89775D01*
G03X70780Y90175I-301J400D01*
G01Y96179D01*
G03X70280Y96680I-501J0D01*
G01X67720D01*
G03X67220Y96179I0J-501D01*
G01Y90175D01*
G03X67419Y89775I501J0D01*
G01X67499Y89715D01*
Y89000D01*
X63500D01*
X61000Y91500D01*
Y110500D01*
X62500Y112000D01*
X68461D01*
G03X73602I2570J2000D01*
G37*
G36*
G01X91500Y178000D02*
X103500D01*
X106000Y175500D01*
Y164000D01*
X118000Y152000D01*
Y136500D01*
X115500Y134000D01*
X106000D01*
X104000Y136000D01*
Y143000D01*
X89000Y158000D01*
X66500D01*
X62000Y162500D01*
X54500D01*
X53000Y164000D01*
Y169500D01*
X55000Y171500D01*
X66000D01*
X68000Y169500D01*
X73500D01*
X74387Y170387D01*
X74439Y170401D01*
G03X75111Y170789I-389J1449D01*
G01X75822Y171500D01*
X85000D01*
X91500Y178000D01*
G37*
G36*
G01X103000Y48000D02*
Y26000D01*
X99000Y22000D01*
X70500D01*
X67000Y25500D01*
Y47500D01*
X71500Y52000D01*
X99000D01*
X103000Y48000D01*
G37*
G36*
G01X142000Y32000D02*
Y24000D01*
X129500Y11500D01*
X121000D01*
X118500Y14000D01*
Y37500D01*
X120500Y39500D01*
X127000D01*
X132000Y34500D01*
X139500D01*
X142000Y32000D01*
G37*
G36*
G01X126371Y142350D02*
X126735D01*
X131999Y137085D01*
Y133892D01*
G03X130577Y132868I1001J-2891D01*
G02X129900Y132937I-317J244D01*
G03X129707Y133207I-900J-438D01*
G01X122520Y140395D01*
G02X122803Y141078I283J283D01*
G01X125870D01*
G03X126371Y141579I0J501D01*
G01Y142350D01*
G37*
G36*
G01X125500Y202500D02*
X146000D01*
X148000Y200500D01*
Y187500D01*
X146500Y186000D01*
X141000D01*
X139669Y187331D01*
X139656Y187386D01*
G03X139500Y187802I-1656J-386D01*
G01Y191500D01*
X138000Y193000D01*
X125500D01*
X123500Y195000D01*
Y200500D01*
X125500Y202500D01*
G37*
G54D10*
X11811Y11811D03*
Y224409D03*
X145669Y11811D03*
Y224409D03*
G54D11*
X2500Y21500D03*
Y17500D03*
Y25500D03*
Y29500D03*
Y41500D03*
Y37500D03*
Y33500D03*
Y53500D03*
Y45500D03*
Y49500D03*
Y61500D03*
Y57500D03*
X9000Y61500D03*
X2500Y73500D03*
Y65500D03*
Y82000D03*
Y77500D03*
Y94000D03*
Y90000D03*
Y86000D03*
Y102000D03*
Y98000D03*
Y114500D03*
Y110000D03*
Y106000D03*
Y122500D03*
Y118500D03*
Y135000D03*
Y126500D03*
Y131000D03*
Y143500D03*
Y139500D03*
Y155500D03*
Y147500D03*
Y151500D03*
Y167500D03*
Y163500D03*
Y159500D03*
Y175500D03*
Y171500D03*
Y183500D03*
Y187500D03*
Y179500D03*
Y195500D03*
Y191500D03*
Y208000D03*
Y204000D03*
Y199500D03*
Y216000D03*
Y212000D03*
X21000Y3000D03*
X15500Y61500D03*
X19051Y59500D03*
X14000Y137000D03*
X17500D03*
X13000Y164500D03*
X15000Y160000D03*
Y176500D03*
X13000Y172000D03*
X17500Y192500D03*
X21000D03*
X19500Y233000D03*
X25000Y3000D03*
X29000D03*
X33000D03*
X28500Y42000D03*
Y36000D03*
Y47500D03*
X23500Y101500D03*
X29000Y113000D03*
Y109000D03*
X24500Y132500D03*
X28000D03*
X24500Y137000D03*
X28000D03*
X23000Y158500D03*
X26500D03*
X30000D03*
X23000Y176000D03*
X26500D03*
X30000D03*
X24500Y192500D03*
X28000D03*
X31500D03*
X23500Y233000D03*
X27500D03*
X31500D03*
X37000Y3000D03*
X41000D03*
X33500Y158500D03*
Y167000D03*
Y163000D03*
X43000Y165000D03*
X33500Y176000D03*
Y171500D03*
X43000Y168500D03*
X35000Y192500D03*
X39500Y233000D03*
X35500D03*
X45000Y3000D03*
X49000D03*
X53000D03*
Y102500D03*
Y109000D03*
X44000Y141000D03*
Y145500D03*
Y137000D03*
Y153500D03*
Y149500D03*
Y157500D03*
X43500Y161000D03*
X48500Y162000D03*
X51000Y176000D03*
X47000D03*
Y172500D03*
X51000D03*
X43500D03*
X49000Y196500D03*
Y208000D03*
Y204000D03*
Y200000D03*
X53000Y211500D03*
X49000D03*
X47500Y233000D03*
X43500D03*
X51500D03*
X57000Y3000D03*
X61000D03*
X64000Y94500D03*
Y91000D03*
Y98000D03*
X54500Y135500D03*
Y131000D03*
Y127000D03*
X59500D03*
X54500Y144000D03*
Y140000D03*
Y153000D03*
Y148500D03*
X63500Y176000D03*
X55000D03*
X59500D03*
X58000Y206000D03*
Y202000D03*
X63500Y233000D03*
X59500D03*
X55500D03*
X65000Y3000D03*
X69000D03*
X73000D03*
X71500Y30000D03*
Y41500D03*
Y37500D03*
Y33500D03*
Y45500D03*
X74500Y65000D03*
X72000Y80000D03*
X73500Y76500D03*
X72000Y86000D03*
X68000Y103000D03*
Y99000D03*
X74000Y98500D03*
X68000Y110000D03*
Y106500D03*
X74000Y110000D03*
Y107000D03*
X65000Y124500D03*
X69500D03*
X65000Y133500D03*
Y129000D03*
X69500Y133500D03*
Y129000D03*
X74000Y145500D03*
X69500D03*
X65000D03*
X74000Y141500D03*
X69500D03*
X65000D03*
X74000Y137500D03*
X69500D03*
X65000D03*
X74000Y149500D03*
X65000Y153500D03*
X69500D03*
X74000D03*
X65000Y149500D03*
X69500D03*
X66000Y188500D03*
X74500Y195500D03*
X70000D03*
Y207500D03*
X74500D03*
Y203500D03*
X70000D03*
X74500Y199500D03*
X70000D03*
Y211500D03*
X74500D03*
X71500Y233000D03*
X67500D03*
X77000Y3000D03*
X81000D03*
X84000Y49500D03*
X80000D03*
X84000Y45500D03*
X80000D03*
X76000D03*
X83500Y63000D03*
X84000Y59000D03*
Y56000D03*
X77500Y65000D03*
X80500D03*
X75500Y80000D03*
Y86000D03*
X79000D03*
X82500Y88000D03*
X80000Y107500D03*
X80500Y120500D03*
X78000Y153500D03*
X82500D03*
X75500Y176000D03*
X75000Y188500D03*
X79000Y195500D03*
X83500D03*
X79000Y207500D03*
Y203500D03*
Y199500D03*
X83500Y207500D03*
Y203500D03*
Y199500D03*
X79000Y211500D03*
X83500D03*
X84000Y233000D03*
X79500D03*
X75500D03*
X85500Y3000D03*
X89500D03*
X93500D03*
X88000Y49500D03*
Y45500D03*
X91500Y125500D03*
Y122500D03*
Y119500D03*
Y131500D03*
Y128500D03*
Y135000D03*
X87000Y153500D03*
X86000Y176000D03*
X88000Y195500D03*
Y207500D03*
Y203500D03*
Y199500D03*
Y211500D03*
Y218500D03*
Y226000D03*
X92000Y233000D03*
X88000D03*
X97500Y3000D03*
X101500D03*
X105500D03*
X101000Y30000D03*
Y26500D03*
X97500Y32000D03*
Y28000D03*
Y24000D03*
X101000Y41500D03*
Y37500D03*
Y34000D03*
X97500Y36000D03*
X99000Y62000D03*
X102500D03*
Y58000D03*
Y66000D03*
Y71000D03*
X96000Y218500D03*
Y226000D03*
Y233000D03*
X104000D03*
X100000D03*
X109500Y3000D03*
X113500D03*
X112500Y12000D03*
X108500Y22500D03*
Y19000D03*
Y15000D03*
X112500Y29000D03*
X108500Y26500D03*
X107500Y116500D03*
X108000Y120500D03*
Y124000D03*
X112000Y233000D03*
X108000D03*
X118000Y3000D03*
X122000D03*
X126000D03*
X121500Y33000D03*
X125500D03*
X121500Y29000D03*
X125500D03*
X121500Y36500D03*
X125500D03*
X124500Y233000D03*
X120500D03*
X116500D03*
X130000Y3000D03*
X134500D03*
X130000Y22000D03*
Y18000D03*
X133500Y22000D03*
X129500Y33000D03*
X130000Y29000D03*
Y25500D03*
X133500D03*
X129500Y60000D03*
Y64000D03*
X135000Y106500D03*
X128000Y138000D03*
X131000Y144500D03*
X136000Y153500D03*
X135000Y163000D03*
X128000Y159000D03*
X136000Y177500D03*
X127500Y190500D03*
X130500D03*
X133500D03*
X136500D03*
X128500Y233000D03*
X133000D03*
X138500Y3000D03*
X137000Y25500D03*
X137500Y54000D03*
X140000Y153500D03*
X138500Y163000D03*
X138000Y187000D03*
Y183500D03*
X140000Y194500D03*
Y200500D03*
X137000Y233000D03*
X154500Y22000D03*
Y30000D03*
Y26000D03*
Y42500D03*
Y38000D03*
Y34000D03*
Y50500D03*
Y46500D03*
Y54500D03*
Y62500D03*
Y58500D03*
Y70500D03*
Y66500D03*
Y83000D03*
Y79000D03*
Y75000D03*
Y87000D03*
Y91500D03*
Y103500D03*
Y99500D03*
Y95500D03*
Y115500D03*
Y107500D03*
Y111500D03*
Y123500D03*
Y119500D03*
Y135500D03*
Y127500D03*
Y131500D03*
Y143500D03*
Y139500D03*
Y155500D03*
Y151500D03*
Y147500D03*
Y164000D03*
Y159500D03*
Y176000D03*
Y172000D03*
Y168000D03*
Y188000D03*
Y184000D03*
Y180000D03*
Y196500D03*
Y192000D03*
Y208500D03*
Y204500D03*
Y200500D03*
Y217000D03*
Y213000D03*
G54D20*
X19000Y65350D03*
Y71650D03*
X20500Y140850D03*
Y147150D03*
X32000Y180350D03*
Y186650D03*
X59000Y78850D03*
Y85150D03*
X103500Y122350D03*
Y128650D03*
X124000Y167350D03*
Y173650D03*
G54D12*
X9000Y31000D03*
X69500Y12500D03*
X144000Y35500D03*
G54D30*
X95000Y46988D03*
Y58012D03*
X130500Y186488D03*
Y197512D03*
G54D21*
X19000Y84110D03*
Y97890D03*
Y117610D03*
Y131390D03*
G54D13*
X9000Y38874D03*
Y46748D03*
Y54622D03*
X77374Y12500D03*
X93122D03*
X85248D03*
X144000Y43374D03*
Y51248D03*
Y59122D03*
G54D31*
X97500Y169283D03*
Y204717D03*
G54D22*
X17988Y168000D03*
X29012D03*
X48988Y136500D03*
Y148500D03*
X52988Y202000D03*
X60012Y136500D03*
Y148500D03*
X64012Y202000D03*
X75488Y124500D03*
X86512D03*
X112988Y20500D03*
X124012D03*
G54D32*
G01X11811Y0D02*
X145669D01*
G03X157480Y11811I0J11811D01*
G01Y224409D01*
G03X145669Y236220I-11811J0D01*
G01X11811D01*
G03X0Y224409I0J-11811D01*
G01Y11811D01*
G03X11811Y0I11811J0D01*
G54D23*
X24500Y59000D03*
X25000Y88500D03*
X24500Y117000D03*
Y127000D03*
X34000Y57000D03*
Y67000D03*
Y77000D03*
Y87000D03*
Y97000D03*
Y107000D03*
Y117000D03*
Y127000D03*
X43000Y182500D03*
X44000Y57000D03*
Y67000D03*
Y77000D03*
Y87000D03*
Y97000D03*
Y107000D03*
Y117000D03*
Y127000D03*
X82500Y187000D03*
X95500D03*
X89000D03*
X102000D03*
X112898Y57000D03*
Y67000D03*
Y77000D03*
Y87000D03*
Y97000D03*
Y107000D03*
Y117000D03*
Y127000D03*
X122898Y57000D03*
Y67000D03*
Y77000D03*
Y87000D03*
Y97000D03*
Y107000D03*
Y117000D03*
Y127000D03*
X124000Y179500D03*
X132500Y42500D03*
Y54500D03*
X133000Y131000D03*
X144500Y75500D03*
G54D14*
X12500Y64700D03*
Y72200D03*
X5500Y68500D03*
X7000Y144500D03*
X14000Y140700D03*
Y148200D03*
X18000Y183500D03*
Y199500D03*
X25000Y179700D03*
Y187200D03*
Y195700D03*
Y203200D03*
X90000Y106500D03*
X97000Y102700D03*
Y110200D03*
X130000Y154800D03*
Y162300D03*
X137000Y158500D03*
G54D33*
G01X9000Y112122D02*
X13608D01*
X14730Y111000D01*
X17350D01*
G01Y105500D02*
Y111000D01*
G01D02*
Y113719D01*
X18131Y114499D01*
X20999D01*
X23500Y117000D01*
X24500D01*
G01X34000D02*
X24500D01*
G54D15*
X9000Y88500D03*
Y160000D03*
X100000Y222500D03*
X144500Y88000D03*
Y158500D03*
G54D24*
X25000Y65350D03*
Y71650D03*
X26500Y140850D03*
X32000D03*
X26500Y147150D03*
X32000D03*
X31500Y196350D03*
Y202650D03*
X37500Y180350D03*
Y186650D03*
X70500Y171850D03*
Y178150D03*
Y182350D03*
Y188650D03*
X103500Y103350D03*
Y109650D03*
X97500Y122350D03*
Y128650D03*
X124000Y143350D03*
Y149650D03*
Y155350D03*
Y161650D03*
X135000Y103150D03*
Y96850D03*
X137500Y31350D03*
Y37650D03*
Y43850D03*
Y50150D03*
G54D34*
G01X16800Y36000D02*
Y40950D01*
X17850Y42000D01*
G01Y47500D02*
Y42000D01*
G01Y53000D02*
Y47500D01*
G01X25000Y65350D02*
X24902D01*
X19051Y59500D01*
G01X25000Y71650D02*
X19000D01*
G01X12500Y72200D02*
X18450D01*
X19000Y71650D01*
G01X18850Y78500D02*
X16079D01*
X12500Y74921D01*
Y72200D01*
G01X20500Y147150D02*
X26500D01*
G01X14000Y148200D02*
X19450D01*
X20500Y147150D01*
G01X24500Y59000D02*
Y53350D01*
X24150Y53000D01*
G01X24500Y59000D02*
X27280D01*
X30000Y61720D01*
Y80500D01*
X32000Y82500D01*
X39500D01*
X44000Y87000D01*
G01X25150Y78500D02*
Y84791D01*
X25000Y84941D01*
Y88500D01*
G01X34000Y107000D02*
X25000Y98000D01*
Y88500D01*
G01X23500Y101500D02*
X24000D01*
G01X23650Y105500D02*
Y101650D01*
X23500Y101500D01*
G01X24500Y127000D02*
X34000D01*
G01X26500Y147150D02*
X32000D01*
G01X25000Y187200D02*
X28481D01*
X29031Y186650D01*
X32000D01*
G01X25000Y187200D02*
X23819D01*
G01X25000Y203200D02*
X30950D01*
X31500Y202650D01*
G01X23700Y203200D02*
X25000D01*
G01X34000Y127000D02*
X32000Y129000D01*
Y140850D01*
G01X44000Y127000D02*
X37500Y133500D01*
Y180350D01*
G01Y186650D02*
X32000D01*
G01X37500D02*
Y200000D01*
X34850Y202650D01*
X31500D01*
G01X37500Y180500D02*
Y180350D01*
G01X43000Y182500D02*
X39650D01*
X37500Y180350D01*
G01X92850Y83500D02*
X83000D01*
X79000Y79500D01*
Y71823D01*
G01X92350Y71000D02*
Y66000D01*
G01D02*
X85500D01*
X84000Y67500D01*
Y71823D01*
G01X92850Y94500D02*
Y98500D01*
X91850Y99500D01*
X85000D01*
X84000Y98500D01*
Y93177D01*
G01X92850Y83500D02*
Y89000D01*
G01X98650Y71000D02*
X102500D01*
G01X99150Y77500D02*
Y83500D01*
G01X103500Y109650D02*
X97550D01*
X97000Y110200D01*
G01X122898Y87000D02*
X118500Y91398D01*
Y99000D01*
X115500Y102000D01*
X111248D01*
X103598Y109650D01*
X103500D01*
G01X112898Y127000D02*
X108118D01*
X106469Y128650D01*
X103500D01*
G01X97500D02*
X103500D01*
G01X132500Y42500D02*
X126500Y48500D01*
Y63398D01*
X122898Y67000D01*
G01Y77000D02*
X132500Y67398D01*
Y54500D01*
G01X122898Y97000D02*
X131980D01*
X132130Y96850D01*
X135000D01*
G01X133000Y131000D02*
Y117000D01*
X125517Y109517D01*
X125415D01*
X122898Y107000D01*
G01Y117000D02*
X129000Y123102D01*
Y132500D01*
X120000Y141500D01*
Y169748D01*
X123902Y173650D01*
X124000D01*
G01X133000Y131000D02*
Y137500D01*
X127150Y143350D01*
X124000D01*
G01X130000Y154800D02*
X124550D01*
X124000Y155350D01*
G01Y149650D02*
Y155350D01*
G01Y173650D02*
X129701D01*
X129850Y173500D01*
G01X124000Y179500D02*
Y173650D01*
G01X137500Y37650D02*
X137350D01*
X132500Y42500D01*
G01Y54500D02*
Y48752D01*
X137402Y43850D01*
X137500D01*
G01X135000Y103150D02*
Y106500D01*
G01X144500Y88000D02*
X138129Y94371D01*
X137578D01*
X135098Y96850D01*
X135000D01*
G01X130850Y148500D02*
Y144650D01*
X131000Y144500D01*
G01X129850Y173500D02*
Y168500D01*
X130350Y168000D01*
G01X137500Y37650D02*
X139650Y35500D01*
X144000D01*
G01Y43374D02*
X137976D01*
X137500Y43850D01*
G01Y50150D02*
Y54000D01*
G01X144500Y75500D02*
Y88000D01*
G01Y166374D02*
X138276D01*
X136650Y168000D01*
G01X136150Y173500D02*
Y177350D01*
X136000Y177500D01*
G54D16*
X9000Y104248D03*
Y96374D03*
Y112122D03*
Y119996D03*
Y127870D03*
Y167874D03*
Y175748D03*
Y183622D03*
Y191496D03*
Y199370D03*
X60630Y222500D03*
X68504D03*
X76378D03*
X84252D03*
X92126D03*
X144500Y103748D03*
Y95874D03*
Y111622D03*
Y119496D03*
Y127370D03*
Y166374D03*
Y174248D03*
Y182122D03*
Y197870D03*
Y189996D03*
G54D25*
X46000Y166823D03*
X51000D03*
Y188177D03*
X46000D03*
X56000Y166823D03*
X61000D03*
Y188177D03*
X56000D03*
X69000Y71823D03*
Y93177D03*
X74000Y71823D03*
X79000D03*
X84000D03*
Y93177D03*
X79000D03*
X74000D03*
G54D35*
G01X20500Y29000D02*
X15500D01*
X13500Y31000D01*
X9000D01*
G01X5500Y68500D02*
Y80843D01*
X9000Y84343D01*
Y88500D01*
G01D02*
X17500D01*
X19000Y87000D01*
Y84110D01*
G01Y97890D02*
X14673D01*
X13157Y96374D01*
X9000D01*
G01Y119996D02*
X13539D01*
X15925Y117610D01*
X19000D01*
G01X7000Y144500D02*
Y134028D01*
X9000Y132028D01*
Y127870D01*
G01D02*
X9870Y127000D01*
X15299D01*
X19000Y130701D01*
Y131390D01*
G01X18000Y183500D02*
X13280D01*
X13157Y183622D01*
X9000D01*
G01Y191496D02*
Y183622D01*
G01X18000Y199500D02*
X13287D01*
X13157Y199370D01*
X9000D01*
G01X69000Y93177D02*
Y87500D01*
X66650Y85150D01*
X59000D01*
G01X70500Y182350D02*
X60104D01*
X56000Y186455D01*
Y188177D01*
G01X75500Y176000D02*
Y173300D01*
X74050Y171850D01*
X70500D01*
G01Y178150D02*
Y182350D01*
G01X90717Y114000D02*
Y107217D01*
X90000Y106500D01*
G01X95500Y187000D02*
Y193000D01*
G01X144500Y158500D02*
Y151500D01*
X141500Y148500D01*
X137150D01*
G01X144500Y158500D02*
X137000D01*
G54D26*
X56976Y36000D03*
X79024D03*
G54D17*
X20500Y29000D03*
X16800Y36000D03*
X24300D03*
G54D27*
X61929Y58000D03*
X78071D03*
G54D18*
X17850Y42000D03*
X17350Y111000D03*
X24150Y42000D03*
X23650Y111000D03*
X48850Y158000D03*
X57350Y103000D03*
X63650D03*
X57350Y109000D03*
X63650D03*
X55150Y158000D03*
X57850Y211000D03*
X73850Y103000D03*
X64150Y211000D03*
X80150Y103000D03*
X92850Y83500D03*
Y94500D03*
Y89000D03*
X99150Y83500D03*
Y94500D03*
Y89000D03*
G54D19*
X17850Y53000D03*
Y47500D03*
X18850Y78500D03*
X17350Y105500D03*
X24150Y53000D03*
Y47500D03*
X25150Y78500D03*
X23650Y105500D03*
X92350Y71000D03*
Y66000D03*
X92850Y77500D03*
X98650Y71000D03*
Y66000D03*
X99150Y77500D03*
X130850Y148500D03*
X130350Y168000D03*
X136150Y173500D03*
X129850D03*
X137150Y148500D03*
X136650Y168000D03*
G54D28*
X71031Y114000D03*
X90717D03*
G54D29*
X83917Y143500D03*
X111083D03*
M02*
