G04 ================== begin FILE IDENTIFICATION RECORD ==================*
G04 Layout Name:  FishTank-Manage.brd*
G04 Film Name:    DRILL*
G04 File Format:  Gerber RS274X*
G04 File Origin:  Cadence Allegro 17.4-S032*
G04 Origin Date:  Mon Jul 31 00:13:20 2023*
G04 *
G04 Layer:  MANUFACTURING/NCLEGEND-1-4*
G04 Layer:  BOARD GEOMETRY/OUTLINE*
G04 Layer:  MANUFACTURING/NCDRILL_LEGEND*
G04 Layer:  MANUFACTURING/NCDRILL_FIGURE*
G04 *
G04 Offset:    (0.0000 0.0000)*
G04 Mirror:    No*
G04 Mode:      Positive*
G04 Rotation:  0*
G04 FullContactRelief:  No*
G04 UndefLineWidth:     0.0000*
G04 ================== end FILE IDENTIFICATION RECORD ====================*
%FSLAX25Y25*MOIN*%
%IR0*IPPOS*OFA0.00000B0.00000*MIA0B0*SFA1.00000B1.00000*%
%AMMACRO16*
1,1,0.0,.01378,.01378*
20,1,0.0,.01378,.01378,.01378,-.01378,0.0*
1,1,0.0,.01378,-.01378*
20,1,0.0,.01378,-.01378,-.01378,-.01378,0.0*
1,1,0.0,-.01378,-.01378*
20,1,0.0,-.01378,-.01378,-.01378,.01378,0.0*
1,1,0.0,-.01378,.01378*
20,1,0.0,-.01378,.01378,.01378,.01378,0.0*
1,1,0.0,.01378,.01378*
%
%ADD16MACRO16*%
%AMMACRO17*
1,1,0.0,.0065,0.0*
20,1,0.0,.0065,0.0,-.0065,0.0,0.0*
1,1,0.0,-.0065,0.0*
1,1,0.0,0.0,.0065*
20,1,0.0,0.0,.0065,0.0,-.0065,0.0*
1,1,0.0,0.0,-.0065*
%
%ADD17MACRO17*%
%AMMACRO13*
1,1,0.0,.007338,-.017717*
20,1,0.0,.007338,-.017717,-.007338,-.017717,0.0*
1,1,0.0,-.007338,-.017717*
20,1,0.0,-.007338,-.017717,-.017717,-.007338,0.0*
1,1,0.0,-.017717,-.007338*
20,1,0.0,-.017717,-.007338,-.017717,.007338,0.0*
1,1,0.0,-.017717,.007338*
20,1,0.0,-.017717,.007338,-.007338,.017717,0.0*
1,1,0.0,-.007338,.017717*
20,1,0.0,-.007338,.017717,.007338,.017717,0.0*
1,1,0.0,.007338,.017717*
20,1,0.0,.007338,.017717,.017717,.007338,0.0*
1,1,0.0,.017717,.007338*
20,1,0.0,.017717,.007338,.017717,-.007338,0.0*
1,1,0.0,.017717,-.007338*
20,1,0.0,.017717,-.007338,.007338,-.017717,0.0*
1,1,0.0,.007338,-.017717*
%
%ADD13MACRO13*%
%AMMACRO12*
1,1,0.0,.017717,0.0*
20,1,0.0,.017717,0.0,0.0,-.017717,0.0*
1,1,0.0,0.0,-.017717*
20,1,0.0,0.0,-.017717,-.017717,0.0,0.0*
1,1,0.0,-.017717,0.0*
20,1,0.0,-.017717,0.0,0.0,.017717,0.0*
1,1,0.0,0.0,.017717*
20,1,0.0,0.0,.017717,.017717,0.0,0.0*
1,1,0.0,.017717,0.0*
%
%ADD12MACRO12*%
%AMMACRO10*
1,1,0.0,-.010827,.03248*
20,1,0.0,-.010827,.03248,.010827,.03248,0.0*
1,1,0.0,.010827,.03248*
20,1,0.0,.010827,.03248,.016467,.031987,0.0*
1,1,0.0,.016467,.031987*
20,1,0.0,.016467,.031987,.021936,.030522,0.0*
1,1,0.0,.021936,.030522*
20,1,0.0,.021936,.030522,.027067,.028129,0.0*
1,1,0.0,.027067,.028129*
20,1,0.0,.027067,.028129,.031705,.024881,0.0*
1,1,0.0,.031705,.024881*
20,1,0.0,.031705,.024881,.035708,.020878,0.0*
1,1,0.0,.035708,.020878*
20,1,0.0,.035708,.020878,.038956,.01624,0.0*
1,1,0.0,.038956,.01624*
20,1,0.0,.038956,.01624,.041348,.011109,0.0*
1,1,0.0,.041348,.011109*
20,1,0.0,.041348,.011109,.042814,.00564,0.0*
1,1,0.0,.042814,.00564*
20,1,0.0,.042814,.00564,.043307,0.0,0.0*
1,1,0.0,.043307,0.0*
20,1,0.0,.043307,0.0,.042814,-.00564,0.0*
1,1,0.0,.042814,-.00564*
20,1,0.0,.042814,-.00564,.041348,-.011109,0.0*
1,1,0.0,.041348,-.011109*
20,1,0.0,.041348,-.011109,.038956,-.01624,0.0*
1,1,0.0,.038956,-.01624*
20,1,0.0,.038956,-.01624,.035708,-.020878,0.0*
1,1,0.0,.035708,-.020878*
20,1,0.0,.035708,-.020878,.031705,-.024881,0.0*
1,1,0.0,.031705,-.024881*
20,1,0.0,.031705,-.024881,.027067,-.028129,0.0*
1,1,0.0,.027067,-.028129*
20,1,0.0,.027067,-.028129,.021936,-.030522,0.0*
1,1,0.0,.021936,-.030522*
20,1,0.0,.021936,-.030522,.016467,-.031987,0.0*
1,1,0.0,.016467,-.031987*
20,1,0.0,.016467,-.031987,.010827,-.03248,0.0*
1,1,0.0,.010827,-.03248*
20,1,0.0,.010827,-.03248,-.010827,-.03248,0.0*
1,1,0.0,-.010827,-.03248*
20,1,0.0,-.010827,-.03248,-.016467,-.031987,0.0*
1,1,0.0,-.016467,-.031987*
20,1,0.0,-.016467,-.031987,-.021936,-.030522,0.0*
1,1,0.0,-.021936,-.030522*
20,1,0.0,-.021936,-.030522,-.027067,-.028129,0.0*
1,1,0.0,-.027067,-.028129*
20,1,0.0,-.027067,-.028129,-.031705,-.024881,0.0*
1,1,0.0,-.031705,-.024881*
20,1,0.0,-.031705,-.024881,-.035708,-.020878,0.0*
1,1,0.0,-.035708,-.020878*
20,1,0.0,-.035708,-.020878,-.038956,-.01624,0.0*
1,1,0.0,-.038956,-.01624*
20,1,0.0,-.038956,-.01624,-.041348,-.011109,0.0*
1,1,0.0,-.041348,-.011109*
20,1,0.0,-.041348,-.011109,-.042814,-.00564,0.0*
1,1,0.0,-.042814,-.00564*
20,1,0.0,-.042814,-.00564,-.043307,0.0,0.0*
1,1,0.0,-.043307,0.0*
20,1,0.0,-.043307,0.0,-.042814,.00564,0.0*
1,1,0.0,-.042814,.00564*
20,1,0.0,-.042814,.00564,-.041348,.011109,0.0*
1,1,0.0,-.041348,.011109*
20,1,0.0,-.041348,.011109,-.038956,.01624,0.0*
1,1,0.0,-.038956,.01624*
20,1,0.0,-.038956,.01624,-.035708,.020878,0.0*
1,1,0.0,-.035708,.020878*
20,1,0.0,-.035708,.020878,-.031705,.024881,0.0*
1,1,0.0,-.031705,.024881*
20,1,0.0,-.031705,.024881,-.027067,.028129,0.0*
1,1,0.0,-.027067,.028129*
20,1,0.0,-.027067,.028129,-.021936,.030522,0.0*
1,1,0.0,-.021936,.030522*
20,1,0.0,-.021936,.030522,-.016467,.031987,0.0*
1,1,0.0,-.016467,.031987*
20,1,0.0,-.016467,.031987,-.010827,.03248,0.0*
1,1,0.0,-.010827,.03248*
%
%ADD10MACRO10*%
%AMMACRO15*
1,1,0.0,.01378,0.0*
20,1,0.0,.01378,0.0,.00689,.011933,0.0*
1,1,0.0,.00689,.011933*
20,1,0.0,.00689,.011933,-.00689,.011933,0.0*
1,1,0.0,-.00689,.011933*
20,1,0.0,-.00689,.011933,-.01378,0.0,0.0*
1,1,0.0,-.01378,0.0*
20,1,0.0,-.01378,0.0,-.00689,-.011933,0.0*
1,1,0.0,-.00689,-.011933*
20,1,0.0,-.00689,-.011933,.00689,-.011933,0.0*
1,1,0.0,.00689,-.011933*
20,1,0.0,.00689,-.011933,.01378,0.0,0.0*
1,1,0.0,.01378,0.0*
%
%ADD15MACRO15*%
%AMMACRO14*
1,1,0.0,0.0,.015748*
20,1,0.0,0.0,.015748,-.013638,.007874,0.0*
1,1,0.0,-.013638,.007874*
20,1,0.0,-.013638,.007874,-.013638,-.007874,0.0*
1,1,0.0,-.013638,-.007874*
20,1,0.0,-.013638,-.007874,0.0,-.015748,0.0*
1,1,0.0,0.0,-.015748*
20,1,0.0,0.0,-.015748,.013638,-.007874,0.0*
1,1,0.0,.013638,-.007874*
20,1,0.0,.013638,-.007874,.013638,.007874,0.0*
1,1,0.0,.013638,.007874*
20,1,0.0,.013638,.007874,0.0,.015748,0.0*
1,1,0.0,0.0,.015748*
%
%ADD14MACRO14*%
%AMMACRO11*
1,1,0.0,0.0,.017717*
20,1,0.0,0.0,.017717,.015343,-.008858,0.0*
1,1,0.0,.015343,-.008858*
20,1,0.0,.015343,-.008858,-.015343,-.008858,0.0*
1,1,0.0,-.015343,-.008858*
20,1,0.0,-.015343,-.008858,0.0,.017717,0.0*
1,1,0.0,0.0,.017717*
%
%ADD11MACRO11*%
%ADD18C,.000039*%
G75*
%LPD*%
G75*
G54D10*
X-78050Y289909D03*
X11811Y11811D03*
Y224409D03*
X145669Y11811D03*
Y224409D03*
G54D11*
X-78050Y314909D03*
X9000Y88500D03*
Y160000D03*
X100000Y222500D03*
X144500Y88000D03*
Y158500D03*
G54D12*
X-78050Y339909D03*
X9000Y104248D03*
Y96374D03*
Y112122D03*
Y119996D03*
Y127870D03*
Y167874D03*
Y175748D03*
Y183622D03*
Y191496D03*
Y199370D03*
X60630Y222500D03*
X68504D03*
X76378D03*
X84252D03*
X92126D03*
X144500Y103748D03*
Y95874D03*
Y111622D03*
Y119496D03*
Y127370D03*
Y166374D03*
Y174248D03*
Y182122D03*
Y197870D03*
Y189996D03*
G54D13*
X-78050Y364909D03*
X71031Y114000D03*
X90717D03*
G54D14*
X-78050Y389909D03*
X24500Y59000D03*
X25000Y88500D03*
X24500Y117000D03*
Y127000D03*
X34000Y57000D03*
Y67000D03*
Y77000D03*
Y87000D03*
Y97000D03*
Y107000D03*
Y117000D03*
Y127000D03*
X43000Y182500D03*
X44000Y57000D03*
Y67000D03*
Y77000D03*
Y87000D03*
Y97000D03*
Y107000D03*
Y117000D03*
Y127000D03*
X82500Y187000D03*
X95500D03*
X89000D03*
X102000D03*
X112898Y57000D03*
Y67000D03*
Y77000D03*
Y87000D03*
Y97000D03*
Y107000D03*
Y117000D03*
Y127000D03*
X122898Y57000D03*
Y67000D03*
Y77000D03*
Y87000D03*
Y97000D03*
Y107000D03*
Y117000D03*
Y127000D03*
X124000Y179500D03*
X132500Y42500D03*
Y54500D03*
X133000Y131000D03*
X144500Y75500D03*
G54D15*
X-78050Y414909D03*
X9000Y38874D03*
Y46748D03*
Y54622D03*
X77374Y12500D03*
X93122D03*
X85248D03*
X144000Y43374D03*
Y51248D03*
Y59122D03*
G54D16*
X-78050Y439909D03*
X9000Y31000D03*
X69500Y12500D03*
X144000Y35500D03*
G54D17*
X-78050Y464909D03*
X2500Y21500D03*
Y17500D03*
Y25500D03*
Y29500D03*
Y41500D03*
Y37500D03*
Y33500D03*
Y53500D03*
Y45500D03*
Y49500D03*
Y61500D03*
Y57500D03*
X9000Y61500D03*
X2500Y73500D03*
Y65500D03*
Y82000D03*
Y77500D03*
Y94000D03*
Y90000D03*
Y86000D03*
Y102000D03*
Y98000D03*
Y114500D03*
Y110000D03*
Y106000D03*
Y122500D03*
Y118500D03*
Y135000D03*
Y126500D03*
Y131000D03*
Y143500D03*
Y139500D03*
Y155500D03*
Y147500D03*
Y151500D03*
Y167500D03*
Y163500D03*
Y159500D03*
Y175500D03*
Y171500D03*
Y183500D03*
Y187500D03*
Y179500D03*
Y195500D03*
Y191500D03*
Y208000D03*
Y204000D03*
Y199500D03*
Y216000D03*
Y212000D03*
X21000Y3000D03*
X15500Y61500D03*
X19051Y59500D03*
X14000Y137000D03*
X17500D03*
X13000Y164500D03*
X15000Y160000D03*
Y176500D03*
X13000Y172000D03*
X17500Y192500D03*
X21000D03*
X19500Y233000D03*
X25000Y3000D03*
X29000D03*
X33000D03*
X28500Y42000D03*
Y36000D03*
Y47500D03*
X23500Y101500D03*
X29000Y113000D03*
Y109000D03*
X24500Y132500D03*
X28000D03*
X24500Y137000D03*
X28000D03*
X23000Y158500D03*
X26500D03*
X30000D03*
X23000Y176000D03*
X26500D03*
X30000D03*
X24500Y192500D03*
X28000D03*
X31500D03*
X23500Y233000D03*
X27500D03*
X31500D03*
X37000Y3000D03*
X41000D03*
X33500Y158500D03*
Y167000D03*
Y163000D03*
X43000Y165000D03*
X33500Y176000D03*
Y171500D03*
X43000Y168500D03*
X35000Y192500D03*
X39500Y233000D03*
X35500D03*
X45000Y3000D03*
X49000D03*
X53000D03*
Y102500D03*
Y109000D03*
X44000Y141000D03*
Y145500D03*
Y137000D03*
Y153500D03*
Y149500D03*
Y157500D03*
X43500Y161000D03*
X48500Y162000D03*
X51000Y176000D03*
X47000D03*
Y172500D03*
X51000D03*
X43500D03*
X49000Y196500D03*
Y208000D03*
Y204000D03*
Y200000D03*
X53000Y211500D03*
X49000D03*
X47500Y233000D03*
X43500D03*
X51500D03*
X57000Y3000D03*
X61000D03*
X64000Y94500D03*
Y91000D03*
Y98000D03*
X54500Y135500D03*
Y131000D03*
Y127000D03*
X59500D03*
X54500Y144000D03*
Y140000D03*
Y153000D03*
Y148500D03*
X63500Y176000D03*
X55000D03*
X59500D03*
X58000Y206000D03*
Y202000D03*
X63500Y233000D03*
X59500D03*
X55500D03*
X65000Y3000D03*
X69000D03*
X73000D03*
X71500Y30000D03*
Y41500D03*
Y37500D03*
Y33500D03*
Y45500D03*
X74500Y65000D03*
X72000Y80000D03*
X73500Y76500D03*
X72000Y86000D03*
X68000Y103000D03*
Y99000D03*
X74000Y98500D03*
X68000Y110000D03*
Y106500D03*
X74000Y110000D03*
Y107000D03*
X65000Y124500D03*
X69500D03*
X65000Y133500D03*
Y129000D03*
X69500Y133500D03*
Y129000D03*
X74000Y145500D03*
X69500D03*
X65000D03*
X74000Y141500D03*
X69500D03*
X65000D03*
X74000Y137500D03*
X69500D03*
X65000D03*
X74000Y149500D03*
X65000Y153500D03*
X69500D03*
X74000D03*
X65000Y149500D03*
X69500D03*
X66000Y188500D03*
X74500Y195500D03*
X70000D03*
Y207500D03*
X74500D03*
Y203500D03*
X70000D03*
X74500Y199500D03*
X70000D03*
Y211500D03*
X74500D03*
X71500Y233000D03*
X67500D03*
X77000Y3000D03*
X81000D03*
X84000Y49500D03*
X80000D03*
X84000Y45500D03*
X80000D03*
X76000D03*
X83500Y63000D03*
X84000Y59000D03*
Y56000D03*
X77500Y65000D03*
X80500D03*
X75500Y80000D03*
Y86000D03*
X79000D03*
X82500Y88000D03*
X80000Y107500D03*
X80500Y120500D03*
X78000Y153500D03*
X82500D03*
X75500Y176000D03*
X75000Y188500D03*
X79000Y195500D03*
X83500D03*
X79000Y207500D03*
Y203500D03*
Y199500D03*
X83500Y207500D03*
Y203500D03*
Y199500D03*
X79000Y211500D03*
X83500D03*
X84000Y233000D03*
X79500D03*
X75500D03*
X85500Y3000D03*
X89500D03*
X93500D03*
X88000Y49500D03*
Y45500D03*
X91500Y125500D03*
Y122500D03*
Y119500D03*
Y131500D03*
Y128500D03*
Y135000D03*
X87000Y153500D03*
X86000Y176000D03*
X88000Y195500D03*
Y207500D03*
Y203500D03*
Y199500D03*
Y211500D03*
Y218500D03*
Y226000D03*
X92000Y233000D03*
X88000D03*
X97500Y3000D03*
X101500D03*
X105500D03*
X101000Y30000D03*
Y26500D03*
X97500Y32000D03*
Y28000D03*
Y24000D03*
X101000Y41500D03*
Y37500D03*
Y34000D03*
X97500Y36000D03*
X99000Y62000D03*
X102500D03*
Y58000D03*
Y66000D03*
Y71000D03*
X96000Y218500D03*
Y226000D03*
Y233000D03*
X104000D03*
X100000D03*
X109500Y3000D03*
X113500D03*
X112500Y12000D03*
X108500Y22500D03*
Y19000D03*
Y15000D03*
X112500Y29000D03*
X108500Y26500D03*
X107500Y116500D03*
X108000Y120500D03*
Y124000D03*
X112000Y233000D03*
X108000D03*
X118000Y3000D03*
X122000D03*
X126000D03*
X121500Y33000D03*
X125500D03*
X121500Y29000D03*
X125500D03*
X121500Y36500D03*
X125500D03*
X124500Y233000D03*
X120500D03*
X116500D03*
X130000Y3000D03*
X134500D03*
X130000Y22000D03*
Y18000D03*
X133500Y22000D03*
X129500Y33000D03*
X130000Y29000D03*
Y25500D03*
X133500D03*
X129500Y60000D03*
Y64000D03*
X135000Y106500D03*
X128000Y138000D03*
X131000Y144500D03*
X136000Y153500D03*
X135000Y163000D03*
X128000Y159000D03*
X136000Y177500D03*
X127500Y190500D03*
X130500D03*
X133500D03*
X136500D03*
X128500Y233000D03*
X133000D03*
X138500Y3000D03*
X137000Y25500D03*
X137500Y54000D03*
X140000Y153500D03*
X138500Y163000D03*
X138000Y187000D03*
Y183500D03*
X140000Y194500D03*
Y200500D03*
X137000Y233000D03*
X154500Y22000D03*
Y30000D03*
Y26000D03*
Y42500D03*
Y38000D03*
Y34000D03*
Y50500D03*
Y46500D03*
Y54500D03*
Y62500D03*
Y58500D03*
Y70500D03*
Y66500D03*
Y83000D03*
Y79000D03*
Y75000D03*
Y87000D03*
Y91500D03*
Y103500D03*
Y99500D03*
Y95500D03*
Y115500D03*
Y107500D03*
Y111500D03*
Y123500D03*
Y119500D03*
Y135500D03*
Y127500D03*
Y131500D03*
Y143500D03*
Y139500D03*
Y155500D03*
Y151500D03*
Y147500D03*
Y164000D03*
Y159500D03*
Y176000D03*
Y172000D03*
Y168000D03*
Y188000D03*
Y184000D03*
Y180000D03*
Y196500D03*
Y192000D03*
Y208500D03*
Y204500D03*
Y200500D03*
Y217000D03*
Y213000D03*
G54D18*
G01X11811Y0D02*
X145669D01*
G03X157480Y11811I0J11811D01*
G01Y224409D01*
G03X145669Y236220I-11811J0D01*
G01X11811D01*
G03X0Y224409I0J-11811D01*
G01Y11811D01*
G03X11811Y0I11811J0D01*
M02*
