G04 ================== begin FILE IDENTIFICATION RECORD ==================*
G04 Layout Name:  D:/PCBDesign/FishTank-Manage/PCB/FishTank-Manage.brd*
G04 Film Name:    DRILL*
G04 File Format:  Gerber RS274X*
G04 File Origin:  Cadence Allegro 17.4-S032*
G04 Origin Date:  Sun Jun  4 03:04:41 2023*
G04 *
G04 Layer:  MANUFACTURING/NCLEGEND-1-4*
G04 Layer:  BOARD GEOMETRY/OUTLINE*
G04 Layer:  MANUFACTURING/NCDRILL_LEGEND*
G04 Layer:  MANUFACTURING/NCDRILL_FIGURE*
G04 *
G04 Offset:    (0.0000 0.0000)*
G04 Mirror:    No*
G04 Mode:      Positive*
G04 Rotation:  0*
G04 FullContactRelief:  No*
G04 UndefLineWidth:     0.0000*
G04 ================== end FILE IDENTIFICATION RECORD ====================*
%FSLAX25Y25*MOMM*%
%IR0*IPPOS*OFA0.00000B0.00000*MIA0B0*SFA1.00000B1.00000*%
%AMMACRO16*
1,1,0.0,.35,.35*
20,1,0.0,.35,.35,.35,-.35,0.0*
1,1,0.0,.35,-.35*
20,1,0.0,.35,-.35,-.35,-.35,0.0*
1,1,0.0,-.35,-.35*
20,1,0.0,-.35,-.35,-.35,.35,0.0*
1,1,0.0,-.35,.35*
20,1,0.0,-.35,.35,.35,.35,0.0*
1,1,0.0,.35,.35*
%
%ADD16MACRO16*%
%AMMACRO17*
1,1,0.0,.1651,0.0*
20,1,0.0,.1651,0.0,-.1651,0.0,0.0*
1,1,0.0,-.1651,0.0*
1,1,0.0,0.0,.1651*
20,1,0.0,0.0,.1651,0.0,-.1651,0.0*
1,1,0.0,0.0,-.1651*
%
%ADD17MACRO17*%
%AMMACRO13*
1,1,0.0,.186396,-.45*
20,1,0.0,.186396,-.45,-.186396,-.45,0.0*
1,1,0.0,-.186396,-.45*
20,1,0.0,-.186396,-.45,-.45,-.186396,0.0*
1,1,0.0,-.45,-.186396*
20,1,0.0,-.45,-.186396,-.45,.186396,0.0*
1,1,0.0,-.45,.186396*
20,1,0.0,-.45,.186396,-.186396,.45,0.0*
1,1,0.0,-.186396,.45*
20,1,0.0,-.186396,.45,.186396,.45,0.0*
1,1,0.0,.186396,.45*
20,1,0.0,.186396,.45,.45,.186396,0.0*
1,1,0.0,.45,.186396*
20,1,0.0,.45,.186396,.45,-.186396,0.0*
1,1,0.0,.45,-.186396*
20,1,0.0,.45,-.186396,.186396,-.45,0.0*
1,1,0.0,.186396,-.45*
%
%ADD13MACRO13*%
%AMMACRO12*
1,1,0.0,.45,0.0*
20,1,0.0,.45,0.0,0.0,-.45,0.0*
1,1,0.0,0.0,-.45*
20,1,0.0,0.0,-.45,-.45,0.0,0.0*
1,1,0.0,-.45,0.0*
20,1,0.0,-.45,0.0,0.0,.45,0.0*
1,1,0.0,0.0,.45*
20,1,0.0,0.0,.45,.45,0.0,0.0*
1,1,0.0,.45,0.0*
%
%ADD12MACRO12*%
%AMMACRO10*
1,1,0.0,-.275,.825*
20,1,0.0,-.275,.825,.275,.825,0.0*
1,1,0.0,.275,.825*
20,1,0.0,.275,.825,.41826,.812466,0.0*
1,1,0.0,.41826,.812466*
20,1,0.0,.41826,.812466,.557167,.775246,0.0*
1,1,0.0,.557167,.775246*
20,1,0.0,.557167,.775246,.6875,.714471,0.0*
1,1,0.0,.6875,.714471*
20,1,0.0,.6875,.714471,.8053,.631987,0.0*
1,1,0.0,.8053,.631987*
20,1,0.0,.8053,.631987,.906987,.5303,0.0*
1,1,0.0,.906987,.5303*
20,1,0.0,.906987,.5303,.989471,.4125,0.0*
1,1,0.0,.989471,.4125*
20,1,0.0,.989471,.4125,1.050246,.282167,0.0*
1,1,0.0,1.050246,.282167*
20,1,0.0,1.050246,.282167,1.087466,.14326,0.0*
1,1,0.0,1.087466,.14326*
20,1,0.0,1.087466,.14326,1.1,0.0,0.0*
1,1,0.0,1.1,0.0*
20,1,0.0,1.1,0.0,1.087466,-.14326,0.0*
1,1,0.0,1.087466,-.14326*
20,1,0.0,1.087466,-.14326,1.050246,-.282167,0.0*
1,1,0.0,1.050246,-.282167*
20,1,0.0,1.050246,-.282167,.989471,-.4125,0.0*
1,1,0.0,.989471,-.4125*
20,1,0.0,.989471,-.4125,.906987,-.5303,0.0*
1,1,0.0,.906987,-.5303*
20,1,0.0,.906987,-.5303,.8053,-.631987,0.0*
1,1,0.0,.8053,-.631987*
20,1,0.0,.8053,-.631987,.6875,-.714471,0.0*
1,1,0.0,.6875,-.714471*
20,1,0.0,.6875,-.714471,.557167,-.775246,0.0*
1,1,0.0,.557167,-.775246*
20,1,0.0,.557167,-.775246,.41826,-.812466,0.0*
1,1,0.0,.41826,-.812466*
20,1,0.0,.41826,-.812466,.275,-.825,0.0*
1,1,0.0,.275,-.825*
20,1,0.0,.275,-.825,-.275,-.825,0.0*
1,1,0.0,-.275,-.825*
20,1,0.0,-.275,-.825,-.41826,-.812466,0.0*
1,1,0.0,-.41826,-.812466*
20,1,0.0,-.41826,-.812466,-.557167,-.775246,0.0*
1,1,0.0,-.557167,-.775246*
20,1,0.0,-.557167,-.775246,-.6875,-.714471,0.0*
1,1,0.0,-.6875,-.714471*
20,1,0.0,-.6875,-.714471,-.8053,-.631987,0.0*
1,1,0.0,-.8053,-.631987*
20,1,0.0,-.8053,-.631987,-.906987,-.5303,0.0*
1,1,0.0,-.906987,-.5303*
20,1,0.0,-.906987,-.5303,-.989471,-.4125,0.0*
1,1,0.0,-.989471,-.4125*
20,1,0.0,-.989471,-.4125,-1.050246,-.282167,0.0*
1,1,0.0,-1.050246,-.282167*
20,1,0.0,-1.050246,-.282167,-1.087466,-.14326,0.0*
1,1,0.0,-1.087466,-.14326*
20,1,0.0,-1.087466,-.14326,-1.1,0.0,0.0*
1,1,0.0,-1.1,0.0*
20,1,0.0,-1.1,0.0,-1.087466,.14326,0.0*
1,1,0.0,-1.087466,.14326*
20,1,0.0,-1.087466,.14326,-1.050246,.282167,0.0*
1,1,0.0,-1.050246,.282167*
20,1,0.0,-1.050246,.282167,-.989471,.4125,0.0*
1,1,0.0,-.989471,.4125*
20,1,0.0,-.989471,.4125,-.906987,.5303,0.0*
1,1,0.0,-.906987,.5303*
20,1,0.0,-.906987,.5303,-.8053,.631987,0.0*
1,1,0.0,-.8053,.631987*
20,1,0.0,-.8053,.631987,-.6875,.714471,0.0*
1,1,0.0,-.6875,.714471*
20,1,0.0,-.6875,.714471,-.557167,.775246,0.0*
1,1,0.0,-.557167,.775246*
20,1,0.0,-.557167,.775246,-.41826,.812466,0.0*
1,1,0.0,-.41826,.812466*
20,1,0.0,-.41826,.812466,-.275,.825,0.0*
1,1,0.0,-.275,.825*
%
%ADD10MACRO10*%
%AMMACRO15*
1,1,0.0,.35,0.0*
20,1,0.0,.35,0.0,.175,.303109,0.0*
1,1,0.0,.175,.303109*
20,1,0.0,.175,.303109,-.175,.303109,0.0*
1,1,0.0,-.175,.303109*
20,1,0.0,-.175,.303109,-.35,0.0,0.0*
1,1,0.0,-.35,0.0*
20,1,0.0,-.35,0.0,-.175,-.303109,0.0*
1,1,0.0,-.175,-.303109*
20,1,0.0,-.175,-.303109,.175,-.303109,0.0*
1,1,0.0,.175,-.303109*
20,1,0.0,.175,-.303109,.35,0.0,0.0*
1,1,0.0,.35,0.0*
%
%ADD15MACRO15*%
%AMMACRO14*
1,1,0.0,0.0,.4*
20,1,0.0,0.0,.4,-.34641,.2,0.0*
1,1,0.0,-.34641,.2*
20,1,0.0,-.34641,.2,-.34641,-.2,0.0*
1,1,0.0,-.34641,-.2*
20,1,0.0,-.34641,-.2,0.0,-.4,0.0*
1,1,0.0,0.0,-.4*
20,1,0.0,0.0,-.4,.34641,-.2,0.0*
1,1,0.0,.34641,-.2*
20,1,0.0,.34641,-.2,.34641,.2,0.0*
1,1,0.0,.34641,.2*
20,1,0.0,.34641,.2,0.0,.4,0.0*
1,1,0.0,0.0,.4*
%
%ADD14MACRO14*%
%AMMACRO11*
1,1,0.0,0.0,.45*
20,1,0.0,0.0,.45,.389711,-.225,0.0*
1,1,0.0,.389711,-.225*
20,1,0.0,.389711,-.225,-.389711,-.225,0.0*
1,1,0.0,-.389711,-.225*
20,1,0.0,-.389711,-.225,0.0,.45,0.0*
1,1,0.0,0.0,.45*
%
%ADD11MACRO11*%
%ADD18C,.001*%
G75*
%LPD*%
G75*
G54D10*
X-1982470Y7363700D03*
X300000Y300000D03*
Y5700000D03*
X3700000Y300000D03*
Y5700000D03*
G54D11*
X-1982470Y7998700D03*
X350000Y5050000D03*
X2600000Y5650000D03*
X3650000Y2300000D03*
Y3950000D03*
G54D12*
X-1982470Y8633700D03*
X350000Y4050000D03*
Y4250000D03*
Y4450000D03*
Y4650000D03*
Y4850000D03*
X1600000Y5650000D03*
X1800000D03*
X2000000D03*
X2200000D03*
X2400000D03*
X3650000Y2500000D03*
Y2900000D03*
Y2700000D03*
Y3100000D03*
Y3300000D03*
Y4150000D03*
Y4350000D03*
Y4750000D03*
Y4550000D03*
Y4950000D03*
G54D13*
X-1982470Y9268700D03*
X1950000Y4150000D03*
Y4650000D03*
G54D14*
X-1982470Y9903700D03*
X196000Y1490000D03*
X450000D03*
X336500Y3447000D03*
X346000Y3637500D03*
X696000Y1486000D03*
X750000Y4000000D03*
Y4250000D03*
X1111000Y695000D03*
Y949000D03*
Y1203000D03*
Y1457000D03*
Y1711000D03*
Y1965000D03*
Y2219000D03*
Y2473000D03*
Y2727000D03*
Y2981000D03*
Y3235000D03*
Y3489000D03*
Y3743000D03*
Y3997000D03*
Y4251000D03*
Y4505000D03*
X2889000Y695000D03*
Y949000D03*
Y1203000D03*
Y1457000D03*
Y1711000D03*
Y1965000D03*
Y2219000D03*
Y2473000D03*
Y2727000D03*
Y2981000D03*
Y3235000D03*
Y3489000D03*
Y3743000D03*
Y3997000D03*
Y4251000D03*
Y4505000D03*
X3150000Y500000D03*
Y700000D03*
Y1100000D03*
Y900000D03*
X3213100Y5435600D03*
X3403600Y3505200D03*
X3225800D03*
G54D15*
X-1982470Y10538700D03*
X334000Y2474000D03*
Y2674000D03*
Y2874000D03*
X3664000Y1102000D03*
Y1302000D03*
Y1502000D03*
G54D16*
X-1982470Y11173700D03*
X334000Y3074000D03*
X3664000Y902000D03*
G54D17*
X-1982470Y11808700D03*
X101600Y508000D03*
Y711200D03*
X98600Y917400D03*
X101600Y1752600D03*
Y1955800D03*
Y2387600D03*
X98600Y2162000D03*
X101600Y2590800D03*
X98600Y2797000D03*
X101600Y3022600D03*
X98600Y3432000D03*
X101600Y3225800D03*
Y3657600D03*
Y3860800D03*
X98600Y4067000D03*
X101600Y4495800D03*
Y4292600D03*
X98600Y4702000D03*
X101600Y4927600D03*
Y5130800D03*
X98600Y5337000D03*
X533400Y76200D03*
X505000Y5915200D03*
X736600Y76200D03*
X711200Y5918200D03*
X962200Y73200D03*
X889000Y1422400D03*
Y1879600D03*
Y1676400D03*
Y2108200D03*
Y2336800D03*
X914400Y5918200D03*
X1168400Y76200D03*
X1270000Y228600D03*
Y127000D03*
Y533400D03*
Y330200D03*
Y431800D03*
X1267000Y638000D03*
X1140000Y5915200D03*
X1346200Y5918200D03*
X1371600Y228600D03*
Y127000D03*
Y533400D03*
Y330200D03*
Y431800D03*
X1368600Y638000D03*
X1498600Y4419600D03*
Y4673600D03*
Y4876800D03*
Y5105400D03*
Y5334000D03*
X1549400Y5918200D03*
X1651000Y228600D03*
X1752600D03*
X1651000Y127000D03*
X1752600D03*
Y533400D03*
X1651000D03*
X1752600Y330200D03*
X1651000D03*
X1752600Y431800D03*
X1651000D03*
X1749600Y638000D03*
X1648000D03*
X1854200Y2387600D03*
Y2235200D03*
Y2514600D03*
Y2870200D03*
Y3149600D03*
Y3022600D03*
X1828800Y3733800D03*
Y3505200D03*
Y3606800D03*
X1803400Y3987800D03*
X1701800D03*
X1828800Y3835400D03*
X1803400Y4089400D03*
X1701800D03*
X1775000Y5915200D03*
X2006600Y228600D03*
X2108200D03*
X2006600Y127000D03*
X2108200D03*
Y533400D03*
X2006600D03*
X2108200Y330200D03*
X2006600D03*
X2108200Y431800D03*
X2006600D03*
X2105200Y638000D03*
X2003600D03*
X2108200Y1041400D03*
X2006600D03*
Y1346200D03*
Y1244600D03*
X2108200D03*
Y1346200D03*
Y1143000D03*
X2006600D03*
X2003600Y1552400D03*
X2006600Y1447800D03*
X2108200D03*
X2105200Y1552400D03*
X1930400Y3733800D03*
Y3505200D03*
Y3606800D03*
X2082800Y3987800D03*
X1981200D03*
X1930400Y3835400D03*
X2082800Y4089400D03*
X1981200Y5918200D03*
X2311400Y1092200D03*
X2286000Y1333500D03*
Y2857500D03*
X2336800Y3987800D03*
X2235200D03*
X2336800Y4089400D03*
X2235200D03*
X2413000Y4445000D03*
Y4699000D03*
Y4902200D03*
Y5130800D03*
Y5359400D03*
X2184400Y5918200D03*
X2410000Y5915200D03*
X2540000Y101600D03*
X2438400Y1092200D03*
X2590800D03*
X2463800Y3352800D03*
Y3606800D03*
Y3479800D03*
X2540000Y4394200D03*
X2664000Y5915200D03*
X2743200Y101600D03*
X2743180Y2095500D03*
X2768600Y2514600D03*
Y2768600D03*
Y3200400D03*
Y2971800D03*
Y3429000D03*
X2870200Y5918200D03*
X2968800Y98600D03*
X3175000Y101600D03*
X3174450Y3951950D03*
X3073400Y5918200D03*
X3378200Y101600D03*
X3365500Y3175000D03*
X3299000Y5915200D03*
X3556000Y3556000D03*
X3505200Y4445000D03*
Y4546600D03*
Y5918200D03*
X3911600Y1295400D03*
X3937000Y2743200D03*
Y3175000D03*
X3934000Y2949400D03*
X3937000Y3378200D03*
X3934000Y3584400D03*
X3937000Y3810000D03*
X3934000Y4219400D03*
X3937000Y4013200D03*
Y4445000D03*
Y4648200D03*
X3934000Y4854400D03*
X3937000Y5283200D03*
Y5080000D03*
X3934000Y5489400D03*
G54D18*
G01X300000Y0D02*
X3700000D01*
G03X4000000Y300000I0J300000D01*
G01Y5700000D01*
G03X3700000Y6000000I-300000J0D01*
G01X300000D01*
G03X0Y5700000I0J-300000D01*
G01Y300000D01*
G03X300000Y0I300000J0D01*
M02*
