G04 ================== begin FILE IDENTIFICATION RECORD ==================*
G04 Layout Name:  FishTank-Manage.brd*
G04 Film Name:    PAST_BOOTOM*
G04 File Format:  Gerber RS274X*
G04 File Origin:  Cadence Allegro 17.4-S032*
G04 Origin Date:  Mon Jul 31 00:13:20 2023*
G04 *
G04 Layer:  PIN/PASTEMASK_BOTTOM*
G04 Layer:  PACKAGE GEOMETRY/PASTEMASK_BOTTOM*
G04 *
G04 Offset:    (0.0000 0.0000)*
G04 Mirror:    No*
G04 Mode:      Positive*
G04 Rotation:  0*
G04 FullContactRelief:  No*
G04 UndefLineWidth:     0.0000*
G04 ================== end FILE IDENTIFICATION RECORD ====================*
%FSLAX25Y25*MOIN*%
%IR0*IPPOS*OFA0.00000B0.00000*MIA0B0*SFA1.00000B1.00000*%
%ADD11R,.023622X.047244*%
%ADD10R,.047244X.023622*%
%ADD14R,.03937X.037402*%
%ADD15R,.031496X.045276*%
%ADD12R,.037402X.03937*%
%ADD18R,.025591X.060039*%
%ADD22R,.107087X.040157*%
%ADD20R,.086614X.061024*%
%ADD16R,.040157X.107087*%
%ADD23R,.125984X.127953*%
%ADD19R,.104331X.11811*%
%ADD21R,.088583X.124016*%
%ADD17R,.037402X.035433*%
%ADD13R,.035433X.037402*%
%LPD*%
G75*
G54D10*
X12500Y64700D03*
Y72200D03*
X5500Y68500D03*
X7000Y144500D03*
X14000Y140700D03*
Y148200D03*
X18000Y183500D03*
Y199500D03*
X25000Y179700D03*
Y187200D03*
Y195700D03*
Y203200D03*
X90000Y106500D03*
X97000Y102700D03*
Y110200D03*
X130000Y154800D03*
Y162300D03*
X137000Y158500D03*
G54D20*
X61929Y58000D03*
X78071D03*
G54D11*
X20500Y29000D03*
X16800Y36000D03*
X24300D03*
G54D21*
X83917Y143500D03*
X111083D03*
G54D12*
X17850Y42000D03*
X17350Y111000D03*
X24150Y42000D03*
X23650Y111000D03*
X48850Y158000D03*
X57350Y103000D03*
X63650D03*
X57350Y109000D03*
X63650D03*
X55150Y158000D03*
X57850Y211000D03*
X73850Y103000D03*
X64150Y211000D03*
X80150Y103000D03*
X92850Y83500D03*
Y94500D03*
Y89000D03*
X99150Y83500D03*
Y94500D03*
Y89000D03*
G54D13*
X17850Y53000D03*
Y47500D03*
X18850Y78500D03*
X17350Y105500D03*
X24150Y53000D03*
Y47500D03*
X25150Y78500D03*
X23650Y105500D03*
X92350Y71000D03*
Y66000D03*
X92850Y77500D03*
X98650Y71000D03*
Y66000D03*
X99150Y77500D03*
X130850Y148500D03*
X130350Y168000D03*
X136150Y173500D03*
X129850D03*
X137150Y148500D03*
X136650Y168000D03*
G54D22*
X95000Y46988D03*
Y58012D03*
X130500Y186488D03*
Y197512D03*
G54D23*
X97500Y169283D03*
Y204717D03*
G54D14*
X19000Y65350D03*
Y71650D03*
X20500Y140850D03*
Y147150D03*
X32000Y180350D03*
Y186650D03*
X59000Y78850D03*
Y85150D03*
X103500Y122350D03*
Y128650D03*
X124000Y167350D03*
Y173650D03*
G54D15*
X19000Y84110D03*
Y97890D03*
Y117610D03*
Y131390D03*
G54D16*
X17988Y168000D03*
X29012D03*
X48988Y136500D03*
Y148500D03*
X52988Y202000D03*
X60012Y136500D03*
Y148500D03*
X64012Y202000D03*
X75488Y124500D03*
X86512D03*
X112988Y20500D03*
X124012D03*
G54D17*
X25000Y65350D03*
Y71650D03*
X26500Y140850D03*
X32000D03*
X26500Y147150D03*
X32000D03*
X31500Y196350D03*
Y202650D03*
X37500Y180350D03*
Y186650D03*
X70500Y171850D03*
Y178150D03*
Y182350D03*
Y188650D03*
X103500Y103350D03*
Y109650D03*
X97500Y122350D03*
Y128650D03*
X124000Y143350D03*
Y149650D03*
Y155350D03*
Y161650D03*
X135000Y103150D03*
Y96850D03*
X137500Y31350D03*
Y37650D03*
Y43850D03*
Y50150D03*
G54D18*
X46000Y166823D03*
X51000D03*
Y188177D03*
X46000D03*
X56000Y166823D03*
X61000D03*
Y188177D03*
X56000D03*
X69000Y71823D03*
Y93177D03*
X74000Y71823D03*
X79000D03*
X84000D03*
Y93177D03*
X79000D03*
X74000D03*
G54D19*
X56976Y36000D03*
X79024D03*
M02*
