G04 ================== begin FILE IDENTIFICATION RECORD ==================*
G04 Layout Name:  D:/PCBDesign/FishTank-Manage/PCB/FishTank-Manage.brd*
G04 Film Name:    SILK_BOTTOM*
G04 File Format:  Gerber RS274X*
G04 File Origin:  Cadence Allegro 17.4-S032*
G04 Origin Date:  Sun Jun  4 03:04:41 2023*
G04 *
G04 Layer:  REF DES/SILKSCREEN_BOTTOM*
G04 Layer:  PACKAGE GEOMETRY/SILKSCREEN_BOTTOM*
G04 Layer:  BOARD GEOMETRY/SOLDERMASK_BOTTOM*
G04 *
G04 Offset:    (0.0000 0.0000)*
G04 Mirror:    No*
G04 Mode:      Positive*
G04 Rotation:  0*
G04 FullContactRelief:  No*
G04 UndefLineWidth:     0.0000*
G04 ================== end FILE IDENTIFICATION RECORD ====================*
%FSLAX25Y25*MOMM*%
%IR0*IPPOS*OFA0.00000B0.00000*MIA0B0*SFA1.00000B1.00000*%
%ADD10C,.2*%
%ADD11C,.127*%
G75*
%LPD*%
G75*
G54D10*
G01X650000Y2720000D02*
Y2780000D01*
G01X805000Y3385000D02*
G02I-5000J0D01*
G01X630000Y3550000D02*
X570000D01*
G01X670000Y4750000D02*
X730000D01*
G01Y5100000D02*
X670000D01*
G01X820000Y2550000D02*
G02I-5000J0D01*
G01X930000Y2900000D02*
X870000D01*
G01X905000Y5265000D02*
G02I-5000J0D01*
G01X1335000Y1250000D02*
X1565000D01*
G01X1543500Y2333500D02*
Y2103500D01*
G01Y2683500D02*
Y2453500D01*
G01Y3033500D02*
Y2803500D01*
G01Y3383500D02*
Y3153500D01*
G01Y3733500D02*
Y3503500D01*
G01X1600200Y1833400D02*
Y1773400D01*
G01X1770200Y1651000D02*
G02I-5000J0D01*
G01X1600000Y1920000D02*
Y1980000D01*
G01X1970000Y1100000D02*
G02I-5000J0D01*
G01Y1250000D02*
G02I-5000J0D01*
G01Y1400000D02*
G02I-5000J0D01*
G01X1955000Y1890000D02*
X2445000D01*
G01X1955000Y2210000D02*
Y1890000D01*
G01X2445000Y2210000D02*
X1955000D01*
G01X2452000Y2518800D02*
X1948000D01*
G01Y2781200D02*
X2482500D01*
G01X1870000Y3000000D02*
Y3700000D01*
G01X1950000Y5320000D02*
Y5380000D01*
G01X2190000Y1450000D02*
G02I-5000J0D01*
G01X2620000D02*
X2680000D01*
G01X2458000Y1702500D02*
Y1855000D01*
G01X2445000Y1890000D02*
Y2210000D01*
G01X2530000Y3700000D02*
Y3000000D01*
G01X2600000Y4070000D02*
Y4130000D01*
G01Y4330000D02*
Y4270000D01*
G01X2655000Y1985000D02*
G02I-5000J0D01*
G01Y1965000D02*
G02I-5000J0D01*
G01X2770000Y3900000D02*
G02I-5000J0D01*
G01X3130000Y3800000D02*
X3070000D01*
G01X3130000Y4150000D02*
X3070000D01*
G01X3310100Y1193800D02*
X3370100D01*
G01X3200000Y1830000D02*
Y1770000D01*
G01Y1980000D02*
Y1920000D01*
G01X3370000Y2100000D02*
G02I-5000J0D01*
G01X3200000Y2630000D02*
Y2570000D01*
G01Y2870000D02*
Y2930000D01*
G01X3370000Y2750000D02*
G02I-5000J0D01*
G01X3270000Y3800000D02*
X3330000D01*
G01X3270000Y4150000D02*
X3330000D01*
G01X3225800Y4661600D02*
Y4431600D01*
G01Y4991800D02*
Y4761800D01*
G01X3475200Y1193800D02*
X3535200D01*
G01X3784500Y2020000D02*
X3515500D01*
G01X3882500Y2180000D02*
X3515500D01*
G01X3700000Y1865000D02*
Y1635000D01*
G54D11*
G01X482360Y3092710D02*
X483670Y3084920D01*
X488920Y3078110D01*
X496790Y3072260D01*
X505980Y3068370D01*
X516480Y3066420D01*
X526980D01*
X537480Y3068370D01*
X546670Y3072260D01*
X554540Y3078110D01*
X559790Y3084920D01*
X561100Y3092710D01*
X559790Y3100500D01*
X554540Y3107310D01*
X546670Y3113160D01*
X537480Y3117050D01*
X526980Y3119000D01*
X516480D01*
X505980Y3117050D01*
X496790Y3113160D01*
X488920Y3107310D01*
X483670Y3100500D01*
X482360Y3092710D01*
G01X503360Y3100500D02*
X482360Y3112180D01*
G01Y3171450D02*
X561100D01*
X545350Y3159770D01*
G01X482360D02*
Y3183130D01*
G01X652400Y3894260D02*
X573660D01*
Y3869920D01*
X577600Y3862130D01*
X582850Y3857260D01*
X593350Y3855320D01*
X603840Y3857260D01*
X610400Y3863110D01*
X614340Y3869920D01*
Y3894260D01*
G01Y3869920D02*
X652400Y3855320D01*
G01Y3796050D02*
X573660D01*
X589410Y3807730D01*
G01X652400D02*
Y3784370D01*
G01X586780Y3735810D02*
X578910Y3729970D01*
X574970Y3723150D01*
X573660Y3715360D01*
X576280Y3705630D01*
X582850Y3698810D01*
X590720Y3696860D01*
X598600Y3697840D01*
X605160Y3701730D01*
X618280Y3721200D01*
X627470Y3729970D01*
X640590Y3735810D01*
X652400Y3737760D01*
Y3696860D01*
G01X775420Y3853370D02*
X771480Y3859210D01*
X768860Y3866030D01*
Y3873820D01*
X772800Y3882580D01*
X779360Y3889390D01*
X787230Y3894260D01*
X800360Y3898160D01*
X812170Y3899130D01*
X823980Y3897180D01*
X831850Y3894260D01*
X839730Y3888420D01*
X844980Y3881610D01*
X847600Y3874790D01*
Y3867970D01*
X844980Y3861160D01*
X841040Y3855320D01*
X835790Y3850450D01*
G01X847600Y3796050D02*
X768860D01*
X784610Y3807730D01*
G01X847600D02*
Y3784370D01*
G01X835790Y3738730D02*
X842350Y3732890D01*
X846290Y3726070D01*
X847600Y3717310D01*
X844980Y3708550D01*
X839730Y3701730D01*
X830540Y3696860D01*
X820040Y3695890D01*
X809540Y3697840D01*
X802980Y3702710D01*
X797730Y3709520D01*
X796420Y3716340D01*
X797730Y3723150D01*
X802980Y3731910D01*
X768860Y3728990D01*
Y3702710D01*
G01X750000Y5464060D02*
X671260D01*
Y5439720D01*
X675200Y5431930D01*
X680450Y5427060D01*
X690950Y5425120D01*
X701440Y5427060D01*
X708000Y5432910D01*
X711940Y5439720D01*
Y5464060D01*
G01Y5439720D02*
X750000Y5425120D01*
G01Y5367800D02*
X732940Y5365850D01*
X718510Y5362930D01*
X705380Y5359030D01*
X690950Y5354170D01*
X671260Y5346380D01*
Y5385320D01*
G01X1014860Y2650000D02*
Y2728740D01*
X990520D01*
X982730Y2724800D01*
X977860Y2719550D01*
X975920Y2709050D01*
X977860Y2698560D01*
X983710Y2692000D01*
X990520Y2688060D01*
X1014860D01*
G01X990520D02*
X975920Y2650000D01*
G01X916650D02*
Y2728740D01*
X928330Y2712990D01*
G01Y2650000D02*
X904970D01*
G01X837910Y2728740D02*
X845700Y2726120D01*
X851540Y2719550D01*
X855440Y2711680D01*
X858360Y2701180D01*
X859330Y2689370D01*
X858360Y2677560D01*
X855440Y2667060D01*
X851540Y2659180D01*
X845700Y2652620D01*
X837910Y2650000D01*
X830120Y2652620D01*
X824280Y2659180D01*
X820380Y2667060D01*
X817460Y2677560D01*
X816490Y2689370D01*
X817460Y2701180D01*
X820380Y2711680D01*
X824280Y2719550D01*
X830120Y2726120D01*
X837910Y2728740D01*
G01X973970Y2571380D02*
X979810Y2575320D01*
X986630Y2577940D01*
X994420D01*
X1003180Y2574000D01*
X1009990Y2567440D01*
X1014860Y2559570D01*
X1018760Y2546440D01*
X1019730Y2534630D01*
X1017780Y2522820D01*
X1014860Y2514950D01*
X1009020Y2507070D01*
X1002210Y2501820D01*
X995390Y2499200D01*
X988570D01*
X981760Y2501820D01*
X975920Y2505760D01*
X971050Y2511010D01*
G01X916650Y2499200D02*
Y2577940D01*
X928330Y2562190D01*
G01Y2499200D02*
X904970D01*
G01X826230D02*
Y2577940D01*
X862250Y2521510D01*
X813570D01*
G01X948400Y3269660D02*
X869660D01*
Y3245320D01*
X873600Y3237530D01*
X878850Y3232660D01*
X889350Y3230720D01*
X899840Y3232660D01*
X906400Y3238510D01*
X910340Y3245320D01*
Y3269660D01*
G01Y3245320D02*
X948400Y3230720D01*
G01Y3171450D02*
X869660D01*
X885410Y3183130D01*
G01X948400D02*
Y3159770D01*
G01Y3092710D02*
X869660D01*
X885410Y3104390D01*
G01X948400D02*
Y3081030D01*
G01X877000Y4819660D02*
X798260D01*
Y4795320D01*
X802200Y4787530D01*
X807450Y4782660D01*
X817950Y4780720D01*
X828440Y4782660D01*
X835000Y4788510D01*
X838940Y4795320D01*
Y4819660D01*
G01Y4795320D02*
X877000Y4780720D01*
G01X844190Y4739950D02*
X835000Y4733130D01*
X829760Y4727290D01*
X827130Y4719500D01*
X829760Y4712690D01*
X835000Y4707820D01*
X842880Y4703920D01*
X852070Y4702950D01*
X859940Y4703920D01*
X867820Y4707820D01*
X874380Y4713660D01*
X877000Y4720480D01*
X874380Y4728270D01*
X866500Y4735080D01*
X854690Y4738980D01*
X841570Y4739950D01*
X824510Y4738000D01*
X815320Y4735080D01*
X806130Y4730210D01*
X799570Y4723400D01*
X798260Y4716580D01*
X800880Y4709770D01*
X807450Y4704900D01*
G01X877820Y5448570D02*
X873880Y5454410D01*
X871260Y5461230D01*
Y5469020D01*
X875200Y5477780D01*
X881760Y5484590D01*
X889630Y5489460D01*
X902760Y5493360D01*
X914570Y5494330D01*
X926380Y5492380D01*
X934250Y5489460D01*
X942130Y5483620D01*
X947380Y5476810D01*
X950000Y5469990D01*
Y5463170D01*
X947380Y5456360D01*
X943440Y5450520D01*
X938190Y5445650D01*
G01X950000Y5391250D02*
X871260D01*
X887010Y5402930D01*
G01X950000D02*
Y5379570D01*
G01X934250Y5333930D02*
X943440Y5328090D01*
X948690Y5320300D01*
X950000Y5311540D01*
X948690Y5303750D01*
X942130Y5295960D01*
X934250Y5291090D01*
X926380Y5290120D01*
X917190Y5292060D01*
X910630Y5298880D01*
X908000Y5305690D01*
Y5314460D01*
G01Y5305690D02*
X904070Y5299850D01*
X897510Y5294980D01*
X889630Y5293040D01*
X881760Y5294980D01*
X875200Y5299850D01*
X871260Y5308620D01*
X872570Y5317380D01*
X877820Y5326140D01*
G01X1407860Y1778800D02*
Y1857540D01*
X1383520D01*
X1375730Y1853600D01*
X1370860Y1848350D01*
X1368920Y1837850D01*
X1370860Y1827360D01*
X1376710Y1820800D01*
X1383520Y1816860D01*
X1407860D01*
G01X1383520D02*
X1368920Y1778800D01*
G01X1297970D02*
Y1857540D01*
X1333990Y1801110D01*
X1285310D01*
G01X1374970Y1698580D02*
X1380810Y1702520D01*
X1387630Y1705140D01*
X1395420D01*
X1404180Y1701200D01*
X1410990Y1694640D01*
X1415860Y1686770D01*
X1419760Y1673640D01*
X1420730Y1661830D01*
X1418780Y1650020D01*
X1415860Y1642150D01*
X1410020Y1634270D01*
X1403210Y1629020D01*
X1396390Y1626400D01*
X1389570D01*
X1382760Y1629020D01*
X1376920Y1632960D01*
X1372050Y1638210D01*
G01X1305970Y1626400D02*
Y1705140D01*
X1341990Y1648710D01*
X1293310D01*
G01X1408060Y1911600D02*
Y1990340D01*
X1383720D01*
X1375930Y1986400D01*
X1371060Y1981150D01*
X1369120Y1970650D01*
X1371060Y1960160D01*
X1376910Y1953600D01*
X1383720Y1949660D01*
X1408060D01*
G01X1383720D02*
X1369120Y1911600D01*
G01X1331270Y1923410D02*
X1325430Y1916850D01*
X1318610Y1912910D01*
X1309850Y1911600D01*
X1301090Y1914220D01*
X1294270Y1919470D01*
X1289400Y1928660D01*
X1288430Y1939160D01*
X1290380Y1949660D01*
X1295250Y1956220D01*
X1302060Y1961470D01*
X1308880Y1962780D01*
X1315690Y1961470D01*
X1324450Y1956220D01*
X1321530Y1990340D01*
X1295250D01*
G01X1342870Y4040680D02*
X1348710Y4044620D01*
X1355530Y4047240D01*
X1363320D01*
X1372080Y4043300D01*
X1378890Y4036740D01*
X1383760Y4028870D01*
X1387660Y4015740D01*
X1388630Y4003930D01*
X1386680Y3992120D01*
X1383760Y3984250D01*
X1377920Y3976370D01*
X1371110Y3971120D01*
X1364290Y3968500D01*
X1357470D01*
X1350660Y3971120D01*
X1344820Y3975060D01*
X1339950Y3980310D01*
G01X1285550Y3968500D02*
X1278730Y3969810D01*
X1270950Y3973750D01*
X1266080Y3980310D01*
X1264130Y3989500D01*
X1266080Y3998680D01*
X1271920Y4006560D01*
X1280680Y4010500D01*
X1290420D01*
X1296260Y4013120D01*
X1301130Y4019680D01*
X1303080Y4028870D01*
X1300150Y4038050D01*
X1293340Y4044620D01*
X1285550Y4047240D01*
X1277760Y4044620D01*
X1270950Y4038050D01*
X1268020Y4028870D01*
X1269970Y4019680D01*
X1274840Y4013120D01*
X1280680Y4010500D01*
X1290420D01*
X1299180Y4006560D01*
X1305020Y3998680D01*
X1306970Y3989500D01*
X1305020Y3980310D01*
X1300150Y3973750D01*
X1292370Y3969810D01*
X1285550Y3968500D01*
G01X1342870Y3940680D02*
X1348710Y3944620D01*
X1355530Y3947240D01*
X1363320D01*
X1372080Y3943300D01*
X1378890Y3936740D01*
X1383760Y3928870D01*
X1387660Y3915740D01*
X1388630Y3903930D01*
X1386680Y3892120D01*
X1383760Y3884250D01*
X1377920Y3876370D01*
X1371110Y3871120D01*
X1364290Y3868500D01*
X1357470D01*
X1350660Y3871120D01*
X1344820Y3875060D01*
X1339950Y3880310D01*
G01X1285550Y3868500D02*
Y3947240D01*
X1297230Y3931490D01*
G01Y3868500D02*
X1273870D01*
G01X1206810Y3947240D02*
X1214600Y3944620D01*
X1220440Y3938050D01*
X1224340Y3930180D01*
X1227260Y3919680D01*
X1228230Y3907870D01*
X1227260Y3896060D01*
X1224340Y3885560D01*
X1220440Y3877680D01*
X1214600Y3871120D01*
X1206810Y3868500D01*
X1199020Y3871120D01*
X1193180Y3877680D01*
X1189280Y3885560D01*
X1186360Y3896060D01*
X1185390Y3907870D01*
X1186360Y3919680D01*
X1189280Y3930180D01*
X1193180Y3938050D01*
X1199020Y3944620D01*
X1206810Y3947240D01*
G01X1342870Y4240680D02*
X1348710Y4244620D01*
X1355530Y4247240D01*
X1363320D01*
X1372080Y4243300D01*
X1378890Y4236740D01*
X1383760Y4228870D01*
X1387660Y4215740D01*
X1388630Y4203930D01*
X1386680Y4192120D01*
X1383760Y4184250D01*
X1377920Y4176370D01*
X1371110Y4171120D01*
X1364290Y4168500D01*
X1357470D01*
X1350660Y4171120D01*
X1344820Y4175060D01*
X1339950Y4180310D01*
G01X1285550Y4168500D02*
Y4247240D01*
X1297230Y4231490D01*
G01Y4168500D02*
X1273870D01*
G01X1206810D02*
Y4247240D01*
X1218490Y4231490D01*
G01Y4168500D02*
X1195130D01*
G01X1342870Y4140680D02*
X1348710Y4144620D01*
X1355530Y4147240D01*
X1363320D01*
X1372080Y4143300D01*
X1378890Y4136740D01*
X1383760Y4128870D01*
X1387660Y4115740D01*
X1388630Y4103930D01*
X1386680Y4092120D01*
X1383760Y4084250D01*
X1377920Y4076370D01*
X1371110Y4071120D01*
X1364290Y4068500D01*
X1357470D01*
X1350660Y4071120D01*
X1344820Y4075060D01*
X1339950Y4080310D01*
G01X1285550Y4068500D02*
Y4147240D01*
X1297230Y4131490D01*
G01Y4068500D02*
X1273870D01*
G01X1225310Y4134120D02*
X1219470Y4141990D01*
X1212650Y4145930D01*
X1204860Y4147240D01*
X1195130Y4144620D01*
X1188310Y4138050D01*
X1186360Y4130180D01*
X1187340Y4122300D01*
X1191230Y4115740D01*
X1210700Y4102620D01*
X1219470Y4093430D01*
X1225310Y4080310D01*
X1227260Y4068500D01*
X1186360D01*
G01X1342870Y4340680D02*
X1348710Y4344620D01*
X1355530Y4347240D01*
X1363320D01*
X1372080Y4343300D01*
X1378890Y4336740D01*
X1383760Y4328870D01*
X1387660Y4315740D01*
X1388630Y4303930D01*
X1386680Y4292120D01*
X1383760Y4284250D01*
X1377920Y4276370D01*
X1371110Y4271120D01*
X1364290Y4268500D01*
X1357470D01*
X1350660Y4271120D01*
X1344820Y4275060D01*
X1339950Y4280310D01*
G01X1302100Y4277680D02*
X1295290Y4271120D01*
X1287500Y4268500D01*
X1279710Y4271120D01*
X1272890Y4279000D01*
X1268020Y4290810D01*
X1266080Y4302620D01*
Y4317060D01*
X1268020Y4328870D01*
X1272890Y4339370D01*
X1278730Y4344620D01*
X1285550Y4347240D01*
X1293340Y4344620D01*
X1299180Y4339370D01*
X1303080Y4331490D01*
X1305020Y4320990D01*
X1303080Y4311810D01*
X1298210Y4302620D01*
X1292370Y4297370D01*
X1285550Y4296060D01*
X1277760Y4298680D01*
X1271920Y4305240D01*
X1266080Y4317060D01*
G01X1405620Y943770D02*
X1401680Y949610D01*
X1399060Y956430D01*
Y964220D01*
X1403000Y972980D01*
X1409560Y979790D01*
X1417430Y984660D01*
X1430560Y988560D01*
X1442370Y989530D01*
X1454180Y987580D01*
X1462050Y984660D01*
X1469930Y978820D01*
X1475180Y972010D01*
X1477800Y965190D01*
Y958370D01*
X1475180Y951560D01*
X1471240Y945720D01*
X1465990Y940850D01*
G01X1412180Y904950D02*
X1404310Y899110D01*
X1400370Y892290D01*
X1399060Y884500D01*
X1401680Y874770D01*
X1408250Y867950D01*
X1416120Y866000D01*
X1424000Y866980D01*
X1430560Y870870D01*
X1443680Y890340D01*
X1452870Y899110D01*
X1465990Y904950D01*
X1477800Y906900D01*
Y866000D01*
G01X1412180Y826210D02*
X1404310Y820370D01*
X1400370Y813550D01*
X1399060Y805760D01*
X1401680Y796030D01*
X1408250Y789210D01*
X1416120Y787260D01*
X1424000Y788240D01*
X1430560Y792130D01*
X1443680Y811600D01*
X1452870Y820370D01*
X1465990Y826210D01*
X1477800Y828160D01*
Y787260D01*
G01X1874770Y1000780D02*
X1880610Y1004720D01*
X1887430Y1007340D01*
X1895220D01*
X1903980Y1003400D01*
X1910790Y996840D01*
X1915660Y988970D01*
X1919560Y975840D01*
X1920530Y964030D01*
X1918580Y952220D01*
X1915660Y944350D01*
X1909820Y936470D01*
X1903010Y931220D01*
X1896190Y928600D01*
X1889370D01*
X1882560Y931220D01*
X1876720Y935160D01*
X1871850Y940410D01*
G01X1838870Y944350D02*
X1833030Y935160D01*
X1825240Y929910D01*
X1816480Y928600D01*
X1808690Y929910D01*
X1800900Y936470D01*
X1796030Y944350D01*
X1795060Y952220D01*
X1797000Y961410D01*
X1803820Y967970D01*
X1810630Y970600D01*
X1819400D01*
G01X1810630D02*
X1804790Y974530D01*
X1799920Y981090D01*
X1797980Y988970D01*
X1799920Y996840D01*
X1804790Y1003400D01*
X1813560Y1007340D01*
X1822320Y1006030D01*
X1831080Y1000780D01*
G01X1874770Y1581780D02*
X1880610Y1585720D01*
X1887430Y1588340D01*
X1895220D01*
X1903980Y1584400D01*
X1910790Y1577840D01*
X1915660Y1569970D01*
X1919560Y1556840D01*
X1920530Y1545030D01*
X1918580Y1533220D01*
X1915660Y1525350D01*
X1909820Y1517470D01*
X1903010Y1512220D01*
X1896190Y1509600D01*
X1889370D01*
X1882560Y1512220D01*
X1876720Y1516160D01*
X1871850Y1521410D01*
G01X1835950Y1575220D02*
X1830110Y1583090D01*
X1823290Y1587030D01*
X1815500Y1588340D01*
X1805770Y1585720D01*
X1798950Y1579150D01*
X1797000Y1571280D01*
X1797980Y1563400D01*
X1801870Y1556840D01*
X1821340Y1543720D01*
X1830110Y1534530D01*
X1835950Y1521410D01*
X1837900Y1509600D01*
X1797000D01*
G01X1901740Y1989590D02*
X1845310D01*
X1833500Y1993480D01*
X1825620Y2001270D01*
X1823000Y2011010D01*
X1825620Y2020750D01*
X1833500Y2028540D01*
X1845310Y2032430D01*
X1901740D01*
G01X1888620Y2071250D02*
X1896490Y2077090D01*
X1900430Y2083910D01*
X1901740Y2091700D01*
X1899120Y2101430D01*
X1892550Y2108250D01*
X1884680Y2110200D01*
X1876800Y2109220D01*
X1870240Y2105330D01*
X1857120Y2085860D01*
X1847930Y2077090D01*
X1834810Y2071250D01*
X1823000Y2069300D01*
Y2110200D01*
G01X2425370Y1332780D02*
X2431210Y1336720D01*
X2438030Y1339340D01*
X2445820D01*
X2454580Y1335400D01*
X2461390Y1328840D01*
X2466260Y1320970D01*
X2470160Y1307840D01*
X2471130Y1296030D01*
X2469180Y1284220D01*
X2466260Y1276350D01*
X2460420Y1268470D01*
X2453610Y1263220D01*
X2446790Y1260600D01*
X2439970D01*
X2433160Y1263220D01*
X2427320Y1267160D01*
X2422450Y1272410D01*
G01X2389470D02*
X2383630Y1265850D01*
X2376810Y1261910D01*
X2368050Y1260600D01*
X2359290Y1263220D01*
X2352470Y1268470D01*
X2347600Y1277660D01*
X2346630Y1288160D01*
X2348580Y1298660D01*
X2353450Y1305220D01*
X2360260Y1310470D01*
X2367080Y1311780D01*
X2373890Y1310470D01*
X2382650Y1305220D01*
X2379730Y1339340D01*
X2353450D01*
G01X2230370Y1278580D02*
X2236210Y1282520D01*
X2243030Y1285140D01*
X2250820D01*
X2259580Y1281200D01*
X2266390Y1274640D01*
X2271260Y1266770D01*
X2275160Y1253640D01*
X2276130Y1241830D01*
X2274180Y1230020D01*
X2271260Y1222150D01*
X2265420Y1214270D01*
X2258610Y1209020D01*
X2251790Y1206400D01*
X2244970D01*
X2238160Y1209020D01*
X2232320Y1212960D01*
X2227450Y1218210D01*
G01X2173050Y1206400D02*
Y1285140D01*
X2184730Y1269390D01*
G01Y1206400D02*
X2161370D01*
G01X2390570Y3922180D02*
X2396410Y3926120D01*
X2403230Y3928740D01*
X2411020D01*
X2419780Y3924800D01*
X2426590Y3918240D01*
X2431460Y3910370D01*
X2435360Y3897240D01*
X2436330Y3885430D01*
X2434380Y3873620D01*
X2431460Y3865750D01*
X2425620Y3857870D01*
X2418810Y3852620D01*
X2411990Y3850000D01*
X2405170D01*
X2398360Y3852620D01*
X2392520Y3856560D01*
X2387650Y3861810D01*
G01X2351750Y3915620D02*
X2345910Y3923490D01*
X2339090Y3927430D01*
X2331300Y3928740D01*
X2321570Y3926120D01*
X2314750Y3919550D01*
X2312800Y3911680D01*
X2313780Y3903800D01*
X2317670Y3897240D01*
X2337140Y3884120D01*
X2345910Y3874930D01*
X2351750Y3861810D01*
X2353700Y3850000D01*
X2312800D01*
G01X2275930Y3861810D02*
X2270090Y3855250D01*
X2263270Y3851310D01*
X2254510Y3850000D01*
X2245750Y3852620D01*
X2238930Y3857870D01*
X2234060Y3867060D01*
X2233090Y3877560D01*
X2235040Y3888060D01*
X2239910Y3894620D01*
X2246720Y3899870D01*
X2253540Y3901180D01*
X2260350Y3899870D01*
X2269110Y3894620D01*
X2266190Y3928740D01*
X2239910D01*
G01X2406060Y4150800D02*
Y4229540D01*
X2381720D01*
X2373930Y4225600D01*
X2369060Y4220350D01*
X2367120Y4209850D01*
X2369060Y4199360D01*
X2374910Y4192800D01*
X2381720Y4188860D01*
X2406060D01*
G01X2381720D02*
X2367120Y4150800D01*
G01X2326350Y4216420D02*
X2320510Y4224290D01*
X2313690Y4228230D01*
X2305900Y4229540D01*
X2296170Y4226920D01*
X2289350Y4220350D01*
X2287400Y4212480D01*
X2288380Y4204600D01*
X2292270Y4198040D01*
X2311740Y4184920D01*
X2320510Y4175730D01*
X2326350Y4162610D01*
X2328300Y4150800D01*
X2287400D01*
G01X2217430D02*
Y4229540D01*
X2253450Y4173110D01*
X2204770D01*
G01X2410860Y4273000D02*
Y4351740D01*
X2386520D01*
X2378730Y4347800D01*
X2373860Y4342550D01*
X2371920Y4332050D01*
X2373860Y4321560D01*
X2379710Y4315000D01*
X2386520Y4311060D01*
X2410860D01*
G01X2386520D02*
X2371920Y4273000D01*
G01X2331150Y4338620D02*
X2325310Y4346490D01*
X2318490Y4350430D01*
X2310700Y4351740D01*
X2300970Y4349120D01*
X2294150Y4342550D01*
X2292200Y4334680D01*
X2293180Y4326800D01*
X2297070Y4320240D01*
X2316540Y4307120D01*
X2325310Y4297930D01*
X2331150Y4284810D01*
X2333100Y4273000D01*
X2292200D01*
G01X2255330Y4288750D02*
X2249490Y4279560D01*
X2241700Y4274310D01*
X2232940Y4273000D01*
X2225150Y4274310D01*
X2217360Y4280870D01*
X2212490Y4288750D01*
X2211520Y4296620D01*
X2213460Y4305810D01*
X2220280Y4312370D01*
X2227090Y4315000D01*
X2235860D01*
G01X2227090D02*
X2221250Y4318930D01*
X2216380Y4325490D01*
X2214440Y4333370D01*
X2216380Y4341240D01*
X2221250Y4347800D01*
X2230020Y4351740D01*
X2238780Y4350430D01*
X2247540Y4345180D01*
G01X2238690Y5146760D02*
X2246480Y5148070D01*
X2253290Y5153320D01*
X2259140Y5161190D01*
X2263030Y5170380D01*
X2264980Y5180880D01*
Y5191380D01*
X2263030Y5201880D01*
X2259140Y5211070D01*
X2253290Y5218940D01*
X2246480Y5224190D01*
X2238690Y5225500D01*
X2230900Y5224190D01*
X2224090Y5218940D01*
X2218240Y5211070D01*
X2214350Y5201880D01*
X2212400Y5191380D01*
Y5180880D01*
X2214350Y5170380D01*
X2218240Y5161190D01*
X2224090Y5153320D01*
X2230900Y5148070D01*
X2238690Y5146760D01*
G01X2230900Y5167760D02*
X2219220Y5146760D01*
G01X2148270D02*
Y5225500D01*
X2184290Y5169070D01*
X2135610D01*
G01X2319660Y5323000D02*
Y5401740D01*
X2295320D01*
X2287530Y5397800D01*
X2282660Y5392550D01*
X2280720Y5382050D01*
X2282660Y5371560D01*
X2288510Y5365000D01*
X2295320Y5361060D01*
X2319660D01*
G01X2295320D02*
X2280720Y5323000D01*
G01X2239950Y5388620D02*
X2234110Y5396490D01*
X2227290Y5400430D01*
X2219500Y5401740D01*
X2209770Y5399120D01*
X2202950Y5392550D01*
X2201000Y5384680D01*
X2201980Y5376800D01*
X2205870Y5370240D01*
X2225340Y5357120D01*
X2234110Y5347930D01*
X2239950Y5334810D01*
X2241900Y5323000D01*
X2201000D01*
G01X2161210Y5388620D02*
X2155370Y5396490D01*
X2148550Y5400430D01*
X2140760Y5401740D01*
X2131030Y5399120D01*
X2124210Y5392550D01*
X2122260Y5384680D01*
X2123240Y5376800D01*
X2127130Y5370240D01*
X2146600Y5357120D01*
X2155370Y5347930D01*
X2161210Y5334810D01*
X2163160Y5323000D01*
X2122260D01*
G01X2692210Y2750000D02*
Y2828740D01*
X2672740D01*
X2664950Y2824800D01*
X2659110Y2819550D01*
X2654240Y2811680D01*
X2650340Y2802490D01*
X2649370Y2789370D01*
X2650340Y2776250D01*
X2654240Y2767060D01*
X2659110Y2759180D01*
X2664950Y2753940D01*
X2672740Y2750000D01*
X2692210D01*
G01X2592050D02*
Y2828740D01*
X2603730Y2812990D01*
G01Y2750000D02*
X2580370D01*
G01X2678740Y3559740D02*
X2600000D01*
Y3598680D01*
G01Y3657950D02*
X2678740D01*
X2662990Y3646270D01*
G01X2600000D02*
Y3669630D01*
G01X2800800Y1468860D02*
X2722060D01*
Y1444520D01*
X2726000Y1436730D01*
X2731250Y1431860D01*
X2741750Y1429920D01*
X2752240Y1431860D01*
X2758800Y1437710D01*
X2762740Y1444520D01*
Y1468860D01*
G01Y1444520D02*
X2800800Y1429920D01*
G01Y1370650D02*
X2722060D01*
X2737810Y1382330D01*
G01X2800800D02*
Y1358970D01*
G01X2727820Y1749370D02*
X2723880Y1755210D01*
X2721260Y1762030D01*
Y1769820D01*
X2725200Y1778580D01*
X2731760Y1785390D01*
X2739630Y1790260D01*
X2752760Y1794160D01*
X2764570Y1795130D01*
X2776380Y1793180D01*
X2784250Y1790260D01*
X2792130Y1784420D01*
X2797380Y1777610D01*
X2800000Y1770790D01*
Y1763970D01*
X2797380Y1757160D01*
X2793440Y1751320D01*
X2788190Y1746450D01*
G01X2767190Y1710550D02*
X2758000Y1703730D01*
X2752760Y1697890D01*
X2750130Y1690100D01*
X2752760Y1683290D01*
X2758000Y1678420D01*
X2765880Y1674520D01*
X2775070Y1673550D01*
X2782940Y1674520D01*
X2790820Y1678420D01*
X2797380Y1684260D01*
X2800000Y1691080D01*
X2797380Y1698870D01*
X2789500Y1705680D01*
X2777690Y1709580D01*
X2764570Y1710550D01*
X2747510Y1708600D01*
X2738320Y1705680D01*
X2729130Y1700810D01*
X2722570Y1694000D01*
X2721260Y1687180D01*
X2723880Y1680370D01*
X2730450Y1675500D01*
G01X2799180Y2223630D02*
X2803120Y2217790D01*
X2805740Y2210970D01*
Y2203180D01*
X2801800Y2194420D01*
X2795240Y2187610D01*
X2787370Y2182740D01*
X2774240Y2178840D01*
X2762430Y2177870D01*
X2750620Y2179820D01*
X2742750Y2182740D01*
X2734870Y2188580D01*
X2729620Y2195390D01*
X2727000Y2202210D01*
Y2209030D01*
X2729620Y2215840D01*
X2733560Y2221680D01*
X2738810Y2226550D01*
G01X2727000Y2279000D02*
X2744060Y2280950D01*
X2758490Y2283870D01*
X2771620Y2287770D01*
X2786050Y2292630D01*
X2805740Y2300420D01*
Y2261480D01*
G01X2843220Y4773770D02*
X2839280Y4779610D01*
X2836660Y4786430D01*
Y4794220D01*
X2840600Y4802980D01*
X2847160Y4809790D01*
X2855030Y4814660D01*
X2868160Y4818560D01*
X2879970Y4819530D01*
X2891780Y4817580D01*
X2899650Y4814660D01*
X2907530Y4808820D01*
X2912780Y4802010D01*
X2915400Y4795190D01*
Y4788370D01*
X2912780Y4781560D01*
X2908840Y4775720D01*
X2903590Y4770850D01*
G01X2849780Y4734950D02*
X2841910Y4729110D01*
X2837970Y4722290D01*
X2836660Y4714500D01*
X2839280Y4704770D01*
X2845850Y4697950D01*
X2853720Y4696000D01*
X2861600Y4696980D01*
X2868160Y4700870D01*
X2881280Y4720340D01*
X2890470Y4729110D01*
X2903590Y4734950D01*
X2915400Y4736900D01*
Y4696000D01*
G01X2836660Y4637710D02*
X2839280Y4645500D01*
X2845850Y4651340D01*
X2853720Y4655240D01*
X2864220Y4658160D01*
X2876030Y4659130D01*
X2887840Y4658160D01*
X2898340Y4655240D01*
X2906220Y4651340D01*
X2912780Y4645500D01*
X2915400Y4637710D01*
X2912780Y4629920D01*
X2906220Y4624080D01*
X2898340Y4620180D01*
X2887840Y4617260D01*
X2876030Y4616290D01*
X2864220Y4617260D01*
X2853720Y4620180D01*
X2845850Y4624080D01*
X2839280Y4629920D01*
X2836660Y4637710D01*
G01X2843220Y5103970D02*
X2839280Y5109810D01*
X2836660Y5116630D01*
Y5124420D01*
X2840600Y5133180D01*
X2847160Y5139990D01*
X2855030Y5144860D01*
X2868160Y5148760D01*
X2879970Y5149730D01*
X2891780Y5147780D01*
X2899650Y5144860D01*
X2907530Y5139020D01*
X2912780Y5132210D01*
X2915400Y5125390D01*
Y5118570D01*
X2912780Y5111760D01*
X2908840Y5105920D01*
X2903590Y5101050D01*
G01X2915400Y5046650D02*
X2836660D01*
X2852410Y5058330D01*
G01X2915400D02*
Y5034970D01*
G01X2906220Y4984460D02*
X2912780Y4977650D01*
X2915400Y4969860D01*
X2912780Y4962070D01*
X2904900Y4955250D01*
X2893090Y4950380D01*
X2881280Y4948440D01*
X2866840D01*
X2855030Y4950380D01*
X2844530Y4955250D01*
X2839280Y4961090D01*
X2836660Y4967910D01*
X2839280Y4975700D01*
X2844530Y4981540D01*
X2852410Y4985440D01*
X2862910Y4987380D01*
X2872090Y4985440D01*
X2881280Y4980570D01*
X2886530Y4974730D01*
X2887840Y4967910D01*
X2885220Y4960120D01*
X2878660Y4954280D01*
X2866840Y4948440D01*
G01X3291860Y1500000D02*
Y1578740D01*
X3267520D01*
X3259730Y1574800D01*
X3254860Y1569550D01*
X3252920Y1559050D01*
X3254860Y1548560D01*
X3260710Y1542000D01*
X3267520Y1538060D01*
X3291860D01*
G01X3267520D02*
X3252920Y1500000D01*
G01X3193650D02*
Y1578740D01*
X3205330Y1562990D01*
G01Y1500000D02*
X3181970D01*
G01X3133410Y1532810D02*
X3126590Y1542000D01*
X3120750Y1547240D01*
X3112960Y1549870D01*
X3106150Y1547240D01*
X3101280Y1542000D01*
X3097380Y1534120D01*
X3096410Y1524930D01*
X3097380Y1517060D01*
X3101280Y1509180D01*
X3107120Y1502620D01*
X3113940Y1500000D01*
X3121730Y1502620D01*
X3128540Y1510500D01*
X3132440Y1522310D01*
X3133410Y1535430D01*
X3131460Y1552490D01*
X3128540Y1561680D01*
X3123670Y1570870D01*
X3116860Y1577430D01*
X3110040Y1578740D01*
X3103230Y1576120D01*
X3098360Y1569550D01*
G01X3250970Y1468980D02*
X3256810Y1472920D01*
X3263630Y1475540D01*
X3271420D01*
X3280180Y1471600D01*
X3286990Y1465040D01*
X3291860Y1457170D01*
X3295760Y1444040D01*
X3296730Y1432230D01*
X3294780Y1420420D01*
X3291860Y1412550D01*
X3286020Y1404670D01*
X3279210Y1399420D01*
X3272390Y1396800D01*
X3265570D01*
X3258760Y1399420D01*
X3252920Y1403360D01*
X3248050Y1408610D01*
G01X3193650Y1396800D02*
Y1475540D01*
X3205330Y1459790D01*
G01Y1396800D02*
X3181970D01*
G01X3114910D02*
X3108090Y1398110D01*
X3100310Y1402050D01*
X3095440Y1408610D01*
X3093490Y1417800D01*
X3095440Y1426980D01*
X3101280Y1434860D01*
X3110040Y1438800D01*
X3119780D01*
X3125620Y1441420D01*
X3130490Y1447980D01*
X3132440Y1457170D01*
X3129510Y1466350D01*
X3122700Y1472920D01*
X3114910Y1475540D01*
X3107120Y1472920D01*
X3100310Y1466350D01*
X3097380Y1457170D01*
X3099330Y1447980D01*
X3104200Y1441420D01*
X3110040Y1438800D01*
X3119780D01*
X3128540Y1434860D01*
X3134380Y1426980D01*
X3136330Y1417800D01*
X3134380Y1408610D01*
X3129510Y1402050D01*
X3121730Y1398110D01*
X3114910Y1396800D01*
G01X3292660Y1620600D02*
Y1699340D01*
X3268320D01*
X3260530Y1695400D01*
X3255660Y1690150D01*
X3253720Y1679650D01*
X3255660Y1669160D01*
X3261510Y1662600D01*
X3268320Y1658660D01*
X3292660D01*
G01X3268320D02*
X3253720Y1620600D01*
G01X3194450D02*
Y1699340D01*
X3206130Y1683590D01*
G01Y1620600D02*
X3182770D01*
G01X3117660D02*
X3115710Y1637660D01*
X3112790Y1652090D01*
X3108890Y1665220D01*
X3104030Y1679650D01*
X3096240Y1699340D01*
X3135180D01*
G01X3096800Y3601460D02*
X3018060D01*
Y3577120D01*
X3022000Y3569330D01*
X3027250Y3564460D01*
X3037750Y3562520D01*
X3048240Y3564460D01*
X3054800Y3570310D01*
X3058740Y3577120D01*
Y3601460D01*
G01Y3577120D02*
X3096800Y3562520D01*
G01X3031180Y3521750D02*
X3023310Y3515910D01*
X3019370Y3509090D01*
X3018060Y3501300D01*
X3020680Y3491570D01*
X3027250Y3484750D01*
X3035120Y3482800D01*
X3043000Y3483780D01*
X3049560Y3487670D01*
X3062680Y3507140D01*
X3071870Y3515910D01*
X3084990Y3521750D01*
X3096800Y3523700D01*
Y3482800D01*
G01Y3424510D02*
X3018060D01*
X3033810Y3436190D01*
G01X3096800D02*
Y3412830D01*
G01X3089840Y3285890D02*
X3088530Y3293680D01*
X3083280Y3300490D01*
X3075410Y3306340D01*
X3066220Y3310230D01*
X3055720Y3312180D01*
X3045220D01*
X3034720Y3310230D01*
X3025530Y3306340D01*
X3017660Y3300490D01*
X3012410Y3293680D01*
X3011100Y3285890D01*
X3012410Y3278100D01*
X3017660Y3271290D01*
X3025530Y3265440D01*
X3034720Y3261550D01*
X3045220Y3259600D01*
X3055720D01*
X3066220Y3261550D01*
X3075410Y3265440D01*
X3083280Y3271290D01*
X3088530Y3278100D01*
X3089840Y3285890D01*
G01X3068840Y3278100D02*
X3089840Y3266420D01*
G01X3024220Y3225650D02*
X3016350Y3219810D01*
X3012410Y3212990D01*
X3011100Y3205200D01*
X3013720Y3195470D01*
X3020290Y3188650D01*
X3028160Y3186700D01*
X3036040Y3187680D01*
X3042600Y3191570D01*
X3055720Y3211040D01*
X3064910Y3219810D01*
X3078030Y3225650D01*
X3089840Y3227600D01*
Y3186700D01*
G01X3238000Y4255460D02*
X3159260D01*
Y4231120D01*
X3163200Y4223330D01*
X3168450Y4218460D01*
X3178950Y4216520D01*
X3189440Y4218460D01*
X3196000Y4224310D01*
X3199940Y4231120D01*
Y4255460D01*
G01Y4231120D02*
X3238000Y4216520D01*
G01X3172380Y4175750D02*
X3164510Y4169910D01*
X3160570Y4163090D01*
X3159260Y4155300D01*
X3161880Y4145570D01*
X3168450Y4138750D01*
X3176320Y4136800D01*
X3184200Y4137780D01*
X3190760Y4141670D01*
X3203880Y4161140D01*
X3213070Y4169910D01*
X3226190Y4175750D01*
X3238000Y4177700D01*
Y4136800D01*
G01X3159260Y4078510D02*
X3161880Y4086300D01*
X3168450Y4092140D01*
X3176320Y4096040D01*
X3186820Y4098960D01*
X3198630Y4099930D01*
X3210440Y4098960D01*
X3220940Y4096040D01*
X3228820Y4092140D01*
X3235380Y4086300D01*
X3238000Y4078510D01*
X3235380Y4070720D01*
X3228820Y4064880D01*
X3220940Y4060980D01*
X3210440Y4058060D01*
X3198630Y4057090D01*
X3186820Y4058060D01*
X3176320Y4060980D01*
X3168450Y4064880D01*
X3161880Y4070720D01*
X3159260Y4078510D01*
G01X3390100Y1008660D02*
X3311360D01*
Y984320D01*
X3315300Y976530D01*
X3320550Y971660D01*
X3331050Y969720D01*
X3341540Y971660D01*
X3348100Y977510D01*
X3352040Y984320D01*
Y1008660D01*
G01Y984320D02*
X3390100Y969720D01*
G01X3380920Y927000D02*
X3387480Y920190D01*
X3390100Y912400D01*
X3387480Y904610D01*
X3379600Y897790D01*
X3367790Y892920D01*
X3355980Y890980D01*
X3341540D01*
X3329730Y892920D01*
X3319230Y897790D01*
X3313980Y903630D01*
X3311360Y910450D01*
X3313980Y918240D01*
X3319230Y924080D01*
X3327110Y927980D01*
X3337610Y929920D01*
X3346790Y927980D01*
X3355980Y923110D01*
X3361230Y917270D01*
X3362540Y910450D01*
X3359920Y902660D01*
X3353360Y896820D01*
X3341540Y890980D01*
G01X3362560Y2290310D02*
X3363870Y2282520D01*
X3369120Y2275710D01*
X3376990Y2269860D01*
X3386180Y2265970D01*
X3396680Y2264020D01*
X3407180D01*
X3417680Y2265970D01*
X3426870Y2269860D01*
X3434740Y2275710D01*
X3439990Y2282520D01*
X3441300Y2290310D01*
X3439990Y2298100D01*
X3434740Y2304910D01*
X3426870Y2310760D01*
X3417680Y2314650D01*
X3407180Y2316600D01*
X3396680D01*
X3386180Y2314650D01*
X3376990Y2310760D01*
X3369120Y2304910D01*
X3363870Y2298100D01*
X3362560Y2290310D01*
G01X3383560Y2298100D02*
X3362560Y2309780D01*
G01X3378310Y2347630D02*
X3369120Y2353470D01*
X3363870Y2361260D01*
X3362560Y2370020D01*
X3363870Y2377810D01*
X3370430Y2385600D01*
X3378310Y2390470D01*
X3386180Y2391440D01*
X3395370Y2389500D01*
X3401930Y2382680D01*
X3404560Y2375870D01*
Y2367100D01*
G01Y2375870D02*
X3408490Y2381710D01*
X3415050Y2386580D01*
X3422930Y2388520D01*
X3430800Y2386580D01*
X3437360Y2381710D01*
X3441300Y2372940D01*
X3439990Y2364180D01*
X3434740Y2355420D01*
G01X3564860Y2622200D02*
Y2700940D01*
X3540520D01*
X3532730Y2697000D01*
X3527860Y2691750D01*
X3525920Y2681250D01*
X3527860Y2670760D01*
X3533710Y2664200D01*
X3540520Y2660260D01*
X3564860D01*
G01X3540520D02*
X3525920Y2622200D01*
G01X3466650D02*
Y2700940D01*
X3478330Y2685190D01*
G01Y2622200D02*
X3454970D01*
G01X3376230D02*
Y2700940D01*
X3412250Y2644510D01*
X3363570D01*
G01X3523970Y2845180D02*
X3529810Y2849120D01*
X3536630Y2851740D01*
X3544420D01*
X3553180Y2847800D01*
X3559990Y2841240D01*
X3564860Y2833370D01*
X3568760Y2820240D01*
X3569730Y2808430D01*
X3567780Y2796620D01*
X3564860Y2788750D01*
X3559020Y2780870D01*
X3552210Y2775620D01*
X3545390Y2773000D01*
X3538570D01*
X3531760Y2775620D01*
X3525920Y2779560D01*
X3521050Y2784810D01*
G01X3466650Y2773000D02*
Y2851740D01*
X3478330Y2835990D01*
G01Y2773000D02*
X3454970D01*
G01X3389860D02*
X3387910Y2790060D01*
X3384990Y2804490D01*
X3381090Y2817620D01*
X3376230Y2832050D01*
X3368440Y2851740D01*
X3407380D01*
G01X3564860Y2923800D02*
Y3002540D01*
X3540520D01*
X3532730Y2998600D01*
X3527860Y2993350D01*
X3525920Y2982850D01*
X3527860Y2972360D01*
X3533710Y2965800D01*
X3540520Y2961860D01*
X3564860D01*
G01X3540520D02*
X3525920Y2923800D01*
G01X3466650D02*
Y3002540D01*
X3478330Y2986790D01*
G01Y2923800D02*
X3454970D01*
G01X3409330Y2935610D02*
X3403490Y2929050D01*
X3396670Y2925110D01*
X3387910Y2923800D01*
X3379150Y2926420D01*
X3372330Y2931670D01*
X3367460Y2940860D01*
X3366490Y2951360D01*
X3368440Y2961860D01*
X3373310Y2968420D01*
X3380120Y2973670D01*
X3386940Y2974980D01*
X3393750Y2973670D01*
X3402510Y2968420D01*
X3399590Y3002540D01*
X3373310D01*
G01X3450000Y3890260D02*
X3371260D01*
Y3865920D01*
X3375200Y3858130D01*
X3380450Y3853260D01*
X3390950Y3851320D01*
X3401440Y3853260D01*
X3408000Y3859110D01*
X3411940Y3865920D01*
Y3890260D01*
G01Y3865920D02*
X3450000Y3851320D01*
G01Y3792050D02*
X3371260D01*
X3387010Y3803730D01*
G01X3450000D02*
Y3780370D01*
G01X3440820Y3729860D02*
X3447380Y3723050D01*
X3450000Y3715260D01*
X3447380Y3707470D01*
X3439500Y3700650D01*
X3427690Y3695780D01*
X3415880Y3693840D01*
X3401440D01*
X3389630Y3695780D01*
X3379130Y3700650D01*
X3373880Y3706490D01*
X3371260Y3713310D01*
X3373880Y3721100D01*
X3379130Y3726940D01*
X3387010Y3730840D01*
X3397510Y3732780D01*
X3406690Y3730840D01*
X3415880Y3725970D01*
X3421130Y3720130D01*
X3422440Y3713310D01*
X3419820Y3705520D01*
X3413260Y3699680D01*
X3401440Y3693840D01*
G01X3441200Y4257060D02*
X3362460D01*
Y4232720D01*
X3366400Y4224930D01*
X3371650Y4220060D01*
X3382150Y4218120D01*
X3392640Y4220060D01*
X3399200Y4225910D01*
X3403140Y4232720D01*
Y4257060D01*
G01Y4232720D02*
X3441200Y4218120D01*
G01Y4158850D02*
X3362460D01*
X3378210Y4170530D01*
G01X3441200D02*
Y4147170D01*
G01Y4080110D02*
X3439890Y4073290D01*
X3435950Y4065510D01*
X3429390Y4060640D01*
X3420200Y4058690D01*
X3411020Y4060640D01*
X3403140Y4066480D01*
X3399200Y4075240D01*
Y4084980D01*
X3396580Y4090820D01*
X3390020Y4095690D01*
X3380830Y4097640D01*
X3371650Y4094710D01*
X3365080Y4087900D01*
X3362460Y4080110D01*
X3365080Y4072320D01*
X3371650Y4065510D01*
X3380830Y4062580D01*
X3390020Y4064530D01*
X3396580Y4069400D01*
X3399200Y4075240D01*
Y4084980D01*
X3403140Y4093740D01*
X3411020Y4099580D01*
X3420200Y4101530D01*
X3429390Y4099580D01*
X3435950Y4094710D01*
X3439890Y4086930D01*
X3441200Y4080110D01*
G01X3553600Y1008660D02*
X3474860D01*
Y984320D01*
X3478800Y976530D01*
X3484050Y971660D01*
X3494550Y969720D01*
X3505040Y971660D01*
X3511600Y977510D01*
X3515540Y984320D01*
Y1008660D01*
G01Y984320D02*
X3553600Y969720D01*
G01Y910450D02*
X3552290Y903630D01*
X3548350Y895850D01*
X3541790Y890980D01*
X3532600Y889030D01*
X3523420Y890980D01*
X3515540Y896820D01*
X3511600Y905580D01*
Y915320D01*
X3508980Y921160D01*
X3502420Y926030D01*
X3493230Y927980D01*
X3484050Y925050D01*
X3477480Y918240D01*
X3474860Y910450D01*
X3477480Y902660D01*
X3484050Y895850D01*
X3493230Y892920D01*
X3502420Y894870D01*
X3508980Y899740D01*
X3511600Y905580D01*
Y915320D01*
X3515540Y924080D01*
X3523420Y929920D01*
X3532600Y931870D01*
X3541790Y929920D01*
X3548350Y925050D01*
X3552290Y917270D01*
X3553600Y910450D01*
G01X3899370Y1572180D02*
X3905210Y1576120D01*
X3912030Y1578740D01*
X3919820D01*
X3928580Y1574800D01*
X3935390Y1568240D01*
X3940260Y1560370D01*
X3944160Y1547240D01*
X3945130Y1535430D01*
X3943180Y1523620D01*
X3940260Y1515750D01*
X3934420Y1507870D01*
X3927610Y1502620D01*
X3920790Y1500000D01*
X3913970D01*
X3907160Y1502620D01*
X3901320Y1506560D01*
X3896450Y1511810D01*
G01X3860550Y1565620D02*
X3854710Y1573490D01*
X3847890Y1577430D01*
X3840100Y1578740D01*
X3830370Y1576120D01*
X3823550Y1569550D01*
X3821600Y1561680D01*
X3822580Y1553800D01*
X3826470Y1547240D01*
X3845940Y1534120D01*
X3854710Y1524930D01*
X3860550Y1511810D01*
X3862500Y1500000D01*
X3821600D01*
G01X3784730Y1515750D02*
X3778890Y1506560D01*
X3771100Y1501310D01*
X3762340Y1500000D01*
X3754550Y1501310D01*
X3746760Y1507870D01*
X3741890Y1515750D01*
X3740920Y1523620D01*
X3742860Y1532810D01*
X3749680Y1539370D01*
X3756490Y1542000D01*
X3765260D01*
G01X3756490D02*
X3750650Y1545930D01*
X3745780Y1552490D01*
X3743840Y1560370D01*
X3745780Y1568240D01*
X3750650Y1574800D01*
X3759420Y1578740D01*
X3768180Y1577430D01*
X3776940Y1572180D01*
G01X3942210Y2280200D02*
Y2358940D01*
X3922740D01*
X3914950Y2355000D01*
X3909110Y2349750D01*
X3904240Y2341880D01*
X3900340Y2332690D01*
X3899370Y2319570D01*
X3900340Y2306450D01*
X3904240Y2297260D01*
X3909110Y2289380D01*
X3914950Y2284140D01*
X3922740Y2280200D01*
X3942210D01*
G01X3860550Y2345820D02*
X3854710Y2353690D01*
X3847890Y2357630D01*
X3840100Y2358940D01*
X3830370Y2356320D01*
X3823550Y2349750D01*
X3821600Y2341880D01*
X3822580Y2334000D01*
X3826470Y2327440D01*
X3845940Y2314320D01*
X3854710Y2305130D01*
X3860550Y2292010D01*
X3862500Y2280200D01*
X3821600D01*
G01X3843040Y3507290D02*
X3841730Y3515080D01*
X3836480Y3521890D01*
X3828610Y3527740D01*
X3819420Y3531630D01*
X3808920Y3533580D01*
X3798420D01*
X3787920Y3531630D01*
X3778730Y3527740D01*
X3770860Y3521890D01*
X3765610Y3515080D01*
X3764300Y3507290D01*
X3765610Y3499500D01*
X3770860Y3492690D01*
X3778730Y3486840D01*
X3787920Y3482950D01*
X3798420Y3481000D01*
X3808920D01*
X3819420Y3482950D01*
X3828610Y3486840D01*
X3836480Y3492690D01*
X3841730Y3499500D01*
X3843040Y3507290D01*
G01X3822040Y3499500D02*
X3843040Y3487820D01*
G01X3831230Y3449970D02*
X3837790Y3444130D01*
X3841730Y3437310D01*
X3843040Y3428550D01*
X3840420Y3419790D01*
X3835170Y3412970D01*
X3825980Y3408100D01*
X3815480Y3407130D01*
X3804980Y3409080D01*
X3798420Y3413950D01*
X3793170Y3420760D01*
X3791860Y3427580D01*
X3793170Y3434390D01*
X3798420Y3443150D01*
X3764300Y3440230D01*
Y3413950D01*
M02*
