G04 ================== begin FILE IDENTIFICATION RECORD ==================*
G04 Layout Name:  FishTank-Manage.brd*
G04 Film Name:    SILK_BOTTOM*
G04 File Format:  Gerber RS274X*
G04 File Origin:  Cadence Allegro 17.4-S032*
G04 Origin Date:  Mon Jul 31 00:13:20 2023*
G04 *
G04 Layer:  REF DES/SILKSCREEN_BOTTOM*
G04 Layer:  PACKAGE GEOMETRY/SILKSCREEN_BOTTOM*
G04 Layer:  BOARD GEOMETRY/SOLDERMASK_BOTTOM*
G04 *
G04 Offset:    (0.0000 0.0000)*
G04 Mirror:    No*
G04 Mode:      Positive*
G04 Rotation:  0*
G04 FullContactRelief:  No*
G04 UndefLineWidth:     0.0000*
G04 ================== end FILE IDENTIFICATION RECORD ====================*
%FSLAX25Y25*MOIN*%
%IR0*IPPOS*OFA0.00000B0.00000*MIA0B0*SFA1.00000B1.00000*%
%ADD10C,.007874*%
%ADD11C,.005*%
G75*
%LPD*%
G75*
G54D10*
G01X14701Y42000D02*
G02I-197J0D01*
G01X19197Y74996D02*
G02I-197J0D01*
G01X15850Y100154D02*
Y85705D01*
G01X14201Y111000D02*
G02I-197J0D01*
G01X20500Y104319D02*
Y106681D01*
G01X15850Y133654D02*
Y119205D01*
G01X20697Y150496D02*
G02I-197J0D01*
G01X21000Y51819D02*
Y54181D01*
G01Y48681D02*
Y46319D01*
G01X23819Y68500D02*
X26181D01*
G01X22000Y77319D02*
Y79681D01*
G01X22150Y96295D02*
Y85705D01*
G01Y129795D02*
Y119205D01*
G01X27681Y144000D02*
X25319D01*
G01X30819D02*
X33181D01*
G01X23500Y163472D02*
Y172528D01*
G01X32681Y199500D02*
X30319D01*
G01X36319Y183500D02*
X38681D01*
G01X32197Y189996D02*
G02I-197J0D01*
G01X43854Y171201D02*
X63146D01*
G01X43854Y183799D02*
Y171201D01*
G01X43343Y191181D02*
Y185177D01*
G01X63146Y183799D02*
X43854D01*
G01X81780Y23008D02*
X54220D01*
G01Y48992D02*
X81780D01*
G01X79921Y52835D02*
X58878D01*
G01X60079Y63165D02*
X79921D01*
G01X59197Y75504D02*
G02I-197J0D01*
G01X54500Y141028D02*
Y131972D01*
G01Y153028D02*
Y143972D01*
G01X58693Y158000D02*
G02I-197J0D01*
G01X58500Y206528D02*
Y197472D01*
G01X66854Y76201D02*
X86146D01*
G01X66854Y88799D02*
Y76201D01*
G01X66343Y96181D02*
Y90177D01*
G01X86146Y88799D02*
X66854D01*
G01X67193Y103000D02*
G02I-197J0D01*
G01X70701D02*
G02I-197J0D01*
G01X67193Y109000D02*
G02I-197J0D01*
G01X71681Y175000D02*
X69319D01*
G01X63146Y171201D02*
Y183799D01*
G01X71681Y185500D02*
X69319D01*
G01X67693Y211000D02*
G02I-197J0D01*
G01X81000Y119972D02*
Y129028D01*
G01X113150Y131886D02*
X79488D01*
G01X81850Y155114D02*
X113150D01*
G01X77815Y165346D02*
Y208654D01*
G01X99528Y52500D02*
X90472D01*
G01X86146Y76201D02*
Y88799D01*
G01X89701Y83500D02*
G02I-197J0D01*
G01Y89000D02*
G02I-197J0D01*
G01Y94500D02*
G02I-197J0D01*
G01X95500Y69819D02*
Y72181D01*
G01Y67181D02*
Y64819D01*
G01X96000Y78681D02*
Y76319D01*
G01X102319Y106500D02*
X104681D01*
G01X103697Y131996D02*
G02I-197J0D01*
G01X98681Y125500D02*
X96319D01*
G01X118500Y25028D02*
Y15972D01*
G01X122819Y146500D02*
X125181D01*
G01X122819Y158500D02*
X125181D01*
G01X117185Y208654D02*
Y165346D01*
G01X124197Y176996D02*
G02I-197J0D01*
G01X136181Y100000D02*
X133819D01*
G01X134000Y149681D02*
Y147319D01*
G01X133500Y169181D02*
Y166819D01*
G01X133000Y172319D02*
Y174681D01*
G01X135028Y192000D02*
X125972D01*
G01X138681Y34500D02*
X136319D01*
G01Y47000D02*
X138681D01*
G54D11*
G01X6850Y58400D02*
X7157Y58452D01*
X7425Y58658D01*
X7655Y58968D01*
X7808Y59330D01*
X7885Y59743D01*
Y60157D01*
X7808Y60570D01*
X7655Y60932D01*
X7425Y61242D01*
X7157Y61448D01*
X6850Y61500D01*
X6543Y61448D01*
X6275Y61242D01*
X6045Y60932D01*
X5892Y60570D01*
X5815Y60157D01*
Y59743D01*
X5892Y59330D01*
X6045Y58968D01*
X6275Y58658D01*
X6543Y58452D01*
X6850Y58400D01*
G01X6543Y59227D02*
X6083Y58400D01*
G01X4593Y59020D02*
X4363Y58658D01*
X4057Y58452D01*
X3712Y58400D01*
X3405Y58452D01*
X3098Y58710D01*
X2907Y59020D01*
X2869Y59330D01*
X2945Y59692D01*
X3213Y59950D01*
X3481Y60054D01*
X3827D01*
G01X3481D02*
X3252Y60208D01*
X3060Y60467D01*
X2983Y60777D01*
X3060Y61087D01*
X3252Y61345D01*
X3597Y61500D01*
X3942Y61448D01*
X4287Y61242D01*
G01X15117Y77000D02*
Y80100D01*
X14158D01*
X13852Y79945D01*
X13660Y79738D01*
X13583Y79325D01*
X13660Y78912D01*
X13890Y78654D01*
X14158Y78498D01*
X15117D01*
G01X14158D02*
X13583Y77000D01*
G01X11250D02*
Y80100D01*
X11710Y79480D01*
G01Y77000D02*
X10790D01*
G01X8878Y78292D02*
X8610Y78654D01*
X8380Y78860D01*
X8073Y78963D01*
X7805Y78860D01*
X7613Y78654D01*
X7460Y78343D01*
X7422Y77981D01*
X7460Y77672D01*
X7613Y77361D01*
X7843Y77103D01*
X8112Y77000D01*
X8419Y77103D01*
X8687Y77413D01*
X8840Y77878D01*
X8878Y78395D01*
X8802Y79067D01*
X8687Y79428D01*
X8495Y79790D01*
X8227Y80048D01*
X7958Y80100D01*
X7690Y79997D01*
X7498Y79738D01*
G01X11350Y134400D02*
X11657Y134452D01*
X11925Y134658D01*
X12155Y134968D01*
X12308Y135330D01*
X12385Y135743D01*
Y136157D01*
X12308Y136570D01*
X12155Y136932D01*
X11925Y137242D01*
X11657Y137448D01*
X11350Y137500D01*
X11043Y137448D01*
X10775Y137242D01*
X10545Y136932D01*
X10392Y136570D01*
X10315Y136157D01*
Y135743D01*
X10392Y135330D01*
X10545Y134968D01*
X10775Y134658D01*
X11043Y134452D01*
X11350Y134400D01*
G01X11043Y135227D02*
X10583Y134400D01*
G01X8250D02*
Y137500D01*
X8710Y136880D01*
G01Y134400D02*
X7790D01*
G01X14842Y55993D02*
X14997Y55763D01*
X15100Y55495D01*
Y55188D01*
X14945Y54843D01*
X14687Y54575D01*
X14377Y54383D01*
X13860Y54230D01*
X13395Y54192D01*
X12930Y54269D01*
X12620Y54383D01*
X12310Y54613D01*
X12103Y54881D01*
X12000Y55150D01*
Y55419D01*
X12103Y55687D01*
X12258Y55917D01*
X12465Y56108D01*
G01X12000Y58250D02*
X15100D01*
X14480Y57790D01*
G01X12000D02*
Y58710D01*
G01Y61350D02*
X12052Y61619D01*
X12207Y61925D01*
X12465Y62117D01*
X12827Y62193D01*
X13188Y62117D01*
X13498Y61887D01*
X13654Y61542D01*
Y61158D01*
X13757Y60928D01*
X14015Y60737D01*
X14377Y60660D01*
X14738Y60775D01*
X14997Y61043D01*
X15100Y61350D01*
X14997Y61657D01*
X14738Y61925D01*
X14377Y62040D01*
X14015Y61963D01*
X13757Y61772D01*
X13654Y61542D01*
Y61158D01*
X13498Y60813D01*
X13188Y60583D01*
X12827Y60507D01*
X12465Y60583D01*
X12207Y60775D01*
X12052Y61081D01*
X12000Y61350D01*
G01X22342Y153993D02*
X22497Y153763D01*
X22600Y153495D01*
Y153188D01*
X22445Y152843D01*
X22187Y152575D01*
X21877Y152383D01*
X21360Y152230D01*
X20895Y152192D01*
X20430Y152269D01*
X20120Y152383D01*
X19810Y152613D01*
X19603Y152881D01*
X19500Y153150D01*
Y153419D01*
X19603Y153687D01*
X19758Y153917D01*
X19965Y154108D01*
G01X19500Y156250D02*
X22600D01*
X21980Y155790D01*
G01X19500D02*
Y156710D01*
G01Y159810D02*
X22600D01*
X20378Y158392D01*
Y160308D01*
G01X19507Y176842D02*
X19737Y176997D01*
X20005Y177100D01*
X20312D01*
X20657Y176945D01*
X20925Y176687D01*
X21117Y176377D01*
X21270Y175860D01*
X21308Y175395D01*
X21231Y174930D01*
X21117Y174620D01*
X20887Y174310D01*
X20619Y174103D01*
X20350Y174000D01*
X20081D01*
X19813Y174103D01*
X19583Y174258D01*
X19392Y174465D01*
G01X17978Y176583D02*
X17748Y176893D01*
X17480Y177048D01*
X17173Y177100D01*
X16790Y176997D01*
X16522Y176738D01*
X16445Y176428D01*
X16483Y176118D01*
X16637Y175860D01*
X17403Y175343D01*
X17748Y174981D01*
X17978Y174465D01*
X18055Y174000D01*
X16445D01*
G01X14993Y174620D02*
X14763Y174258D01*
X14457Y174052D01*
X14112Y174000D01*
X13805Y174052D01*
X13498Y174310D01*
X13307Y174620D01*
X13269Y174930D01*
X13345Y175292D01*
X13613Y175550D01*
X13881Y175654D01*
X14227D01*
G01X13881D02*
X13652Y175808D01*
X13460Y176067D01*
X13383Y176377D01*
X13460Y176687D01*
X13652Y176945D01*
X13997Y177100D01*
X14342Y177048D01*
X14687Y176842D01*
G01X16850Y185400D02*
X17157Y185452D01*
X17425Y185658D01*
X17655Y185968D01*
X17808Y186330D01*
X17885Y186743D01*
Y187157D01*
X17808Y187570D01*
X17655Y187932D01*
X17425Y188242D01*
X17157Y188448D01*
X16850Y188500D01*
X16543Y188448D01*
X16275Y188242D01*
X16045Y187932D01*
X15892Y187570D01*
X15815Y187157D01*
Y186743D01*
X15892Y186330D01*
X16045Y185968D01*
X16275Y185658D01*
X16543Y185452D01*
X16850Y185400D01*
G01X16543Y186227D02*
X16083Y185400D01*
G01X14478Y187983D02*
X14248Y188293D01*
X13980Y188448D01*
X13673Y188500D01*
X13290Y188397D01*
X13022Y188138D01*
X12945Y187828D01*
X12983Y187518D01*
X13137Y187260D01*
X13903Y186743D01*
X14248Y186381D01*
X14478Y185865D01*
X14555Y185400D01*
X12945D01*
G01X16850Y201900D02*
X17157Y201952D01*
X17425Y202158D01*
X17655Y202468D01*
X17808Y202830D01*
X17885Y203243D01*
Y203657D01*
X17808Y204070D01*
X17655Y204432D01*
X17425Y204742D01*
X17157Y204948D01*
X16850Y205000D01*
X16543Y204948D01*
X16275Y204742D01*
X16045Y204432D01*
X15892Y204070D01*
X15815Y203657D01*
Y203243D01*
X15892Y202830D01*
X16045Y202468D01*
X16275Y202158D01*
X16543Y201952D01*
X16850Y201900D01*
G01X16543Y202727D02*
X16083Y201900D01*
G01X14593Y202365D02*
X14363Y202107D01*
X14095Y201952D01*
X13750Y201900D01*
X13405Y202003D01*
X13137Y202210D01*
X12945Y202572D01*
X12907Y202985D01*
X12983Y203398D01*
X13175Y203657D01*
X13443Y203863D01*
X13712Y203915D01*
X13980Y203863D01*
X14325Y203657D01*
X14210Y205000D01*
X13175D01*
G01X31350Y30900D02*
X31657Y30952D01*
X31925Y31158D01*
X32155Y31468D01*
X32308Y31830D01*
X32385Y32243D01*
Y32657D01*
X32308Y33070D01*
X32155Y33432D01*
X31925Y33742D01*
X31657Y33948D01*
X31350Y34000D01*
X31043Y33948D01*
X30775Y33742D01*
X30545Y33432D01*
X30392Y33070D01*
X30315Y32657D01*
Y32243D01*
X30392Y31830D01*
X30545Y31468D01*
X30775Y31158D01*
X31043Y30952D01*
X31350Y30900D01*
G01X31043Y31727D02*
X30583Y30900D01*
G01X28327D02*
X28250Y31572D01*
X28135Y32140D01*
X27981Y32657D01*
X27790Y33225D01*
X27483Y34000D01*
X29017D01*
G01X36507Y44342D02*
X36737Y44497D01*
X37005Y44600D01*
X37312D01*
X37657Y44445D01*
X37925Y44187D01*
X38117Y43877D01*
X38270Y43360D01*
X38308Y42895D01*
X38231Y42430D01*
X38117Y42120D01*
X37887Y41810D01*
X37619Y41603D01*
X37350Y41500D01*
X37081D01*
X36813Y41603D01*
X36583Y41758D01*
X36392Y41965D01*
G01X35093Y42120D02*
X34863Y41758D01*
X34557Y41552D01*
X34212Y41500D01*
X33905Y41552D01*
X33598Y41810D01*
X33407Y42120D01*
X33369Y42430D01*
X33445Y42792D01*
X33713Y43050D01*
X33981Y43154D01*
X34327D01*
G01X33981D02*
X33752Y43308D01*
X33560Y43567D01*
X33483Y43877D01*
X33560Y44187D01*
X33752Y44445D01*
X34097Y44600D01*
X34442Y44548D01*
X34787Y44342D01*
G01X31993Y41965D02*
X31763Y41707D01*
X31495Y41552D01*
X31150Y41500D01*
X30805Y41603D01*
X30537Y41810D01*
X30345Y42172D01*
X30307Y42585D01*
X30383Y42998D01*
X30575Y43257D01*
X30843Y43463D01*
X31112Y43515D01*
X31380Y43463D01*
X31725Y43257D01*
X31610Y44600D01*
X30575D01*
G01X37617Y50500D02*
Y53600D01*
X36658D01*
X36352Y53445D01*
X36160Y53238D01*
X36083Y52825D01*
X36160Y52412D01*
X36390Y52154D01*
X36658Y51998D01*
X37617D01*
G01X36658D02*
X36083Y50500D01*
G01X33290D02*
Y53600D01*
X34708Y51378D01*
X32792D01*
G01X30650Y50500D02*
Y53600D01*
X31110Y52980D01*
G01Y50500D02*
X30190D01*
G01X38117Y46000D02*
Y49100D01*
X37158D01*
X36852Y48945D01*
X36660Y48738D01*
X36583Y48325D01*
X36660Y47912D01*
X36890Y47654D01*
X37158Y47498D01*
X38117D01*
G01X37158D02*
X36583Y46000D01*
G01X33790D02*
Y49100D01*
X35208Y46878D01*
X33292D01*
G01X31878Y48583D02*
X31648Y48893D01*
X31380Y49048D01*
X31073Y49100D01*
X30690Y48997D01*
X30422Y48738D01*
X30345Y48428D01*
X30383Y48118D01*
X30537Y47860D01*
X31303Y47343D01*
X31648Y46981D01*
X31878Y46465D01*
X31955Y46000D01*
X30345D01*
G01X28000Y64383D02*
X31100D01*
Y65342D01*
X30945Y65648D01*
X30738Y65840D01*
X30325Y65917D01*
X29912Y65840D01*
X29654Y65610D01*
X29498Y65342D01*
Y64383D01*
G01Y65342D02*
X28000Y65917D01*
G01Y68250D02*
X31100D01*
X30480Y67790D01*
G01X28000D02*
Y68710D01*
G01Y71273D02*
X28672Y71350D01*
X29240Y71465D01*
X29757Y71619D01*
X30325Y71810D01*
X31100Y72117D01*
Y70583D01*
G01X28693Y92500D02*
Y95600D01*
X27927D01*
X27620Y95445D01*
X27390Y95238D01*
X27198Y94928D01*
X27045Y94567D01*
X27007Y94050D01*
X27045Y93533D01*
X27198Y93172D01*
X27390Y92861D01*
X27620Y92655D01*
X27927Y92500D01*
X28693D01*
G01X25478Y95083D02*
X25248Y95393D01*
X24980Y95548D01*
X24673Y95600D01*
X24290Y95497D01*
X24022Y95238D01*
X23945Y94928D01*
X23983Y94618D01*
X24137Y94360D01*
X24903Y93843D01*
X25248Y93481D01*
X25478Y92965D01*
X25555Y92500D01*
X23945D01*
G01X39117Y100500D02*
Y103600D01*
X38158D01*
X37852Y103445D01*
X37660Y103238D01*
X37583Y102825D01*
X37660Y102412D01*
X37890Y102154D01*
X38158Y101998D01*
X39117D01*
G01X38158D02*
X37583Y100500D01*
G01X35250D02*
Y103600D01*
X35710Y102980D01*
G01Y100500D02*
X34790D01*
G01X32878Y103083D02*
X32648Y103393D01*
X32380Y103548D01*
X32073Y103600D01*
X31690Y103497D01*
X31422Y103238D01*
X31345Y102928D01*
X31383Y102618D01*
X31537Y102360D01*
X32303Y101843D01*
X32648Y101481D01*
X32878Y100965D01*
X32955Y100500D01*
X31345D01*
G01X37507Y113342D02*
X37737Y113497D01*
X38005Y113600D01*
X38312D01*
X38657Y113445D01*
X38925Y113187D01*
X39117Y112877D01*
X39270Y112360D01*
X39308Y111895D01*
X39231Y111430D01*
X39117Y111120D01*
X38887Y110810D01*
X38619Y110603D01*
X38350Y110500D01*
X38081D01*
X37813Y110603D01*
X37583Y110758D01*
X37392Y110965D01*
G01X35250Y110500D02*
Y113600D01*
X35710Y112980D01*
G01Y110500D02*
X34790D01*
G01X32993Y110965D02*
X32763Y110707D01*
X32495Y110552D01*
X32150Y110500D01*
X31805Y110603D01*
X31537Y110810D01*
X31345Y111172D01*
X31307Y111585D01*
X31383Y111998D01*
X31575Y112257D01*
X31843Y112463D01*
X32112Y112515D01*
X32380Y112463D01*
X32725Y112257D01*
X32610Y113600D01*
X31575D01*
G01X30693Y120500D02*
Y123600D01*
X29927D01*
X29620Y123445D01*
X29390Y123238D01*
X29198Y122928D01*
X29045Y122567D01*
X29007Y122050D01*
X29045Y121533D01*
X29198Y121172D01*
X29390Y120861D01*
X29620Y120655D01*
X29927Y120500D01*
X30693D01*
G01X26750D02*
Y123600D01*
X27210Y122980D01*
G01Y120500D02*
X26290D01*
G01X23650D02*
Y123600D01*
X24110Y122980D01*
G01Y120500D02*
X23190D01*
G01X25000Y152383D02*
X28100D01*
Y153342D01*
X27945Y153648D01*
X27738Y153840D01*
X27325Y153917D01*
X26912Y153840D01*
X26654Y153610D01*
X26498Y153342D01*
Y152383D01*
G01Y153342D02*
X25000Y153917D01*
G01Y156250D02*
X28100D01*
X27480Y155790D01*
G01X25000D02*
Y156710D01*
G01X28100Y159350D02*
X27997Y159043D01*
X27738Y158813D01*
X27428Y158660D01*
X27015Y158545D01*
X26550Y158507D01*
X26085Y158545D01*
X25672Y158660D01*
X25361Y158813D01*
X25103Y159043D01*
X25000Y159350D01*
X25103Y159657D01*
X25361Y159887D01*
X25672Y160040D01*
X26085Y160155D01*
X26550Y160193D01*
X27015Y160155D01*
X27428Y160040D01*
X27738Y159887D01*
X27997Y159657D01*
X28100Y159350D01*
G01X30500Y152383D02*
X33600D01*
Y153342D01*
X33445Y153648D01*
X33238Y153840D01*
X32825Y153917D01*
X32412Y153840D01*
X32154Y153610D01*
X31998Y153342D01*
Y152383D01*
G01Y153342D02*
X30500Y153917D01*
G01Y156250D02*
X33600D01*
X32980Y155790D01*
G01X30500D02*
Y156710D01*
G01Y159350D02*
X33600D01*
X32980Y158890D01*
G01X30500D02*
Y159810D01*
G01X44007Y133842D02*
X44237Y133997D01*
X44505Y134100D01*
X44812D01*
X45157Y133945D01*
X45425Y133687D01*
X45617Y133377D01*
X45770Y132860D01*
X45808Y132395D01*
X45731Y131930D01*
X45617Y131620D01*
X45387Y131310D01*
X45119Y131103D01*
X44850Y131000D01*
X44581D01*
X44313Y131103D01*
X44083Y131258D01*
X43892Y131465D01*
G01X42478Y133583D02*
X42248Y133893D01*
X41980Y134048D01*
X41673Y134100D01*
X41290Y133997D01*
X41022Y133738D01*
X40945Y133428D01*
X40983Y133118D01*
X41137Y132860D01*
X41903Y132343D01*
X42248Y131981D01*
X42478Y131465D01*
X42555Y131000D01*
X40945D01*
G01X38727D02*
X38650Y131672D01*
X38535Y132240D01*
X38381Y132757D01*
X38190Y133325D01*
X37883Y134100D01*
X39417D01*
G01X35158Y175007D02*
X35003Y175237D01*
X34900Y175505D01*
Y175812D01*
X35055Y176157D01*
X35313Y176425D01*
X35623Y176617D01*
X36140Y176770D01*
X36605Y176808D01*
X37070Y176731D01*
X37380Y176617D01*
X37690Y176387D01*
X37897Y176119D01*
X38000Y175850D01*
Y175581D01*
X37897Y175313D01*
X37742Y175083D01*
X37535Y174892D01*
G01X38000Y172750D02*
X34900D01*
X35520Y173210D01*
G01X38000D02*
Y172290D01*
G01Y169727D02*
X37328Y169650D01*
X36760Y169535D01*
X36243Y169381D01*
X35675Y169190D01*
X34900Y168883D01*
Y170417D01*
G01X42000Y176617D02*
X38900D01*
Y175658D01*
X39055Y175352D01*
X39262Y175160D01*
X39675Y175083D01*
X40088Y175160D01*
X40346Y175390D01*
X40502Y175658D01*
Y176617D01*
G01Y175658D02*
X42000Y175083D01*
G01Y172750D02*
X38900D01*
X39520Y173210D01*
G01X42000D02*
Y172290D01*
G01Y169190D02*
X38900D01*
X41122Y170608D01*
Y168692D01*
G01X35500Y195883D02*
X38600D01*
Y196842D01*
X38445Y197148D01*
X38238Y197340D01*
X37825Y197417D01*
X37412Y197340D01*
X37154Y197110D01*
X36998Y196842D01*
Y195883D01*
G01Y196842D02*
X35500Y197417D01*
G01Y199750D02*
X38600D01*
X37980Y199290D01*
G01X35500D02*
Y200210D01*
G01X35965Y202007D02*
X35707Y202237D01*
X35552Y202505D01*
X35500Y202850D01*
X35603Y203195D01*
X35810Y203463D01*
X36172Y203655D01*
X36585Y203693D01*
X36998Y203617D01*
X37257Y203425D01*
X37463Y203157D01*
X37515Y202888D01*
X37463Y202620D01*
X37257Y202275D01*
X38600Y202390D01*
Y203425D01*
G01X46193Y196100D02*
Y193878D01*
X46040Y193413D01*
X45733Y193103D01*
X45350Y193000D01*
X44967Y193103D01*
X44660Y193413D01*
X44507Y193878D01*
Y196100D01*
G01X43093Y193620D02*
X42863Y193258D01*
X42557Y193052D01*
X42212Y193000D01*
X41905Y193052D01*
X41598Y193310D01*
X41407Y193620D01*
X41369Y193930D01*
X41445Y194292D01*
X41713Y194550D01*
X41981Y194654D01*
X42327D01*
G01X41981D02*
X41752Y194808D01*
X41560Y195067D01*
X41483Y195377D01*
X41560Y195687D01*
X41752Y195945D01*
X42097Y196100D01*
X42442Y196048D01*
X42787Y195842D01*
G01X54842Y78493D02*
X54997Y78263D01*
X55100Y77995D01*
Y77688D01*
X54945Y77343D01*
X54687Y77075D01*
X54377Y76883D01*
X53860Y76730D01*
X53395Y76692D01*
X52930Y76769D01*
X52620Y76883D01*
X52310Y77113D01*
X52103Y77381D01*
X52000Y77650D01*
Y77919D01*
X52103Y78187D01*
X52258Y78417D01*
X52465Y78608D01*
G01Y79907D02*
X52207Y80137D01*
X52052Y80405D01*
X52000Y80750D01*
X52103Y81095D01*
X52310Y81363D01*
X52672Y81555D01*
X53085Y81593D01*
X53498Y81517D01*
X53757Y81325D01*
X53963Y81057D01*
X54015Y80788D01*
X53963Y80520D01*
X53757Y80175D01*
X55100Y80290D01*
Y81325D01*
G01X64693Y64500D02*
Y67600D01*
X63927D01*
X63620Y67445D01*
X63390Y67238D01*
X63198Y66928D01*
X63045Y66567D01*
X63007Y66050D01*
X63045Y65533D01*
X63198Y65172D01*
X63390Y64861D01*
X63620Y64655D01*
X63927Y64500D01*
X64693D01*
G01X60750D02*
Y67600D01*
X61210Y66980D01*
G01Y64500D02*
X60290D01*
G01X65600Y69807D02*
X63378D01*
X62913Y69960D01*
X62603Y70267D01*
X62500Y70650D01*
X62603Y71033D01*
X62913Y71340D01*
X63378Y71493D01*
X65600D01*
G01X65083Y73022D02*
X65393Y73252D01*
X65548Y73520D01*
X65600Y73827D01*
X65497Y74210D01*
X65238Y74478D01*
X64928Y74555D01*
X64618Y74517D01*
X64360Y74363D01*
X63843Y73597D01*
X63481Y73252D01*
X62965Y73022D01*
X62500Y72945D01*
Y74555D01*
G01X58007Y98842D02*
X58237Y98997D01*
X58505Y99100D01*
X58812D01*
X59157Y98945D01*
X59425Y98687D01*
X59617Y98377D01*
X59770Y97860D01*
X59808Y97395D01*
X59731Y96930D01*
X59617Y96620D01*
X59387Y96310D01*
X59119Y96103D01*
X58850Y96000D01*
X58581D01*
X58313Y96103D01*
X58083Y96258D01*
X57892Y96465D01*
G01X55750Y96000D02*
Y99100D01*
X56210Y98480D01*
G01Y96000D02*
X55290D01*
G01X58007Y115842D02*
X58237Y115997D01*
X58505Y116100D01*
X58812D01*
X59157Y115945D01*
X59425Y115687D01*
X59617Y115377D01*
X59770Y114860D01*
X59808Y114395D01*
X59731Y113930D01*
X59617Y113620D01*
X59387Y113310D01*
X59119Y113103D01*
X58850Y113000D01*
X58581D01*
X58313Y113103D01*
X58083Y113258D01*
X57892Y113465D01*
G01X56478Y115583D02*
X56248Y115893D01*
X55980Y116048D01*
X55673Y116100D01*
X55290Y115997D01*
X55022Y115738D01*
X54945Y115428D01*
X54983Y115118D01*
X55137Y114860D01*
X55903Y114343D01*
X56248Y113981D01*
X56478Y113465D01*
X56555Y113000D01*
X54945D01*
G01X66007Y158342D02*
X66237Y158497D01*
X66505Y158600D01*
X66812D01*
X67157Y158445D01*
X67425Y158187D01*
X67617Y157877D01*
X67770Y157360D01*
X67808Y156895D01*
X67731Y156430D01*
X67617Y156120D01*
X67387Y155810D01*
X67119Y155603D01*
X66850Y155500D01*
X66581D01*
X66313Y155603D01*
X66083Y155758D01*
X65892Y155965D01*
G01X64478Y158083D02*
X64248Y158393D01*
X63980Y158548D01*
X63673Y158600D01*
X63290Y158497D01*
X63022Y158238D01*
X62945Y157928D01*
X62983Y157618D01*
X63137Y157360D01*
X63903Y156843D01*
X64248Y156481D01*
X64478Y155965D01*
X64555Y155500D01*
X62945D01*
G01X61378Y156792D02*
X61110Y157154D01*
X60880Y157360D01*
X60573Y157463D01*
X60305Y157360D01*
X60113Y157154D01*
X59960Y156843D01*
X59922Y156481D01*
X59960Y156172D01*
X60113Y155861D01*
X60343Y155603D01*
X60612Y155500D01*
X60919Y155603D01*
X61187Y155913D01*
X61340Y156378D01*
X61378Y156895D01*
X61302Y157567D01*
X61187Y157928D01*
X60995Y158290D01*
X60727Y158548D01*
X60458Y158600D01*
X60190Y158497D01*
X59998Y158238D01*
G01X66007Y162342D02*
X66237Y162497D01*
X66505Y162600D01*
X66812D01*
X67157Y162445D01*
X67425Y162187D01*
X67617Y161877D01*
X67770Y161360D01*
X67808Y160895D01*
X67731Y160430D01*
X67617Y160120D01*
X67387Y159810D01*
X67119Y159603D01*
X66850Y159500D01*
X66581D01*
X66313Y159603D01*
X66083Y159758D01*
X65892Y159965D01*
G01X64478Y162083D02*
X64248Y162393D01*
X63980Y162548D01*
X63673Y162600D01*
X63290Y162497D01*
X63022Y162238D01*
X62945Y161928D01*
X62983Y161618D01*
X63137Y161360D01*
X63903Y160843D01*
X64248Y160481D01*
X64478Y159965D01*
X64555Y159500D01*
X62945D01*
G01X61302Y159861D02*
X61033Y159603D01*
X60727Y159500D01*
X60420Y159603D01*
X60152Y159913D01*
X59960Y160378D01*
X59883Y160843D01*
Y161412D01*
X59960Y161877D01*
X60152Y162290D01*
X60381Y162497D01*
X60650Y162600D01*
X60957Y162497D01*
X61187Y162290D01*
X61340Y161980D01*
X61417Y161567D01*
X61340Y161205D01*
X61148Y160843D01*
X60919Y160637D01*
X60650Y160585D01*
X60343Y160688D01*
X60113Y160946D01*
X59883Y161412D01*
G01X64007Y195842D02*
X64237Y195997D01*
X64505Y196100D01*
X64812D01*
X65157Y195945D01*
X65425Y195687D01*
X65617Y195377D01*
X65770Y194860D01*
X65808Y194395D01*
X65731Y193930D01*
X65617Y193620D01*
X65387Y193310D01*
X65119Y193103D01*
X64850Y193000D01*
X64581D01*
X64313Y193103D01*
X64083Y193258D01*
X63892Y193465D01*
G01X62593Y193620D02*
X62363Y193258D01*
X62057Y193052D01*
X61712Y193000D01*
X61405Y193052D01*
X61098Y193310D01*
X60907Y193620D01*
X60869Y193930D01*
X60945Y194292D01*
X61213Y194550D01*
X61481Y194654D01*
X61827D01*
G01X61481D02*
X61252Y194808D01*
X61060Y195067D01*
X60983Y195377D01*
X61060Y195687D01*
X61252Y195945D01*
X61597Y196100D01*
X61942Y196048D01*
X62287Y195842D01*
G01X58650Y196100D02*
X58957Y195997D01*
X59187Y195738D01*
X59340Y195428D01*
X59455Y195015D01*
X59493Y194550D01*
X59455Y194085D01*
X59340Y193672D01*
X59187Y193361D01*
X58957Y193103D01*
X58650Y193000D01*
X58343Y193103D01*
X58113Y193361D01*
X57960Y193672D01*
X57845Y194085D01*
X57807Y194550D01*
X57845Y195015D01*
X57960Y195428D01*
X58113Y195738D01*
X58343Y195997D01*
X58650Y196100D01*
G01X63007Y217342D02*
X63237Y217497D01*
X63505Y217600D01*
X63812D01*
X64157Y217445D01*
X64425Y217187D01*
X64617Y216877D01*
X64770Y216360D01*
X64808Y215895D01*
X64731Y215430D01*
X64617Y215120D01*
X64387Y214810D01*
X64119Y214603D01*
X63850Y214500D01*
X63581D01*
X63313Y214603D01*
X63083Y214758D01*
X62892Y214965D01*
G01X61593Y215120D02*
X61363Y214758D01*
X61057Y214552D01*
X60712Y214500D01*
X60405Y214552D01*
X60098Y214810D01*
X59907Y215120D01*
X59869Y215430D01*
X59945Y215792D01*
X60213Y216050D01*
X60481Y216154D01*
X60827D01*
G01X60481D02*
X60252Y216308D01*
X60060Y216567D01*
X59983Y216877D01*
X60060Y217187D01*
X60252Y217445D01*
X60597Y217600D01*
X60942Y217548D01*
X61287Y217342D01*
G01X57650Y214500D02*
Y217600D01*
X58110Y216980D01*
G01Y214500D02*
X57190D01*
G01X76507Y117842D02*
X76737Y117997D01*
X77005Y118100D01*
X77312D01*
X77657Y117945D01*
X77925Y117687D01*
X78117Y117377D01*
X78270Y116860D01*
X78308Y116395D01*
X78231Y115930D01*
X78117Y115620D01*
X77887Y115310D01*
X77619Y115103D01*
X77350Y115000D01*
X77081D01*
X76813Y115103D01*
X76583Y115258D01*
X76392Y115465D01*
G01X74978Y117583D02*
X74748Y117893D01*
X74480Y118048D01*
X74173Y118100D01*
X73790Y117997D01*
X73522Y117738D01*
X73445Y117428D01*
X73483Y117118D01*
X73637Y116860D01*
X74403Y116343D01*
X74748Y115981D01*
X74978Y115465D01*
X75055Y115000D01*
X73445D01*
G01X71150D02*
X70881Y115052D01*
X70575Y115207D01*
X70383Y115465D01*
X70307Y115827D01*
X70383Y116188D01*
X70613Y116498D01*
X70958Y116654D01*
X71342D01*
X71572Y116757D01*
X71763Y117015D01*
X71840Y117377D01*
X71725Y117738D01*
X71457Y117997D01*
X71150Y118100D01*
X70843Y117997D01*
X70575Y117738D01*
X70460Y117377D01*
X70537Y117015D01*
X70728Y116757D01*
X70958Y116654D01*
X71342D01*
X71687Y116498D01*
X71917Y116188D01*
X71993Y115827D01*
X71917Y115465D01*
X71725Y115207D01*
X71419Y115052D01*
X71150Y115000D01*
G01X64500Y166883D02*
X67600D01*
Y167842D01*
X67445Y168148D01*
X67238Y168340D01*
X66825Y168417D01*
X66412Y168340D01*
X66154Y168110D01*
X65998Y167842D01*
Y166883D01*
G01Y167842D02*
X64500Y168417D01*
G01X67083Y170022D02*
X67393Y170252D01*
X67548Y170520D01*
X67600Y170827D01*
X67497Y171210D01*
X67238Y171478D01*
X66928Y171555D01*
X66618Y171517D01*
X66360Y171363D01*
X65843Y170597D01*
X65481Y170252D01*
X64965Y170022D01*
X64500Y169945D01*
Y171555D01*
G01X64861Y173198D02*
X64603Y173467D01*
X64500Y173773D01*
X64603Y174080D01*
X64913Y174348D01*
X65378Y174540D01*
X65843Y174617D01*
X66412D01*
X66877Y174540D01*
X67290Y174348D01*
X67497Y174119D01*
X67600Y173850D01*
X67497Y173543D01*
X67290Y173313D01*
X66980Y173160D01*
X66567Y173083D01*
X66205Y173160D01*
X65843Y173352D01*
X65637Y173581D01*
X65585Y173850D01*
X65688Y174157D01*
X65946Y174387D01*
X66412Y174617D01*
G01X64500Y178883D02*
X67600D01*
Y179842D01*
X67445Y180148D01*
X67238Y180340D01*
X66825Y180417D01*
X66412Y180340D01*
X66154Y180110D01*
X65998Y179842D01*
Y178883D01*
G01Y179842D02*
X64500Y180417D01*
G01X65120Y181907D02*
X64758Y182137D01*
X64552Y182443D01*
X64500Y182788D01*
X64552Y183095D01*
X64810Y183402D01*
X65120Y183593D01*
X65430Y183631D01*
X65792Y183555D01*
X66050Y183287D01*
X66154Y183019D01*
Y182673D01*
G01Y183019D02*
X66308Y183248D01*
X66567Y183440D01*
X66877Y183517D01*
X67187Y183440D01*
X67445Y183248D01*
X67600Y182903D01*
X67548Y182558D01*
X67342Y182213D01*
G01X67600Y185850D02*
X67497Y185543D01*
X67238Y185313D01*
X66928Y185160D01*
X66515Y185045D01*
X66050Y185007D01*
X65585Y185045D01*
X65172Y185160D01*
X64861Y185313D01*
X64603Y185543D01*
X64500Y185850D01*
X64603Y186157D01*
X64861Y186387D01*
X65172Y186540D01*
X65585Y186655D01*
X66050Y186693D01*
X66515Y186655D01*
X66928Y186540D01*
X67238Y186387D01*
X67497Y186157D01*
X67600Y185850D01*
G01X87117Y27100D02*
Y24000D01*
X85583D01*
G01X83250D02*
Y27100D01*
X83710Y26480D01*
G01Y24000D02*
X82790D01*
G01X86850Y108400D02*
X87157Y108452D01*
X87425Y108658D01*
X87655Y108968D01*
X87808Y109330D01*
X87885Y109743D01*
Y110157D01*
X87808Y110570D01*
X87655Y110932D01*
X87425Y111242D01*
X87157Y111448D01*
X86850Y111500D01*
X86543Y111448D01*
X86275Y111242D01*
X86045Y110932D01*
X85892Y110570D01*
X85815Y110157D01*
Y109743D01*
X85892Y109330D01*
X86045Y108968D01*
X86275Y108658D01*
X86543Y108452D01*
X86850Y108400D01*
G01X86543Y109227D02*
X86083Y108400D01*
G01X83290D02*
Y111500D01*
X84708Y109278D01*
X82792D01*
G01X86193Y156500D02*
Y159600D01*
X85427D01*
X85120Y159445D01*
X84890Y159238D01*
X84698Y158928D01*
X84545Y158567D01*
X84507Y158050D01*
X84545Y157533D01*
X84698Y157172D01*
X84890Y156861D01*
X85120Y156655D01*
X85427Y156500D01*
X86193D01*
G01X82250D02*
X81981Y156552D01*
X81675Y156707D01*
X81483Y156965D01*
X81407Y157327D01*
X81483Y157688D01*
X81713Y157998D01*
X82058Y158154D01*
X82442D01*
X82672Y158257D01*
X82863Y158515D01*
X82940Y158877D01*
X82825Y159238D01*
X82557Y159497D01*
X82250Y159600D01*
X81943Y159497D01*
X81675Y159238D01*
X81560Y158877D01*
X81637Y158515D01*
X81828Y158257D01*
X82058Y158154D01*
X82442D01*
X82787Y157998D01*
X83017Y157688D01*
X83093Y157327D01*
X83017Y156965D01*
X82825Y156707D01*
X82519Y156552D01*
X82250Y156500D01*
G01X87007Y104342D02*
X87237Y104497D01*
X87505Y104600D01*
X87812D01*
X88157Y104445D01*
X88425Y104187D01*
X88617Y103877D01*
X88770Y103360D01*
X88808Y102895D01*
X88731Y102430D01*
X88617Y102120D01*
X88387Y101810D01*
X88119Y101603D01*
X87850Y101500D01*
X87581D01*
X87313Y101603D01*
X87083Y101758D01*
X86892Y101965D01*
G01X85593Y102120D02*
X85363Y101758D01*
X85057Y101552D01*
X84712Y101500D01*
X84405Y101552D01*
X84098Y101810D01*
X83907Y102120D01*
X83869Y102430D01*
X83945Y102792D01*
X84213Y103050D01*
X84481Y103154D01*
X84827D01*
G01X84481D02*
X84252Y103308D01*
X84060Y103567D01*
X83983Y103877D01*
X84060Y104187D01*
X84252Y104445D01*
X84597Y104600D01*
X84942Y104548D01*
X85287Y104342D01*
G01X89617Y118000D02*
Y121100D01*
X88658D01*
X88352Y120945D01*
X88160Y120738D01*
X88083Y120325D01*
X88160Y119912D01*
X88390Y119654D01*
X88658Y119498D01*
X89617D01*
G01X88658D02*
X88083Y118000D01*
G01X85827D02*
X85750Y118672D01*
X85635Y119240D01*
X85481Y119757D01*
X85290Y120325D01*
X84983Y121100D01*
X86517D01*
G01X104342Y47493D02*
X104497Y47263D01*
X104600Y46995D01*
Y46688D01*
X104445Y46343D01*
X104187Y46075D01*
X103877Y45883D01*
X103360Y45730D01*
X102895Y45692D01*
X102430Y45769D01*
X102120Y45883D01*
X101810Y46113D01*
X101603Y46381D01*
X101500Y46650D01*
Y46919D01*
X101603Y47187D01*
X101758Y47417D01*
X101965Y47608D01*
G01X101500Y49750D02*
X101552Y50019D01*
X101707Y50325D01*
X101965Y50517D01*
X102327Y50593D01*
X102688Y50517D01*
X102998Y50287D01*
X103154Y49942D01*
Y49558D01*
X103257Y49328D01*
X103515Y49137D01*
X103877Y49060D01*
X104238Y49175D01*
X104497Y49443D01*
X104600Y49750D01*
X104497Y50057D01*
X104238Y50325D01*
X103877Y50440D01*
X103515Y50363D01*
X103257Y50172D01*
X103154Y49942D01*
Y49558D01*
X102998Y49213D01*
X102688Y48983D01*
X102327Y48907D01*
X101965Y48983D01*
X101707Y49175D01*
X101552Y49481D01*
X101500Y49750D01*
G01X106007Y84342D02*
X106237Y84497D01*
X106505Y84600D01*
X106812D01*
X107157Y84445D01*
X107425Y84187D01*
X107617Y83877D01*
X107770Y83360D01*
X107808Y82895D01*
X107731Y82430D01*
X107617Y82120D01*
X107387Y81810D01*
X107119Y81603D01*
X106850Y81500D01*
X106581D01*
X106313Y81603D01*
X106083Y81758D01*
X105892Y81965D01*
G01X104478Y82792D02*
X104210Y83154D01*
X103980Y83360D01*
X103673Y83463D01*
X103405Y83360D01*
X103213Y83154D01*
X103060Y82843D01*
X103022Y82481D01*
X103060Y82172D01*
X103213Y81861D01*
X103443Y81603D01*
X103712Y81500D01*
X104019Y81603D01*
X104287Y81913D01*
X104440Y82378D01*
X104478Y82895D01*
X104402Y83567D01*
X104287Y83928D01*
X104095Y84290D01*
X103827Y84548D01*
X103558Y84600D01*
X103290Y84497D01*
X103098Y84238D01*
G01X107117Y76000D02*
Y79100D01*
X106158D01*
X105852Y78945D01*
X105660Y78738D01*
X105583Y78325D01*
X105660Y77912D01*
X105890Y77654D01*
X106158Y77498D01*
X107117D01*
G01X106158D02*
X105583Y76000D01*
G01X103250D02*
Y79100D01*
X103710Y78480D01*
G01Y76000D02*
X102790D01*
G01X106007Y95842D02*
X106237Y95997D01*
X106505Y96100D01*
X106812D01*
X107157Y95945D01*
X107425Y95687D01*
X107617Y95377D01*
X107770Y94860D01*
X107808Y94395D01*
X107731Y93930D01*
X107617Y93620D01*
X107387Y93310D01*
X107119Y93103D01*
X106850Y93000D01*
X106581D01*
X106313Y93103D01*
X106083Y93258D01*
X105892Y93465D01*
G01X103290Y93000D02*
Y96100D01*
X104708Y93878D01*
X102792D01*
G01X106007Y89842D02*
X106237Y89997D01*
X106505Y90100D01*
X106812D01*
X107157Y89945D01*
X107425Y89687D01*
X107617Y89377D01*
X107770Y88860D01*
X107808Y88395D01*
X107731Y87930D01*
X107617Y87620D01*
X107387Y87310D01*
X107119Y87103D01*
X106850Y87000D01*
X106581D01*
X106313Y87103D01*
X106083Y87258D01*
X105892Y87465D01*
G01X103827Y87000D02*
X103750Y87672D01*
X103635Y88240D01*
X103481Y88757D01*
X103290Y89325D01*
X102983Y90100D01*
X104517D01*
G01X109617Y69500D02*
Y72600D01*
X108658D01*
X108352Y72445D01*
X108160Y72238D01*
X108083Y71825D01*
X108160Y71412D01*
X108390Y71154D01*
X108658Y70998D01*
X109617D01*
G01X108658D02*
X108083Y69500D01*
G01X105290D02*
Y72600D01*
X106708Y70378D01*
X104792D01*
G01X109617Y64500D02*
Y67600D01*
X108658D01*
X108352Y67445D01*
X108160Y67238D01*
X108083Y66825D01*
X108160Y66412D01*
X108390Y66154D01*
X108658Y65998D01*
X109617D01*
G01X108658D02*
X108083Y64500D01*
G01X106593Y64965D02*
X106363Y64707D01*
X106095Y64552D01*
X105750Y64500D01*
X105405Y64603D01*
X105137Y64810D01*
X104945Y65172D01*
X104907Y65585D01*
X104983Y65998D01*
X105175Y66257D01*
X105443Y66463D01*
X105712Y66515D01*
X105980Y66463D01*
X106325Y66257D01*
X106210Y67600D01*
X105175D01*
G01X106500Y102383D02*
X109600D01*
Y103342D01*
X109445Y103648D01*
X109238Y103840D01*
X108825Y103917D01*
X108412Y103840D01*
X108154Y103610D01*
X107998Y103342D01*
Y102383D01*
G01Y103342D02*
X106500Y103917D01*
G01X109083Y105522D02*
X109393Y105752D01*
X109548Y106020D01*
X109600Y106327D01*
X109497Y106710D01*
X109238Y106978D01*
X108928Y107055D01*
X108618Y107017D01*
X108360Y106863D01*
X107843Y106097D01*
X107481Y105752D01*
X106965Y105522D01*
X106500Y105445D01*
Y107055D01*
G01X109083Y108622D02*
X109393Y108852D01*
X109548Y109120D01*
X109600Y109427D01*
X109497Y109810D01*
X109238Y110078D01*
X108928Y110155D01*
X108618Y110117D01*
X108360Y109963D01*
X107843Y109197D01*
X107481Y108852D01*
X106965Y108622D01*
X106500Y108545D01*
Y110155D01*
G01X116507Y123342D02*
X116737Y123497D01*
X117005Y123600D01*
X117312D01*
X117657Y123445D01*
X117925Y123187D01*
X118117Y122877D01*
X118270Y122360D01*
X118308Y121895D01*
X118231Y121430D01*
X118117Y121120D01*
X117887Y120810D01*
X117619Y120603D01*
X117350Y120500D01*
X117081D01*
X116813Y120603D01*
X116583Y120758D01*
X116392Y120965D01*
G01X114250Y120500D02*
Y123600D01*
X114710Y122980D01*
G01Y120500D02*
X113790D01*
G01X111993Y121120D02*
X111763Y120758D01*
X111457Y120552D01*
X111112Y120500D01*
X110805Y120552D01*
X110498Y120810D01*
X110307Y121120D01*
X110269Y121430D01*
X110345Y121792D01*
X110613Y122050D01*
X110881Y122154D01*
X111227D01*
G01X110881D02*
X110652Y122308D01*
X110460Y122567D01*
X110383Y122877D01*
X110460Y123187D01*
X110652Y123445D01*
X110997Y123600D01*
X111342Y123548D01*
X111687Y123342D01*
G01X111617Y213600D02*
Y210500D01*
X110083D01*
G01X108478Y213083D02*
X108248Y213393D01*
X107980Y213548D01*
X107673Y213600D01*
X107290Y213497D01*
X107022Y213238D01*
X106945Y212928D01*
X106983Y212618D01*
X107137Y212360D01*
X107903Y211843D01*
X108248Y211481D01*
X108478Y210965D01*
X108555Y210500D01*
X106945D01*
G01X123507Y30342D02*
X123737Y30497D01*
X124005Y30600D01*
X124312D01*
X124657Y30445D01*
X124925Y30187D01*
X125117Y29877D01*
X125270Y29360D01*
X125308Y28895D01*
X125231Y28430D01*
X125117Y28120D01*
X124887Y27810D01*
X124619Y27603D01*
X124350Y27500D01*
X124081D01*
X123813Y27603D01*
X123583Y27758D01*
X123392Y27965D01*
G01X121978Y30083D02*
X121748Y30393D01*
X121480Y30548D01*
X121173Y30600D01*
X120790Y30497D01*
X120522Y30238D01*
X120445Y29928D01*
X120483Y29618D01*
X120637Y29360D01*
X121403Y28843D01*
X121748Y28481D01*
X121978Y27965D01*
X122055Y27500D01*
X120445D01*
G01X118878Y30083D02*
X118648Y30393D01*
X118380Y30548D01*
X118073Y30600D01*
X117690Y30497D01*
X117422Y30238D01*
X117345Y29928D01*
X117383Y29618D01*
X117537Y29360D01*
X118303Y28843D01*
X118648Y28481D01*
X118878Y27965D01*
X118955Y27500D01*
X117345D01*
G01X117500Y141883D02*
X120600D01*
Y142842D01*
X120445Y143148D01*
X120238Y143340D01*
X119825Y143417D01*
X119412Y143340D01*
X119154Y143110D01*
X118998Y142842D01*
Y141883D01*
G01Y142842D02*
X117500Y143417D01*
G01Y145750D02*
X120600D01*
X119980Y145290D01*
G01X117500D02*
Y146210D01*
G01X117861Y148198D02*
X117603Y148467D01*
X117500Y148773D01*
X117603Y149080D01*
X117913Y149348D01*
X118378Y149540D01*
X118843Y149617D01*
X119412D01*
X119877Y149540D01*
X120290Y149348D01*
X120497Y149119D01*
X120600Y148850D01*
X120497Y148543D01*
X120290Y148313D01*
X119980Y148160D01*
X119567Y148083D01*
X119205Y148160D01*
X118843Y148352D01*
X118637Y148581D01*
X118585Y148850D01*
X118688Y149157D01*
X118946Y149387D01*
X119412Y149617D01*
G01X117500Y154883D02*
X120600D01*
Y155842D01*
X120445Y156148D01*
X120238Y156340D01*
X119825Y156417D01*
X119412Y156340D01*
X119154Y156110D01*
X118998Y155842D01*
Y154883D01*
G01Y155842D02*
X117500Y156417D01*
G01X120083Y158022D02*
X120393Y158252D01*
X120548Y158520D01*
X120600Y158827D01*
X120497Y159210D01*
X120238Y159478D01*
X119928Y159555D01*
X119618Y159517D01*
X119360Y159363D01*
X118843Y158597D01*
X118481Y158252D01*
X117965Y158022D01*
X117500Y157945D01*
Y159555D01*
G01Y161850D02*
X117552Y162119D01*
X117707Y162425D01*
X117965Y162617D01*
X118327Y162693D01*
X118688Y162617D01*
X118998Y162387D01*
X119154Y162042D01*
Y161658D01*
X119257Y161428D01*
X119515Y161237D01*
X119877Y161160D01*
X120238Y161275D01*
X120497Y161543D01*
X120600Y161850D01*
X120497Y162157D01*
X120238Y162425D01*
X119877Y162540D01*
X119515Y162463D01*
X119257Y162272D01*
X119154Y162042D01*
Y161658D01*
X118998Y161313D01*
X118688Y161083D01*
X118327Y161007D01*
X117965Y161083D01*
X117707Y161275D01*
X117552Y161581D01*
X117500Y161850D01*
G01X120842Y167993D02*
X120997Y167763D01*
X121100Y167495D01*
Y167188D01*
X120945Y166843D01*
X120687Y166575D01*
X120377Y166383D01*
X119860Y166230D01*
X119395Y166192D01*
X118930Y166269D01*
X118620Y166383D01*
X118310Y166613D01*
X118103Y166881D01*
X118000Y167150D01*
Y167419D01*
X118103Y167687D01*
X118258Y167917D01*
X118465Y168108D01*
G01X118620Y169407D02*
X118258Y169637D01*
X118052Y169943D01*
X118000Y170288D01*
X118052Y170595D01*
X118310Y170902D01*
X118620Y171093D01*
X118930Y171131D01*
X119292Y171055D01*
X119550Y170787D01*
X119654Y170519D01*
Y170173D01*
G01Y170519D02*
X119808Y170748D01*
X120067Y170940D01*
X120377Y171017D01*
X120687Y170940D01*
X120945Y170748D01*
X121100Y170403D01*
X121048Y170058D01*
X120842Y169713D01*
G01X118620Y172507D02*
X118258Y172737D01*
X118052Y173043D01*
X118000Y173388D01*
X118052Y173695D01*
X118310Y174002D01*
X118620Y174193D01*
X118930Y174231D01*
X119292Y174155D01*
X119550Y173887D01*
X119654Y173619D01*
Y173273D01*
G01Y173619D02*
X119808Y173848D01*
X120067Y174040D01*
X120377Y174117D01*
X120687Y174040D01*
X120945Y173848D01*
X121100Y173503D01*
X121048Y173158D01*
X120842Y172813D01*
G01X123842Y189993D02*
X123997Y189763D01*
X124100Y189495D01*
Y189188D01*
X123945Y188843D01*
X123687Y188575D01*
X123377Y188383D01*
X122860Y188230D01*
X122395Y188192D01*
X121930Y188269D01*
X121620Y188383D01*
X121310Y188613D01*
X121103Y188881D01*
X121000Y189150D01*
Y189419D01*
X121103Y189687D01*
X121258Y189917D01*
X121465Y190108D01*
G01X121000Y192250D02*
X124100D01*
X123480Y191790D01*
G01X121000D02*
Y192710D01*
G01X121361Y194698D02*
X121103Y194967D01*
X121000Y195273D01*
X121103Y195580D01*
X121413Y195848D01*
X121878Y196040D01*
X122343Y196117D01*
X122912D01*
X123377Y196040D01*
X123790Y195848D01*
X123997Y195619D01*
X124100Y195350D01*
X123997Y195043D01*
X123790Y194813D01*
X123480Y194660D01*
X123067Y194583D01*
X122705Y194660D01*
X122343Y194852D01*
X122137Y195081D01*
X122085Y195350D01*
X122188Y195657D01*
X122446Y195887D01*
X122912Y196117D01*
G01X132000Y30383D02*
X135100D01*
Y31342D01*
X134945Y31648D01*
X134738Y31840D01*
X134325Y31917D01*
X133912Y31840D01*
X133654Y31610D01*
X133498Y31342D01*
Y30383D01*
G01Y31342D02*
X132000Y31917D01*
G01Y34250D02*
X132052Y34519D01*
X132207Y34825D01*
X132465Y35017D01*
X132827Y35093D01*
X133188Y35017D01*
X133498Y34787D01*
X133654Y34442D01*
Y34058D01*
X133757Y33828D01*
X134015Y33637D01*
X134377Y33560D01*
X134738Y33675D01*
X134997Y33943D01*
X135100Y34250D01*
X134997Y34557D01*
X134738Y34825D01*
X134377Y34940D01*
X134015Y34863D01*
X133757Y34672D01*
X133654Y34442D01*
Y34058D01*
X133498Y33713D01*
X133188Y33483D01*
X132827Y33407D01*
X132465Y33483D01*
X132207Y33675D01*
X132052Y33981D01*
X132000Y34250D01*
G01X131000Y46383D02*
X134100D01*
Y47342D01*
X133945Y47648D01*
X133738Y47840D01*
X133325Y47917D01*
X132912Y47840D01*
X132654Y47610D01*
X132498Y47342D01*
Y46383D01*
G01Y47342D02*
X131000Y47917D01*
G01X131361Y49598D02*
X131103Y49867D01*
X131000Y50173D01*
X131103Y50480D01*
X131413Y50748D01*
X131878Y50940D01*
X132343Y51017D01*
X132912D01*
X133377Y50940D01*
X133790Y50748D01*
X133997Y50519D01*
X134100Y50250D01*
X133997Y49943D01*
X133790Y49713D01*
X133480Y49560D01*
X133067Y49483D01*
X132705Y49560D01*
X132343Y49752D01*
X132137Y49981D01*
X132085Y50250D01*
X132188Y50557D01*
X132446Y50787D01*
X132912Y51017D01*
G01X129000Y95883D02*
X132100D01*
Y96842D01*
X131945Y97148D01*
X131738Y97340D01*
X131325Y97417D01*
X130912Y97340D01*
X130654Y97110D01*
X130498Y96842D01*
Y95883D01*
G01Y96842D02*
X129000Y97417D01*
G01X130292Y99022D02*
X130654Y99290D01*
X130860Y99520D01*
X130963Y99827D01*
X130860Y100095D01*
X130654Y100287D01*
X130343Y100440D01*
X129981Y100478D01*
X129672Y100440D01*
X129361Y100287D01*
X129103Y100057D01*
X129000Y99788D01*
X129103Y99481D01*
X129413Y99213D01*
X129878Y99060D01*
X130395Y99022D01*
X131067Y99098D01*
X131428Y99213D01*
X131790Y99405D01*
X132048Y99673D01*
X132100Y99942D01*
X131997Y100210D01*
X131738Y100402D01*
G01X135617Y179000D02*
Y182100D01*
X134658D01*
X134352Y181945D01*
X134160Y181738D01*
X134083Y181325D01*
X134160Y180912D01*
X134390Y180654D01*
X134658Y180498D01*
X135617D01*
G01X134658D02*
X134083Y179000D01*
G01X132593Y179620D02*
X132363Y179258D01*
X132057Y179052D01*
X131712Y179000D01*
X131405Y179052D01*
X131098Y179310D01*
X130907Y179620D01*
X130869Y179930D01*
X130945Y180292D01*
X131213Y180550D01*
X131481Y180654D01*
X131827D01*
G01X131481D02*
X131252Y180808D01*
X131060Y181067D01*
X130983Y181377D01*
X131060Y181687D01*
X131252Y181945D01*
X131597Y182100D01*
X131942Y182048D01*
X132287Y181842D01*
G01X128727Y179000D02*
X128650Y179672D01*
X128535Y180240D01*
X128381Y180757D01*
X128190Y181325D01*
X127883Y182100D01*
X129417D01*
G01X147617Y146000D02*
Y149100D01*
X146658D01*
X146352Y148945D01*
X146160Y148738D01*
X146083Y148325D01*
X146160Y147912D01*
X146390Y147654D01*
X146658Y147498D01*
X147617D01*
G01X146658D02*
X146083Y146000D01*
G01X144478Y148583D02*
X144248Y148893D01*
X143980Y149048D01*
X143673Y149100D01*
X143290Y148997D01*
X143022Y148738D01*
X142945Y148428D01*
X142983Y148118D01*
X143137Y147860D01*
X143903Y147343D01*
X144248Y146981D01*
X144478Y146465D01*
X144555Y146000D01*
X142945D01*
G01X140650D02*
Y149100D01*
X141110Y148480D01*
G01Y146000D02*
X140190D01*
G01X146850Y151400D02*
X147157Y151452D01*
X147425Y151658D01*
X147655Y151968D01*
X147808Y152330D01*
X147885Y152743D01*
Y153157D01*
X147808Y153570D01*
X147655Y153932D01*
X147425Y154242D01*
X147157Y154448D01*
X146850Y154500D01*
X146543Y154448D01*
X146275Y154242D01*
X146045Y153932D01*
X145892Y153570D01*
X145815Y153157D01*
Y152743D01*
X145892Y152330D01*
X146045Y151968D01*
X146275Y151658D01*
X146543Y151452D01*
X146850Y151400D01*
G01X146543Y152227D02*
X146083Y151400D01*
G01X144478Y152692D02*
X144210Y153054D01*
X143980Y153260D01*
X143673Y153363D01*
X143405Y153260D01*
X143213Y153054D01*
X143060Y152743D01*
X143022Y152381D01*
X143060Y152072D01*
X143213Y151761D01*
X143443Y151503D01*
X143712Y151400D01*
X144019Y151503D01*
X144287Y151813D01*
X144440Y152278D01*
X144478Y152795D01*
X144402Y153467D01*
X144287Y153828D01*
X144095Y154190D01*
X143827Y154448D01*
X143558Y154500D01*
X143290Y154397D01*
X143098Y154138D01*
G01X153117Y169000D02*
Y172100D01*
X152158D01*
X151852Y171945D01*
X151660Y171738D01*
X151583Y171325D01*
X151660Y170912D01*
X151890Y170654D01*
X152158Y170498D01*
X153117D01*
G01X152158D02*
X151583Y169000D01*
G01X149250D02*
Y172100D01*
X149710Y171480D01*
G01Y169000D02*
X148790D01*
G01X146150D02*
X145881Y169052D01*
X145575Y169207D01*
X145383Y169465D01*
X145307Y169827D01*
X145383Y170188D01*
X145613Y170498D01*
X145958Y170654D01*
X146342D01*
X146572Y170757D01*
X146763Y171015D01*
X146840Y171377D01*
X146725Y171738D01*
X146457Y171997D01*
X146150Y172100D01*
X145843Y171997D01*
X145575Y171738D01*
X145460Y171377D01*
X145537Y171015D01*
X145728Y170757D01*
X145958Y170654D01*
X146342D01*
X146687Y170498D01*
X146917Y170188D01*
X146993Y169827D01*
X146917Y169465D01*
X146725Y169207D01*
X146419Y169052D01*
X146150Y169000D01*
M02*
