G04 ================== begin FILE IDENTIFICATION RECORD ==================*
G04 Layout Name:  D:/PCBDesign/FishTank-Manage/PCB/FishTank-Manage.brd*
G04 Film Name:    SILK_TOP*
G04 File Format:  Gerber RS274X*
G04 File Origin:  Cadence Allegro 17.4-S032*
G04 Origin Date:  Sun Jun  4 03:04:41 2023*
G04 *
G04 Layer:  REF DES/SILKSCREEN_TOP*
G04 Layer:  PACKAGE GEOMETRY/SILKSCREEN_TOP*
G04 Layer:  BOARD GEOMETRY/SILKSCREEN_TOP*
G04 *
G04 Offset:    (0.0000 0.0000)*
G04 Mirror:    No*
G04 Mode:      Positive*
G04 Rotation:  0*
G04 FullContactRelief:  No*
G04 UndefLineWidth:     0.0000*
G04 ================== end FILE IDENTIFICATION RECORD ====================*
%FSLAX25Y25*MOMM*%
%IR0*IPPOS*OFA0.00000B0.00000*MIA0B0*SFA1.00000B1.00000*%
%ADD10C,.1*%
%ADD11C,.2*%
%ADD12C,.5*%
%ADD13C,.127*%
%ADD14C,.254*%
G75*
%LPD*%
G75*
G36*
G01X515000Y300000D02*
G03I-215000J0D01*
G37*
G36*
G01Y5700000D02*
G03I-215000J0D01*
G37*
G36*
G01X829720Y4609580D02*
G03I-100000J0D01*
G37*
G36*
G01X3915000Y300000D02*
G03I-215000J0D01*
G37*
G36*
G01Y5700000D02*
G03I-215000J0D01*
G37*
G54D10*
G01X1500000Y4400000D02*
G03X2400000I450000J0D01*
G01D02*
G03X1500000I-450000J0D01*
G54D11*
G01X170000Y800000D02*
X230000D01*
G01X95000Y1017500D02*
X305000D01*
G01X95000Y1305000D02*
Y1017500D01*
G01X54000Y2279000D02*
Y3269000D01*
G01X504000Y2279000D02*
X54000D01*
G01Y3269000D02*
X334000D01*
G01X70000Y3855000D02*
Y5245000D01*
G01X520000Y3855000D02*
X70000D01*
G01Y5245000D02*
X350000D01*
G01X420000Y800000D02*
X480000D01*
G01X345000Y1017500D02*
X555000D01*
G01X345000Y1305000D02*
Y1017500D01*
G01X305000D02*
Y1305000D01*
G01X504000Y3074000D02*
Y2279000D01*
G01X520000Y5050000D02*
Y3855000D01*
G01X670000Y800000D02*
X730000D01*
G01X595000Y1017500D02*
X805000D01*
G01X595000Y1305000D02*
Y1017500D01*
G01X555000D02*
Y1305000D01*
G01X805000Y1017500D02*
Y1305000D01*
G01X1405000Y5480000D02*
Y5930000D01*
G01X2600000Y5480000D02*
X1405000D01*
G01Y5930000D02*
X2795000D01*
G01X1960000Y3900000D02*
G03X1940000I-10000J0D01*
G01D02*
G03X1960000I10000J0D01*
G01X2795000Y5930000D02*
Y5650000D01*
G01X3944000Y707000D02*
X3664000D01*
G01X3494000Y902000D02*
Y1697000D01*
G01D02*
X3944000D01*
G01X3930000Y2105000D02*
X3650000D01*
G01X3480000Y2300000D02*
Y3495000D01*
G01D02*
X3930000D01*
G01Y3755000D02*
X3650000D01*
G01X3480000Y3950000D02*
Y5145000D01*
G01D02*
X3930000D01*
G01X3944000Y1697000D02*
Y707000D01*
G01X3930000Y3495000D02*
Y2105000D01*
G01Y5145000D02*
Y3755000D01*
G54D12*
G01X1311000Y4605000D02*
Y5005000D01*
X1511000D01*
Y4705000D01*
X1711000D01*
Y5005000D01*
X1911000D01*
Y4705000D01*
X2111000D01*
Y5005000D01*
X2311000D01*
Y4705000D01*
X2511000D01*
Y5005000D01*
X2711000D01*
Y4005000D01*
G54D13*
G01X-96110Y4000D02*
Y82740D01*
X-70790Y17120D01*
X-45470Y82740D01*
Y4000D01*
G01X19630D02*
Y82740D01*
X-16390Y26310D01*
X32290D01*
G01X-46110Y6054000D02*
Y6132740D01*
X-20790Y6067120D01*
X4530Y6132740D01*
Y6054000D01*
G01X57950D02*
Y6132740D01*
X46270Y6116990D01*
G01Y6054000D02*
X69630D01*
G01X129210Y1668740D02*
Y1590000D01*
G01X106820Y1668740D02*
X151600D01*
G01X207950Y1590000D02*
Y1668740D01*
X196270Y1652990D01*
G01Y1590000D02*
X219630D01*
G01X383210Y1668740D02*
Y1590000D01*
G01X360820Y1668740D02*
X405600D01*
G01X443450Y1655620D02*
X449290Y1663490D01*
X456110Y1667430D01*
X463900Y1668740D01*
X473630Y1666120D01*
X480450Y1659550D01*
X482400Y1651680D01*
X481420Y1643800D01*
X477530Y1637240D01*
X458060Y1624120D01*
X449290Y1614930D01*
X443450Y1601810D01*
X441500Y1590000D01*
X482400D01*
G01X469710Y3475740D02*
Y3397000D01*
G01X447320Y3475740D02*
X492100D01*
G01X548450Y3397000D02*
X555270Y3398310D01*
X563050Y3402250D01*
X567920Y3408810D01*
X569870Y3418000D01*
X567920Y3427180D01*
X562080Y3435060D01*
X553320Y3439000D01*
X543580D01*
X537740Y3441620D01*
X532870Y3448180D01*
X530920Y3457370D01*
X533850Y3466550D01*
X540660Y3473120D01*
X548450Y3475740D01*
X556240Y3473120D01*
X563050Y3466550D01*
X565980Y3457370D01*
X564030Y3448180D01*
X559160Y3441620D01*
X553320Y3439000D01*
X543580D01*
X534820Y3435060D01*
X528980Y3427180D01*
X527030Y3418000D01*
X528980Y3408810D01*
X533850Y3402250D01*
X541630Y3398310D01*
X548450Y3397000D01*
G01X479210Y3666240D02*
Y3587500D01*
G01X456820Y3666240D02*
X501600D01*
G01X556000Y3587500D02*
X557950Y3604560D01*
X560870Y3618990D01*
X564770Y3632120D01*
X569630Y3646550D01*
X577420Y3666240D01*
X538480D01*
G01X850000Y209740D02*
X771260D01*
Y234080D01*
X775200Y241870D01*
X780450Y246740D01*
X790950Y248680D01*
X801440Y246740D01*
X808000Y240890D01*
X811940Y234080D01*
Y209740D01*
G01Y234080D02*
X850000Y248680D01*
G01X784380Y289450D02*
X776510Y295290D01*
X772570Y302110D01*
X771260Y309900D01*
X773880Y319630D01*
X780450Y326450D01*
X788320Y328400D01*
X796200Y327420D01*
X802760Y323530D01*
X815880Y304060D01*
X825070Y295290D01*
X838190Y289450D01*
X850000Y287500D01*
Y328400D01*
G01Y384740D02*
X832940Y386690D01*
X818510Y389610D01*
X805380Y393510D01*
X790950Y398370D01*
X771260Y406160D01*
Y367220D01*
G01X750000Y209740D02*
X671260D01*
Y234080D01*
X675200Y241870D01*
X680450Y246740D01*
X690950Y248680D01*
X701440Y246740D01*
X708000Y240890D01*
X711940Y234080D01*
Y209740D01*
G01Y234080D02*
X750000Y248680D01*
G01X684380Y289450D02*
X676510Y295290D01*
X672570Y302110D01*
X671260Y309900D01*
X673880Y319630D01*
X680450Y326450D01*
X688320Y328400D01*
X696200Y327420D01*
X702760Y323530D01*
X715880Y304060D01*
X725070Y295290D01*
X738190Y289450D01*
X750000Y287500D01*
Y328400D01*
G01X717190Y368190D02*
X708000Y375010D01*
X702760Y380850D01*
X700130Y388640D01*
X702760Y395450D01*
X708000Y400320D01*
X715880Y404220D01*
X725070Y405190D01*
X732940Y404220D01*
X740820Y400320D01*
X747380Y394480D01*
X750000Y387660D01*
X747380Y379870D01*
X739500Y373060D01*
X727690Y369160D01*
X714570Y368190D01*
X697510Y370140D01*
X688320Y373060D01*
X679130Y377930D01*
X672570Y384740D01*
X671260Y391560D01*
X673880Y398370D01*
X680450Y403240D01*
G01X650000Y209740D02*
X571260D01*
Y234080D01*
X575200Y241870D01*
X580450Y246740D01*
X590950Y248680D01*
X601440Y246740D01*
X608000Y240890D01*
X611940Y234080D01*
Y209740D01*
G01Y234080D02*
X650000Y248680D01*
G01X584380Y289450D02*
X576510Y295290D01*
X572570Y302110D01*
X571260Y309900D01*
X573880Y319630D01*
X580450Y326450D01*
X588320Y328400D01*
X596200Y327420D01*
X602760Y323530D01*
X615880Y304060D01*
X625070Y295290D01*
X638190Y289450D01*
X650000Y287500D01*
Y328400D01*
G01X638190Y365270D02*
X644750Y371110D01*
X648690Y377930D01*
X650000Y386690D01*
X647380Y395450D01*
X642130Y402270D01*
X632940Y407140D01*
X622440Y408110D01*
X611940Y406160D01*
X605380Y401290D01*
X600130Y394480D01*
X598820Y387660D01*
X600130Y380850D01*
X605380Y372090D01*
X571260Y375010D01*
Y401290D01*
G01X850000Y507790D02*
X771260D01*
Y527260D01*
X775200Y535050D01*
X780450Y540890D01*
X788320Y545760D01*
X797510Y549660D01*
X810630Y550630D01*
X823750Y549660D01*
X832940Y545760D01*
X840820Y540890D01*
X846060Y535050D01*
X850000Y527260D01*
Y507790D01*
G01Y606000D02*
X832940Y607950D01*
X818510Y610870D01*
X805380Y614770D01*
X790950Y619630D01*
X771260Y627420D01*
Y588480D01*
G01X750000Y507790D02*
X671260D01*
Y527260D01*
X675200Y535050D01*
X680450Y540890D01*
X688320Y545760D01*
X697510Y549660D01*
X710630Y550630D01*
X723750Y549660D01*
X732940Y545760D01*
X740820Y540890D01*
X746060Y535050D01*
X750000Y527260D01*
Y507790D01*
G01X717190Y589450D02*
X708000Y596270D01*
X702760Y602110D01*
X700130Y609900D01*
X702760Y616710D01*
X708000Y621580D01*
X715880Y625480D01*
X725070Y626450D01*
X732940Y625480D01*
X740820Y621580D01*
X747380Y615740D01*
X750000Y608920D01*
X747380Y601130D01*
X739500Y594320D01*
X727690Y590420D01*
X714570Y589450D01*
X697510Y591400D01*
X688320Y594320D01*
X679130Y599190D01*
X672570Y606000D01*
X671260Y612820D01*
X673880Y619630D01*
X680450Y624500D01*
G01X650000Y507790D02*
X571260D01*
Y527260D01*
X575200Y535050D01*
X580450Y540890D01*
X588320Y545760D01*
X597510Y549660D01*
X610630Y550630D01*
X623750Y549660D01*
X632940Y545760D01*
X640820Y540890D01*
X646060Y535050D01*
X650000Y527260D01*
Y507790D01*
G01X638190Y586530D02*
X644750Y592370D01*
X648690Y599190D01*
X650000Y607950D01*
X647380Y616710D01*
X642130Y623530D01*
X632940Y628400D01*
X622440Y629370D01*
X611940Y627420D01*
X605380Y622550D01*
X600130Y615740D01*
X598820Y608920D01*
X600130Y602110D01*
X605380Y593350D01*
X571260Y596270D01*
Y622550D01*
G01X629210Y1664740D02*
Y1586000D01*
G01X606820Y1664740D02*
X651600D01*
G01X686530Y1601750D02*
X692370Y1592560D01*
X700160Y1587310D01*
X708920Y1586000D01*
X716710Y1587310D01*
X724500Y1593870D01*
X729370Y1601750D01*
X730340Y1609620D01*
X728400Y1618810D01*
X721580Y1625370D01*
X714770Y1628000D01*
X706000D01*
G01X714770D02*
X720610Y1631930D01*
X725480Y1638490D01*
X727420Y1646370D01*
X725480Y1654240D01*
X720610Y1660800D01*
X711840Y1664740D01*
X703080Y1663430D01*
X694320Y1658180D01*
G01X684800Y2239290D02*
X697500Y2247330D01*
X705970Y2256980D01*
X710200Y2268240D01*
X705970Y2281110D01*
X697500Y2290760D01*
X684800Y2300420D01*
X667870Y2303630D01*
X583200D01*
G01X710200Y2420300D02*
X583200D01*
X674220Y2360780D01*
Y2441220D01*
G01X711200Y2485690D02*
X551180D01*
Y2561290D01*
G01X628520Y2533440D02*
Y2485690D01*
G01X639190Y2653670D02*
Y2717340D01*
X620520Y2711360D01*
X609860Y2701420D01*
X604520Y2687490D01*
X607190Y2673560D01*
X615190Y2661620D01*
X633860Y2653670D01*
X649860Y2649680D01*
X665860D01*
X681860Y2653670D01*
X697870Y2663610D01*
X708530Y2675550D01*
X711200Y2689480D01*
X705870Y2703410D01*
X689870Y2717340D01*
G01X639190Y2813690D02*
Y2877360D01*
X620520Y2871380D01*
X609860Y2861440D01*
X604520Y2847510D01*
X607190Y2833580D01*
X615190Y2821640D01*
X633860Y2813690D01*
X649860Y2809700D01*
X665860D01*
X681860Y2813690D01*
X697870Y2823630D01*
X708530Y2835570D01*
X711200Y2849500D01*
X705870Y2863430D01*
X689870Y2877360D01*
G01X551180Y3039370D02*
X711200D01*
G01X687200D02*
X700530Y3031400D01*
X708530Y3019470D01*
X711200Y3005540D01*
X705870Y2989620D01*
X692530Y2977680D01*
X676530Y2969720D01*
X657860Y2967730D01*
X639190Y2969720D01*
X623190Y2977680D01*
X609860Y2989620D01*
X604520Y3005540D01*
X607190Y3019470D01*
X612520Y3029420D01*
X623190Y3039370D01*
G01X643470Y3748280D02*
X654050Y3761150D01*
X660400Y3775630D01*
Y3788490D01*
X654050Y3801360D01*
X643470Y3811020D01*
X628650Y3815840D01*
X613840Y3812630D01*
X601130Y3804580D01*
X592670Y3790100D01*
X588430Y3770800D01*
X579970Y3759540D01*
X565150Y3754710D01*
X550330Y3757930D01*
X539750Y3765970D01*
X533400Y3777230D01*
Y3788490D01*
X537630Y3799760D01*
X548220Y3809410D01*
G01X603250Y3887470D02*
Y3938950D01*
X588430Y3934120D01*
X579970Y3926080D01*
X575740Y3914820D01*
X577850Y3903560D01*
X584200Y3893900D01*
X599020Y3887470D01*
X611720Y3884250D01*
X624420D01*
X637120Y3887470D01*
X649820Y3895510D01*
X658280Y3905170D01*
X660400Y3916430D01*
X656170Y3927690D01*
X643470Y3938950D01*
G01X660400Y4013790D02*
X575740D01*
G01X596900D02*
X586320Y4020230D01*
X577850Y4029880D01*
X575740Y4042750D01*
X577850Y4054010D01*
X586320Y4063660D01*
X601130Y4068490D01*
X660400D01*
G01X645590Y4146550D02*
X654050Y4154590D01*
X660400Y4165850D01*
Y4175510D01*
X656170Y4185160D01*
X649820Y4191590D01*
X641350Y4194810D01*
X628650Y4193200D01*
X622300Y4186770D01*
X609600Y4157810D01*
X594780Y4151380D01*
X584200Y4154590D01*
X577850Y4161030D01*
X575740Y4170680D01*
X577850Y4180330D01*
X584200Y4189980D01*
G01X660400Y4300220D02*
X658280Y4290570D01*
X649820Y4280920D01*
X635000Y4274480D01*
X618070Y4271260D01*
X601130Y4274480D01*
X586320Y4280920D01*
X577850Y4290570D01*
X575740Y4300220D01*
X577850Y4309870D01*
X586320Y4319520D01*
X601130Y4325960D01*
X618070Y4327570D01*
X635000Y4325960D01*
X649820Y4319520D01*
X658280Y4309870D01*
X660400Y4300220D01*
G01Y4407240D02*
X575740D01*
G01X592670D02*
X584200Y4415280D01*
X577850Y4423330D01*
X575740Y4434590D01*
X577850Y4442630D01*
X584200Y4452280D01*
G01X809410Y4158140D02*
Y4079400D01*
G01X787020Y4158140D02*
X831800D01*
G01X899830Y4079400D02*
Y4158140D01*
X863810Y4101710D01*
X912490D01*
G01X734010Y4428740D02*
Y4350000D01*
G01X711620Y4428740D02*
X756400D01*
G01X812750Y4350000D02*
Y4428740D01*
X801070Y4412990D01*
G01Y4350000D02*
X824430D01*
G01X870070Y4365750D02*
X875910Y4356560D01*
X883700Y4351310D01*
X892460Y4350000D01*
X900250Y4351310D01*
X908040Y4357870D01*
X912910Y4365750D01*
X913880Y4373620D01*
X911940Y4382810D01*
X905120Y4389370D01*
X898310Y4392000D01*
X889540D01*
G01X898310D02*
X904150Y4395930D01*
X909020Y4402490D01*
X910960Y4410370D01*
X909020Y4418240D01*
X904150Y4424800D01*
X895380Y4428740D01*
X886620Y4427430D01*
X877860Y4422180D01*
G01X675400Y5014490D02*
X688100Y5022530D01*
X696570Y5032180D01*
X700800Y5043440D01*
X696570Y5056310D01*
X688100Y5065960D01*
X675400Y5075620D01*
X658470Y5078830D01*
X573800D01*
G01X594970Y5145630D02*
X582270Y5155290D01*
X575920Y5166550D01*
X573800Y5179420D01*
X578030Y5195500D01*
X588620Y5206770D01*
X601310Y5209980D01*
X614020Y5208370D01*
X624600Y5201940D01*
X645770Y5169770D01*
X660580Y5155290D01*
X681750Y5145630D01*
X700800Y5142420D01*
Y5209980D01*
G01X668790Y4883740D02*
Y4827310D01*
X672680Y4815500D01*
X680470Y4807620D01*
X690210Y4805000D01*
X699950Y4807620D01*
X707740Y4815500D01*
X711630Y4827310D01*
Y4883740D01*
G01X768950Y4805000D02*
Y4883740D01*
X757270Y4867990D01*
G01Y4805000D02*
X780630D01*
G01X1310300Y5651500D02*
X1371940D01*
G01X1479800Y4773000D02*
X1483690Y4776930D01*
X1486610Y4783490D01*
X1488560Y4792680D01*
X1486610Y4800550D01*
X1482720Y4805800D01*
X1475900Y4809740D01*
X1449620D01*
Y4731000D01*
X1481750D01*
X1488560Y4736250D01*
X1492460Y4744120D01*
X1494400Y4753310D01*
X1492460Y4762490D01*
X1486610Y4770370D01*
X1479800Y4773000D01*
X1449620D01*
G01X1550750Y4731000D02*
Y4809740D01*
X1539070Y4793990D01*
G01Y4731000D02*
X1562430D01*
G01X1600090Y5319800D02*
X1608130Y5307100D01*
X1617780Y5298630D01*
X1629040Y5294400D01*
X1641910Y5298630D01*
X1651560Y5307100D01*
X1661220Y5319800D01*
X1664430Y5336730D01*
Y5421400D01*
G01X1734450Y5309210D02*
X1745710Y5298630D01*
X1758580Y5294400D01*
X1771450Y5298630D01*
X1782710Y5311330D01*
X1790760Y5330380D01*
X1793970Y5349430D01*
Y5372720D01*
X1790760Y5391770D01*
X1782710Y5408700D01*
X1773060Y5417170D01*
X1761800Y5421400D01*
X1748930Y5417170D01*
X1739280Y5408700D01*
X1732840Y5396000D01*
X1729630Y5379060D01*
X1732840Y5364250D01*
X1740890Y5349430D01*
X1750540Y5340960D01*
X1761800Y5338850D01*
X1774670Y5343080D01*
X1784320Y5353670D01*
X1793970Y5372720D01*
G01X1921090Y5283200D02*
Y5410200D01*
X1959690D01*
X1972560Y5403850D01*
X1982220Y5389030D01*
X1985430Y5372100D01*
X1982220Y5355170D01*
X1974170Y5342470D01*
X1959690Y5336110D01*
X1921090D01*
G01X2082800Y5283200D02*
X2073150Y5285320D01*
X2063500Y5293780D01*
X2057060Y5308600D01*
X2053840Y5325530D01*
X2057060Y5342470D01*
X2063500Y5357280D01*
X2073150Y5365750D01*
X2082800Y5367860D01*
X2092450Y5365750D01*
X2102100Y5357280D01*
X2108540Y5342470D01*
X2110150Y5325530D01*
X2108540Y5308600D01*
X2102100Y5293780D01*
X2092450Y5285320D01*
X2082800Y5283200D01*
G01X2172120Y5367860D02*
X2191430Y5283200D01*
X2212340Y5367860D01*
X2233250Y5283200D01*
X2252560Y5367860D01*
G01X2317750Y5340350D02*
X2369230D01*
X2364400Y5355170D01*
X2356360Y5363630D01*
X2345100Y5367860D01*
X2333840Y5365750D01*
X2324180Y5359400D01*
X2317750Y5344580D01*
X2314530Y5331880D01*
Y5319180D01*
X2317750Y5306480D01*
X2325790Y5293780D01*
X2335450Y5285320D01*
X2346710Y5283200D01*
X2357970Y5287430D01*
X2369230Y5300130D01*
G01X2448900Y5283200D02*
Y5367860D01*
G01Y5350930D02*
X2456940Y5359400D01*
X2464990Y5365750D01*
X2476250Y5367860D01*
X2484290Y5365750D01*
X2493940Y5359400D01*
G01X2839040Y5651500D02*
X2895940D01*
G01X2865120Y5692780D02*
Y5610220D01*
G01X3214600Y1209690D02*
X3227300Y1217730D01*
X3235770Y1227380D01*
X3240000Y1238640D01*
X3235770Y1251510D01*
X3227300Y1261160D01*
X3214600Y1270820D01*
X3197670Y1274030D01*
X3113000D01*
G01X3214600Y1336010D02*
X3229420Y1345660D01*
X3237880Y1358530D01*
X3240000Y1373010D01*
X3237880Y1385880D01*
X3227300Y1398750D01*
X3214600Y1406790D01*
X3201900Y1408400D01*
X3187090Y1405180D01*
X3176500Y1393920D01*
X3172270Y1382660D01*
Y1368180D01*
G01Y1382660D02*
X3165920Y1392310D01*
X3155340Y1400360D01*
X3142630Y1403570D01*
X3129930Y1400360D01*
X3119350Y1392310D01*
X3113000Y1377830D01*
X3115120Y1363360D01*
X3123580Y1348880D01*
G01X3208000Y2034090D02*
X3220700Y2042130D01*
X3229170Y2051780D01*
X3233400Y2063040D01*
X3229170Y2075910D01*
X3220700Y2085560D01*
X3208000Y2095220D01*
X3191070Y2098430D01*
X3106400D01*
G01X3233400Y2195800D02*
X3231280Y2207060D01*
X3224940Y2219930D01*
X3214350Y2227970D01*
X3199530Y2231190D01*
X3184720Y2227970D01*
X3172020Y2218320D01*
X3165670Y2203840D01*
Y2187760D01*
X3161430Y2178100D01*
X3150850Y2170060D01*
X3136030Y2166840D01*
X3121220Y2171670D01*
X3110630Y2182930D01*
X3106400Y2195800D01*
X3110630Y2208670D01*
X3121220Y2219930D01*
X3136030Y2224760D01*
X3150850Y2221540D01*
X3161430Y2213500D01*
X3165670Y2203840D01*
Y2187760D01*
X3172020Y2173280D01*
X3184720Y2163630D01*
X3199530Y2160410D01*
X3214350Y2163630D01*
X3224940Y2171670D01*
X3231280Y2184540D01*
X3233400Y2195800D01*
G01X3155810Y3685540D02*
Y3606800D01*
G01X3133420Y3685540D02*
X3178200D01*
G01X3234550Y3606800D02*
Y3685540D01*
X3222870Y3669790D01*
G01Y3606800D02*
X3246230D01*
G01X3313290Y3685540D02*
X3305500Y3682920D01*
X3299660Y3676350D01*
X3295760Y3668480D01*
X3292840Y3657980D01*
X3291870Y3646170D01*
X3292840Y3634360D01*
X3295760Y3623860D01*
X3299660Y3615980D01*
X3305500Y3609420D01*
X3313290Y3606800D01*
X3321080Y3609420D01*
X3326920Y3615980D01*
X3330820Y3623860D01*
X3333740Y3634360D01*
X3334710Y3646170D01*
X3333740Y3657980D01*
X3330820Y3668480D01*
X3326920Y3676350D01*
X3321080Y3682920D01*
X3313290Y3685540D01*
G01X3146310Y5614340D02*
Y5535600D01*
G01X3123920Y5614340D02*
X3168700D01*
G01X3225050Y5535600D02*
Y5614340D01*
X3213370Y5598590D01*
G01Y5535600D02*
X3236730D01*
G01X3285290Y5568410D02*
X3292110Y5577600D01*
X3297950Y5582840D01*
X3305740Y5585470D01*
X3312550Y5582840D01*
X3317420Y5577600D01*
X3321320Y5569720D01*
X3322290Y5560530D01*
X3321320Y5552660D01*
X3317420Y5544780D01*
X3311580Y5538220D01*
X3304760Y5535600D01*
X3296970Y5538220D01*
X3290160Y5546100D01*
X3286260Y5557910D01*
X3285290Y5571030D01*
X3287240Y5588090D01*
X3290160Y5597280D01*
X3295030Y5606470D01*
X3301840Y5613030D01*
X3308660Y5614340D01*
X3315470Y5611720D01*
X3320340Y5605150D01*
G01X3283210Y528740D02*
Y450000D01*
G01X3260820Y528740D02*
X3305600D01*
G01X3361950Y450000D02*
Y528740D01*
X3350270Y512990D01*
G01Y450000D02*
X3373630D01*
G01X3422190Y515620D02*
X3428030Y523490D01*
X3434850Y527430D01*
X3442640Y528740D01*
X3452370Y526120D01*
X3459190Y519550D01*
X3461140Y511680D01*
X3460160Y503800D01*
X3456270Y497240D01*
X3436800Y484120D01*
X3428030Y474930D01*
X3422190Y461810D01*
X3420240Y450000D01*
X3461140D01*
G01X3283210Y729540D02*
Y650800D01*
G01X3260820Y729540D02*
X3305600D01*
G01X3361950Y650800D02*
Y729540D01*
X3350270Y713790D01*
G01Y650800D02*
X3373630D01*
G01X3440690D02*
Y729540D01*
X3429010Y713790D01*
G01Y650800D02*
X3452370D01*
G01X3283210Y1128740D02*
Y1050000D01*
G01X3260820Y1128740D02*
X3305600D01*
G01X3340530Y1061810D02*
X3346370Y1055250D01*
X3353190Y1051310D01*
X3361950Y1050000D01*
X3370710Y1052620D01*
X3377530Y1057870D01*
X3382400Y1067060D01*
X3383370Y1077560D01*
X3381420Y1088060D01*
X3376550Y1094620D01*
X3369740Y1099870D01*
X3362920Y1101180D01*
X3356110Y1099870D01*
X3347350Y1094620D01*
X3350270Y1128740D01*
X3376550D01*
G01X3283210Y928740D02*
Y850000D01*
G01X3260820Y928740D02*
X3305600D01*
G01X3343450Y882810D02*
X3350270Y892000D01*
X3356110Y897240D01*
X3363900Y899870D01*
X3370710Y897240D01*
X3375580Y892000D01*
X3379480Y884120D01*
X3380450Y874930D01*
X3379480Y867060D01*
X3375580Y859180D01*
X3369740Y852620D01*
X3362920Y850000D01*
X3355130Y852620D01*
X3348320Y860500D01*
X3344420Y872310D01*
X3343450Y885430D01*
X3345400Y902490D01*
X3348320Y911680D01*
X3353190Y920870D01*
X3360000Y927430D01*
X3366820Y928740D01*
X3373630Y926120D01*
X3378500Y919550D01*
G01X3276600Y1209890D02*
X3403600D01*
Y1274230D01*
G01X3318940Y1371600D02*
X3403600D01*
G01X3285070D02*
X3282950Y1368380D01*
X3278720D01*
X3276600Y1371600D01*
X3278720Y1374820D01*
X3282950D01*
X3285070Y1371600D01*
G01X3435350Y1478620D02*
X3443820Y1489880D01*
X3445930Y1502750D01*
X3443820Y1514010D01*
X3433230Y1523660D01*
X3418420Y1530100D01*
X3318940D01*
G01X3335870D02*
X3327400Y1523660D01*
X3321050Y1514010D01*
X3318940Y1502750D01*
X3323170Y1489880D01*
X3331630Y1481840D01*
X3346450Y1475400D01*
X3361270Y1472180D01*
X3373970Y1473790D01*
X3388790Y1480230D01*
X3399370Y1489880D01*
X3403600Y1502750D01*
X3401480Y1512400D01*
X3393020Y1523660D01*
X3384550Y1530100D01*
G01X3403600Y1603330D02*
X3276600D01*
G01X3337980D02*
X3327400Y1611380D01*
X3321050Y1619420D01*
X3318940Y1632290D01*
X3321050Y1641940D01*
X3329520Y1653200D01*
X3342220Y1658030D01*
X3403600D01*
G01X3276600Y1760220D02*
X3403600D01*
G01X3318940Y1737700D02*
Y1782740D01*
G01X3276600Y2022690D02*
X3403600D01*
Y2087030D01*
G01X3346450Y2160270D02*
Y2211750D01*
X3331630Y2206920D01*
X3323170Y2198880D01*
X3318940Y2187620D01*
X3321050Y2176360D01*
X3327400Y2166700D01*
X3342220Y2160270D01*
X3354920Y2157050D01*
X3367620D01*
X3380320Y2160270D01*
X3393020Y2168310D01*
X3401480Y2177970D01*
X3403600Y2189230D01*
X3399370Y2200490D01*
X3386670Y2211750D01*
G01X3276600Y2342900D02*
X3403600D01*
G01X3384550D02*
X3395140Y2336460D01*
X3401480Y2326810D01*
X3403600Y2315550D01*
X3399370Y2302680D01*
X3388790Y2293030D01*
X3376090Y2286590D01*
X3361270Y2284980D01*
X3346450Y2286590D01*
X3333750Y2293030D01*
X3323170Y2302680D01*
X3318940Y2315550D01*
X3321050Y2326810D01*
X3325280Y2334850D01*
X3333750Y2342900D01*
G01X3403600Y2403260D02*
X3276600Y2443480D01*
X3403600Y2483700D01*
G01X3359150Y2469220D02*
Y2417740D01*
G01X3403600Y2545670D02*
X3318940D01*
G01X3340100D02*
X3329520Y2552110D01*
X3321050Y2561760D01*
X3318940Y2574630D01*
X3321050Y2585890D01*
X3329520Y2595540D01*
X3344330Y2600370D01*
X3403600D01*
G01X3276600Y2731520D02*
X3403600D01*
G01X3384550D02*
X3395140Y2725080D01*
X3401480Y2715430D01*
X3403600Y2704170D01*
X3399370Y2691300D01*
X3388790Y2681650D01*
X3376090Y2675210D01*
X3361270Y2673600D01*
X3346450Y2675210D01*
X3333750Y2681650D01*
X3323170Y2691300D01*
X3318940Y2704170D01*
X3321050Y2715430D01*
X3325280Y2723470D01*
X3333750Y2731520D01*
G01X3403600Y2791880D02*
X3276600Y2832100D01*
X3403600Y2872320D01*
G01X3359150Y2857840D02*
Y2806360D01*
G01X3445930Y2932680D02*
X3318940D01*
G01X3337980D02*
X3327400Y2940730D01*
X3321050Y2948770D01*
X3318940Y2961640D01*
X3321050Y2972900D01*
X3331630Y2984160D01*
X3346450Y2988990D01*
X3361270Y2990600D01*
X3376090Y2988990D01*
X3390900Y2984160D01*
X3399370Y2974510D01*
X3403600Y2961640D01*
X3401480Y2950380D01*
X3395140Y2939120D01*
X3386670Y2932680D01*
G01X3318940Y3063830D02*
X3378200D01*
X3393020Y3070270D01*
X3401480Y3079920D01*
X3403600Y3091180D01*
X3401480Y3102440D01*
X3393020Y3112090D01*
X3378200Y3118530D01*
G01X3403600D02*
X3318940D01*
G01X3403600Y3172460D02*
X3318940D01*
G01X3342220D02*
X3331630Y3177280D01*
X3323170Y3185330D01*
X3318940Y3196590D01*
X3323170Y3207850D01*
X3331630Y3215890D01*
X3342220Y3220720D01*
X3403600D01*
G01X3342220D02*
X3331630Y3225550D01*
X3323170Y3233590D01*
X3318940Y3244850D01*
X3323170Y3256110D01*
X3331630Y3264160D01*
X3344330Y3268980D01*
X3403600D01*
G01X3445930Y3321300D02*
X3318940D01*
G01X3337980D02*
X3327400Y3329350D01*
X3321050Y3337390D01*
X3318940Y3350260D01*
X3321050Y3361520D01*
X3331630Y3372780D01*
X3346450Y3377610D01*
X3361270Y3379220D01*
X3376090Y3377610D01*
X3390900Y3372780D01*
X3399370Y3363130D01*
X3403600Y3350260D01*
X3401480Y3339000D01*
X3395140Y3327740D01*
X3386670Y3321300D01*
G01X3381000Y4040890D02*
X3393700Y4048930D01*
X3402170Y4058580D01*
X3406400Y4069840D01*
X3402170Y4082710D01*
X3393700Y4092360D01*
X3381000Y4102020D01*
X3364070Y4105230D01*
X3279400D01*
G01X3353490Y4172030D02*
X3338670Y4183300D01*
X3330200Y4192950D01*
X3325970Y4205820D01*
X3330200Y4217080D01*
X3338670Y4225120D01*
X3351370Y4231560D01*
X3366180Y4233170D01*
X3378890Y4231560D01*
X3391590Y4225120D01*
X3402170Y4215470D01*
X3406400Y4204210D01*
X3402170Y4191340D01*
X3389470Y4180080D01*
X3370420Y4173640D01*
X3349250Y4172030D01*
X3321740Y4175250D01*
X3306910Y4180080D01*
X3292100Y4188120D01*
X3281520Y4199380D01*
X3279400Y4210640D01*
X3283630Y4221900D01*
X3294220Y4229950D01*
G01X3276600Y4318000D02*
X3403600Y4340520D01*
X3276600Y4366260D01*
X3403600Y4392000D01*
X3276600Y4414520D01*
G01X3403600Y4463630D02*
X3276600D01*
Y4502230D01*
X3282950Y4515100D01*
X3297770Y4524760D01*
X3314700Y4527970D01*
X3331630Y4524760D01*
X3344330Y4516710D01*
X3350690Y4502230D01*
Y4463630D01*
G01X3318940Y4597990D02*
X3378200D01*
X3393020Y4604430D01*
X3401480Y4614080D01*
X3403600Y4625340D01*
X3401480Y4636600D01*
X3393020Y4646250D01*
X3378200Y4652690D01*
G01X3403600D02*
X3318940D01*
G01X3403600Y4706620D02*
X3318940D01*
G01X3342220D02*
X3331630Y4711440D01*
X3323170Y4719490D01*
X3318940Y4730750D01*
X3323170Y4742010D01*
X3331630Y4750050D01*
X3342220Y4754880D01*
X3403600D01*
G01X3342220D02*
X3331630Y4759710D01*
X3323170Y4767750D01*
X3318940Y4779010D01*
X3323170Y4790270D01*
X3331630Y4798320D01*
X3344330Y4803140D01*
X3403600D01*
G01X3445930Y4855460D02*
X3318940D01*
G01X3337980D02*
X3327400Y4863510D01*
X3321050Y4871550D01*
X3318940Y4884420D01*
X3321050Y4895680D01*
X3331630Y4906940D01*
X3346450Y4911770D01*
X3361270Y4913380D01*
X3376090Y4911770D01*
X3390900Y4906940D01*
X3399370Y4897290D01*
X3403600Y4884420D01*
X3401480Y4873160D01*
X3395140Y4861900D01*
X3386670Y4855460D01*
G01X3460610Y3685540D02*
Y3606800D01*
G01X3438220Y3685540D02*
X3483000D01*
G01X3522800Y3615980D02*
X3529610Y3609420D01*
X3537400Y3606800D01*
X3545190Y3609420D01*
X3552010Y3617300D01*
X3556880Y3629110D01*
X3558820Y3640920D01*
Y3655360D01*
X3556880Y3667170D01*
X3552010Y3677670D01*
X3546170Y3682920D01*
X3539350Y3685540D01*
X3531560Y3682920D01*
X3525720Y3677670D01*
X3521820Y3669790D01*
X3519880Y3659290D01*
X3521820Y3650110D01*
X3526690Y3640920D01*
X3532530Y3635670D01*
X3539350Y3634360D01*
X3547140Y3636980D01*
X3552980Y3643540D01*
X3558820Y3655360D01*
G01X3853890Y6104000D02*
Y6182740D01*
X3879210Y6117120D01*
X3904530Y6182740D01*
Y6104000D01*
G01X3939450Y6169620D02*
X3945290Y6177490D01*
X3952110Y6181430D01*
X3959900Y6182740D01*
X3969630Y6180120D01*
X3976450Y6173550D01*
X3978400Y6165680D01*
X3977420Y6157800D01*
X3973530Y6151240D01*
X3954060Y6138120D01*
X3945290Y6128930D01*
X3939450Y6115810D01*
X3937500Y6104000D01*
X3978400D01*
G01X4103890Y54000D02*
Y132740D01*
X4129210Y67120D01*
X4154530Y132740D01*
Y54000D01*
G01X4186530Y69750D02*
X4192370Y60560D01*
X4200160Y55310D01*
X4208920Y54000D01*
X4216710Y55310D01*
X4224500Y61870D01*
X4229370Y69750D01*
X4230340Y77620D01*
X4228400Y86810D01*
X4221580Y93370D01*
X4214770Y96000D01*
X4206000D01*
G01X4214770D02*
X4220610Y99930D01*
X4225480Y106490D01*
X4227420Y114370D01*
X4225480Y122240D01*
X4220610Y128800D01*
X4211840Y132740D01*
X4203080Y131430D01*
X4194320Y126180D01*
G54D14*
G01X950450Y5000000D02*
Y200000D01*
G03X1100450Y50000I150000J0D01*
G01X2899550D01*
G03X3049550Y200000I0J150000D01*
G01Y5000000D01*
G03X2899550Y5150000I-150000J0D01*
G01X1100450D01*
G03X950450Y5000000I0J-150000D01*
G01X2211000Y105000D02*
Y355000D01*
G03X2161000Y405000I-50000J0D01*
G01X1761000D01*
G03X1711000Y355000I0J-50000D01*
G01Y105000D01*
M02*
