G04 ================== begin FILE IDENTIFICATION RECORD ==================*
G04 Layout Name:  FishTank-Manage.brd*
G04 Film Name:    SILK_TOP*
G04 File Format:  Gerber RS274X*
G04 File Origin:  Cadence Allegro 17.4-S032*
G04 Origin Date:  Mon Jul 31 00:13:20 2023*
G04 *
G04 Layer:  REF DES/SILKSCREEN_TOP*
G04 Layer:  PACKAGE GEOMETRY/SILKSCREEN_TOP*
G04 Layer:  BOARD GEOMETRY/SILKSCREEN_TOP*
G04 *
G04 Offset:    (0.0000 0.0000)*
G04 Mirror:    No*
G04 Mode:      Positive*
G04 Rotation:  0*
G04 FullContactRelief:  No*
G04 UndefLineWidth:     0.0000*
G04 ================== end FILE IDENTIFICATION RECORD ====================*
%FSLAX25Y25*MOIN*%
%IR0*IPPOS*OFA0.00000B0.00000*MIA0B0*SFA1.00000B1.00000*%
%ADD10C,.003937*%
%ADD11C,.007874*%
%ADD12C,.005*%
%ADD13C,.01*%
%ADD14C,.02*%
G75*
%LPD*%
G75*
G36*
G01X20276Y11811D02*
G03I-8465J0D01*
G37*
G36*
G01Y224409D02*
G03I-8465J0D01*
G37*
G36*
G01X154134Y11811D02*
G03I-8465J0D01*
G37*
G36*
G01Y224409D02*
G03I-8465J0D01*
G37*
G54D10*
G01X80874Y131717D02*
G03Y96283I0J-17717D01*
G01D02*
G03Y131717I0J17717D01*
G54D11*
G01X20024Y23323D02*
X9000D01*
G01X2307Y31000D02*
Y62299D01*
G01D02*
X20024D01*
G01Y80823D02*
X9000D01*
G01X2307Y88500D02*
Y135547D01*
G01D02*
X20024D01*
G01Y152323D02*
X9000D01*
G01X2307Y160000D02*
Y207047D01*
G01D02*
X20024D01*
G01Y62299D02*
Y23323D01*
G01Y135547D02*
Y80823D01*
G01Y207047D02*
Y152323D01*
G01X61823Y1476D02*
Y12500D01*
G01X100799Y1476D02*
X61823D01*
G01X61189Y113606D02*
G03Y114394I0J394D01*
G01D02*
G03Y113606I0J-394D01*
G01X60319Y162000D02*
X62681D01*
G01X57366Y169315D02*
X65634D01*
G01X57366Y180634D02*
Y169315D01*
G01X52953Y215807D02*
Y233524D01*
G01X100000Y215807D02*
X52953D01*
G01Y233524D02*
X107677D01*
G01X69500Y19193D02*
X100799D01*
G01X69319Y162000D02*
X71681D01*
G01X66366Y169315D02*
X74634D01*
G01X66366Y180634D02*
Y169315D01*
G01X65634D02*
Y180634D01*
G01X78319Y162000D02*
X80681D01*
G01X75366Y169315D02*
X83634D01*
G01X75366Y180634D02*
Y169315D01*
G01X74634D02*
Y180634D01*
G01X91500Y54819D02*
Y57181D01*
G01Y71181D02*
Y68819D01*
G01Y66181D02*
Y63819D01*
G01Y77819D02*
Y80181D01*
G01Y85181D02*
Y82819D01*
G01Y92319D02*
Y94681D01*
G01X87319Y162000D02*
X89681D01*
G01X92634Y169315D02*
Y180634D01*
G01X84366Y169315D02*
X92634D01*
G01X84366Y180634D02*
Y169315D01*
G01X83634D02*
Y180634D01*
G01X93366Y169315D02*
X101634D01*
G01X93366Y180634D02*
Y169315D01*
G01X100799Y19193D02*
Y1476D01*
G01X98193Y60500D02*
G02I-197J0D01*
G01Y74500D02*
G02I-197J0D01*
G01Y88500D02*
G02I-197J0D01*
G01X96319Y162500D02*
X98681D01*
G01X101634Y169315D02*
Y180634D01*
G01X107677Y233524D02*
Y222500D01*
G01X155024Y27823D02*
X144000D01*
G01X137307Y35500D02*
Y66799D01*
G01D02*
X155024D01*
G01X155524Y80323D02*
X144500D01*
G01X137807Y88000D02*
Y135047D01*
G01D02*
X155524D01*
G01Y150823D02*
X144500D01*
G01X137807Y158500D02*
Y205547D01*
G01D02*
X155524D01*
G01X155024Y66799D02*
Y27823D01*
G01X155524Y135047D02*
Y80323D01*
G01Y205547D02*
Y150823D01*
G54D12*
G01X-3784Y157D02*
Y3257D01*
X-2787Y674D01*
X-1790Y3257D01*
Y157D01*
G01X773D02*
Y3257D01*
X-645Y1036D01*
X1271D01*
G01X-1815Y238346D02*
Y241446D01*
X-819Y238863D01*
X178Y241446D01*
Y238346D01*
G01X2281D02*
Y241446D01*
X1822Y240826D01*
G01Y238346D02*
X2741D01*
G01X4633Y65500D02*
X4950Y65000D01*
X5330Y64667D01*
X5773Y64500D01*
X6280Y64667D01*
X6660Y65000D01*
X7040Y65500D01*
X7167Y66167D01*
Y69500D01*
G01X11000Y64500D02*
Y69500D01*
X10240Y68500D01*
G01Y64500D02*
X11760D01*
G01X14896Y68667D02*
X15277Y69167D01*
X15720Y69417D01*
X16227Y69500D01*
X16860Y69333D01*
X17304Y68917D01*
X17430Y68417D01*
X17367Y67917D01*
X17113Y67500D01*
X15847Y66667D01*
X15277Y66083D01*
X14896Y65250D01*
X14770Y64500D01*
X17430D01*
G01X5317Y145500D02*
X6900Y150500D01*
X8483Y145500D01*
G01X7913Y147250D02*
X5887D01*
G01X12000Y148833D02*
Y145500D01*
G01Y150167D02*
X11873Y150250D01*
Y150417D01*
X12000Y150500D01*
X12127Y150417D01*
Y150250D01*
X12000Y150167D01*
G01X16213Y145500D02*
Y148833D01*
G01Y148167D02*
X16530Y148500D01*
X16847Y148750D01*
X17290Y148833D01*
X17607Y148750D01*
X17987Y148500D01*
G01X5696Y139000D02*
Y144000D01*
X8104D01*
G01X7217Y141583D02*
X5696D01*
G01X11050Y141250D02*
X13077D01*
X12887Y141833D01*
X12570Y142167D01*
X12127Y142333D01*
X11683Y142250D01*
X11303Y142000D01*
X11050Y141417D01*
X10923Y140917D01*
Y140417D01*
X11050Y139917D01*
X11367Y139417D01*
X11747Y139083D01*
X12190Y139000D01*
X12633Y139167D01*
X13077Y139667D01*
G01X16150Y141250D02*
X18177D01*
X17987Y141833D01*
X17670Y142167D01*
X17227Y142333D01*
X16783Y142250D01*
X16403Y142000D01*
X16150Y141417D01*
X16023Y140917D01*
Y140417D01*
X16150Y139917D01*
X16467Y139417D01*
X16847Y139083D01*
X17290Y139000D01*
X17733Y139167D01*
X18177Y139667D01*
G01X23340Y144000D02*
Y139000D01*
G01Y139750D02*
X23087Y139333D01*
X22707Y139083D01*
X22263Y139000D01*
X21757Y139167D01*
X21377Y139583D01*
X21123Y140083D01*
X21060Y140667D01*
X21123Y141250D01*
X21377Y141750D01*
X21757Y142167D01*
X22263Y142333D01*
X22707Y142250D01*
X23023Y142083D01*
X23340Y141750D01*
G01X7133Y209500D02*
X7450Y209000D01*
X7830Y208667D01*
X8273Y208500D01*
X8780Y208667D01*
X9160Y209000D01*
X9540Y209500D01*
X9667Y210167D01*
Y213500D01*
G01X13500Y208500D02*
X13943Y208583D01*
X14450Y208833D01*
X14767Y209250D01*
X14893Y209833D01*
X14767Y210417D01*
X14387Y210917D01*
X13817Y211167D01*
X13183D01*
X12803Y211333D01*
X12487Y211750D01*
X12360Y212333D01*
X12550Y212917D01*
X12993Y213333D01*
X13500Y213500D01*
X14007Y213333D01*
X14450Y212917D01*
X14640Y212333D01*
X14513Y211750D01*
X14197Y211333D01*
X13817Y211167D01*
X13183D01*
X12613Y210917D01*
X12233Y210417D01*
X12107Y209833D01*
X12233Y209250D01*
X12550Y208833D01*
X13057Y208583D01*
X13500Y208500D01*
G01X21500Y53430D02*
X26500D01*
G01Y50770D02*
X21500D01*
G01X24000D02*
Y53430D01*
G01X24833Y48077D02*
X22500D01*
X21917Y47823D01*
X21583Y47443D01*
X21500Y47000D01*
X21583Y46557D01*
X21917Y46177D01*
X22500Y45923D01*
G01X21500D02*
X24833D01*
G01X21500Y43800D02*
X24833D01*
G01X23917D02*
X24333Y43610D01*
X24667Y43293D01*
X24833Y42850D01*
X24667Y42407D01*
X24333Y42090D01*
X23917Y41900D01*
X21500D01*
G01X23917D02*
X24333Y41710D01*
X24667Y41393D01*
X24833Y40950D01*
X24667Y40507D01*
X24333Y40190D01*
X23833Y40000D01*
X21500D01*
G01X24833Y36800D02*
X21500D01*
G01X26167D02*
X26250Y36927D01*
X26417D01*
X26500Y36800D01*
X26417Y36673D01*
X26250D01*
X26167Y36800D01*
G01X26500Y30560D02*
X21500D01*
G01X22250D02*
X21833Y30813D01*
X21583Y31193D01*
X21500Y31637D01*
X21667Y32143D01*
X22083Y32523D01*
X22583Y32777D01*
X23167Y32840D01*
X23750Y32777D01*
X24250Y32523D01*
X24667Y32143D01*
X24833Y31637D01*
X24750Y31193D01*
X24583Y30877D01*
X24250Y30560D01*
G01X24833Y26600D02*
X21500D01*
G01X26167D02*
X26250Y26727D01*
X26417D01*
X26500Y26600D01*
X26417Y26473D01*
X26250D01*
X26167Y26600D01*
G01X26500Y21500D02*
X21500D01*
G01X24833Y22387D02*
Y20613D01*
G01X20000Y17730D02*
X19833Y17350D01*
X20000Y16843D01*
X20333Y16527D01*
X20750Y16273D01*
X22083Y15893D01*
X24833Y15070D01*
G01Y17097D02*
X22083Y15893D01*
G01X21150Y65600D02*
Y62500D01*
G01X20269Y65600D02*
X22031D01*
G01X24250Y62500D02*
Y65600D01*
X23790Y64980D01*
G01Y62500D02*
X24710D01*
G01X26698Y62861D02*
X26967Y62603D01*
X27273Y62500D01*
X27580Y62603D01*
X27848Y62913D01*
X28040Y63378D01*
X28117Y63843D01*
Y64412D01*
X28040Y64877D01*
X27848Y65290D01*
X27619Y65497D01*
X27350Y65600D01*
X27043Y65497D01*
X26813Y65290D01*
X26660Y64980D01*
X26583Y64567D01*
X26660Y64205D01*
X26852Y63843D01*
X27081Y63637D01*
X27350Y63585D01*
X27657Y63688D01*
X27887Y63946D01*
X28117Y64412D01*
G01X22500Y84867D02*
X22000Y84550D01*
X21667Y84170D01*
X21500Y83727D01*
X21667Y83220D01*
X22000Y82840D01*
X22500Y82460D01*
X23167Y82333D01*
X26500D01*
G01X21500Y78500D02*
X26500D01*
X25500Y79260D01*
G01X21500D02*
Y77740D01*
G01X26500Y73400D02*
X26333Y73907D01*
X25917Y74287D01*
X25417Y74540D01*
X24750Y74730D01*
X24000Y74793D01*
X23250Y74730D01*
X22583Y74540D01*
X22083Y74287D01*
X21667Y73907D01*
X21500Y73400D01*
X21667Y72893D01*
X22083Y72513D01*
X22583Y72260D01*
X23250Y72070D01*
X24000Y72007D01*
X24750Y72070D01*
X25417Y72260D01*
X25917Y72513D01*
X26333Y72893D01*
X26500Y73400D01*
G01X21650Y95100D02*
Y92000D01*
G01X20769Y95100D02*
X22531D01*
G01X24750Y92000D02*
Y95100D01*
X24290Y94480D01*
G01Y92000D02*
X25210D01*
G01X27850D02*
Y95100D01*
X27390Y94480D01*
G01Y92000D02*
X28310D01*
G01X22650Y113100D02*
Y110000D01*
G01X21769Y113100D02*
X23531D01*
G01X25750Y110000D02*
X26019Y110052D01*
X26325Y110207D01*
X26517Y110465D01*
X26593Y110827D01*
X26517Y111188D01*
X26287Y111498D01*
X25942Y111654D01*
X25558D01*
X25328Y111757D01*
X25137Y112015D01*
X25060Y112377D01*
X25175Y112738D01*
X25443Y112997D01*
X25750Y113100D01*
X26057Y112997D01*
X26325Y112738D01*
X26440Y112377D01*
X26363Y112015D01*
X26172Y111757D01*
X25942Y111654D01*
X25558D01*
X25213Y111498D01*
X24983Y111188D01*
X24907Y110827D01*
X24983Y110465D01*
X25175Y110207D01*
X25481Y110052D01*
X25750Y110000D01*
G01X22150Y123600D02*
Y120500D01*
G01X21269Y123600D02*
X23031D01*
G01X25173Y120500D02*
X25250Y121172D01*
X25365Y121740D01*
X25519Y122257D01*
X25710Y122825D01*
X26017Y123600D01*
X24483D01*
G01X27500Y187367D02*
X22500D01*
Y184833D01*
G01Y179733D02*
Y182267D01*
X27500D01*
Y179733D01*
G01X25083Y180747D02*
Y182267D01*
G01X22500Y177293D02*
X27500D01*
Y176027D01*
X27250Y175520D01*
X26917Y175140D01*
X26417Y174823D01*
X25833Y174570D01*
X25000Y174507D01*
X24167Y174570D01*
X23583Y174823D01*
X23083Y175140D01*
X22750Y175520D01*
X22500Y176027D01*
Y177293D01*
G01X32059Y135474D02*
Y133252D01*
X32212Y132787D01*
X32519Y132477D01*
X32902Y132374D01*
X33285Y132477D01*
X33592Y132787D01*
X33745Y133252D01*
Y135474D01*
G01X36462Y132374D02*
Y135474D01*
X35044Y133252D01*
X36960D01*
G01X39650Y190100D02*
Y187000D01*
G01X38769Y190100D02*
X40531D01*
G01X42750Y187000D02*
Y190100D01*
X42290Y189480D01*
G01Y187000D02*
X43210D01*
G01X45122Y189583D02*
X45352Y189893D01*
X45620Y190048D01*
X45927Y190100D01*
X46310Y189997D01*
X46578Y189738D01*
X46655Y189428D01*
X46617Y189118D01*
X46463Y188860D01*
X45697Y188343D01*
X45352Y187981D01*
X45122Y187465D01*
X45045Y187000D01*
X46655D01*
G01X51883Y208620D02*
X52075Y208310D01*
X52305Y208103D01*
X52573Y208000D01*
X52880Y208103D01*
X53110Y208310D01*
X53340Y208620D01*
X53417Y209033D01*
Y211100D01*
G01X55098Y208361D02*
X55367Y208103D01*
X55673Y208000D01*
X55980Y208103D01*
X56248Y208413D01*
X56440Y208878D01*
X56517Y209343D01*
Y209912D01*
X56440Y210377D01*
X56248Y210790D01*
X56019Y210997D01*
X55750Y211100D01*
X55443Y210997D01*
X55213Y210790D01*
X55060Y210480D01*
X54983Y210067D01*
X55060Y209705D01*
X55252Y209343D01*
X55481Y209137D01*
X55750Y209085D01*
X56057Y209188D01*
X56287Y209446D01*
X56517Y209912D01*
G01X62528Y104043D02*
X62682Y103890D01*
X62941Y103775D01*
X63302Y103698D01*
X63612Y103775D01*
X63819Y103928D01*
X63974Y104197D01*
Y105231D01*
X60874D01*
Y103967D01*
X61081Y103698D01*
X61391Y103545D01*
X61752Y103469D01*
X62114Y103545D01*
X62424Y103775D01*
X62528Y104043D01*
Y105231D01*
G01X60874Y101250D02*
X63974D01*
X63354Y101710D01*
G01X60874D02*
Y100790D01*
G01X58000Y157883D02*
X54900D01*
Y158842D01*
X55055Y159148D01*
X55262Y159340D01*
X55675Y159417D01*
X56088Y159340D01*
X56346Y159110D01*
X56502Y158842D01*
Y157883D01*
G01Y158842D02*
X58000Y159417D01*
G01X57380Y160907D02*
X57742Y161137D01*
X57948Y161443D01*
X58000Y161788D01*
X57948Y162095D01*
X57690Y162402D01*
X57380Y162593D01*
X57070Y162631D01*
X56708Y162555D01*
X56450Y162287D01*
X56346Y162019D01*
Y161673D01*
G01Y162019D02*
X56192Y162248D01*
X55933Y162440D01*
X55623Y162517D01*
X55313Y162440D01*
X55055Y162248D01*
X54900Y161903D01*
X54952Y161558D01*
X55158Y161213D01*
G01X58000Y164850D02*
X57948Y165119D01*
X57793Y165425D01*
X57535Y165617D01*
X57173Y165693D01*
X56812Y165617D01*
X56502Y165387D01*
X56346Y165042D01*
Y164658D01*
X56243Y164428D01*
X55985Y164237D01*
X55623Y164160D01*
X55262Y164275D01*
X55003Y164543D01*
X54900Y164850D01*
X55003Y165157D01*
X55262Y165425D01*
X55623Y165540D01*
X55985Y165463D01*
X56243Y165272D01*
X56346Y165042D01*
Y164658D01*
X56502Y164313D01*
X56812Y164083D01*
X57173Y164007D01*
X57535Y164083D01*
X57793Y164275D01*
X57948Y164581D01*
X58000Y164850D01*
G01X63000Y184307D02*
X59900D01*
Y185073D01*
X60055Y185380D01*
X60262Y185610D01*
X60572Y185802D01*
X60933Y185955D01*
X61450Y185993D01*
X61967Y185955D01*
X62328Y185802D01*
X62639Y185610D01*
X62845Y185380D01*
X63000Y185073D01*
Y184307D01*
G01Y188250D02*
X59900D01*
X60520Y187790D01*
G01X63000D02*
Y188710D01*
G01X59900Y191350D02*
X60003Y191043D01*
X60262Y190813D01*
X60572Y190660D01*
X60985Y190545D01*
X61450Y190507D01*
X61915Y190545D01*
X62328Y190660D01*
X62639Y190813D01*
X62897Y191043D01*
X63000Y191350D01*
X62897Y191657D01*
X62639Y191887D01*
X62328Y192040D01*
X61915Y192155D01*
X61450Y192193D01*
X60985Y192155D01*
X60572Y192040D01*
X60262Y191887D01*
X60003Y191657D01*
X59900Y191350D01*
G01X68000Y157883D02*
X64900D01*
Y158842D01*
X65055Y159148D01*
X65262Y159340D01*
X65675Y159417D01*
X66088Y159340D01*
X66346Y159110D01*
X66502Y158842D01*
Y157883D01*
G01Y158842D02*
X68000Y159417D01*
G01X65417Y161022D02*
X65107Y161252D01*
X64952Y161520D01*
X64900Y161827D01*
X65003Y162210D01*
X65262Y162478D01*
X65572Y162555D01*
X65882Y162517D01*
X66140Y162363D01*
X66657Y161597D01*
X67019Y161252D01*
X67535Y161022D01*
X68000Y160945D01*
Y162555D01*
G01Y164773D02*
X67328Y164850D01*
X66760Y164965D01*
X66243Y165119D01*
X65675Y165310D01*
X64900Y165617D01*
Y164083D01*
G01X72000Y184807D02*
X68900D01*
Y185573D01*
X69055Y185880D01*
X69262Y186110D01*
X69572Y186302D01*
X69933Y186455D01*
X70450Y186493D01*
X70967Y186455D01*
X71328Y186302D01*
X71639Y186110D01*
X71845Y185880D01*
X72000Y185573D01*
Y184807D01*
G01Y188673D02*
X71328Y188750D01*
X70760Y188865D01*
X70243Y189019D01*
X69675Y189210D01*
X68900Y189517D01*
Y187983D01*
G01X78493Y62342D02*
X78263Y62497D01*
X77995Y62600D01*
X77688D01*
X77343Y62445D01*
X77075Y62187D01*
X76883Y61877D01*
X76730Y61360D01*
X76692Y60895D01*
X76769Y60430D01*
X76883Y60120D01*
X77113Y59810D01*
X77381Y59603D01*
X77650Y59500D01*
X77919D01*
X78187Y59603D01*
X78417Y59758D01*
X78608Y59965D01*
G01X79907Y60120D02*
X80137Y59758D01*
X80443Y59552D01*
X80788Y59500D01*
X81095Y59552D01*
X81402Y59810D01*
X81593Y60120D01*
X81631Y60430D01*
X81555Y60792D01*
X81287Y61050D01*
X81019Y61154D01*
X80673D01*
G01X81019D02*
X81248Y61308D01*
X81440Y61567D01*
X81517Y61877D01*
X81440Y62187D01*
X81248Y62445D01*
X80903Y62600D01*
X80558Y62548D01*
X80213Y62342D01*
G01X84310Y59500D02*
Y62600D01*
X82892Y60378D01*
X84808D01*
G01X76883Y54500D02*
Y57600D01*
X77842D01*
X78148Y57445D01*
X78340Y57238D01*
X78417Y56825D01*
X78340Y56412D01*
X78110Y56154D01*
X77842Y55998D01*
X76883D01*
G01X77842D02*
X78417Y54500D01*
G01X79907Y55120D02*
X80137Y54758D01*
X80443Y54552D01*
X80788Y54500D01*
X81095Y54552D01*
X81402Y54810D01*
X81593Y55120D01*
X81631Y55430D01*
X81555Y55792D01*
X81287Y56050D01*
X81019Y56154D01*
X80673D01*
G01X81019D02*
X81248Y56308D01*
X81440Y56567D01*
X81517Y56877D01*
X81440Y57187D01*
X81248Y57445D01*
X80903Y57600D01*
X80558Y57548D01*
X80213Y57342D01*
G01X83198Y54861D02*
X83467Y54603D01*
X83773Y54500D01*
X84080Y54603D01*
X84348Y54913D01*
X84540Y55378D01*
X84617Y55843D01*
Y56412D01*
X84540Y56877D01*
X84348Y57290D01*
X84119Y57497D01*
X83850Y57600D01*
X83543Y57497D01*
X83313Y57290D01*
X83160Y56980D01*
X83083Y56567D01*
X83160Y56205D01*
X83352Y55843D01*
X83581Y55637D01*
X83850Y55585D01*
X84157Y55688D01*
X84387Y55946D01*
X84617Y56412D01*
G01X78493Y75842D02*
X78263Y75997D01*
X77995Y76100D01*
X77688D01*
X77343Y75945D01*
X77075Y75687D01*
X76883Y75377D01*
X76730Y74860D01*
X76692Y74395D01*
X76769Y73930D01*
X76883Y73620D01*
X77113Y73310D01*
X77381Y73103D01*
X77650Y73000D01*
X77919D01*
X78187Y73103D01*
X78417Y73258D01*
X78608Y73465D01*
G01X80022Y75583D02*
X80252Y75893D01*
X80520Y76048D01*
X80827Y76100D01*
X81210Y75997D01*
X81478Y75738D01*
X81555Y75428D01*
X81517Y75118D01*
X81363Y74860D01*
X80597Y74343D01*
X80252Y73981D01*
X80022Y73465D01*
X79945Y73000D01*
X81555D01*
G01X83007Y73465D02*
X83237Y73207D01*
X83505Y73052D01*
X83850Y73000D01*
X84195Y73103D01*
X84463Y73310D01*
X84655Y73672D01*
X84693Y74085D01*
X84617Y74498D01*
X84425Y74757D01*
X84157Y74963D01*
X83888Y75015D01*
X83620Y74963D01*
X83275Y74757D01*
X83390Y76100D01*
X84425D01*
G01X77383Y68500D02*
Y71600D01*
X78342D01*
X78648Y71445D01*
X78840Y71238D01*
X78917Y70825D01*
X78840Y70412D01*
X78610Y70154D01*
X78342Y69998D01*
X77383D01*
G01X78342D02*
X78917Y68500D01*
G01X80522Y71083D02*
X80752Y71393D01*
X81020Y71548D01*
X81327Y71600D01*
X81710Y71497D01*
X81978Y71238D01*
X82055Y70928D01*
X82017Y70618D01*
X81863Y70360D01*
X81097Y69843D01*
X80752Y69481D01*
X80522Y68965D01*
X80445Y68500D01*
X82055D01*
G01X84810D02*
Y71600D01*
X83392Y69378D01*
X85308D01*
G01X77383Y64000D02*
Y67100D01*
X78342D01*
X78648Y66945D01*
X78840Y66738D01*
X78917Y66325D01*
X78840Y65912D01*
X78610Y65654D01*
X78342Y65498D01*
X77383D01*
G01X78342D02*
X78917Y64000D01*
G01X81710D02*
Y67100D01*
X80292Y64878D01*
X82208D01*
G01X84350Y67100D02*
X84043Y66997D01*
X83813Y66738D01*
X83660Y66428D01*
X83545Y66015D01*
X83507Y65550D01*
X83545Y65085D01*
X83660Y64672D01*
X83813Y64361D01*
X84043Y64103D01*
X84350Y64000D01*
X84657Y64103D01*
X84887Y64361D01*
X85040Y64672D01*
X85155Y65085D01*
X85193Y65550D01*
X85155Y66015D01*
X85040Y66428D01*
X84887Y66738D01*
X84657Y66997D01*
X84350Y67100D01*
G01X76883Y77500D02*
Y80600D01*
X77842D01*
X78148Y80445D01*
X78340Y80238D01*
X78417Y79825D01*
X78340Y79412D01*
X78110Y79154D01*
X77842Y78998D01*
X76883D01*
G01X77842D02*
X78417Y77500D01*
G01X80022Y80083D02*
X80252Y80393D01*
X80520Y80548D01*
X80827Y80600D01*
X81210Y80497D01*
X81478Y80238D01*
X81555Y79928D01*
X81517Y79618D01*
X81363Y79360D01*
X80597Y78843D01*
X80252Y78481D01*
X80022Y77965D01*
X79945Y77500D01*
X81555D01*
G01X83007Y78120D02*
X83237Y77758D01*
X83543Y77552D01*
X83888Y77500D01*
X84195Y77552D01*
X84502Y77810D01*
X84693Y78120D01*
X84731Y78430D01*
X84655Y78792D01*
X84387Y79050D01*
X84119Y79154D01*
X83773D01*
G01X84119D02*
X84348Y79308D01*
X84540Y79567D01*
X84617Y79877D01*
X84540Y80187D01*
X84348Y80445D01*
X84003Y80600D01*
X83658Y80548D01*
X83313Y80342D01*
G01X76883Y82500D02*
Y85600D01*
X77842D01*
X78148Y85445D01*
X78340Y85238D01*
X78417Y84825D01*
X78340Y84412D01*
X78110Y84154D01*
X77842Y83998D01*
X76883D01*
G01X77842D02*
X78417Y82500D01*
G01X79907Y83120D02*
X80137Y82758D01*
X80443Y82552D01*
X80788Y82500D01*
X81095Y82552D01*
X81402Y82810D01*
X81593Y83120D01*
X81631Y83430D01*
X81555Y83792D01*
X81287Y84050D01*
X81019Y84154D01*
X80673D01*
G01X81019D02*
X81248Y84308D01*
X81440Y84567D01*
X81517Y84877D01*
X81440Y85187D01*
X81248Y85445D01*
X80903Y85600D01*
X80558Y85548D01*
X80213Y85342D01*
G01X83122Y85083D02*
X83352Y85393D01*
X83620Y85548D01*
X83927Y85600D01*
X84310Y85497D01*
X84578Y85238D01*
X84655Y84928D01*
X84617Y84618D01*
X84463Y84360D01*
X83697Y83843D01*
X83352Y83481D01*
X83122Y82965D01*
X83045Y82500D01*
X84655D01*
G01X78493Y89842D02*
X78263Y89997D01*
X77995Y90100D01*
X77688D01*
X77343Y89945D01*
X77075Y89687D01*
X76883Y89377D01*
X76730Y88860D01*
X76692Y88395D01*
X76769Y87930D01*
X76883Y87620D01*
X77113Y87310D01*
X77381Y87103D01*
X77650Y87000D01*
X77919D01*
X78187Y87103D01*
X78417Y87258D01*
X78608Y87465D01*
G01X79907Y87620D02*
X80137Y87258D01*
X80443Y87052D01*
X80788Y87000D01*
X81095Y87052D01*
X81402Y87310D01*
X81593Y87620D01*
X81631Y87930D01*
X81555Y88292D01*
X81287Y88550D01*
X81019Y88654D01*
X80673D01*
G01X81019D02*
X81248Y88808D01*
X81440Y89067D01*
X81517Y89377D01*
X81440Y89687D01*
X81248Y89945D01*
X80903Y90100D01*
X80558Y90048D01*
X80213Y89842D01*
G01X83122Y89583D02*
X83352Y89893D01*
X83620Y90048D01*
X83927Y90100D01*
X84310Y89997D01*
X84578Y89738D01*
X84655Y89428D01*
X84617Y89118D01*
X84463Y88860D01*
X83697Y88343D01*
X83352Y87981D01*
X83122Y87465D01*
X83045Y87000D01*
X84655D01*
G01X76883Y91500D02*
Y94600D01*
X77842D01*
X78148Y94445D01*
X78340Y94238D01*
X78417Y93825D01*
X78340Y93412D01*
X78110Y93154D01*
X77842Y92998D01*
X76883D01*
G01X77842D02*
X78417Y91500D01*
G01X79907Y92120D02*
X80137Y91758D01*
X80443Y91552D01*
X80788Y91500D01*
X81095Y91552D01*
X81402Y91810D01*
X81593Y92120D01*
X81631Y92430D01*
X81555Y92792D01*
X81287Y93050D01*
X81019Y93154D01*
X80673D01*
G01X81019D02*
X81248Y93308D01*
X81440Y93567D01*
X81517Y93877D01*
X81440Y94187D01*
X81248Y94445D01*
X80903Y94600D01*
X80558Y94548D01*
X80213Y94342D01*
G01X83850Y91500D02*
Y94600D01*
X83390Y93980D01*
G01Y91500D02*
X84310D01*
G01X86000Y158383D02*
X82900D01*
Y159342D01*
X83055Y159648D01*
X83262Y159840D01*
X83675Y159917D01*
X84088Y159840D01*
X84346Y159610D01*
X84502Y159342D01*
Y158383D01*
G01Y159342D02*
X86000Y159917D01*
G01X83417Y161522D02*
X83107Y161752D01*
X82952Y162020D01*
X82900Y162327D01*
X83003Y162710D01*
X83262Y162978D01*
X83572Y163055D01*
X83882Y163017D01*
X84140Y162863D01*
X84657Y162097D01*
X85019Y161752D01*
X85535Y161522D01*
X86000Y161445D01*
Y163055D01*
G01X85535Y164507D02*
X85793Y164737D01*
X85948Y165005D01*
X86000Y165350D01*
X85897Y165695D01*
X85690Y165963D01*
X85328Y166155D01*
X84915Y166193D01*
X84502Y166117D01*
X84243Y165925D01*
X84037Y165657D01*
X83985Y165388D01*
X84037Y165120D01*
X84243Y164775D01*
X82900Y164890D01*
Y165925D01*
G01X77000Y157883D02*
X73900D01*
Y158842D01*
X74055Y159148D01*
X74262Y159340D01*
X74675Y159417D01*
X75088Y159340D01*
X75346Y159110D01*
X75502Y158842D01*
Y157883D01*
G01Y158842D02*
X77000Y159417D01*
G01X74417Y161022D02*
X74107Y161252D01*
X73952Y161520D01*
X73900Y161827D01*
X74003Y162210D01*
X74262Y162478D01*
X74572Y162555D01*
X74882Y162517D01*
X75140Y162363D01*
X75657Y161597D01*
X76019Y161252D01*
X76535Y161022D01*
X77000Y160945D01*
Y162555D01*
G01X75708Y164122D02*
X75346Y164390D01*
X75140Y164620D01*
X75037Y164927D01*
X75140Y165195D01*
X75346Y165387D01*
X75657Y165540D01*
X76019Y165578D01*
X76328Y165540D01*
X76639Y165387D01*
X76897Y165157D01*
X77000Y164888D01*
X76897Y164581D01*
X76587Y164313D01*
X76122Y164160D01*
X75605Y164122D01*
X74933Y164198D01*
X74572Y164313D01*
X74210Y164505D01*
X73952Y164773D01*
X73900Y165042D01*
X74003Y165310D01*
X74262Y165502D01*
G01X79500Y184807D02*
X76400D01*
Y185573D01*
X76555Y185880D01*
X76762Y186110D01*
X77072Y186302D01*
X77433Y186455D01*
X77950Y186493D01*
X78467Y186455D01*
X78828Y186302D01*
X79139Y186110D01*
X79345Y185880D01*
X79500Y185573D01*
Y184807D01*
G01X78208Y188022D02*
X77846Y188290D01*
X77640Y188520D01*
X77537Y188827D01*
X77640Y189095D01*
X77846Y189287D01*
X78157Y189440D01*
X78519Y189478D01*
X78828Y189440D01*
X79139Y189287D01*
X79397Y189057D01*
X79500Y188788D01*
X79397Y188481D01*
X79087Y188213D01*
X78622Y188060D01*
X78105Y188022D01*
X77433Y188098D01*
X77072Y188213D01*
X76710Y188405D01*
X76452Y188673D01*
X76400Y188942D01*
X76503Y189210D01*
X76762Y189402D01*
G01X81400Y191650D02*
X84500D01*
G01X81400Y190769D02*
Y192531D01*
G01X83880Y193907D02*
X84242Y194137D01*
X84448Y194443D01*
X84500Y194788D01*
X84448Y195095D01*
X84190Y195402D01*
X83880Y195593D01*
X83570Y195631D01*
X83208Y195555D01*
X82950Y195287D01*
X82846Y195019D01*
Y194673D01*
G01Y195019D02*
X82692Y195248D01*
X82433Y195440D01*
X82123Y195517D01*
X81813Y195440D01*
X81555Y195248D01*
X81400Y194903D01*
X81452Y194558D01*
X81658Y194213D01*
G01X95000Y158383D02*
X91900D01*
Y159342D01*
X92055Y159648D01*
X92262Y159840D01*
X92675Y159917D01*
X93088Y159840D01*
X93346Y159610D01*
X93502Y159342D01*
Y158383D01*
G01Y159342D02*
X95000Y159917D01*
G01X94380Y161407D02*
X94742Y161637D01*
X94948Y161943D01*
X95000Y162288D01*
X94948Y162595D01*
X94690Y162902D01*
X94380Y163093D01*
X94070Y163131D01*
X93708Y163055D01*
X93450Y162787D01*
X93346Y162519D01*
Y162173D01*
G01Y162519D02*
X93192Y162748D01*
X92933Y162940D01*
X92623Y163017D01*
X92313Y162940D01*
X92055Y162748D01*
X91900Y162403D01*
X91952Y162058D01*
X92158Y161713D01*
G01X95000Y165810D02*
X91900D01*
X94122Y164392D01*
Y166308D01*
G01X87400Y191650D02*
X90500D01*
G01X87400Y190769D02*
Y192531D01*
G01X87917Y194022D02*
X87607Y194252D01*
X87452Y194520D01*
X87400Y194827D01*
X87503Y195210D01*
X87762Y195478D01*
X88072Y195555D01*
X88382Y195517D01*
X88640Y195363D01*
X89157Y194597D01*
X89519Y194252D01*
X90035Y194022D01*
X90500Y193945D01*
Y195555D01*
G01X104900Y7500D02*
Y2500D01*
G01X103443Y7500D02*
X106357D01*
G01X110000Y2500D02*
X109620Y2583D01*
X109240Y2917D01*
X108987Y3500D01*
X108860Y4167D01*
X108987Y4833D01*
X109240Y5417D01*
X109620Y5750D01*
X110000Y5833D01*
X110380Y5750D01*
X110760Y5417D01*
X111013Y4833D01*
X111077Y4167D01*
X111013Y3500D01*
X110760Y2917D01*
X110380Y2583D01*
X110000Y2500D01*
G01X114023Y5833D02*
Y3500D01*
X114277Y2917D01*
X114657Y2583D01*
X115100Y2500D01*
X115543Y2583D01*
X115923Y2917D01*
X116177Y3500D01*
G01Y2500D02*
Y5833D01*
G01X121213Y5417D02*
X120770Y5750D01*
X120390Y5833D01*
X119883Y5667D01*
X119503Y5333D01*
X119250Y4750D01*
X119187Y4167D01*
X119250Y3583D01*
X119503Y3083D01*
X119883Y2667D01*
X120390Y2500D01*
X120833Y2667D01*
X121213Y3000D01*
G01X124223Y2500D02*
Y7500D01*
G01Y5083D02*
X124540Y5500D01*
X124857Y5750D01*
X125363Y5833D01*
X125743Y5750D01*
X126187Y5417D01*
X126377Y4917D01*
Y2500D01*
G01X104133Y11500D02*
X104450Y11000D01*
X104830Y10667D01*
X105273Y10500D01*
X105780Y10667D01*
X106160Y11000D01*
X106540Y11500D01*
X106667Y12167D01*
Y15500D01*
G01X110500Y10500D02*
Y15500D01*
X109740Y14500D01*
G01Y10500D02*
X111260D01*
G01X115600D02*
Y15500D01*
X114840Y14500D01*
G01Y10500D02*
X116360D01*
G01X93900Y191650D02*
X97000D01*
G01X93900Y190769D02*
Y192531D01*
G01X97000Y194750D02*
X93900D01*
X94520Y194290D01*
G01X97000D02*
Y195210D01*
G01X100900Y191650D02*
X104000D01*
G01X100900Y190769D02*
Y192531D01*
G01X104000Y194750D02*
X100900D01*
X101520Y194290D01*
G01X104000D02*
Y195210D01*
G01Y197850D02*
X103948Y198119D01*
X103793Y198425D01*
X103535Y198617D01*
X103173Y198693D01*
X102812Y198617D01*
X102502Y198387D01*
X102346Y198042D01*
Y197658D01*
X102243Y197428D01*
X101985Y197237D01*
X101623Y197160D01*
X101262Y197275D01*
X101003Y197543D01*
X100900Y197850D01*
X101003Y198157D01*
X101262Y198425D01*
X101623Y198540D01*
X101985Y198463D01*
X102243Y198272D01*
X102346Y198042D01*
Y197658D01*
X102502Y197313D01*
X102812Y197083D01*
X103173Y197007D01*
X103535Y197083D01*
X103793Y197275D01*
X103948Y197581D01*
X104000Y197850D01*
G01X107000Y173307D02*
X103900D01*
Y174073D01*
X104055Y174380D01*
X104262Y174610D01*
X104572Y174802D01*
X104933Y174955D01*
X105450Y174993D01*
X105967Y174955D01*
X106328Y174802D01*
X106639Y174610D01*
X106845Y174380D01*
X107000Y174073D01*
Y173307D01*
G01X106535Y176407D02*
X106793Y176637D01*
X106948Y176905D01*
X107000Y177250D01*
X106897Y177595D01*
X106690Y177863D01*
X106328Y178055D01*
X105915Y178093D01*
X105502Y178017D01*
X105243Y177825D01*
X105037Y177557D01*
X104985Y177288D01*
X105037Y177020D01*
X105243Y176675D01*
X103900Y176790D01*
Y177825D01*
G01X112000Y173307D02*
X108900D01*
Y174073D01*
X109055Y174380D01*
X109262Y174610D01*
X109572Y174802D01*
X109933Y174955D01*
X110450Y174993D01*
X110967Y174955D01*
X111328Y174802D01*
X111639Y174610D01*
X111845Y174380D01*
X112000Y174073D01*
Y173307D01*
G01X111639Y176598D02*
X111897Y176867D01*
X112000Y177173D01*
X111897Y177480D01*
X111587Y177748D01*
X111122Y177940D01*
X110657Y178017D01*
X110088D01*
X109623Y177940D01*
X109210Y177748D01*
X109003Y177519D01*
X108900Y177250D01*
X109003Y176943D01*
X109210Y176713D01*
X109520Y176560D01*
X109933Y176483D01*
X110295Y176560D01*
X110657Y176752D01*
X110863Y176981D01*
X110915Y177250D01*
X110812Y177557D01*
X110554Y177787D01*
X110088Y178017D01*
G01X120650Y187100D02*
Y184000D01*
G01X119769Y187100D02*
X121531D01*
G01X123750Y184000D02*
Y187100D01*
X123290Y186480D01*
G01Y184000D02*
X124210D01*
G01X126850Y187100D02*
X126543Y186997D01*
X126313Y186738D01*
X126160Y186428D01*
X126045Y186015D01*
X126007Y185550D01*
X126045Y185085D01*
X126160Y184672D01*
X126313Y184361D01*
X126543Y184103D01*
X126850Y184000D01*
X127157Y184103D01*
X127387Y184361D01*
X127540Y184672D01*
X127655Y185085D01*
X127693Y185550D01*
X127655Y186015D01*
X127540Y186428D01*
X127387Y186738D01*
X127157Y186997D01*
X126850Y187100D01*
G01X131150Y38600D02*
Y35500D01*
G01X130269Y38600D02*
X132031D01*
G01X133522Y36792D02*
X133790Y37154D01*
X134020Y37360D01*
X134327Y37463D01*
X134595Y37360D01*
X134787Y37154D01*
X134940Y36843D01*
X134978Y36481D01*
X134940Y36172D01*
X134787Y35861D01*
X134557Y35603D01*
X134288Y35500D01*
X133981Y35603D01*
X133713Y35913D01*
X133560Y36378D01*
X133522Y36895D01*
X133598Y37567D01*
X133713Y37928D01*
X133905Y38290D01*
X134173Y38548D01*
X134442Y38600D01*
X134710Y38497D01*
X134902Y38238D01*
G01X131150Y50600D02*
Y47500D01*
G01X130269Y50600D02*
X132031D01*
G01X133407Y47965D02*
X133637Y47707D01*
X133905Y47552D01*
X134250Y47500D01*
X134595Y47603D01*
X134863Y47810D01*
X135055Y48172D01*
X135093Y48585D01*
X135017Y48998D01*
X134825Y49257D01*
X134557Y49463D01*
X134288Y49515D01*
X134020Y49463D01*
X133675Y49257D01*
X133790Y50600D01*
X134825D01*
G01X136500Y82367D02*
X131500D01*
Y79833D01*
G01X134833Y76000D02*
X131500D01*
G01X136167D02*
X136250Y76127D01*
X136417D01*
X136500Y76000D01*
X136417Y75873D01*
X136250D01*
X136167Y76000D01*
G01X130250Y71787D02*
X129917Y71343D01*
X129833Y70837D01*
X129917Y70393D01*
X130333Y70013D01*
X130917Y69760D01*
X134833D01*
G01X134167D02*
X134500Y70013D01*
X134750Y70393D01*
X134833Y70837D01*
X134667Y71343D01*
X134333Y71660D01*
X133750Y71913D01*
X133167Y72040D01*
X132667Y71977D01*
X132083Y71723D01*
X131667Y71343D01*
X131500Y70837D01*
X131583Y70457D01*
X131917Y70013D01*
X132250Y69760D01*
G01X131500Y66877D02*
X136500D01*
G01X134083D02*
X134500Y66560D01*
X134750Y66243D01*
X134833Y65737D01*
X134750Y65357D01*
X134417Y64913D01*
X133917Y64723D01*
X131500D01*
G01X136500Y60700D02*
X131500D01*
G01X134833Y61587D02*
Y59813D01*
G01X131667Y120430D02*
X131250Y119923D01*
X131000Y119353D01*
Y118847D01*
X131250Y118340D01*
X131667Y117960D01*
X132250Y117770D01*
X132833Y117896D01*
X133333Y118213D01*
X133667Y118783D01*
X133833Y119543D01*
X134167Y119987D01*
X134750Y120177D01*
X135333Y120050D01*
X135750Y119733D01*
X136000Y119290D01*
Y118847D01*
X135833Y118403D01*
X135417Y118023D01*
G01X133250Y114950D02*
Y112923D01*
X133833Y113113D01*
X134167Y113430D01*
X134333Y113873D01*
X134250Y114317D01*
X134000Y114697D01*
X133417Y114950D01*
X132917Y115077D01*
X132417D01*
X131917Y114950D01*
X131417Y114633D01*
X131083Y114253D01*
X131000Y113810D01*
X131167Y113367D01*
X131667Y112923D01*
G01X131000Y109977D02*
X134333D01*
G01X133500D02*
X133917Y109723D01*
X134250Y109343D01*
X134333Y108837D01*
X134250Y108393D01*
X133917Y108013D01*
X133333Y107823D01*
X131000D01*
G01X131583Y104750D02*
X131250Y104433D01*
X131000Y103990D01*
Y103610D01*
X131167Y103230D01*
X131417Y102977D01*
X131750Y102850D01*
X132250Y102913D01*
X132500Y103167D01*
X133000Y104307D01*
X133583Y104560D01*
X134000Y104433D01*
X134250Y104180D01*
X134333Y103800D01*
X134250Y103420D01*
X134000Y103040D01*
G01X131000Y98700D02*
X131083Y99080D01*
X131417Y99460D01*
X132000Y99713D01*
X132667Y99840D01*
X133333Y99713D01*
X133917Y99460D01*
X134250Y99080D01*
X134333Y98700D01*
X134250Y98320D01*
X133917Y97940D01*
X133333Y97687D01*
X132667Y97623D01*
X132000Y97687D01*
X131417Y97940D01*
X131083Y98320D01*
X131000Y98700D01*
G01Y94487D02*
X134333D01*
G01X133667D02*
X134000Y94170D01*
X134250Y93853D01*
X134333Y93410D01*
X134250Y93093D01*
X134000Y92713D01*
G01X131150Y138100D02*
Y135000D01*
G01X130269Y138100D02*
X132031D01*
G01X133598Y135361D02*
X133867Y135103D01*
X134173Y135000D01*
X134480Y135103D01*
X134748Y135413D01*
X134940Y135878D01*
X135017Y136343D01*
Y136912D01*
X134940Y137377D01*
X134748Y137790D01*
X134519Y137997D01*
X134250Y138100D01*
X133943Y137997D01*
X133713Y137790D01*
X133560Y137480D01*
X133483Y137067D01*
X133560Y136705D01*
X133752Y136343D01*
X133981Y136137D01*
X134250Y136085D01*
X134557Y136188D01*
X134787Y136446D01*
X135017Y136912D01*
G01X135500Y188000D02*
X130500Y187113D01*
X135500Y186100D01*
X130500Y185087D01*
X135500Y184200D01*
G01X128833Y182140D02*
X133833D01*
G01X133083D02*
X133500Y181823D01*
X133750Y181507D01*
X133833Y181000D01*
X133750Y180557D01*
X133333Y180113D01*
X132750Y179923D01*
X132167Y179860D01*
X131583Y179923D01*
X131000Y180113D01*
X130667Y180493D01*
X130500Y181000D01*
X130583Y181443D01*
X130833Y181887D01*
X131167Y182140D01*
G01X133833Y176977D02*
X131500D01*
X130917Y176723D01*
X130583Y176343D01*
X130500Y175900D01*
X130583Y175457D01*
X130917Y175077D01*
X131500Y174823D01*
G01X130500D02*
X133833D01*
G01X130500Y172700D02*
X133833D01*
G01X132917D02*
X133333Y172510D01*
X133667Y172193D01*
X133833Y171750D01*
X133667Y171307D01*
X133333Y170990D01*
X132917Y170800D01*
X130500D01*
G01X132917D02*
X133333Y170610D01*
X133667Y170293D01*
X133833Y169850D01*
X133667Y169407D01*
X133333Y169090D01*
X132833Y168900D01*
X130500D01*
G01X128833Y166840D02*
X133833D01*
G01X133083D02*
X133500Y166523D01*
X133750Y166207D01*
X133833Y165700D01*
X133750Y165257D01*
X133333Y164813D01*
X132750Y164623D01*
X132167Y164560D01*
X131583Y164623D01*
X131000Y164813D01*
X130667Y165193D01*
X130500Y165700D01*
X130583Y166143D01*
X130833Y166587D01*
X131167Y166840D01*
G01X131000Y202367D02*
X130500Y202050D01*
X130167Y201670D01*
X130000Y201227D01*
X130167Y200720D01*
X130500Y200340D01*
X131000Y199960D01*
X131667Y199833D01*
X135000D01*
G01X132083Y197204D02*
X132667Y196760D01*
X133000Y196380D01*
X133167Y195873D01*
X133000Y195430D01*
X132667Y195113D01*
X132167Y194860D01*
X131583Y194796D01*
X131083Y194860D01*
X130583Y195113D01*
X130167Y195493D01*
X130000Y195937D01*
X130167Y196443D01*
X130667Y196887D01*
X131417Y197140D01*
X132250Y197204D01*
X133333Y197077D01*
X133917Y196887D01*
X134500Y196570D01*
X134917Y196127D01*
X135000Y195683D01*
X134833Y195240D01*
X134417Y194923D01*
G01X141633Y22500D02*
X141950Y22000D01*
X142330Y21667D01*
X142773Y21500D01*
X143280Y21667D01*
X143660Y22000D01*
X144040Y22500D01*
X144167Y23167D01*
Y26500D01*
G01X146607Y22500D02*
X146987Y21917D01*
X147493Y21583D01*
X148063Y21500D01*
X148570Y21583D01*
X149077Y22000D01*
X149393Y22500D01*
X149457Y23000D01*
X149330Y23583D01*
X148887Y24000D01*
X148443Y24167D01*
X147873D01*
G01X148443D02*
X148823Y24417D01*
X149140Y24833D01*
X149267Y25333D01*
X149140Y25833D01*
X148823Y26250D01*
X148253Y26500D01*
X147683Y26417D01*
X147113Y26083D01*
G01X143150Y72100D02*
Y69000D01*
G01X142269Y72100D02*
X144031D01*
G01X146710Y69000D02*
Y72100D01*
X145292Y69878D01*
X147208D01*
G01X140633Y138000D02*
X140950Y137500D01*
X141330Y137167D01*
X141773Y137000D01*
X142280Y137167D01*
X142660Y137500D01*
X143040Y138000D01*
X143167Y138667D01*
Y142000D01*
G01X145796Y141167D02*
X146177Y141667D01*
X146620Y141917D01*
X147127Y142000D01*
X147760Y141833D01*
X148204Y141417D01*
X148330Y140917D01*
X148267Y140417D01*
X148013Y140000D01*
X146747Y139167D01*
X146177Y138583D01*
X145796Y137750D01*
X145670Y137000D01*
X148330D01*
G01X151728Y240315D02*
Y243415D01*
X152725Y240831D01*
X153722Y243415D01*
Y240315D01*
G01X155096Y242898D02*
X155326Y243208D01*
X155595Y243363D01*
X155902Y243415D01*
X156285Y243312D01*
X156553Y243053D01*
X156630Y242743D01*
X156591Y242433D01*
X156438Y242175D01*
X155672Y241658D01*
X155326Y241296D01*
X155096Y240780D01*
X155020Y240315D01*
X156630D01*
G01X161570Y2126D02*
Y5226D01*
X162567Y2643D01*
X163564Y5226D01*
Y2126D01*
G01X164824Y2746D02*
X165054Y2384D01*
X165361Y2178D01*
X165706Y2126D01*
X166012Y2178D01*
X166319Y2436D01*
X166511Y2746D01*
X166549Y3056D01*
X166472Y3418D01*
X166204Y3676D01*
X165936Y3780D01*
X165591D01*
G01X165936D02*
X166166Y3934D01*
X166357Y4193D01*
X166434Y4503D01*
X166357Y4813D01*
X166166Y5071D01*
X165820Y5226D01*
X165476Y5174D01*
X165131Y4968D01*
G54D13*
G01X29000Y140780D02*
Y29362D01*
G03X36874Y21488I7874J0D01*
G01X111126D01*
G03X119000Y29362I0J7874D01*
G01Y43142D01*
X129000Y53142D01*
Y140780D01*
G03X113252Y156528I-15748J0D01*
G01X44748D01*
G03X29000Y140780I0J-15748D01*
G01X89118Y24638D02*
Y32512D01*
G03X85181Y36449I-3937J0D01*
G01X69433D01*
G03X65496Y32512I0J-3937D01*
G01Y24638D01*
G54D14*
G01X38500Y223000D02*
X49000D01*
G01X111000Y224000D02*
X121500D01*
G01X116500Y219000D02*
Y229500D01*
M02*
