G04 ================== begin FILE IDENTIFICATION RECORD ==================*
G04 Layout Name:  FishTank-Manage.brd*
G04 Film Name:    SOLDER_BOOTOM*
G04 File Format:  Gerber RS274X*
G04 File Origin:  Cadence Allegro 17.4-S032*
G04 Origin Date:  Mon Jul 31 00:13:20 2023*
G04 *
G04 Layer:  PIN/SOLDERMASK_BOTTOM*
G04 Layer:  PACKAGE GEOMETRY/SOLDERMASK_BOTTOM*
G04 Layer:  BOARD GEOMETRY/SOLDERMASK_BOTTOM*
G04 *
G04 Offset:    (0.0000 0.0000)*
G04 Mirror:    No*
G04 Mode:      Positive*
G04 Rotation:  0*
G04 FullContactRelief:  No*
G04 UndefLineWidth:     0.0000*
G04 ================== end FILE IDENTIFICATION RECORD ====================*
%FSLAX25Y25*MOIN*%
%IR0*IPPOS*OFA0.00000B0.00000*MIA0B0*SFA1.00000B1.00000*%
%ADD16R,.023622X.047244*%
%ADD13R,.047244X.023622*%
%ADD19R,.03937X.037402*%
%ADD20R,.031496X.045276*%
%ADD17R,.037402X.03937*%
%ADD24R,.025591X.060039*%
%ADD29R,.107087X.040157*%
%ADD26R,.086614X.061024*%
%ADD21R,.040157X.107087*%
%ADD30R,.125984X.127953*%
%ADD12C,.043307*%
%ADD25R,.104331X.11811*%
%ADD22C,.051181*%
%ADD10C,.15748*%
%ADD28R,.088583X.124016*%
%ADD27C,.055118*%
%ADD15C,.05315*%
%ADD11R,.043307X.043307*%
%ADD23R,.037402X.035433*%
%ADD18R,.035433X.037402*%
%ADD14R,.05315X.05315*%
%LPD*%
G75*
G54D10*
X11811Y11811D03*
Y224409D03*
X145669Y11811D03*
Y224409D03*
G54D11*
X9000Y31000D03*
X69500Y12500D03*
X144000Y35500D03*
G54D20*
X19000Y84110D03*
Y97890D03*
Y117610D03*
Y131390D03*
G54D12*
X9000Y38874D03*
Y46748D03*
Y54622D03*
X77374Y12500D03*
X93122D03*
X85248D03*
X144000Y43374D03*
Y51248D03*
Y59122D03*
G54D30*
X97500Y169283D03*
Y204717D03*
G54D21*
X17988Y168000D03*
X29012D03*
X48988Y136500D03*
Y148500D03*
X52988Y202000D03*
X60012Y136500D03*
Y148500D03*
X64012Y202000D03*
X75488Y124500D03*
X86512D03*
X112988Y20500D03*
X124012D03*
G54D22*
X24500Y59000D03*
X25000Y88500D03*
X24500Y117000D03*
Y127000D03*
X34000Y57000D03*
Y67000D03*
Y77000D03*
Y87000D03*
Y97000D03*
Y107000D03*
Y117000D03*
Y127000D03*
X43000Y182500D03*
X44000Y57000D03*
Y67000D03*
Y77000D03*
Y87000D03*
Y97000D03*
Y107000D03*
Y117000D03*
Y127000D03*
X82500Y187000D03*
X95500D03*
X89000D03*
X102000D03*
X112898Y57000D03*
Y67000D03*
Y77000D03*
Y87000D03*
Y97000D03*
Y107000D03*
Y117000D03*
Y127000D03*
X122898Y57000D03*
Y67000D03*
Y77000D03*
Y87000D03*
Y97000D03*
Y107000D03*
Y117000D03*
Y127000D03*
X124000Y179500D03*
X132500Y42500D03*
Y54500D03*
X133000Y131000D03*
X144500Y75500D03*
G54D13*
X12500Y64700D03*
Y72200D03*
X5500Y68500D03*
X7000Y144500D03*
X14000Y140700D03*
Y148200D03*
X18000Y183500D03*
Y199500D03*
X25000Y179700D03*
Y187200D03*
Y195700D03*
Y203200D03*
X90000Y106500D03*
X97000Y102700D03*
Y110200D03*
X130000Y154800D03*
Y162300D03*
X137000Y158500D03*
G54D14*
X9000Y88500D03*
Y160000D03*
X100000Y222500D03*
X144500Y88000D03*
Y158500D03*
G54D23*
X25000Y65350D03*
Y71650D03*
X26500Y140850D03*
X32000D03*
X26500Y147150D03*
X32000D03*
X31500Y196350D03*
Y202650D03*
X37500Y180350D03*
Y186650D03*
X70500Y171850D03*
Y178150D03*
Y182350D03*
Y188650D03*
X103500Y103350D03*
Y109650D03*
X97500Y122350D03*
Y128650D03*
X124000Y143350D03*
Y149650D03*
Y155350D03*
Y161650D03*
X135000Y103150D03*
Y96850D03*
X137500Y31350D03*
Y37650D03*
Y43850D03*
Y50150D03*
G54D15*
X9000Y104248D03*
Y96374D03*
Y112122D03*
Y119996D03*
Y127870D03*
Y167874D03*
Y175748D03*
Y183622D03*
Y191496D03*
Y199370D03*
X60630Y222500D03*
X68504D03*
X76378D03*
X84252D03*
X92126D03*
X144500Y103748D03*
Y95874D03*
Y111622D03*
Y119496D03*
Y127370D03*
Y166374D03*
Y174248D03*
Y182122D03*
Y197870D03*
Y189996D03*
G54D24*
X46000Y166823D03*
X51000D03*
Y188177D03*
X46000D03*
X56000Y166823D03*
X61000D03*
Y188177D03*
X56000D03*
X69000Y71823D03*
Y93177D03*
X74000Y71823D03*
X79000D03*
X84000D03*
Y93177D03*
X79000D03*
X74000D03*
G54D25*
X56976Y36000D03*
X79024D03*
G54D16*
X20500Y29000D03*
X16800Y36000D03*
X24300D03*
G54D26*
X61929Y58000D03*
X78071D03*
G54D17*
X17850Y42000D03*
X17350Y111000D03*
X24150Y42000D03*
X23650Y111000D03*
X48850Y158000D03*
X57350Y103000D03*
X63650D03*
X57350Y109000D03*
X63650D03*
X55150Y158000D03*
X57850Y211000D03*
X73850Y103000D03*
X64150Y211000D03*
X80150Y103000D03*
X92850Y83500D03*
Y94500D03*
Y89000D03*
X99150Y83500D03*
Y94500D03*
Y89000D03*
G54D18*
X17850Y53000D03*
Y47500D03*
X18850Y78500D03*
X17350Y105500D03*
X24150Y53000D03*
Y47500D03*
X25150Y78500D03*
X23650Y105500D03*
X92350Y71000D03*
Y66000D03*
X92850Y77500D03*
X98650Y71000D03*
Y66000D03*
X99150Y77500D03*
X130850Y148500D03*
X130350Y168000D03*
X136150Y173500D03*
X129850D03*
X137150Y148500D03*
X136650Y168000D03*
G54D27*
X71031Y114000D03*
X90717D03*
G54D28*
X83917Y143500D03*
X111083D03*
G54D19*
X19000Y65350D03*
Y71650D03*
X20500Y140850D03*
Y147150D03*
X32000Y180350D03*
Y186650D03*
X59000Y78850D03*
Y85150D03*
X103500Y122350D03*
Y128650D03*
X124000Y167350D03*
Y173650D03*
G54D29*
X95000Y46988D03*
Y58012D03*
X130500Y186488D03*
Y197512D03*
M02*
