G04 ================== begin FILE IDENTIFICATION RECORD ==================*
G04 Layout Name:  D:/PCBDesign/FishTank-Manage/PCB/FishTank-Manage.brd*
G04 Film Name:    SOLDER_TOP*
G04 File Format:  Gerber RS274X*
G04 File Origin:  Cadence Allegro 17.4-S032*
G04 Origin Date:  Sun Jun  4 03:04:41 2023*
G04 *
G04 Layer:  PIN/SOLDERMASK_TOP*
G04 Layer:  PACKAGE GEOMETRY/SOLDERMASK_TOP*
G04 Layer:  BOARD GEOMETRY/SOLDERMASK_TOP*
G04 *
G04 Offset:    (0.0000 0.0000)*
G04 Mirror:    No*
G04 Mode:      Positive*
G04 Rotation:  0*
G04 FullContactRelief:  No*
G04 UndefLineWidth:     0.0000*
G04 ================== end FILE IDENTIFICATION RECORD ====================*
%FSLAX25Y25*MOMM*%
%IR0*IPPOS*OFA0.00000B0.00000*MIA0B0*SFA1.00000B1.00000*%
%ADD12R,1.4X.85*%
%ADD14C,1.1*%
%ADD13C,1.3*%
%ADD10C,4.*%
%ADD18C,1.4*%
%ADD16C,1.35*%
%ADD15R,1.1X1.1*%
%ADD11R,.95X.9*%
%ADD17R,1.35X1.35*%
%LPD*%
G75*
G54D10*
X300000Y300000D03*
Y5700000D03*
X3700000Y300000D03*
Y5700000D03*
G54D11*
X200000Y720000D03*
Y880000D03*
X450000Y720000D03*
Y880000D03*
X700000Y720000D03*
Y880000D03*
G54D12*
X200000Y1305000D03*
Y1095000D03*
X450000Y1305000D03*
Y1095000D03*
X700000Y1305000D03*
Y1095000D03*
G54D13*
X196000Y1490000D03*
X450000D03*
X336500Y3447000D03*
X346000Y3637500D03*
X696000Y1486000D03*
X750000Y4000000D03*
Y4250000D03*
X1111000Y695000D03*
Y949000D03*
Y1203000D03*
Y1457000D03*
Y1711000D03*
Y1965000D03*
Y2219000D03*
Y2473000D03*
Y2727000D03*
Y2981000D03*
Y3235000D03*
Y3489000D03*
Y3743000D03*
Y3997000D03*
Y4251000D03*
Y4505000D03*
X2889000Y695000D03*
Y949000D03*
Y1203000D03*
Y1457000D03*
Y1711000D03*
Y1965000D03*
Y2219000D03*
Y2473000D03*
Y2727000D03*
Y2981000D03*
Y3235000D03*
Y3489000D03*
Y3743000D03*
Y3997000D03*
Y4251000D03*
Y4505000D03*
X3150000Y500000D03*
Y700000D03*
Y1100000D03*
Y900000D03*
X3213100Y5435600D03*
X3403600Y3505200D03*
X3225800D03*
G54D14*
X334000Y2474000D03*
Y2674000D03*
Y2874000D03*
X3664000Y1102000D03*
Y1302000D03*
Y1502000D03*
G54D15*
X334000Y3074000D03*
X3664000Y902000D03*
G54D16*
X350000Y4050000D03*
Y4250000D03*
Y4450000D03*
Y4650000D03*
Y4850000D03*
X1600000Y5650000D03*
X1800000D03*
X2000000D03*
X2200000D03*
X2400000D03*
X3650000Y2500000D03*
Y2900000D03*
Y2700000D03*
Y3100000D03*
Y3300000D03*
Y4150000D03*
Y4350000D03*
Y4750000D03*
Y4550000D03*
Y4950000D03*
G54D17*
X350000Y5050000D03*
X2600000Y5650000D03*
X3650000Y2300000D03*
Y3950000D03*
G54D18*
X1950000Y4150000D03*
Y4650000D03*
M02*
