G04 ================== begin FILE IDENTIFICATION RECORD ==================*
G04 Layout Name:  D:/PCBDesign/FishTank-Manage/PCB/FishTank-Manage.brd*
G04 Film Name:    SOLDER_BOOTOM*
G04 File Format:  Gerber RS274X*
G04 File Origin:  Cadence Allegro 17.4-S032*
G04 Origin Date:  Sun Jun  4 03:04:41 2023*
G04 *
G04 Layer:  PIN/SOLDERMASK_BOTTOM*
G04 Layer:  PACKAGE GEOMETRY/SOLDERMASK_BOTTOM*
G04 Layer:  BOARD GEOMETRY/SOLDERMASK_BOTTOM*
G04 *
G04 Offset:    (0.0000 0.0000)*
G04 Mirror:    No*
G04 Mode:      Positive*
G04 Rotation:  0*
G04 FullContactRelief:  No*
G04 UndefLineWidth:     0.0000*
G04 ================== end FILE IDENTIFICATION RECORD ====================*
%FSLAX25Y25*MOMM*%
%IR0*IPPOS*OFA0.00000B0.00000*MIA0B0*SFA1.00000B1.00000*%
%ADD18R,.6X1.2*%
%ADD27R,1.15X.8*%
%ADD20R,1.X.95*%
%ADD13R,.95X1.*%
%ADD23R,.65X1.525*%
%ADD21R,2.72X1.02*%
%ADD24R,2.2X1.55*%
%ADD22R,1.02X2.72*%
%ADD25R,3.X2.65*%
%ADD12C,1.1*%
%ADD11C,1.3*%
%ADD10C,4.*%
%ADD26C,1.4*%
%ADD15C,1.35*%
%ADD14R,1.1X1.1*%
%ADD19R,.95X.9*%
%ADD17R,.9X.95*%
%ADD16R,1.35X1.35*%
%LPD*%
G75*
G54D10*
X300000Y300000D03*
Y5700000D03*
X3700000Y300000D03*
Y5700000D03*
G54D11*
X196000Y1490000D03*
X450000D03*
X336500Y3447000D03*
X346000Y3637500D03*
X696000Y1486000D03*
X750000Y4000000D03*
Y4250000D03*
X1111000Y695000D03*
Y949000D03*
Y1203000D03*
Y1457000D03*
Y1711000D03*
Y1965000D03*
Y2219000D03*
Y2473000D03*
Y2727000D03*
Y2981000D03*
Y3235000D03*
Y3489000D03*
Y3743000D03*
Y3997000D03*
Y4251000D03*
Y4505000D03*
X2889000Y695000D03*
Y949000D03*
Y1203000D03*
Y1457000D03*
Y1711000D03*
Y1965000D03*
Y2219000D03*
Y2473000D03*
Y2727000D03*
Y2981000D03*
Y3235000D03*
Y3489000D03*
Y3743000D03*
Y3997000D03*
Y4251000D03*
Y4505000D03*
X3150000Y500000D03*
Y700000D03*
Y1100000D03*
Y900000D03*
X3213100Y5435600D03*
X3403600Y3505200D03*
X3225800D03*
G54D20*
X800000Y3630000D03*
Y3470000D03*
X900000Y5020000D03*
Y5180000D03*
X2650000Y1720000D03*
Y1880000D03*
Y2070000D03*
Y2230000D03*
G54D12*
X334000Y2474000D03*
Y2674000D03*
Y2874000D03*
X3664000Y1102000D03*
Y1302000D03*
Y1502000D03*
G54D21*
X1450000Y1110000D03*
Y1390000D03*
G54D22*
X1403500Y2218500D03*
Y2568500D03*
Y2918500D03*
Y3268500D03*
Y3618500D03*
X1683500Y2218500D03*
Y2568500D03*
Y2918500D03*
Y3268500D03*
Y3618500D03*
X3085800Y4546600D03*
Y4876800D03*
X3365800Y4546600D03*
Y4876800D03*
X3560000Y1750000D03*
X3840000D03*
G54D13*
X570000Y2550000D03*
X730000D03*
X1520200Y1651000D03*
X1720000Y1100000D03*
X1880000D03*
X1720000Y1250000D03*
X1880000D03*
X1720000Y1400000D03*
X1880000D03*
X1680200Y1651000D03*
X2270000Y1450000D03*
X2430000D03*
X2520000Y3900000D03*
X2680000D03*
X3120000Y2100000D03*
Y2750000D03*
X3280000Y2100000D03*
Y2750000D03*
G54D14*
X334000Y3074000D03*
X3664000Y902000D03*
G54D23*
X2009500Y1778800D03*
Y2321200D03*
X2136500Y1778800D03*
X2263500D03*
X2390500D03*
Y2321200D03*
X2263500D03*
X2136500D03*
G54D15*
X350000Y4050000D03*
Y4250000D03*
Y4450000D03*
Y4650000D03*
Y4850000D03*
X1600000Y5650000D03*
X1800000D03*
X2000000D03*
X2200000D03*
X2400000D03*
X3650000Y2500000D03*
Y2900000D03*
Y2700000D03*
Y3100000D03*
Y3300000D03*
Y4150000D03*
Y4350000D03*
Y4750000D03*
Y4550000D03*
Y4950000D03*
G54D24*
X1995000Y2650000D03*
X2405000D03*
G54D16*
X350000Y5050000D03*
X2600000Y5650000D03*
X3650000Y2300000D03*
Y3950000D03*
G54D25*
X2200000Y3070000D03*
Y3630000D03*
G54D17*
X730000Y2750000D03*
X570000D03*
X1520200Y1803400D03*
X1520000Y1950000D03*
X1680200Y1803400D03*
X1680000Y1950000D03*
X1870000Y5350000D03*
X2030000D03*
X2520000Y4100000D03*
Y4300000D03*
X2680000Y4100000D03*
Y4300000D03*
X3120000Y1800000D03*
Y1950000D03*
Y2600000D03*
Y2900000D03*
X3280000Y1800000D03*
Y1950000D03*
Y2600000D03*
Y2900000D03*
G54D26*
X1950000Y4150000D03*
Y4650000D03*
G54D27*
X3475000Y2100000D03*
X3825000D03*
G54D18*
X553480Y2911100D03*
X743980D03*
X650000Y3088900D03*
X1856020Y5188900D03*
X1950000Y5011100D03*
X2046520Y5188900D03*
X3103480Y2261100D03*
Y3061100D03*
X3293980Y2261100D03*
X3200000Y2438900D03*
X3293980Y3061100D03*
X3200000Y3238900D03*
X3556020Y3688900D03*
X3650000Y3511100D03*
X3746520Y3688900D03*
G54D19*
X600000Y3630000D03*
Y3470000D03*
X700000Y4670000D03*
Y5020000D03*
Y4830000D03*
Y5180000D03*
X900000Y2820000D03*
Y2980000D03*
X2650000Y1370000D03*
Y1530000D03*
X3100000Y3720000D03*
Y3880000D03*
Y4230000D03*
Y4070000D03*
X3340100Y1113800D03*
Y1273800D03*
X3300000Y3720000D03*
Y3880000D03*
Y4070000D03*
Y4230000D03*
X3505200Y1113800D03*
Y1273800D03*
M02*
