G04 ================== begin FILE IDENTIFICATION RECORD ==================*
G04 Layout Name:  FishTank-Manage.brd*
G04 Film Name:    SOLDER_TOP*
G04 File Format:  Gerber RS274X*
G04 File Origin:  Cadence Allegro 17.4-S032*
G04 Origin Date:  Mon Jul 31 00:13:20 2023*
G04 *
G04 Layer:  PIN/SOLDERMASK_TOP*
G04 Layer:  PACKAGE GEOMETRY/SOLDERMASK_TOP*
G04 Layer:  BOARD GEOMETRY/SOLDERMASK_TOP*
G04 *
G04 Offset:    (0.0000 0.0000)*
G04 Mirror:    No*
G04 Mode:      Positive*
G04 Rotation:  0*
G04 FullContactRelief:  No*
G04 UndefLineWidth:     0.0000*
G04 ================== end FILE IDENTIFICATION RECORD ====================*
%FSLAX25Y25*MOIN*%
%IR0*IPPOS*OFA0.00000B0.00000*MIA0B0*SFA1.00000B1.00000*%
%ADD19R,.037402X.03937*%
%ADD17R,.055118X.033465*%
%ADD12C,.043307*%
%ADD15C,.051181*%
%ADD10C,.15748*%
%ADD18C,.055118*%
%ADD14C,.05315*%
%ADD11R,.043307X.043307*%
%ADD16R,.037402X.035433*%
%ADD20R,.035433X.037402*%
%ADD13R,.05315X.05315*%
%LPD*%
G75*
G54D10*
X11811Y11811D03*
Y224409D03*
X145669Y11811D03*
Y224409D03*
G54D20*
X88350Y56000D03*
X94650D03*
Y70000D03*
X88350D03*
X94650Y65000D03*
X88350D03*
Y79000D03*
X94650D03*
Y84000D03*
X88350D03*
Y93500D03*
X94650D03*
G54D11*
X9000Y31000D03*
X69500Y12500D03*
X144000Y35500D03*
G54D12*
X9000Y38874D03*
Y46748D03*
Y54622D03*
X77374Y12500D03*
X93122D03*
X85248D03*
X144000Y43374D03*
Y51248D03*
Y59122D03*
G54D13*
X9000Y88500D03*
Y160000D03*
X100000Y222500D03*
X144500Y88000D03*
Y158500D03*
G54D14*
X9000Y104248D03*
Y96374D03*
Y112122D03*
Y119996D03*
Y127870D03*
Y167874D03*
Y175748D03*
Y183622D03*
Y191496D03*
Y199370D03*
X60630Y222500D03*
X68504D03*
X76378D03*
X84252D03*
X92126D03*
X144500Y103748D03*
Y95874D03*
Y111622D03*
Y119496D03*
Y127370D03*
Y166374D03*
Y174248D03*
Y182122D03*
Y197870D03*
Y189996D03*
G54D15*
X24500Y59000D03*
X25000Y88500D03*
X24500Y117000D03*
Y127000D03*
X34000Y57000D03*
Y67000D03*
Y77000D03*
Y87000D03*
Y97000D03*
Y107000D03*
Y117000D03*
Y127000D03*
X43000Y182500D03*
X44000Y57000D03*
Y67000D03*
Y77000D03*
Y87000D03*
Y97000D03*
Y107000D03*
Y117000D03*
Y127000D03*
X82500Y187000D03*
X95500D03*
X89000D03*
X102000D03*
X112898Y57000D03*
Y67000D03*
Y77000D03*
Y87000D03*
Y97000D03*
Y107000D03*
Y117000D03*
Y127000D03*
X122898Y57000D03*
Y67000D03*
Y77000D03*
Y87000D03*
Y97000D03*
Y107000D03*
Y117000D03*
Y127000D03*
X124000Y179500D03*
X132500Y42500D03*
Y54500D03*
X133000Y131000D03*
X144500Y75500D03*
G54D16*
X61500Y165150D03*
Y158850D03*
X70500Y165150D03*
Y158850D03*
X79500Y165150D03*
Y158850D03*
X88500Y165150D03*
Y158850D03*
X97500Y165650D03*
Y159350D03*
G54D17*
X61500Y172366D03*
Y180634D03*
X70500Y172366D03*
Y180634D03*
X79500Y172366D03*
Y180634D03*
X88500Y172366D03*
Y180634D03*
X97500Y172366D03*
Y180634D03*
G54D18*
X71031Y114000D03*
X90717D03*
G54D19*
X88350Y60500D03*
X94650D03*
X88350Y74500D03*
X94650D03*
X88350Y88500D03*
X94650D03*
M02*
